M48
; DRILL file {KiCad 7.0.1-0} date 2023 April 21, Friday 07:07:18
; FORMAT={-:-/ absolute / inch / decimal}
; #@! TF.CreationDate,2023-04-21T07:07:18-06:00
; #@! TF.GenerationSoftware,Kicad,Pcbnew,7.0.1-0
; #@! TF.FileFunction,Plated,1,2,PTH
FMAT,2
INCH
; #@! TA.AperFunction,Plated,PTH,ViaDrill
T1C0.0157
; #@! TA.AperFunction,Plated,PTH,ComponentDrill
T2C0.0394
%
G90
G05
T1
X3.3053Y-3.1169
X3.5316Y-3.2342
X3.532Y-3.3268
X3.5731Y-3.0179
X3.6383Y-2.5606
X3.72Y-1.49
X3.7202Y-3.2747
X3.79Y-1.44
X3.85Y-1.82
X3.8749Y-3.3592
X3.89Y-1.23
X3.89Y-1.85
X3.93Y-1.3
X3.97Y-1.39
X3.97Y-2.6
X4.0Y-2.68
X4.01Y-1.27
X4.0217Y-2.2257
X4.08Y-1.82
X4.08Y-3.39
X4.09Y-1.25
X4.1Y-2.87
X4.1Y-3.43
X4.1241Y-2.3545
X4.14Y-2.49
X4.15Y-1.31
X4.15Y-3.32
X4.16Y-2.93
X4.17Y-1.24
X4.17Y-2.27
X4.17Y-2.34
X4.22Y-1.83
X4.22Y-2.52
X4.23Y-2.58
X4.2511Y-2.3668
X4.2742Y-3.2642
X4.3Y-2.58
X4.33Y-2.4885
X4.33Y-2.52
X4.34Y-3.08
X4.3422Y-2.9
X4.3428Y-2.9663
X4.3435Y-2.8001
X4.36Y-1.35
X4.3643Y-2.6835
X4.37Y-1.44
X4.39Y-1.68
X4.43Y-3.16
X4.45Y-1.35
X4.46Y-1.26
X4.49Y-1.44
X4.49Y-1.7
X4.5195Y-2.67
X4.5621Y-2.8986
X4.58Y-3.79
X4.6069Y-2.571
X4.6145Y-2.7525
X4.6417Y-3.3259
X4.6775Y-3.1078
X4.6886Y-3.5418
X4.6951Y-3.6134
X4.8197Y-3.3871
X4.8337Y-3.4567
X4.8626Y-2.7522
X4.89Y-3.36
X4.8944Y-3.24
X4.92Y-3.21
X4.92Y-3.39
X4.9592Y-2.6681
X4.9632Y-2.7432
X4.9641Y-3.115
X5.0044Y-2.7989
X5.0044Y-2.8304
X5.0044Y-2.8619
X5.02Y-2.42
X5.0676Y-3.1184
X5.08Y-2.71
X5.08Y-2.76
X5.08Y-2.81
X5.1Y-2.43
X5.12Y-2.5
X5.12Y-2.68
X5.12Y-2.77
X5.15Y-2.63
X5.15Y-2.73
X5.2Y-2.69
X5.67Y-3.0
X5.6819Y-3.5755
X5.9006Y-2.2965
X5.903Y-2.206
T2
X3.39Y-3.58
X3.39Y-3.68
X3.49Y-3.58
X3.49Y-3.68
X3.59Y-3.58
X3.59Y-3.68
X3.69Y-3.58
X3.69Y-3.68
X3.8524Y-1.1606
X3.8524Y-1.7606
X3.9524Y-1.1606
X3.9524Y-1.7606
X3.9694Y-3.5408
X3.9694Y-3.6408
X4.0524Y-1.1606
X4.0524Y-1.7606
X4.0694Y-3.5408
X4.0694Y-3.6408
X4.1524Y-1.1606
X4.1524Y-1.7606
X4.1694Y-3.5408
X4.1694Y-3.6408
X4.2524Y-1.1606
X4.2524Y-1.7606
X4.3524Y-1.1606
X4.3524Y-1.7606
X5.6Y-1.41
X5.8992Y-1.41
T0
M30
