%TF.GenerationSoftware,KiCad,Pcbnew,7.0.1-0*%
%TF.CreationDate,2023-04-21T07:07:00-06:00*%
%TF.ProjectId,PhaseB_Prototype,50686173-6542-45f5-9072-6f746f747970,rev?*%
%TF.SameCoordinates,Original*%
%TF.FileFunction,Paste,Top*%
%TF.FilePolarity,Positive*%
%FSLAX46Y46*%
G04 Gerber Fmt 4.6, Leading zero omitted, Abs format (unit mm)*
G04 Created by KiCad (PCBNEW 7.0.1-0) date 2023-04-21 07:07:00*
%MOMM*%
%LPD*%
G01*
G04 APERTURE LIST*
G04 Aperture macros list*
%AMRoundRect*
0 Rectangle with rounded corners*
0 $1 Rounding radius*
0 $2 $3 $4 $5 $6 $7 $8 $9 X,Y pos of 4 corners*
0 Add a 4 corners polygon primitive as box body*
4,1,4,$2,$3,$4,$5,$6,$7,$8,$9,$2,$3,0*
0 Add four circle primitives for the rounded corners*
1,1,$1+$1,$2,$3*
1,1,$1+$1,$4,$5*
1,1,$1+$1,$6,$7*
1,1,$1+$1,$8,$9*
0 Add four rect primitives between the rounded corners*
20,1,$1+$1,$2,$3,$4,$5,0*
20,1,$1+$1,$4,$5,$6,$7,0*
20,1,$1+$1,$6,$7,$8,$9,0*
20,1,$1+$1,$8,$9,$2,$3,0*%
G04 Aperture macros list end*
%ADD10RoundRect,0.200000X0.200000X0.275000X-0.200000X0.275000X-0.200000X-0.275000X0.200000X-0.275000X0*%
%ADD11RoundRect,0.225000X0.250000X-0.225000X0.250000X0.225000X-0.250000X0.225000X-0.250000X-0.225000X0*%
%ADD12RoundRect,0.225000X0.225000X0.250000X-0.225000X0.250000X-0.225000X-0.250000X0.225000X-0.250000X0*%
%ADD13RoundRect,0.225000X-0.225000X-0.250000X0.225000X-0.250000X0.225000X0.250000X-0.225000X0.250000X0*%
%ADD14RoundRect,0.250000X0.450000X-0.262500X0.450000X0.262500X-0.450000X0.262500X-0.450000X-0.262500X0*%
%ADD15RoundRect,0.243750X0.243750X0.456250X-0.243750X0.456250X-0.243750X-0.456250X0.243750X-0.456250X0*%
%ADD16RoundRect,0.250000X-0.262500X-0.450000X0.262500X-0.450000X0.262500X0.450000X-0.262500X0.450000X0*%
%ADD17RoundRect,0.150000X-0.512500X-0.150000X0.512500X-0.150000X0.512500X0.150000X-0.512500X0.150000X0*%
%ADD18RoundRect,0.150000X-0.150000X0.512500X-0.150000X-0.512500X0.150000X-0.512500X0.150000X0.512500X0*%
%ADD19R,2.000000X1.500000*%
%ADD20RoundRect,0.100000X-0.100000X0.637500X-0.100000X-0.637500X0.100000X-0.637500X0.100000X0.637500X0*%
%ADD21RoundRect,0.250000X0.250000X0.475000X-0.250000X0.475000X-0.250000X-0.475000X0.250000X-0.475000X0*%
%ADD22RoundRect,0.200000X-0.200000X-0.275000X0.200000X-0.275000X0.200000X0.275000X-0.200000X0.275000X0*%
%ADD23RoundRect,0.225000X-0.250000X0.225000X-0.250000X-0.225000X0.250000X-0.225000X0.250000X0.225000X0*%
%ADD24R,1.500000X0.550000*%
%ADD25R,0.550000X1.500000*%
%ADD26RoundRect,0.200000X0.275000X-0.200000X0.275000X0.200000X-0.275000X0.200000X-0.275000X-0.200000X0*%
%ADD27R,1.200000X1.400000*%
%ADD28RoundRect,0.250000X-0.312500X-1.450000X0.312500X-1.450000X0.312500X1.450000X-0.312500X1.450000X0*%
%ADD29R,1.000000X0.700000*%
%ADD30R,2.000000X0.500000*%
%ADD31R,1.700000X2.000000*%
G04 APERTURE END LIST*
D10*
%TO.C,R14*%
X91249000Y-67818000D03*
X89599000Y-67818000D03*
%TD*%
D11*
%TO.C,C15*%
X107966820Y-61092142D03*
X107966820Y-62642142D03*
%TD*%
D12*
%TO.C,C2*%
X121635189Y-91780601D03*
X120085189Y-91780601D03*
%TD*%
D13*
%TO.C,C1*%
X120053441Y-85988865D03*
X121603441Y-85988865D03*
%TD*%
D14*
%TO.C,R5*%
X111506000Y-48006000D03*
X111506000Y-49831000D03*
%TD*%
D15*
%TO.C,D3*%
X91440000Y-65024000D03*
X89565000Y-65024000D03*
%TD*%
D14*
%TO.C,R12*%
X96774000Y-48109500D03*
X96774000Y-49934500D03*
%TD*%
D10*
%TO.C,R16*%
X88709000Y-75710000D03*
X87059000Y-75710000D03*
%TD*%
D16*
%TO.C,R3*%
X143247085Y-56033813D03*
X145072085Y-56033813D03*
%TD*%
D17*
%TO.C,U4*%
X91783751Y-75721955D03*
X91783751Y-76671955D03*
X91783751Y-77621955D03*
X94058751Y-77621955D03*
X94058751Y-76671955D03*
X94058751Y-75721955D03*
%TD*%
D18*
%TO.C,U5*%
X95438000Y-82174500D03*
X94488000Y-82174500D03*
X93538000Y-82174500D03*
X93538000Y-84449500D03*
X95438000Y-84449500D03*
%TD*%
D14*
%TO.C,R10*%
X100838000Y-48109500D03*
X100838000Y-49934500D03*
%TD*%
D19*
%TO.C,S1*%
X161582000Y-90638000D03*
X147282000Y-90638000D03*
X161582000Y-85638000D03*
X147282000Y-85638000D03*
%TD*%
D20*
%TO.C,U2*%
X106669000Y-61028500D03*
X106019000Y-61028500D03*
X105369000Y-61028500D03*
X104719000Y-61028500D03*
X104069000Y-61028500D03*
X103419000Y-61028500D03*
X102769000Y-61028500D03*
X102119000Y-61028500D03*
X102119000Y-55303500D03*
X102769000Y-55303500D03*
X103419000Y-55303500D03*
X104069000Y-55303500D03*
X104719000Y-55303500D03*
X105369000Y-55303500D03*
X106019000Y-55303500D03*
X106669000Y-55303500D03*
%TD*%
D21*
%TO.C,C4*%
X112778369Y-69342000D03*
X110878369Y-69342000D03*
%TD*%
D13*
%TO.C,C3*%
X124413154Y-66874511D03*
X125963154Y-66874511D03*
%TD*%
D14*
%TO.C,R6*%
X109220000Y-48006000D03*
X109220000Y-49831000D03*
%TD*%
D22*
%TO.C,R13*%
X116269000Y-91694000D03*
X117919000Y-91694000D03*
%TD*%
D23*
%TO.C,C8*%
X127880856Y-79215952D03*
X127880856Y-77665952D03*
%TD*%
D12*
%TO.C,C10*%
X112789000Y-73660000D03*
X111239000Y-73660000D03*
%TD*%
D15*
%TO.C,D2*%
X148895000Y-58310000D03*
X147020000Y-58310000D03*
%TD*%
D11*
%TO.C,C11*%
X117852224Y-66859263D03*
X117852224Y-65309263D03*
%TD*%
D12*
%TO.C,C7*%
X112768199Y-75315721D03*
X111218199Y-75315721D03*
%TD*%
D24*
%TO.C,U3*%
X114660000Y-70420000D03*
X114660000Y-71220000D03*
X114660000Y-72020000D03*
X114660000Y-72820000D03*
X114660000Y-73620000D03*
X114660000Y-74420000D03*
X114660000Y-75220000D03*
X114660000Y-76020000D03*
X114660000Y-76820000D03*
X114660000Y-77620000D03*
X114660000Y-78420000D03*
D25*
X116360000Y-80120000D03*
X117160000Y-80120000D03*
X117960000Y-80120000D03*
X118760000Y-80120000D03*
X119560000Y-80120000D03*
X120360000Y-80120000D03*
X121160000Y-80120000D03*
X121960000Y-80120000D03*
X122760000Y-80120000D03*
X123560000Y-80120000D03*
X124360000Y-80120000D03*
D24*
X126060000Y-78420000D03*
X126060000Y-77620000D03*
X126060000Y-76820000D03*
X126060000Y-76020000D03*
X126060000Y-75220000D03*
X126060000Y-74420000D03*
X126060000Y-73620000D03*
X126060000Y-72820000D03*
X126060000Y-72020000D03*
X126060000Y-71220000D03*
X126060000Y-70420000D03*
D25*
X124360000Y-68720000D03*
X123560000Y-68720000D03*
X122760000Y-68720000D03*
X121960000Y-68720000D03*
X121160000Y-68720000D03*
X120360000Y-68720000D03*
X119560000Y-68720000D03*
X118760000Y-68720000D03*
X117960000Y-68720000D03*
X117160000Y-68720000D03*
X116360000Y-68720000D03*
%TD*%
D26*
%TO.C,R1*%
X143510000Y-90806000D03*
X143510000Y-92456000D03*
%TD*%
D15*
%TO.C,D1*%
X148973500Y-56024000D03*
X147098500Y-56024000D03*
%TD*%
D12*
%TO.C,C12*%
X92054805Y-84476254D03*
X90504805Y-84476254D03*
%TD*%
D14*
%TO.C,R9*%
X102870000Y-48109500D03*
X102870000Y-49934500D03*
%TD*%
D27*
%TO.C,Y1*%
X121754000Y-90000000D03*
X121754000Y-87800000D03*
X120054000Y-87800000D03*
X120054000Y-90000000D03*
%TD*%
D13*
%TO.C,C14*%
X96900048Y-84493218D03*
X98450048Y-84493218D03*
%TD*%
D12*
%TO.C,C13*%
X92065448Y-82152253D03*
X90515448Y-82152253D03*
%TD*%
D16*
%TO.C,R4*%
X143264647Y-58354301D03*
X145089647Y-58354301D03*
%TD*%
D26*
%TO.C,R2*%
X143217601Y-77846693D03*
X143217601Y-76196693D03*
%TD*%
%TO.C,R17*%
X83490000Y-90859000D03*
X83490000Y-92509000D03*
%TD*%
D23*
%TO.C,C9*%
X117910193Y-82101325D03*
X117910193Y-83651325D03*
%TD*%
D28*
%TO.C,F1*%
X87016500Y-71374000D03*
X91291500Y-71374000D03*
%TD*%
D12*
%TO.C,C6*%
X112789000Y-71120000D03*
X111239000Y-71120000D03*
%TD*%
D14*
%TO.C,R11*%
X98806000Y-48109500D03*
X98806000Y-49934500D03*
%TD*%
D29*
%TO.C,S3*%
X110379500Y-93400000D03*
X116379500Y-93400000D03*
X110379500Y-97100000D03*
X116379500Y-97100000D03*
%TD*%
D30*
%TO.C,J1*%
X83980000Y-75362000D03*
X83980000Y-76162000D03*
X83980000Y-76962000D03*
X83980000Y-77762000D03*
X83980000Y-78562000D03*
D31*
X83880000Y-72512000D03*
X78430000Y-72512000D03*
X83880000Y-81412000D03*
X78430000Y-81412000D03*
%TD*%
D10*
%TO.C,R15*%
X88709000Y-77597494D03*
X87059000Y-77597494D03*
%TD*%
D12*
%TO.C,C5*%
X116345000Y-66842000D03*
X114795000Y-66842000D03*
%TD*%
D14*
%TO.C,R7*%
X106934000Y-48109500D03*
X106934000Y-49934500D03*
%TD*%
%TO.C,R8*%
X104902000Y-48109500D03*
X104902000Y-49934500D03*
%TD*%
D19*
%TO.C,S2*%
X161582000Y-76160000D03*
X147282000Y-76160000D03*
X161582000Y-71160000D03*
X147282000Y-71160000D03*
%TD*%
M02*
