%TF.GenerationSoftware,KiCad,Pcbnew,7.0.1-0*%
%TF.CreationDate,2023-04-21T07:07:00-06:00*%
%TF.ProjectId,PhaseB_Prototype,50686173-6542-45f5-9072-6f746f747970,rev?*%
%TF.SameCoordinates,Original*%
%TF.FileFunction,Copper,L1,Top*%
%TF.FilePolarity,Positive*%
%FSLAX46Y46*%
G04 Gerber Fmt 4.6, Leading zero omitted, Abs format (unit mm)*
G04 Created by KiCad (PCBNEW 7.0.1-0) date 2023-04-21 07:07:00*
%MOMM*%
%LPD*%
G01*
G04 APERTURE LIST*
G04 Aperture macros list*
%AMRoundRect*
0 Rectangle with rounded corners*
0 $1 Rounding radius*
0 $2 $3 $4 $5 $6 $7 $8 $9 X,Y pos of 4 corners*
0 Add a 4 corners polygon primitive as box body*
4,1,4,$2,$3,$4,$5,$6,$7,$8,$9,$2,$3,0*
0 Add four circle primitives for the rounded corners*
1,1,$1+$1,$2,$3*
1,1,$1+$1,$4,$5*
1,1,$1+$1,$6,$7*
1,1,$1+$1,$8,$9*
0 Add four rect primitives between the rounded corners*
20,1,$1+$1,$2,$3,$4,$5,0*
20,1,$1+$1,$4,$5,$6,$7,0*
20,1,$1+$1,$6,$7,$8,$9,0*
20,1,$1+$1,$8,$9,$2,$3,0*%
G04 Aperture macros list end*
%TA.AperFunction,ComponentPad*%
%ADD10R,1.700000X1.700000*%
%TD*%
%TA.AperFunction,ComponentPad*%
%ADD11O,1.700000X1.700000*%
%TD*%
%TA.AperFunction,SMDPad,CuDef*%
%ADD12RoundRect,0.200000X0.200000X0.275000X-0.200000X0.275000X-0.200000X-0.275000X0.200000X-0.275000X0*%
%TD*%
%TA.AperFunction,SMDPad,CuDef*%
%ADD13RoundRect,0.225000X0.250000X-0.225000X0.250000X0.225000X-0.250000X0.225000X-0.250000X-0.225000X0*%
%TD*%
%TA.AperFunction,SMDPad,CuDef*%
%ADD14RoundRect,0.225000X0.225000X0.250000X-0.225000X0.250000X-0.225000X-0.250000X0.225000X-0.250000X0*%
%TD*%
%TA.AperFunction,SMDPad,CuDef*%
%ADD15RoundRect,0.225000X-0.225000X-0.250000X0.225000X-0.250000X0.225000X0.250000X-0.225000X0.250000X0*%
%TD*%
%TA.AperFunction,ComponentPad*%
%ADD16R,2.000000X2.000000*%
%TD*%
%TA.AperFunction,ComponentPad*%
%ADD17C,2.000000*%
%TD*%
%TA.AperFunction,SMDPad,CuDef*%
%ADD18RoundRect,0.250000X0.450000X-0.262500X0.450000X0.262500X-0.450000X0.262500X-0.450000X-0.262500X0*%
%TD*%
%TA.AperFunction,SMDPad,CuDef*%
%ADD19RoundRect,0.243750X0.243750X0.456250X-0.243750X0.456250X-0.243750X-0.456250X0.243750X-0.456250X0*%
%TD*%
%TA.AperFunction,SMDPad,CuDef*%
%ADD20RoundRect,0.250000X-0.262500X-0.450000X0.262500X-0.450000X0.262500X0.450000X-0.262500X0.450000X0*%
%TD*%
%TA.AperFunction,SMDPad,CuDef*%
%ADD21RoundRect,0.150000X-0.512500X-0.150000X0.512500X-0.150000X0.512500X0.150000X-0.512500X0.150000X0*%
%TD*%
%TA.AperFunction,SMDPad,CuDef*%
%ADD22RoundRect,0.150000X-0.150000X0.512500X-0.150000X-0.512500X0.150000X-0.512500X0.150000X0.512500X0*%
%TD*%
%TA.AperFunction,SMDPad,CuDef*%
%ADD23R,2.000000X1.500000*%
%TD*%
%TA.AperFunction,SMDPad,CuDef*%
%ADD24RoundRect,0.100000X-0.100000X0.637500X-0.100000X-0.637500X0.100000X-0.637500X0.100000X0.637500X0*%
%TD*%
%TA.AperFunction,SMDPad,CuDef*%
%ADD25RoundRect,0.250000X0.250000X0.475000X-0.250000X0.475000X-0.250000X-0.475000X0.250000X-0.475000X0*%
%TD*%
%TA.AperFunction,SMDPad,CuDef*%
%ADD26RoundRect,0.200000X-0.200000X-0.275000X0.200000X-0.275000X0.200000X0.275000X-0.200000X0.275000X0*%
%TD*%
%TA.AperFunction,SMDPad,CuDef*%
%ADD27RoundRect,0.225000X-0.250000X0.225000X-0.250000X-0.225000X0.250000X-0.225000X0.250000X0.225000X0*%
%TD*%
%TA.AperFunction,SMDPad,CuDef*%
%ADD28R,1.500000X0.550000*%
%TD*%
%TA.AperFunction,SMDPad,CuDef*%
%ADD29R,0.550000X1.500000*%
%TD*%
%TA.AperFunction,SMDPad,CuDef*%
%ADD30RoundRect,0.200000X0.275000X-0.200000X0.275000X0.200000X-0.275000X0.200000X-0.275000X-0.200000X0*%
%TD*%
%TA.AperFunction,ComponentPad*%
%ADD31C,1.500000*%
%TD*%
%TA.AperFunction,ComponentPad*%
%ADD32R,1.500000X1.500000*%
%TD*%
%TA.AperFunction,SMDPad,CuDef*%
%ADD33R,1.200000X1.400000*%
%TD*%
%TA.AperFunction,SMDPad,CuDef*%
%ADD34RoundRect,0.250000X-0.312500X-1.450000X0.312500X-1.450000X0.312500X1.450000X-0.312500X1.450000X0*%
%TD*%
%TA.AperFunction,SMDPad,CuDef*%
%ADD35R,1.000000X0.700000*%
%TD*%
%TA.AperFunction,SMDPad,CuDef*%
%ADD36R,2.000000X0.500000*%
%TD*%
%TA.AperFunction,SMDPad,CuDef*%
%ADD37R,1.700000X2.000000*%
%TD*%
%TA.AperFunction,ViaPad*%
%ADD38C,0.600000*%
%TD*%
%TA.AperFunction,ViaPad*%
%ADD39C,0.800000*%
%TD*%
%TA.AperFunction,Conductor*%
%ADD40C,0.300000*%
%TD*%
%TA.AperFunction,Conductor*%
%ADD41C,0.500000*%
%TD*%
%TA.AperFunction,Conductor*%
%ADD42C,0.200000*%
%TD*%
G04 APERTURE END LIST*
D10*
%TO.P,J2,1,MISO*%
%TO.N,MISO*%
X105903000Y-92476000D03*
D11*
%TO.P,J2,2,VCC*%
%TO.N,+5V*%
X105903000Y-89936000D03*
%TO.P,J2,3,SCK*%
%TO.N,SCK*%
X103363000Y-92476000D03*
%TO.P,J2,4,MOSI*%
%TO.N,MOSI*%
X103363000Y-89936000D03*
%TO.P,J2,5,~{RST}*%
%TO.N,RST*%
X100823000Y-92476000D03*
%TO.P,J2,6,GND*%
%TO.N,GND*%
X100823000Y-89936000D03*
%TD*%
D12*
%TO.P,R14,1*%
%TO.N,+5V*%
X91249000Y-67818000D03*
%TO.P,R14,2*%
%TO.N,Net-(D3-A)*%
X89599000Y-67818000D03*
%TD*%
D13*
%TO.P,C15,2*%
%TO.N,GND*%
X107966820Y-61092142D03*
%TO.P,C15,1*%
%TO.N,+5V*%
X107966820Y-62642142D03*
%TD*%
D14*
%TO.P,C2,1*%
%TO.N,XTAL1*%
X121635189Y-91780601D03*
%TO.P,C2,2*%
%TO.N,GND*%
X120085189Y-91780601D03*
%TD*%
D15*
%TO.P,C1,1*%
%TO.N,XTAL2*%
X120053441Y-85988865D03*
%TO.P,C1,2*%
%TO.N,GND*%
X121603441Y-85988865D03*
%TD*%
D16*
%TO.P,LS1,1,1*%
%TO.N,Buzzer*%
X149840000Y-35814000D03*
D17*
%TO.P,LS1,2,2*%
%TO.N,GND*%
X142240000Y-35814000D03*
%TD*%
D18*
%TO.P,R5,2*%
%TO.N,Net-(U1-a)*%
X111506000Y-48006000D03*
%TO.P,R5,1*%
%TO.N,a*%
X111506000Y-49831000D03*
%TD*%
D19*
%TO.P,D3,1,K*%
%TO.N,GND*%
X91440000Y-65024000D03*
%TO.P,D3,2,A*%
%TO.N,Net-(D3-A)*%
X89565000Y-65024000D03*
%TD*%
D18*
%TO.P,R12,2*%
%TO.N,Net-(U1-DPX)*%
X96774000Y-48109500D03*
%TO.P,R12,1*%
%TO.N,dp*%
X96774000Y-49934500D03*
%TD*%
D12*
%TO.P,R16,1*%
%TO.N,USB_CONN_D-*%
X88709000Y-75710000D03*
%TO.P,R16,2*%
%TO.N,Net-(J1-D-)*%
X87059000Y-75710000D03*
%TD*%
D20*
%TO.P,R3,1*%
%TO.N,RED_LED*%
X143247085Y-56033813D03*
%TO.P,R3,2*%
%TO.N,Net-(D1-A)*%
X145072085Y-56033813D03*
%TD*%
D21*
%TO.P,U4,1,I/O1*%
%TO.N,USB_CONN_D-*%
X91783751Y-75721955D03*
%TO.P,U4,2,GND*%
%TO.N,GND*%
X91783751Y-76671955D03*
%TO.P,U4,3,I/O2*%
%TO.N,USB_CONN_D+*%
X91783751Y-77621955D03*
%TO.P,U4,4,I/O2*%
%TO.N,USB_D+*%
X94058751Y-77621955D03*
%TO.P,U4,5,VBUS*%
%TO.N,+5V*%
X94058751Y-76671955D03*
%TO.P,U4,6,I/O1*%
%TO.N,USB_D-*%
X94058751Y-75721955D03*
%TD*%
D22*
%TO.P,U5,1,VIN*%
%TO.N,+5V*%
X95438000Y-82174500D03*
%TO.P,U5,2,GND*%
%TO.N,GND*%
X94488000Y-82174500D03*
%TO.P,U5,3,ON/~{OFF}*%
%TO.N,+5V*%
X93538000Y-82174500D03*
%TO.P,U5,4,BP*%
%TO.N,Net-(U5-BP)*%
X93538000Y-84449500D03*
%TO.P,U5,5,VOUT*%
%TO.N,+3.3V*%
X95438000Y-84449500D03*
%TD*%
D18*
%TO.P,R10,2*%
%TO.N,Net-(U1-f)*%
X100838000Y-48109500D03*
%TO.P,R10,1*%
%TO.N,f*%
X100838000Y-49934500D03*
%TD*%
D23*
%TO.P,S1,A1,NO_1*%
%TO.N,unconnected-(S1-NO_1-PadA1)*%
X161582000Y-90638000D03*
%TO.P,S1,B1,NO_2*%
%TO.N,Button_1*%
X147282000Y-90638000D03*
%TO.P,S1,C1,COM_1*%
%TO.N,+5V*%
X161582000Y-85638000D03*
%TO.P,S1,D1,COM_2*%
%TO.N,unconnected-(S1-COM_2-PadD1)*%
X147282000Y-85638000D03*
%TD*%
D24*
%TO.P,U2,16,VCC*%
%TO.N,+5V*%
X106669000Y-61028500D03*
%TO.P,U2,15,QA*%
%TO.N,a*%
X106019000Y-61028500D03*
%TO.P,U2,14,SER*%
%TO.N,DS*%
X105369000Y-61028500D03*
%TO.P,U2,13,~{OE}*%
%TO.N,GND*%
X104719000Y-61028500D03*
%TO.P,U2,12,RCLK*%
%TO.N,ST_CP*%
X104069000Y-61028500D03*
%TO.P,U2,11,SRCLK*%
%TO.N,SH_CP*%
X103419000Y-61028500D03*
%TO.P,U2,10,~{SRCLR}*%
%TO.N,+5V*%
X102769000Y-61028500D03*
%TO.P,U2,9,QH'*%
%TO.N,unconnected-(U2-QH'-Pad9)*%
X102119000Y-61028500D03*
%TO.P,U2,8,GND*%
%TO.N,GND*%
X102119000Y-55303500D03*
%TO.P,U2,7,QH*%
%TO.N,dp*%
X102769000Y-55303500D03*
%TO.P,U2,6,QG*%
%TO.N,g*%
X103419000Y-55303500D03*
%TO.P,U2,5,QF*%
%TO.N,f*%
X104069000Y-55303500D03*
%TO.P,U2,4,QE*%
%TO.N,e*%
X104719000Y-55303500D03*
%TO.P,U2,3,QD*%
%TO.N,d*%
X105369000Y-55303500D03*
%TO.P,U2,2,QC*%
%TO.N,c*%
X106019000Y-55303500D03*
%TO.P,U2,1,QB*%
%TO.N,b*%
X106669000Y-55303500D03*
%TD*%
D25*
%TO.P,C4,1*%
%TO.N,+5V*%
X112778369Y-69342000D03*
%TO.P,C4,2*%
%TO.N,GND*%
X110878369Y-69342000D03*
%TD*%
D15*
%TO.P,C3,1*%
%TO.N,+5V*%
X124413154Y-66874511D03*
%TO.P,C3,2*%
%TO.N,GND*%
X125963154Y-66874511D03*
%TD*%
D18*
%TO.P,R6,2*%
%TO.N,Net-(U1-b)*%
X109220000Y-48006000D03*
%TO.P,R6,1*%
%TO.N,b*%
X109220000Y-49831000D03*
%TD*%
D26*
%TO.P,R13,1*%
%TO.N,RST*%
X116269000Y-91694000D03*
%TO.P,R13,2*%
%TO.N,+5V*%
X117919000Y-91694000D03*
%TD*%
D27*
%TO.P,C8,2*%
%TO.N,GND*%
X127880856Y-79215952D03*
%TO.P,C8,1*%
%TO.N,+5V*%
X127880856Y-77665952D03*
%TD*%
D14*
%TO.P,C10,1*%
%TO.N,/UCAP*%
X112789000Y-73660000D03*
%TO.P,C10,2*%
%TO.N,GND*%
X111239000Y-73660000D03*
%TD*%
D19*
%TO.P,D2,1,K*%
%TO.N,GND*%
X148895000Y-58310000D03*
%TO.P,D2,2,A*%
%TO.N,Net-(D2-A)*%
X147020000Y-58310000D03*
%TD*%
D13*
%TO.P,C11,1*%
%TO.N,/AREF*%
X117852224Y-66859263D03*
%TO.P,C11,2*%
%TO.N,GND*%
X117852224Y-65309263D03*
%TD*%
D14*
%TO.P,C7,1*%
%TO.N,+5V*%
X112768199Y-75315721D03*
%TO.P,C7,2*%
%TO.N,GND*%
X111218199Y-75315721D03*
%TD*%
D28*
%TO.P,U3,1,PE6*%
%TO.N,SH_CP*%
X114660000Y-70420000D03*
%TO.P,U3,2,UVCC*%
%TO.N,+5V*%
X114660000Y-71220000D03*
%TO.P,U3,3,D-*%
%TO.N,USB_D-*%
X114660000Y-72020000D03*
%TO.P,U3,4,D+*%
%TO.N,USB_D+*%
X114660000Y-72820000D03*
%TO.P,U3,5,UGND*%
%TO.N,GND*%
X114660000Y-73620000D03*
%TO.P,U3,6,UCAP*%
%TO.N,/UCAP*%
X114660000Y-74420000D03*
%TO.P,U3,7,VBUS*%
%TO.N,+5V*%
X114660000Y-75220000D03*
%TO.P,U3,8,PB0*%
%TO.N,unconnected-(U3-PB0-Pad8)*%
X114660000Y-76020000D03*
%TO.P,U3,9,PB1*%
%TO.N,SCK*%
X114660000Y-76820000D03*
%TO.P,U3,10,PB2*%
%TO.N,MISO*%
X114660000Y-77620000D03*
%TO.P,U3,11,PB3*%
%TO.N,MOSI*%
X114660000Y-78420000D03*
D29*
%TO.P,U3,12,PB7*%
%TO.N,Dig3*%
X116360000Y-80120000D03*
%TO.P,U3,13,~{RESET}*%
%TO.N,RST*%
X117160000Y-80120000D03*
%TO.P,U3,14,VCC*%
%TO.N,+5V*%
X117960000Y-80120000D03*
%TO.P,U3,15,GND*%
%TO.N,GND*%
X118760000Y-80120000D03*
%TO.P,U3,16,XTAL2*%
%TO.N,XTAL2*%
X119560000Y-80120000D03*
%TO.P,U3,17,XTAL1*%
%TO.N,XTAL1*%
X120360000Y-80120000D03*
%TO.P,U3,18,PD0*%
%TO.N,Button_1*%
X121160000Y-80120000D03*
%TO.P,U3,19,PD1*%
%TO.N,Button_2*%
X121960000Y-80120000D03*
%TO.P,U3,20,PD2*%
%TO.N,TX*%
X122760000Y-80120000D03*
%TO.P,U3,21,PD3*%
%TO.N,RX*%
X123560000Y-80120000D03*
%TO.P,U3,22,PD5*%
%TO.N,unconnected-(U3-PD5-Pad22)*%
X124360000Y-80120000D03*
D28*
%TO.P,U3,23,GND*%
%TO.N,GND*%
X126060000Y-78420000D03*
%TO.P,U3,24,AVCC*%
%TO.N,+5V*%
X126060000Y-77620000D03*
%TO.P,U3,25,PD4*%
%TO.N,GREEN_LED*%
X126060000Y-76820000D03*
%TO.P,U3,26,PD6*%
%TO.N,Dig2*%
X126060000Y-76020000D03*
%TO.P,U3,27,PD7*%
%TO.N,Buzzer*%
X126060000Y-75220000D03*
%TO.P,U3,28,PB4*%
%TO.N,ST_CP*%
X126060000Y-74420000D03*
%TO.P,U3,29,PB5*%
%TO.N,DS*%
X126060000Y-73620000D03*
%TO.P,U3,30,PB6*%
%TO.N,Dig4*%
X126060000Y-72820000D03*
%TO.P,U3,31,PC6*%
%TO.N,RED_LED*%
X126060000Y-72020000D03*
%TO.P,U3,32,PC7*%
%TO.N,Dig1*%
X126060000Y-71220000D03*
%TO.P,U3,33,~{HWB}/PE2*%
%TO.N,GND*%
X126060000Y-70420000D03*
D29*
%TO.P,U3,34,VCC*%
%TO.N,+5V*%
X124360000Y-68720000D03*
%TO.P,U3,35,GND*%
%TO.N,GND*%
X123560000Y-68720000D03*
%TO.P,U3,36,PF7*%
%TO.N,unconnected-(U3-PF7-Pad36)*%
X122760000Y-68720000D03*
%TO.P,U3,37,PF6*%
%TO.N,unconnected-(U3-PF6-Pad37)*%
X121960000Y-68720000D03*
%TO.P,U3,38,PF5*%
%TO.N,unconnected-(U3-PF5-Pad38)*%
X121160000Y-68720000D03*
%TO.P,U3,39,PF4*%
%TO.N,unconnected-(U3-PF4-Pad39)*%
X120360000Y-68720000D03*
%TO.P,U3,40,PF1*%
%TO.N,unconnected-(U3-PF1-Pad40)*%
X119560000Y-68720000D03*
%TO.P,U3,41,PF0*%
%TO.N,unconnected-(U3-PF0-Pad41)*%
X118760000Y-68720000D03*
%TO.P,U3,42,AREF*%
%TO.N,/AREF*%
X117960000Y-68720000D03*
%TO.P,U3,43,GND*%
%TO.N,GND*%
X117160000Y-68720000D03*
%TO.P,U3,44,AVCC*%
%TO.N,+5V*%
X116360000Y-68720000D03*
%TD*%
D30*
%TO.P,R1,2*%
%TO.N,GND*%
X143510000Y-90806000D03*
%TO.P,R1,1*%
%TO.N,Button_1*%
X143510000Y-92456000D03*
%TD*%
D19*
%TO.P,D1,1,K*%
%TO.N,GND*%
X148973500Y-56024000D03*
%TO.P,D1,2,A*%
%TO.N,Net-(D1-A)*%
X147098500Y-56024000D03*
%TD*%
D14*
%TO.P,C12,1*%
%TO.N,Net-(U5-BP)*%
X92054805Y-84476254D03*
%TO.P,C12,2*%
%TO.N,GND*%
X90504805Y-84476254D03*
%TD*%
D18*
%TO.P,R9,2*%
%TO.N,Net-(U1-e)*%
X102870000Y-48109500D03*
%TO.P,R9,1*%
%TO.N,e*%
X102870000Y-49934500D03*
%TD*%
D31*
%TO.P,U1,12,CA1*%
%TO.N,Dig1*%
X97850000Y-29480000D03*
%TO.P,U1,11,a*%
%TO.N,Net-(U1-a)*%
X100390000Y-29480000D03*
%TO.P,U1,10,f*%
%TO.N,Net-(U1-f)*%
X102930000Y-29480000D03*
%TO.P,U1,9,CA2*%
%TO.N,Dig2*%
X105470000Y-29480000D03*
%TO.P,U1,8,CA3*%
%TO.N,Dig3*%
X108010000Y-29480000D03*
%TO.P,U1,7,b*%
%TO.N,Net-(U1-b)*%
X110550000Y-29480000D03*
%TO.P,U1,6,CA4*%
%TO.N,Dig4*%
X110550000Y-44720000D03*
%TO.P,U1,5,g*%
%TO.N,Net-(U1-g)*%
X108010000Y-44720000D03*
%TO.P,U1,4,c*%
%TO.N,Net-(U1-c)*%
X105470000Y-44720000D03*
%TO.P,U1,3,DPX*%
%TO.N,Net-(U1-DPX)*%
X102930000Y-44720000D03*
%TO.P,U1,2,d*%
%TO.N,Net-(U1-d)*%
X100390000Y-44720000D03*
D32*
%TO.P,U1,1,e*%
%TO.N,Net-(U1-e)*%
X97850000Y-44720000D03*
%TD*%
D33*
%TO.P,Y1,1,1*%
%TO.N,XTAL1*%
X121754000Y-90000000D03*
%TO.P,Y1,2,2*%
%TO.N,GND*%
X121754000Y-87800000D03*
%TO.P,Y1,3,3*%
%TO.N,XTAL2*%
X120054000Y-87800000D03*
%TO.P,Y1,4,4*%
%TO.N,GND*%
X120054000Y-90000000D03*
%TD*%
D15*
%TO.P,C14,1*%
%TO.N,+3.3V*%
X96900048Y-84493218D03*
%TO.P,C14,2*%
%TO.N,GND*%
X98450048Y-84493218D03*
%TD*%
D10*
%TO.P,J3,1,Pin_1*%
%TO.N,GND*%
X93726000Y-93472000D03*
D11*
%TO.P,J3,2,Pin_2*%
%TO.N,TX*%
X93726000Y-90932000D03*
%TO.P,J3,3,Pin_3*%
%TO.N,unconnected-(J3-Pin_3-Pad3)*%
X91186000Y-93472000D03*
%TO.P,J3,4,Pin_4*%
%TO.N,+3.3V*%
X91186000Y-90932000D03*
%TO.P,J3,5,Pin_5*%
%TO.N,Net-(J3-Pin_5)*%
X88646000Y-93472000D03*
%TO.P,J3,6,Pin_6*%
%TO.N,+3.3V*%
X88646000Y-90932000D03*
%TO.P,J3,7,Pin_7*%
%TO.N,RX*%
X86106000Y-93472000D03*
%TO.P,J3,8,Pin_8*%
%TO.N,+3.3V*%
X86106000Y-90932000D03*
%TD*%
D14*
%TO.P,C13,1*%
%TO.N,+5V*%
X92065448Y-82152253D03*
%TO.P,C13,2*%
%TO.N,GND*%
X90515448Y-82152253D03*
%TD*%
D20*
%TO.P,R4,1*%
%TO.N,GREEN_LED*%
X143264647Y-58354301D03*
%TO.P,R4,2*%
%TO.N,Net-(D2-A)*%
X145089647Y-58354301D03*
%TD*%
D30*
%TO.P,R2,1*%
%TO.N,Button_2*%
X143217601Y-77846693D03*
%TO.P,R2,2*%
%TO.N,GND*%
X143217601Y-76196693D03*
%TD*%
%TO.P,R17,2*%
%TO.N,+3.3V*%
X83490000Y-90859000D03*
%TO.P,R17,1*%
%TO.N,Net-(J3-Pin_5)*%
X83490000Y-92509000D03*
%TD*%
D27*
%TO.P,C9,1*%
%TO.N,+5V*%
X117910193Y-82101325D03*
%TO.P,C9,2*%
%TO.N,GND*%
X117910193Y-83651325D03*
%TD*%
D34*
%TO.P,F1,1*%
%TO.N,Net-(J1-VBUS)*%
X87016500Y-71374000D03*
%TO.P,F1,2*%
%TO.N,+5V*%
X91291500Y-71374000D03*
%TD*%
D14*
%TO.P,C6,1*%
%TO.N,+5V*%
X112789000Y-71120000D03*
%TO.P,C6,2*%
%TO.N,GND*%
X111239000Y-71120000D03*
%TD*%
D18*
%TO.P,R11,2*%
%TO.N,Net-(U1-g)*%
X98806000Y-48109500D03*
%TO.P,R11,1*%
%TO.N,g*%
X98806000Y-49934500D03*
%TD*%
D35*
%TO.P,S3,4*%
%TO.N,N/C*%
X110379500Y-93400000D03*
%TO.P,S3,3*%
%TO.N,RST*%
X116379500Y-93400000D03*
%TO.P,S3,2*%
%TO.N,N/C*%
X110379500Y-97100000D03*
%TO.P,S3,1*%
%TO.N,GND*%
X116379500Y-97100000D03*
%TD*%
D36*
%TO.P,J1,1,VBUS*%
%TO.N,Net-(J1-VBUS)*%
X83980000Y-75362000D03*
%TO.P,J1,2,D-*%
%TO.N,Net-(J1-D-)*%
X83980000Y-76162000D03*
%TO.P,J1,3,D+*%
%TO.N,Net-(J1-D+)*%
X83980000Y-76962000D03*
%TO.P,J1,4,ID*%
%TO.N,unconnected-(J1-ID-Pad4)*%
X83980000Y-77762000D03*
%TO.P,J1,5,GND*%
%TO.N,GND*%
X83980000Y-78562000D03*
D37*
%TO.P,J1,6,Shield*%
%TO.N,unconnected-(J1-Shield-Pad6)*%
X83880000Y-72512000D03*
X78430000Y-72512000D03*
X83880000Y-81412000D03*
X78430000Y-81412000D03*
%TD*%
D12*
%TO.P,R15,1*%
%TO.N,USB_CONN_D+*%
X88709000Y-77597494D03*
%TO.P,R15,2*%
%TO.N,Net-(J1-D+)*%
X87059000Y-77597494D03*
%TD*%
D14*
%TO.P,C5,1*%
%TO.N,+5V*%
X116345000Y-66842000D03*
%TO.P,C5,2*%
%TO.N,GND*%
X114795000Y-66842000D03*
%TD*%
D18*
%TO.P,R7,2*%
%TO.N,Net-(U1-c)*%
X106934000Y-48109500D03*
%TO.P,R7,1*%
%TO.N,c*%
X106934000Y-49934500D03*
%TD*%
%TO.P,R8,2*%
%TO.N,Net-(U1-d)*%
X104902000Y-48109500D03*
%TO.P,R8,1*%
%TO.N,d*%
X104902000Y-49934500D03*
%TD*%
D23*
%TO.P,S2,A1,NO_1*%
%TO.N,unconnected-(S2-NO_1-PadA1)*%
X161582000Y-76160000D03*
%TO.P,S2,B1,NO_2*%
%TO.N,Button_2*%
X147282000Y-76160000D03*
%TO.P,S2,C1,COM_1*%
%TO.N,+5V*%
X161582000Y-71160000D03*
%TO.P,S2,D1,COM_2*%
%TO.N,unconnected-(S2-COM_2-PadD1)*%
X147282000Y-71160000D03*
%TD*%
D38*
%TO.N,Dig3*%
X105410000Y-33274000D03*
X104140000Y-72898000D03*
X96266000Y-36576000D03*
X110236000Y-78232000D03*
X100838000Y-66040000D03*
X112522000Y-80264000D03*
X94488000Y-37846000D03*
X101600000Y-68072000D03*
X100838000Y-35306000D03*
X105664000Y-74422000D03*
%TO.N,TX*%
X124318500Y-82296000D03*
X124206000Y-85344000D03*
%TO.N,RX*%
X124968000Y-81534000D03*
X124968000Y-86106000D03*
%TO.N,MOSI*%
X108563712Y-82909713D03*
%TO.N,SCK*%
X105410000Y-84328000D03*
X103632000Y-86106000D03*
%TO.N,MOSI*%
X104140000Y-87122000D03*
D39*
%TO.N,GND*%
X116332000Y-96266000D03*
D38*
%TO.N,Dig4*%
X111506000Y-42672000D03*
X127508000Y-61468000D03*
X114046000Y-43180000D03*
X130048000Y-68072000D03*
X127112500Y-72692486D03*
X130048000Y-70358000D03*
X129032000Y-71374000D03*
X130048000Y-63500000D03*
%TO.N,Dig1*%
X129032000Y-68834000D03*
X110998000Y-36576000D03*
X127112500Y-71092982D03*
X114046000Y-36576000D03*
X99822000Y-33020000D03*
X98806000Y-31242000D03*
%TO.N,Dig2*%
X113284000Y-32004000D03*
X132080000Y-68326000D03*
X105918000Y-31496000D03*
X129540000Y-61722000D03*
%TO.N,Buzzer*%
X130810000Y-66802000D03*
X130810000Y-69342000D03*
%TO.N,RED_LED*%
X129032000Y-70104000D03*
X127112500Y-71892485D03*
%TO.N,ST_CP*%
X105156000Y-63246000D03*
X109982000Y-63208497D03*
%TO.N,DS*%
X107188000Y-64008000D03*
X109982000Y-64008000D03*
%TO.N,SH_CP*%
X109220000Y-65532000D03*
X107442000Y-65532000D03*
%TO.N,Net-(U1-f)*%
X103886000Y-31750000D03*
X101854000Y-32258000D03*
%TO.N,Net-(U1-a)*%
X110744000Y-34290000D03*
X113030000Y-34290000D03*
%TO.N,Net-(U1-g)*%
X107188000Y-46482000D03*
X98806000Y-46990000D03*
%TO.N,Net-(U1-DPX)*%
X103632000Y-46228000D03*
X97790000Y-46228000D03*
%TO.N,a*%
X105918000Y-59436000D03*
X105918000Y-57658000D03*
D39*
%TO.N,GND*%
X107978193Y-60115680D03*
D38*
X144319397Y-90818286D03*
X144018000Y-76200000D03*
D39*
X149875025Y-58331278D03*
X149935126Y-56032409D03*
X102151016Y-56532751D03*
X104751132Y-59803422D03*
D38*
X117016502Y-65304475D03*
D39*
X110291683Y-73659999D03*
D38*
X83955394Y-79169000D03*
X98423108Y-85324330D03*
X122421630Y-86031350D03*
X119090690Y-89961949D03*
X119254533Y-91780601D03*
X122777146Y-87799229D03*
X117898664Y-84477327D03*
D39*
X110308005Y-75345266D03*
D38*
X94492808Y-83178073D03*
X89713460Y-84500251D03*
X89702622Y-82148508D03*
X90757235Y-76653883D03*
D39*
X92413079Y-65038409D03*
D38*
X128717211Y-79208453D03*
D39*
X125963154Y-67769272D03*
X114795000Y-67818000D03*
X126064071Y-69676891D03*
X126087346Y-79120606D03*
X118809500Y-78939189D03*
X123510500Y-69906725D03*
X117209500Y-69914386D03*
X110853654Y-68159775D03*
X110324850Y-71123523D03*
X115876501Y-73625620D03*
%TD*%
D40*
%TO.N,Dig3*%
X100838000Y-66040000D02*
X94488000Y-59690000D01*
X112666000Y-80120000D02*
X112522000Y-80264000D01*
X116360000Y-80120000D02*
X112666000Y-80120000D01*
X109474000Y-78232000D02*
X105664000Y-74422000D01*
X110236000Y-78232000D02*
X109474000Y-78232000D01*
X108010000Y-30674000D02*
X108010000Y-29480000D01*
X104140000Y-72898000D02*
X104140000Y-70612000D01*
X104140000Y-70612000D02*
X101600000Y-68072000D01*
X96266000Y-36576000D02*
X99568000Y-36576000D01*
X94488000Y-59690000D02*
X94488000Y-37846000D01*
X99568000Y-36576000D02*
X100838000Y-35306000D01*
X105410000Y-33274000D02*
X108010000Y-30674000D01*
%TO.N,+5V*%
X117919000Y-91948000D02*
X117085193Y-91114193D01*
X117085193Y-91114193D02*
X117085193Y-82926325D01*
X117085193Y-82926325D02*
X117910193Y-82101325D01*
%TO.N,TX*%
X97798000Y-95004000D02*
X122936000Y-95004000D01*
X93726000Y-90932000D02*
X97798000Y-95004000D01*
X122936000Y-95004000D02*
X124206000Y-93734000D01*
X124206000Y-93734000D02*
X124206000Y-85344000D01*
X124103894Y-82296000D02*
X122760000Y-80952106D01*
X124318500Y-82296000D02*
X124103894Y-82296000D01*
X122760000Y-80952106D02*
X122760000Y-80120000D01*
%TO.N,Button_2*%
X121960000Y-80120000D02*
X121960000Y-81262894D01*
X121960000Y-81262894D02*
X125787106Y-85090000D01*
X125787106Y-85090000D02*
X132080000Y-85090000D01*
X132080000Y-85090000D02*
X139323307Y-77846693D01*
X139323307Y-77846693D02*
X143217601Y-77846693D01*
%TO.N,RX*%
X123190000Y-95504000D02*
X124968000Y-93726000D01*
X86106000Y-93472000D02*
X88138000Y-95504000D01*
X88138000Y-95504000D02*
X123190000Y-95504000D01*
X124968000Y-93726000D02*
X124968000Y-86106000D01*
X124049000Y-81534000D02*
X123560000Y-81045000D01*
X124968000Y-81534000D02*
X124049000Y-81534000D01*
X123560000Y-81045000D02*
X123560000Y-80120000D01*
%TO.N,MOSI*%
X108563712Y-82909713D02*
X113053425Y-78420000D01*
X113053425Y-78420000D02*
X114660000Y-78420000D01*
%TO.N,MISO*%
X105903000Y-92476000D02*
X107696000Y-90683000D01*
X107696000Y-90683000D02*
X107696000Y-82858893D01*
X107696000Y-82858893D02*
X112934893Y-77620000D01*
X112934893Y-77620000D02*
X114660000Y-77620000D01*
%TO.N,SCK*%
X112918000Y-76820000D02*
X114660000Y-76820000D01*
X102108000Y-91221000D02*
X102108000Y-87630000D01*
X103363000Y-92476000D02*
X102108000Y-91221000D01*
X102108000Y-87630000D02*
X103632000Y-86106000D01*
X105410000Y-84328000D02*
X112918000Y-76820000D01*
%TO.N,MOSI*%
X103363000Y-89936000D02*
X103363000Y-87899000D01*
X103363000Y-87899000D02*
X104140000Y-87122000D01*
%TO.N,RST*%
X109220000Y-94234000D02*
X109220000Y-91694000D01*
X108966000Y-94488000D02*
X109220000Y-94234000D01*
X109220000Y-91694000D02*
X110045000Y-90869000D01*
X100823000Y-92476000D02*
X102835000Y-94488000D01*
X102835000Y-94488000D02*
X108966000Y-94488000D01*
X110045000Y-90869000D02*
X115570000Y-90869000D01*
X115570000Y-90869000D02*
X116395000Y-91694000D01*
D41*
%TO.N,+5V*%
X101478500Y-82174500D02*
X105918000Y-86614000D01*
X95438000Y-82174500D02*
X101478500Y-82174500D01*
X105918000Y-86614000D02*
X105903000Y-86629000D01*
X105903000Y-86629000D02*
X105903000Y-89936000D01*
D40*
%TO.N,RST*%
X116395000Y-91694000D02*
X116395000Y-93384500D01*
X116395000Y-93384500D02*
X116379500Y-93400000D01*
X116379500Y-81950500D02*
X116379500Y-91678500D01*
X116379500Y-91678500D02*
X116395000Y-91694000D01*
D41*
%TO.N,+5V*%
X159082000Y-73660000D02*
X159082000Y-83138000D01*
X159082000Y-83138000D02*
X161582000Y-85638000D01*
X137726048Y-77665952D02*
X141732000Y-73660000D01*
X127880856Y-77665952D02*
X137726048Y-77665952D01*
X141732000Y-73660000D02*
X159082000Y-73660000D01*
X159082000Y-73660000D02*
X161582000Y-71160000D01*
D40*
%TO.N,Button_2*%
X143217601Y-77846693D02*
X145595307Y-77846693D01*
X145595307Y-77846693D02*
X147282000Y-76160000D01*
%TO.N,Button_1*%
X143510000Y-92456000D02*
X145464000Y-92456000D01*
X145464000Y-92456000D02*
X147282000Y-90638000D01*
X121160000Y-80120000D02*
X121160000Y-81170000D01*
X121160000Y-81170000D02*
X132446000Y-92456000D01*
X132446000Y-92456000D02*
X143510000Y-92456000D01*
D41*
%TO.N,Net-(D2-A)*%
X145089647Y-58354301D02*
X146975699Y-58354301D01*
X146975699Y-58354301D02*
X147020000Y-58310000D01*
%TO.N,Net-(D1-A)*%
X147098500Y-56024000D02*
X145081898Y-56024000D01*
X145081898Y-56024000D02*
X145072085Y-56033813D01*
%TO.N,GND*%
X116332000Y-96266000D02*
X116332000Y-97052500D01*
X116332000Y-97052500D02*
X116379500Y-97100000D01*
D40*
%TO.N,RST*%
X117160000Y-80120000D02*
X117160000Y-81170000D01*
X117160000Y-81170000D02*
X116379500Y-81950500D01*
%TO.N,Dig4*%
X126060000Y-72820000D02*
X126984986Y-72820000D01*
X111506000Y-42672000D02*
X111506000Y-43764000D01*
X114046000Y-48006000D02*
X114046000Y-43180000D01*
X126984986Y-72820000D02*
X127112500Y-72692486D01*
X111506000Y-43764000D02*
X110550000Y-44720000D01*
X129032000Y-71374000D02*
X130048000Y-70358000D01*
X127508000Y-61468000D02*
X114046000Y-48006000D01*
X130048000Y-68072000D02*
X130048000Y-63500000D01*
%TO.N,Dig1*%
X128524000Y-61625239D02*
X128524000Y-48514000D01*
X110998000Y-36576000D02*
X103378000Y-36576000D01*
X129032000Y-68834000D02*
X129032000Y-62133239D01*
X103378000Y-36576000D02*
X99822000Y-33020000D01*
X126985482Y-71220000D02*
X127112500Y-71092982D01*
X126060000Y-71220000D02*
X126985482Y-71220000D01*
X128524000Y-48514000D02*
X116586000Y-36576000D01*
X116586000Y-36576000D02*
X114046000Y-36576000D01*
X129032000Y-62133239D02*
X128524000Y-61625239D01*
X98806000Y-31242000D02*
X98806000Y-30436000D01*
X98806000Y-30436000D02*
X97850000Y-29480000D01*
%TO.N,Dig2*%
X129540000Y-48260000D02*
X113284000Y-32004000D01*
X105918000Y-29928000D02*
X105470000Y-29480000D01*
X127110000Y-76020000D02*
X132080000Y-71050000D01*
X132080000Y-71050000D02*
X132080000Y-68326000D01*
X129540000Y-61722000D02*
X129540000Y-48260000D01*
X126060000Y-76020000D02*
X127110000Y-76020000D01*
X105918000Y-31496000D02*
X105918000Y-29928000D01*
%TO.N,GREEN_LED*%
X126060000Y-76820000D02*
X127110000Y-76820000D01*
X127110000Y-76820000D02*
X143264647Y-60665353D01*
X143264647Y-60665353D02*
X143264647Y-58354301D01*
%TO.N,Buzzer*%
X127110000Y-75220000D02*
X130810000Y-71520000D01*
X130810000Y-71520000D02*
X130810000Y-69342000D01*
X126060000Y-75220000D02*
X127110000Y-75220000D01*
X130810000Y-66802000D02*
X130810000Y-60452000D01*
X130810000Y-60452000D02*
X149840000Y-41422000D01*
X149840000Y-41422000D02*
X149840000Y-35814000D01*
%TO.N,RED_LED*%
X126060000Y-72020000D02*
X126984985Y-72020000D01*
X126984985Y-72020000D02*
X127112500Y-71892485D01*
X129032000Y-70104000D02*
X143102187Y-56033813D01*
X143102187Y-56033813D02*
X143247085Y-56033813D01*
%TO.N,ST_CP*%
X104069000Y-62159000D02*
X104069000Y-61028500D01*
X105156000Y-63246000D02*
X104069000Y-62159000D01*
%TO.N,SH_CP*%
X105918000Y-65532000D02*
X103378000Y-62992000D01*
X107442000Y-65532000D02*
X105918000Y-65532000D01*
X103378000Y-62992000D02*
X103378000Y-61069500D01*
X103378000Y-61069500D02*
X103419000Y-61028500D01*
%TO.N,ST_CP*%
X128270000Y-73260000D02*
X128270000Y-63246000D01*
X127110000Y-74420000D02*
X128270000Y-73260000D01*
X126060000Y-74420000D02*
X127110000Y-74420000D01*
X128270000Y-63246000D02*
X110019503Y-63246000D01*
X110019503Y-63246000D02*
X109982000Y-63208497D01*
%TO.N,DS*%
X127110000Y-73620000D02*
X127762000Y-72968000D01*
X127762000Y-72968000D02*
X127762000Y-64008000D01*
X107188000Y-64008000D02*
X105369000Y-62189000D01*
X126060000Y-73620000D02*
X127110000Y-73620000D01*
X127762000Y-64008000D02*
X109982000Y-64008000D01*
X105369000Y-62189000D02*
X105369000Y-61028500D01*
D41*
%TO.N,+5V*%
X124360000Y-68720000D02*
X124360000Y-77212000D01*
X124360000Y-77212000D02*
X123952000Y-77620000D01*
X123952000Y-77620000D02*
X118310000Y-77620000D01*
D40*
%TO.N,SH_CP*%
X103419000Y-61028500D02*
X103419000Y-61752396D01*
X109220000Y-65532000D02*
X110541897Y-65532000D01*
X110541897Y-65532000D02*
X114660000Y-69650103D01*
X114660000Y-69650103D02*
X114660000Y-70420000D01*
%TO.N,Net-(U1-f)*%
X95504000Y-35814000D02*
X96012000Y-35306000D01*
X95504000Y-48400528D02*
X95504000Y-35814000D01*
X96175472Y-49072000D02*
X95504000Y-48400528D01*
X100838000Y-48109500D02*
X99875500Y-49072000D01*
X96012000Y-35306000D02*
X99060000Y-32258000D01*
X99060000Y-32258000D02*
X101854000Y-32258000D01*
X103886000Y-30436000D02*
X102930000Y-29480000D01*
X99875500Y-49072000D02*
X96175472Y-49072000D01*
X103886000Y-31750000D02*
X103886000Y-30436000D01*
%TO.N,Net-(U1-a)*%
X111506000Y-48006000D02*
X113030000Y-46482000D01*
X113030000Y-46482000D02*
X113030000Y-34290000D01*
X110744000Y-34290000D02*
X105200000Y-34290000D01*
X105200000Y-34290000D02*
X100390000Y-29480000D01*
%TO.N,Net-(U1-b)*%
X109220000Y-48006000D02*
X112268000Y-44958000D01*
X112268000Y-31198000D02*
X110550000Y-29480000D01*
X112268000Y-44958000D02*
X112268000Y-31198000D01*
%TO.N,Net-(U1-g)*%
X98806000Y-48109500D02*
X98806000Y-46990000D01*
X107188000Y-46482000D02*
X107188000Y-45542000D01*
X107188000Y-45542000D02*
X108010000Y-44720000D01*
%TO.N,Net-(U1-DPX)*%
X103632000Y-46228000D02*
X103632000Y-45422000D01*
X96774000Y-48109500D02*
X96774000Y-47244000D01*
X103632000Y-45422000D02*
X102930000Y-44720000D01*
X96774000Y-47244000D02*
X97790000Y-46228000D01*
%TO.N,Net-(U1-c)*%
X105470000Y-44720000D02*
X105470000Y-46645500D01*
X105470000Y-46645500D02*
X106934000Y-48109500D01*
%TO.N,Net-(U1-d)*%
X100390000Y-44720000D02*
X101041528Y-44720000D01*
X101041528Y-44720000D02*
X104431028Y-48109500D01*
X104431028Y-48109500D02*
X104902000Y-48109500D01*
%TO.N,Net-(U1-e)*%
X99866000Y-46736000D02*
X102108000Y-46736000D01*
X97850000Y-44720000D02*
X99866000Y-46736000D01*
X102108000Y-46736000D02*
X102870000Y-47498000D01*
X102870000Y-47498000D02*
X102870000Y-48109500D01*
%TO.N,a*%
X105918000Y-59436000D02*
X106019000Y-59537000D01*
X106019000Y-59537000D02*
X106019000Y-61028500D01*
X105918000Y-57658000D02*
X111506000Y-51840396D01*
%TO.N,+5V*%
X106172000Y-58674000D02*
X103632000Y-58674000D01*
X106669000Y-61028500D02*
X106669000Y-59171000D01*
X102769000Y-59537000D02*
X102769000Y-61028500D01*
X106669000Y-59171000D02*
X106172000Y-58674000D01*
X103632000Y-58674000D02*
X102769000Y-59537000D01*
%TO.N,dp*%
X100259396Y-52070000D02*
X98552000Y-52070000D01*
X102769000Y-54579604D02*
X100259396Y-52070000D01*
X102769000Y-55303500D02*
X102769000Y-54579604D01*
X98552000Y-52070000D02*
X96774000Y-50292000D01*
X96774000Y-50292000D02*
X96774000Y-49934500D01*
%TO.N,g*%
X103419000Y-55303500D02*
X103419000Y-53635000D01*
X99060000Y-50188500D02*
X98806000Y-49934500D01*
X103419000Y-53635000D02*
X100838000Y-51054000D01*
X100838000Y-51054000D02*
X99060000Y-51054000D01*
X99060000Y-51054000D02*
X99060000Y-50188500D01*
%TO.N,f*%
X104069000Y-55303500D02*
X104069000Y-53165500D01*
X104069000Y-53165500D02*
X100838000Y-49934500D01*
%TO.N,e*%
X104719000Y-55303500D02*
X104719000Y-51783500D01*
X104719000Y-51783500D02*
X102870000Y-49934500D01*
%TO.N,d*%
X105369000Y-55303500D02*
X105369000Y-50401500D01*
X105369000Y-50401500D02*
X104902000Y-49934500D01*
%TO.N,c*%
X106019000Y-55303500D02*
X106019000Y-54579604D01*
X106019000Y-54579604D02*
X106934000Y-53664604D01*
X106934000Y-53664604D02*
X106934000Y-49934500D01*
%TO.N,b*%
X109140500Y-52832000D02*
X109220000Y-52832000D01*
X106669000Y-55303500D02*
X109140500Y-52832000D01*
X109220000Y-52832000D02*
X109220000Y-49831000D01*
%TO.N,a*%
X111506000Y-51840396D02*
X111506000Y-49831000D01*
%TO.N,+5V*%
X106669000Y-61028500D02*
X106669000Y-61344322D01*
X106669000Y-61344322D02*
X107966820Y-62642142D01*
D41*
X108204000Y-67309775D02*
X91757225Y-67309775D01*
X108204000Y-62879322D02*
X107966820Y-62642142D01*
X111205736Y-67309775D02*
X108204000Y-67309775D01*
X108204000Y-67309775D02*
X108204000Y-62879322D01*
X112778369Y-69342000D02*
X112778369Y-68882408D01*
X112778369Y-68882408D02*
X111205736Y-67309775D01*
X91757225Y-67309775D02*
X91249000Y-67818000D01*
D42*
%TO.N,Net-(J3-Pin_5)*%
X83797000Y-92202000D02*
X87884000Y-92202000D01*
X87884000Y-92202000D02*
X88646000Y-92964000D01*
X83490000Y-92509000D02*
X83797000Y-92202000D01*
X88646000Y-92964000D02*
X88646000Y-93472000D01*
D41*
%TO.N,+3.3V*%
X91186000Y-90932000D02*
X95438000Y-86680000D01*
X95438000Y-86680000D02*
X95438000Y-84449500D01*
X88646000Y-90932000D02*
X91186000Y-90932000D01*
X88646000Y-90932000D02*
X86106000Y-90932000D01*
X83490000Y-90859000D02*
X86033000Y-90859000D01*
X86033000Y-90859000D02*
X86106000Y-90932000D01*
%TO.N,Net-(U5-BP)*%
X93538000Y-84449500D02*
X92081559Y-84449500D01*
X92081559Y-84449500D02*
X92054805Y-84476254D01*
%TO.N,+3.3V*%
X95438000Y-84449500D02*
X96856330Y-84449500D01*
X96856330Y-84449500D02*
X96900048Y-84493218D01*
%TO.N,+5V*%
X95438000Y-82174500D02*
X95438000Y-81601576D01*
X93538000Y-81468000D02*
X93538000Y-82174500D01*
X95438000Y-81601576D02*
X94898424Y-81062000D01*
X93944000Y-81062000D02*
X93538000Y-81468000D01*
X94898424Y-81062000D02*
X93944000Y-81062000D01*
X92065448Y-82152253D02*
X93515753Y-82152253D01*
X93515753Y-82152253D02*
X93538000Y-82174500D01*
%TO.N,Net-(D3-A)*%
X89565000Y-65024000D02*
X89565000Y-67784000D01*
X89565000Y-67784000D02*
X89599000Y-67818000D01*
%TO.N,+5V*%
X91291500Y-71374000D02*
X91291500Y-67860500D01*
D42*
X91291500Y-67860500D02*
X91249000Y-67818000D01*
X92964000Y-76200000D02*
X92964000Y-74422000D01*
X93435955Y-76671955D02*
X92964000Y-76200000D01*
X94058751Y-76671955D02*
X93435955Y-76671955D01*
X92964000Y-74422000D02*
X91291500Y-72749500D01*
X91291500Y-72749500D02*
X91291500Y-71374000D01*
X93538000Y-82174500D02*
X93096251Y-81732751D01*
X93096251Y-81732751D02*
X93096251Y-77083749D01*
X93096251Y-77083749D02*
X93508045Y-76671955D01*
X93508045Y-76671955D02*
X94058751Y-76671955D01*
%TO.N,XTAL1*%
X120396000Y-83566000D02*
X121158000Y-83566000D01*
X120360000Y-80120000D02*
X120360000Y-83530000D01*
X121158000Y-83566000D02*
X123698000Y-86106000D01*
X120360000Y-83530000D02*
X120396000Y-83566000D01*
X123698000Y-86106000D02*
X123698000Y-88056000D01*
X123698000Y-88056000D02*
X121754000Y-90000000D01*
%TO.N,XTAL2*%
X119126000Y-85090000D02*
X119126000Y-86868000D01*
X119560000Y-80120000D02*
X119560000Y-84656000D01*
X119560000Y-84656000D02*
X119126000Y-85090000D01*
X119126000Y-86868000D02*
X120054000Y-87796000D01*
X120054000Y-87796000D02*
X120054000Y-87800000D01*
D41*
%TO.N,GND*%
X107978193Y-60115680D02*
X107978193Y-61080769D01*
X107978193Y-61080769D02*
X107966820Y-61092142D01*
X122421630Y-86031350D02*
X121645926Y-86031350D01*
X121645926Y-86031350D02*
X121603441Y-85988865D01*
X144319397Y-90818286D02*
X143522286Y-90818286D01*
X143522286Y-90818286D02*
X143510000Y-90806000D01*
X144018000Y-76200000D02*
X143220908Y-76200000D01*
X143220908Y-76200000D02*
X143217601Y-76196693D01*
X148895000Y-58310000D02*
X149853747Y-58310000D01*
X149853747Y-58310000D02*
X149875025Y-58331278D01*
X149935126Y-56032409D02*
X148981909Y-56032409D01*
X148981909Y-56032409D02*
X148973500Y-56024000D01*
X102151016Y-56532751D02*
X102119000Y-56500735D01*
D40*
X102119000Y-56500735D02*
X102119000Y-55303500D01*
D41*
X104751132Y-59803422D02*
X104719000Y-59835554D01*
D40*
X104719000Y-59835554D02*
X104719000Y-61028500D01*
D41*
X117016502Y-65304475D02*
X117847436Y-65304475D01*
X117847436Y-65304475D02*
X117852224Y-65309263D01*
%TO.N,/AREF*%
X117852224Y-66859263D02*
X117960000Y-66967039D01*
X117960000Y-66967039D02*
X117960000Y-68720000D01*
%TO.N,/UCAP*%
X112789000Y-73660000D02*
X113549000Y-74420000D01*
X113549000Y-74420000D02*
X114660000Y-74420000D01*
%TO.N,GND*%
X111239000Y-73660000D02*
X110291684Y-73660000D01*
X110291684Y-73660000D02*
X110291683Y-73659999D01*
X83980000Y-78562000D02*
X83980000Y-79144394D01*
X83980000Y-79144394D02*
X83955394Y-79169000D01*
X98450048Y-84493218D02*
X98450048Y-85297390D01*
X98450048Y-85297390D02*
X98423108Y-85324330D01*
X120054000Y-90000000D02*
X119128741Y-90000000D01*
X119128741Y-90000000D02*
X119090690Y-89961949D01*
X120085189Y-91780601D02*
X119254533Y-91780601D01*
X122777146Y-87799229D02*
X121754771Y-87799229D01*
X121754771Y-87799229D02*
X121754000Y-87800000D01*
%TO.N,XTAL2*%
X120013148Y-85996962D02*
X120013148Y-87759148D01*
X120013148Y-87759148D02*
X120054000Y-87800000D01*
%TO.N,XTAL1*%
X121635189Y-91780601D02*
X121635189Y-90118811D01*
X121635189Y-90118811D02*
X121754000Y-90000000D01*
%TO.N,GND*%
X117910193Y-83651325D02*
X117910193Y-84465798D01*
X117910193Y-84465798D02*
X117898664Y-84477327D01*
X111218199Y-75315721D02*
X110337550Y-75315721D01*
X110337550Y-75315721D02*
X110308005Y-75345266D01*
X89713460Y-84500251D02*
X90480808Y-84500251D01*
X90480808Y-84500251D02*
X90504805Y-84476254D01*
X89702622Y-82148508D02*
X90511703Y-82148508D01*
X90511703Y-82148508D02*
X90515448Y-82152253D01*
X94488000Y-82174500D02*
X94488000Y-83173265D01*
X94488000Y-83173265D02*
X94492808Y-83178073D01*
X90757235Y-76653883D02*
X91765679Y-76653883D01*
X91765679Y-76653883D02*
X91783751Y-76671955D01*
X92413079Y-65038409D02*
X91454409Y-65038409D01*
X91454409Y-65038409D02*
X91440000Y-65024000D01*
X128717211Y-79208453D02*
X127888355Y-79208453D01*
X127888355Y-79208453D02*
X127880856Y-79215952D01*
X110853654Y-68159775D02*
X110853654Y-69317285D01*
X110853654Y-69317285D02*
X110878369Y-69342000D01*
X110324850Y-71123523D02*
X111235477Y-71123523D01*
X111235477Y-71123523D02*
X111239000Y-71120000D01*
X115876501Y-73625620D02*
X114665620Y-73625620D01*
X114665620Y-73625620D02*
X114660000Y-73620000D01*
X114795000Y-67818000D02*
X114795000Y-66842000D01*
X117209500Y-69914386D02*
X117209500Y-68769500D01*
X117209500Y-68769500D02*
X117160000Y-68720000D01*
X125963154Y-67769272D02*
X125963154Y-66874511D01*
X126064071Y-69676891D02*
X126064071Y-70415929D01*
X126064071Y-70415929D02*
X126060000Y-70420000D01*
X123510500Y-69906725D02*
X123560000Y-69857225D01*
X123560000Y-69857225D02*
X123560000Y-68720000D01*
X118809500Y-78939189D02*
X118809500Y-80070500D01*
X118809500Y-80070500D02*
X118760000Y-80120000D01*
X126087346Y-79120606D02*
X126087346Y-78447346D01*
X126087346Y-78447346D02*
X126060000Y-78420000D01*
%TO.N,+5V*%
X126060000Y-77620000D02*
X128016316Y-77620000D01*
X116619000Y-70645000D02*
X116840000Y-70866000D01*
X116360000Y-70645000D02*
X116619000Y-70645000D01*
X116484000Y-75794000D02*
X116738000Y-76048000D01*
X116738000Y-76048000D02*
X117960000Y-77270000D01*
X116840000Y-70866000D02*
X116840000Y-75946000D01*
X116840000Y-75946000D02*
X116738000Y-76048000D01*
X114660000Y-75220000D02*
X112863920Y-75220000D01*
X112863920Y-75220000D02*
X112768199Y-75315721D01*
X115910000Y-75220000D02*
X116484000Y-75794000D01*
X116360000Y-75670000D02*
X116484000Y-75794000D01*
X126060000Y-77620000D02*
X123952000Y-77620000D01*
X118310000Y-77620000D02*
X117960000Y-77270000D01*
X114660000Y-75220000D02*
X115910000Y-75220000D01*
X117960000Y-77270000D02*
X117960000Y-80120000D01*
X116360000Y-68720000D02*
X116360000Y-70645000D01*
X116360000Y-70645000D02*
X115785000Y-71220000D01*
X115785000Y-71220000D02*
X114660000Y-71220000D01*
X117960000Y-80120000D02*
X117960000Y-82051518D01*
X117960000Y-82051518D02*
X117910193Y-82101325D01*
X128016316Y-77620000D02*
X128019542Y-77616774D01*
X124360000Y-68720000D02*
X124360000Y-66927665D01*
X124360000Y-66927665D02*
X124413154Y-66874511D01*
X116360000Y-68720000D02*
X116360000Y-66857000D01*
X116360000Y-66857000D02*
X116345000Y-66842000D01*
X112789000Y-71120000D02*
X112789000Y-69352631D01*
X112789000Y-69352631D02*
X112778369Y-69342000D01*
X114660000Y-71220000D02*
X112889000Y-71220000D01*
X112889000Y-71220000D02*
X112789000Y-71120000D01*
%TO.N,Net-(J1-VBUS)*%
X83980000Y-75362000D02*
X87016500Y-72325500D01*
X87016500Y-72325500D02*
X87016500Y-71374000D01*
%TO.N,unconnected-(J1-Shield-Pad6)*%
X78430000Y-81412000D02*
X83880000Y-81412000D01*
X78430000Y-72512000D02*
X78430000Y-81412000D01*
X78430000Y-72512000D02*
X83880000Y-72512000D01*
%TO.N,Net-(J1-D+)*%
X87059000Y-77597494D02*
X86423506Y-76962000D01*
X86423506Y-76962000D02*
X83980000Y-76962000D01*
%TO.N,Net-(J1-D-)*%
X87059000Y-75710000D02*
X86607000Y-76162000D01*
X86607000Y-76162000D02*
X83980000Y-76162000D01*
%TO.N,USB_CONN_D+*%
X88709000Y-77597494D02*
X91759290Y-77597494D01*
X91759290Y-77597494D02*
X91783751Y-77621955D01*
%TO.N,USB_CONN_D-*%
X88709000Y-75710000D02*
X91771796Y-75710000D01*
X91771796Y-75710000D02*
X91783751Y-75721955D01*
D42*
%TO.N,USB_D+*%
X94757647Y-77271955D02*
X95021251Y-77008351D01*
X94058751Y-77621955D02*
X94408751Y-77271955D01*
X94408751Y-77271955D02*
X94757647Y-77271955D01*
X113359999Y-72645000D02*
X113534999Y-72820000D01*
X95021251Y-76896955D02*
X101981245Y-76896955D01*
X113534999Y-72820000D02*
X114660000Y-72820000D01*
%TO.N,USB_D-*%
X94757647Y-76071955D02*
X95021251Y-76335559D01*
%TO.N,USB_D+*%
X95021251Y-77008351D02*
X95021251Y-76896955D01*
X101981245Y-76896955D02*
X106233200Y-72645000D01*
X106233200Y-72645000D02*
X113359999Y-72645000D01*
%TO.N,USB_D-*%
X94058751Y-75721955D02*
X94408751Y-76071955D01*
X94408751Y-76071955D02*
X94757647Y-76071955D01*
X101794845Y-76446955D02*
X106046800Y-72195000D01*
X95021251Y-76335559D02*
X95021251Y-76446955D01*
X95021251Y-76446955D02*
X101794845Y-76446955D01*
X106046800Y-72195000D02*
X113359999Y-72195000D01*
X113359999Y-72195000D02*
X113534999Y-72020000D01*
X113534999Y-72020000D02*
X114660000Y-72020000D01*
%TO.N,USB_D+*%
X114196000Y-72862000D02*
X114021000Y-72687000D01*
%TD*%
M02*
