%TF.GenerationSoftware,KiCad,Pcbnew,7.0.1-0*%
%TF.CreationDate,2023-05-31T07:57:39-06:00*%
%TF.ProjectId,PhaseD_Prototype,50686173-6544-45f5-9072-6f746f747970,rev?*%
%TF.SameCoordinates,Original*%
%TF.FileFunction,Copper,L2,Bot*%
%TF.FilePolarity,Positive*%
%FSLAX46Y46*%
G04 Gerber Fmt 4.6, Leading zero omitted, Abs format (unit mm)*
G04 Created by KiCad (PCBNEW 7.0.1-0) date 2023-05-31 07:57:39*
%MOMM*%
%LPD*%
G01*
G04 APERTURE LIST*
%TA.AperFunction,ComponentPad*%
%ADD10R,1.700000X1.700000*%
%TD*%
%TA.AperFunction,ComponentPad*%
%ADD11O,1.700000X1.700000*%
%TD*%
%TA.AperFunction,ViaPad*%
%ADD12C,0.800000*%
%TD*%
G04 APERTURE END LIST*
D10*
%TO.P,J3,1,Pin_1*%
%TO.N,+5V*%
X157480000Y-66040000D03*
D11*
%TO.P,J3,2,Pin_2*%
%TO.N,GND*%
X157480000Y-68580000D03*
%TO.P,J3,3,Pin_3*%
%TO.N,SCL*%
X157480000Y-71120000D03*
%TO.P,J3,4,Pin_4*%
%TO.N,SDA*%
X157480000Y-73660000D03*
%TO.P,J3,5,Pin_5*%
%TO.N,unconnected-(J3-Pin_5-Pad5)*%
X157480000Y-76200000D03*
%TO.P,J3,6,Pin_6*%
%TO.N,unconnected-(J3-Pin_6-Pad6)*%
X157480000Y-78740000D03*
%TO.P,J3,7,Pin_7*%
%TO.N,unconnected-(J3-Pin_7-Pad7)*%
X157480000Y-81280000D03*
%TO.P,J3,8,Pin_8*%
%TO.N,INT*%
X157480000Y-83820000D03*
%TD*%
D10*
%TO.P,J4,1,Pin_1*%
%TO.N,unconnected-(J4-Pin_1-Pad1)*%
X81280000Y-81280000D03*
D11*
%TO.P,J4,2,Pin_2*%
%TO.N,Tx*%
X81280000Y-78740000D03*
%TO.P,J4,3,Pin_3*%
%TO.N,Rx*%
X81280000Y-76200000D03*
%TO.P,J4,4,Pin_4*%
%TO.N,+5V*%
X81280000Y-73660000D03*
%TO.P,J4,5,Pin_5*%
%TO.N,unconnected-(J4-Pin_5-Pad5)*%
X81280000Y-71120000D03*
%TO.P,J4,6,Pin_6*%
%TO.N,GND*%
X81280000Y-68580000D03*
%TD*%
D10*
%TO.P,J2,1,Pin_1*%
%TO.N,GND*%
X146070000Y-60990000D03*
D11*
%TO.P,J2,2,Pin_2*%
X143530000Y-60990000D03*
%TO.P,J2,3,Pin_3*%
%TO.N,+5V*%
X146070000Y-63530000D03*
%TO.P,J2,4,Pin_4*%
X143530000Y-63530000D03*
%TO.P,J2,5,Pin_5*%
%TO.N,+3V0*%
X146070000Y-66070000D03*
%TO.P,J2,6,Pin_6*%
X143530000Y-66070000D03*
%TO.P,J2,7,Pin_7*%
%TO.N,unconnected-(J2-Pin_7-Pad7)*%
X146070000Y-68610000D03*
%TO.P,J2,8,Pin_8*%
%TO.N,unconnected-(J2-Pin_8-Pad8)*%
X143530000Y-68610000D03*
%TO.P,J2,9,Pin_9*%
%TO.N,unconnected-(J2-Pin_9-Pad9)*%
X146070000Y-71150000D03*
%TO.P,J2,10,Pin_10*%
%TO.N,unconnected-(J2-Pin_10-Pad10)*%
X143530000Y-71150000D03*
%TO.P,J2,11,Pin_11*%
%TO.N,unconnected-(J2-Pin_11-Pad11)*%
X146070000Y-73690000D03*
%TO.P,J2,12,Pin_12*%
%TO.N,unconnected-(J2-Pin_12-Pad12)*%
X143530000Y-73690000D03*
%TO.P,J2,13,Pin_13*%
%TO.N,unconnected-(J2-Pin_13-Pad13)*%
X146070000Y-76230000D03*
%TO.P,J2,14,Pin_14*%
%TO.N,unconnected-(J2-Pin_14-Pad14)*%
X143530000Y-76230000D03*
%TO.P,J2,15,Pin_15*%
%TO.N,unconnected-(J2-Pin_15-Pad15)*%
X146070000Y-78770000D03*
%TO.P,J2,16,Pin_16*%
%TO.N,unconnected-(J2-Pin_16-Pad16)*%
X143530000Y-78770000D03*
%TO.P,J2,17,Pin_17*%
%TO.N,unconnected-(J2-Pin_17-Pad17)*%
X146070000Y-81310000D03*
%TO.P,J2,18,Pin_18*%
%TO.N,unconnected-(J2-Pin_18-Pad18)*%
X143530000Y-81310000D03*
%TO.P,J2,19,Pin_19*%
%TO.N,unconnected-(J2-Pin_19-Pad19)*%
X146070000Y-83850000D03*
%TO.P,J2,20,Pin_20*%
%TO.N,unconnected-(J2-Pin_20-Pad20)*%
X143530000Y-83850000D03*
%TO.P,J2,21,Pin_21*%
%TO.N,unconnected-(J2-Pin_21-Pad21)*%
X146070000Y-86390000D03*
%TO.P,J2,22,Pin_22*%
%TO.N,unconnected-(J2-Pin_22-Pad22)*%
X143530000Y-86390000D03*
%TO.P,J2,23,Pin_23*%
%TO.N,SDA*%
X146070000Y-88930000D03*
%TO.P,J2,24,Pin_24*%
%TO.N,SCL*%
X143530000Y-88930000D03*
%TO.P,J2,25,Pin_25*%
%TO.N,INT*%
X146070000Y-91470000D03*
%TO.P,J2,26,Pin_26*%
%TO.N,unconnected-(J2-Pin_26-Pad26)*%
X143530000Y-91470000D03*
%TO.P,J2,27,Pin_27*%
%TO.N,unconnected-(J2-Pin_27-Pad27)*%
X146070000Y-94010000D03*
%TO.P,J2,28,Pin_28*%
%TO.N,unconnected-(J2-Pin_28-Pad28)*%
X143530000Y-94010000D03*
%TO.P,J2,29,Pin_29*%
%TO.N,unconnected-(J2-Pin_29-Pad29)*%
X146070000Y-96550000D03*
%TO.P,J2,30,Pin_30*%
%TO.N,unconnected-(J2-Pin_30-Pad30)*%
X143530000Y-96550000D03*
%TO.P,J2,31,Pin_31*%
%TO.N,unconnected-(J2-Pin_31-Pad31)*%
X146070000Y-99090000D03*
%TO.P,J2,32,Pin_32*%
%TO.N,unconnected-(J2-Pin_32-Pad32)*%
X143530000Y-99090000D03*
%TO.P,J2,33,Pin_33*%
%TO.N,unconnected-(J2-Pin_33-Pad33)*%
X146070000Y-101630000D03*
%TO.P,J2,34,Pin_34*%
%TO.N,unconnected-(J2-Pin_34-Pad34)*%
X143530000Y-101630000D03*
%TO.P,J2,35,Pin_35*%
%TO.N,unconnected-(J2-Pin_35-Pad35)*%
X146070000Y-104170000D03*
%TO.P,J2,36,Pin_36*%
%TO.N,unconnected-(J2-Pin_36-Pad36)*%
X143530000Y-104170000D03*
%TO.P,J2,37,Pin_37*%
%TO.N,unconnected-(J2-Pin_37-Pad37)*%
X146070000Y-106710000D03*
%TO.P,J2,38,Pin_38*%
%TO.N,unconnected-(J2-Pin_38-Pad38)*%
X143530000Y-106710000D03*
%TO.P,J2,39,Pin_39*%
%TO.N,unconnected-(J2-Pin_39-Pad39)*%
X146070000Y-109250000D03*
%TO.P,J2,40,Pin_40*%
%TO.N,unconnected-(J2-Pin_40-Pad40)*%
X143530000Y-109250000D03*
%TO.P,J2,41,Pin_41*%
%TO.N,unconnected-(J2-Pin_41-Pad41)*%
X146070000Y-111790000D03*
%TO.P,J2,42,Pin_42*%
%TO.N,unconnected-(J2-Pin_42-Pad42)*%
X143530000Y-111790000D03*
%TO.P,J2,43,Pin_43*%
%TO.N,unconnected-(J2-Pin_43-Pad43)*%
X146070000Y-114330000D03*
%TO.P,J2,44,Pin_44*%
%TO.N,unconnected-(J2-Pin_44-Pad44)*%
X143530000Y-114330000D03*
%TO.P,J2,45,Pin_45*%
%TO.N,unconnected-(J2-Pin_45-Pad45)*%
X146070000Y-116870000D03*
%TO.P,J2,46,Pin_46*%
%TO.N,unconnected-(J2-Pin_46-Pad46)*%
X143530000Y-116870000D03*
%TO.P,J2,47,Pin_47*%
%TO.N,unconnected-(J2-Pin_47-Pad47)*%
X146070000Y-119410000D03*
%TO.P,J2,48,Pin_48*%
%TO.N,unconnected-(J2-Pin_48-Pad48)*%
X143530000Y-119410000D03*
%TO.P,J2,49,Pin_49*%
%TO.N,GND*%
X146070000Y-121950000D03*
%TO.P,J2,50,Pin_50*%
X143530000Y-121950000D03*
%TD*%
D10*
%TO.P,J1,1,Pin_1*%
%TO.N,GND*%
X95280000Y-60970000D03*
D11*
%TO.P,J1,2,Pin_2*%
X92740000Y-60970000D03*
%TO.P,J1,3,Pin_3*%
%TO.N,unconnected-(J1-Pin_3-Pad3)*%
X95280000Y-63510000D03*
%TO.P,J1,4,Pin_4*%
%TO.N,unconnected-(J1-Pin_4-Pad4)*%
X92740000Y-63510000D03*
%TO.P,J1,5,Pin_5*%
%TO.N,unconnected-(J1-Pin_5-Pad5)*%
X95280000Y-66050000D03*
%TO.P,J1,6,Pin_6*%
%TO.N,GND*%
X92740000Y-66050000D03*
%TO.P,J1,7,Pin_7*%
%TO.N,unconnected-(J1-Pin_7-Pad7)*%
X95280000Y-68590000D03*
%TO.P,J1,8,Pin_8*%
%TO.N,unconnected-(J1-Pin_8-Pad8)*%
X92740000Y-68590000D03*
%TO.P,J1,9,Pin_9*%
%TO.N,unconnected-(J1-Pin_9-Pad9)*%
X95280000Y-71130000D03*
%TO.P,J1,10,Pin_10*%
%TO.N,unconnected-(J1-Pin_10-Pad10)*%
X92740000Y-71130000D03*
%TO.P,J1,11,Pin_11*%
%TO.N,unconnected-(J1-Pin_11-Pad11)*%
X95280000Y-73670000D03*
%TO.P,J1,12,Pin_12*%
%TO.N,unconnected-(J1-Pin_12-Pad12)*%
X92740000Y-73670000D03*
%TO.P,J1,13,Pin_13*%
%TO.N,Tx*%
X95280000Y-76210000D03*
%TO.P,J1,14,Pin_14*%
%TO.N,Rx*%
X92740000Y-76210000D03*
%TO.P,J1,15,Pin_15*%
%TO.N,unconnected-(J1-Pin_15-Pad15)*%
X95280000Y-78750000D03*
%TO.P,J1,16,Pin_16*%
%TO.N,unconnected-(J1-Pin_16-Pad16)*%
X92740000Y-78750000D03*
%TO.P,J1,17,Pin_17*%
%TO.N,unconnected-(J1-Pin_17-Pad17)*%
X95280000Y-81290000D03*
%TO.P,J1,18,Pin_18*%
%TO.N,unconnected-(J1-Pin_18-Pad18)*%
X92740000Y-81290000D03*
%TO.P,J1,19,Pin_19*%
%TO.N,unconnected-(J1-Pin_19-Pad19)*%
X95280000Y-83830000D03*
%TO.P,J1,20,Pin_20*%
%TO.N,unconnected-(J1-Pin_20-Pad20)*%
X92740000Y-83830000D03*
%TO.P,J1,21,Pin_21*%
%TO.N,unconnected-(J1-Pin_21-Pad21)*%
X95280000Y-86370000D03*
%TO.P,J1,22,Pin_22*%
%TO.N,unconnected-(J1-Pin_22-Pad22)*%
X92740000Y-86370000D03*
%TO.P,J1,23,Pin_23*%
%TO.N,unconnected-(J1-Pin_23-Pad23)*%
X95280000Y-88910000D03*
%TO.P,J1,24,Pin_24*%
%TO.N,GND*%
X92740000Y-88910000D03*
%TO.P,J1,25,Pin_25*%
%TO.N,unconnected-(J1-Pin_25-Pad25)*%
X95280000Y-91450000D03*
%TO.P,J1,26,Pin_26*%
%TO.N,unconnected-(J1-Pin_26-Pad26)*%
X92740000Y-91450000D03*
%TO.P,J1,27,Pin_27*%
%TO.N,unconnected-(J1-Pin_27-Pad27)*%
X95280000Y-93990000D03*
%TO.P,J1,28,Pin_28*%
%TO.N,unconnected-(J1-Pin_28-Pad28)*%
X92740000Y-93990000D03*
%TO.P,J1,29,Pin_29*%
%TO.N,unconnected-(J1-Pin_29-Pad29)*%
X95280000Y-96530000D03*
%TO.P,J1,30,Pin_30*%
%TO.N,unconnected-(J1-Pin_30-Pad30)*%
X92740000Y-96530000D03*
%TO.P,J1,31,Pin_31*%
%TO.N,unconnected-(J1-Pin_31-Pad31)*%
X95280000Y-99070000D03*
%TO.P,J1,32,Pin_32*%
%TO.N,unconnected-(J1-Pin_32-Pad32)*%
X92740000Y-99070000D03*
%TO.P,J1,33,Pin_33*%
%TO.N,unconnected-(J1-Pin_33-Pad33)*%
X95280000Y-101610000D03*
%TO.P,J1,34,Pin_34*%
%TO.N,unconnected-(J1-Pin_34-Pad34)*%
X92740000Y-101610000D03*
%TO.P,J1,35,Pin_35*%
%TO.N,unconnected-(J1-Pin_35-Pad35)*%
X95280000Y-104150000D03*
%TO.P,J1,36,Pin_36*%
%TO.N,unconnected-(J1-Pin_36-Pad36)*%
X92740000Y-104150000D03*
%TO.P,J1,37,Pin_37*%
%TO.N,unconnected-(J1-Pin_37-Pad37)*%
X95280000Y-106690000D03*
%TO.P,J1,38,Pin_38*%
%TO.N,unconnected-(J1-Pin_38-Pad38)*%
X92740000Y-106690000D03*
%TO.P,J1,39,Pin_39*%
%TO.N,unconnected-(J1-Pin_39-Pad39)*%
X95280000Y-109230000D03*
%TO.P,J1,40,Pin_40*%
%TO.N,unconnected-(J1-Pin_40-Pad40)*%
X92740000Y-109230000D03*
%TO.P,J1,41,Pin_41*%
%TO.N,unconnected-(J1-Pin_41-Pad41)*%
X95280000Y-111770000D03*
%TO.P,J1,42,Pin_42*%
%TO.N,unconnected-(J1-Pin_42-Pad42)*%
X92740000Y-111770000D03*
%TO.P,J1,43,Pin_43*%
%TO.N,unconnected-(J1-Pin_43-Pad43)*%
X95280000Y-114310000D03*
%TO.P,J1,44,Pin_44*%
%TO.N,unconnected-(J1-Pin_44-Pad44)*%
X92740000Y-114310000D03*
%TO.P,J1,45,Pin_45*%
%TO.N,unconnected-(J1-Pin_45-Pad45)*%
X95280000Y-116850000D03*
%TO.P,J1,46,Pin_46*%
%TO.N,unconnected-(J1-Pin_46-Pad46)*%
X92740000Y-116850000D03*
%TO.P,J1,47,Pin_47*%
%TO.N,unconnected-(J1-Pin_47-Pad47)*%
X95280000Y-119390000D03*
%TO.P,J1,48,Pin_48*%
%TO.N,unconnected-(J1-Pin_48-Pad48)*%
X92740000Y-119390000D03*
%TO.P,J1,49,Pin_49*%
%TO.N,GND*%
X95280000Y-121930000D03*
%TO.P,J1,50,Pin_50*%
X92740000Y-121930000D03*
%TD*%
D12*
%TO.N,GND*%
X90813866Y-66044894D03*
X90899856Y-88950569D03*
%TD*%
%TA.AperFunction,Conductor*%
%TO.N,GND*%
G36*
X162563471Y-55880694D02*
G01*
X162675527Y-55886987D01*
X162844353Y-55897199D01*
X162857591Y-55898720D01*
X162989665Y-55921160D01*
X162991007Y-55921397D01*
X163136210Y-55948007D01*
X163148153Y-55950814D01*
X163280788Y-55989025D01*
X163283279Y-55989773D01*
X163420146Y-56032423D01*
X163430682Y-56036237D01*
X163559736Y-56089693D01*
X163563063Y-56091130D01*
X163692306Y-56149298D01*
X163701372Y-56153834D01*
X163824331Y-56221791D01*
X163828500Y-56224202D01*
X163948988Y-56297040D01*
X163956592Y-56302027D01*
X164071525Y-56383575D01*
X164076223Y-56387078D01*
X164186752Y-56473672D01*
X164192906Y-56478823D01*
X164298133Y-56572859D01*
X164303187Y-56577638D01*
X164402360Y-56676811D01*
X164407139Y-56681865D01*
X164501175Y-56787092D01*
X164506326Y-56793246D01*
X164592904Y-56903754D01*
X164596423Y-56908473D01*
X164677971Y-57023406D01*
X164682958Y-57031010D01*
X164755796Y-57151498D01*
X164758207Y-57155667D01*
X164826164Y-57278626D01*
X164830712Y-57287716D01*
X164888832Y-57416853D01*
X164890317Y-57420291D01*
X164943756Y-57549303D01*
X164947580Y-57559866D01*
X164990214Y-57696684D01*
X164990983Y-57699246D01*
X165029180Y-57831831D01*
X165031995Y-57843807D01*
X165058578Y-57988865D01*
X165058857Y-57990446D01*
X165081275Y-58122385D01*
X165082801Y-58135670D01*
X165092997Y-58304242D01*
X165093028Y-58304774D01*
X165099305Y-58416527D01*
X165099500Y-58423481D01*
X165099500Y-124456519D01*
X165099305Y-124463473D01*
X165093028Y-124575224D01*
X165092997Y-124575756D01*
X165082801Y-124744328D01*
X165081275Y-124757613D01*
X165058857Y-124889552D01*
X165058578Y-124891133D01*
X165031995Y-125036191D01*
X165029180Y-125048167D01*
X164990983Y-125180752D01*
X164990214Y-125183314D01*
X164947580Y-125320132D01*
X164943756Y-125330695D01*
X164890317Y-125459707D01*
X164888832Y-125463145D01*
X164830712Y-125592282D01*
X164826164Y-125601372D01*
X164758207Y-125724331D01*
X164755796Y-125728500D01*
X164682958Y-125848988D01*
X164677971Y-125856592D01*
X164596423Y-125971525D01*
X164592904Y-125976244D01*
X164506326Y-126086752D01*
X164501175Y-126092906D01*
X164407139Y-126198133D01*
X164402360Y-126203187D01*
X164303187Y-126302360D01*
X164298133Y-126307139D01*
X164192906Y-126401175D01*
X164186752Y-126406326D01*
X164076244Y-126492904D01*
X164071525Y-126496423D01*
X163956592Y-126577971D01*
X163948988Y-126582958D01*
X163828500Y-126655796D01*
X163824331Y-126658207D01*
X163701372Y-126726164D01*
X163692282Y-126730712D01*
X163563145Y-126788832D01*
X163559707Y-126790317D01*
X163430695Y-126843756D01*
X163420132Y-126847580D01*
X163283314Y-126890214D01*
X163280752Y-126890983D01*
X163148167Y-126929180D01*
X163136191Y-126931995D01*
X162991133Y-126958578D01*
X162989552Y-126958857D01*
X162857613Y-126981275D01*
X162844328Y-126982801D01*
X162675756Y-126992997D01*
X162675224Y-126993028D01*
X162567513Y-126999078D01*
X162563471Y-126999305D01*
X162556519Y-126999500D01*
X76203481Y-126999500D01*
X76196528Y-126999305D01*
X76192045Y-126999053D01*
X76084774Y-126993028D01*
X76084242Y-126992997D01*
X75915670Y-126982801D01*
X75902385Y-126981275D01*
X75770446Y-126958857D01*
X75768865Y-126958578D01*
X75623807Y-126931995D01*
X75611831Y-126929180D01*
X75479246Y-126890983D01*
X75476684Y-126890214D01*
X75339866Y-126847580D01*
X75329303Y-126843756D01*
X75200291Y-126790317D01*
X75196873Y-126788841D01*
X75067713Y-126730710D01*
X75058626Y-126726164D01*
X74935667Y-126658207D01*
X74931498Y-126655796D01*
X74811010Y-126582958D01*
X74803406Y-126577971D01*
X74688473Y-126496423D01*
X74683754Y-126492904D01*
X74573246Y-126406326D01*
X74567092Y-126401175D01*
X74461865Y-126307139D01*
X74456811Y-126302360D01*
X74357638Y-126203187D01*
X74352859Y-126198133D01*
X74258823Y-126092906D01*
X74253672Y-126086752D01*
X74167078Y-125976223D01*
X74163575Y-125971525D01*
X74082027Y-125856592D01*
X74077040Y-125848988D01*
X74004202Y-125728500D01*
X74001791Y-125724331D01*
X73983272Y-125690824D01*
X73933832Y-125601369D01*
X73929298Y-125592306D01*
X73871130Y-125463063D01*
X73869693Y-125459736D01*
X73816237Y-125330682D01*
X73812423Y-125320146D01*
X73769773Y-125183279D01*
X73769015Y-125180752D01*
X73764307Y-125164409D01*
X73730814Y-125048153D01*
X73728007Y-125036210D01*
X73701397Y-124891007D01*
X73701160Y-124889665D01*
X73678720Y-124757591D01*
X73677199Y-124744353D01*
X73666983Y-124575453D01*
X73660694Y-124463471D01*
X73660500Y-124456521D01*
X73660500Y-122180000D01*
X91409364Y-122180000D01*
X91466569Y-122393492D01*
X91566399Y-122607576D01*
X91701893Y-122801081D01*
X91868918Y-122968106D01*
X92062423Y-123103600D01*
X92276507Y-123203430D01*
X92489999Y-123260635D01*
X92490000Y-123260636D01*
X92490000Y-122180000D01*
X92990000Y-122180000D01*
X92990000Y-123260635D01*
X93203492Y-123203430D01*
X93417576Y-123103600D01*
X93611081Y-122968106D01*
X93778106Y-122801081D01*
X93908425Y-122614968D01*
X93952743Y-122576103D01*
X94010000Y-122562092D01*
X94067257Y-122576103D01*
X94111575Y-122614968D01*
X94241893Y-122801081D01*
X94408918Y-122968106D01*
X94602423Y-123103600D01*
X94816507Y-123203430D01*
X95029999Y-123260635D01*
X95030000Y-123260636D01*
X95030000Y-122180000D01*
X95530000Y-122180000D01*
X95530000Y-123260635D01*
X95743492Y-123203430D01*
X95957576Y-123103600D01*
X96151081Y-122968106D01*
X96318106Y-122801081D01*
X96453600Y-122607576D01*
X96553430Y-122393492D01*
X96605277Y-122200000D01*
X142199364Y-122200000D01*
X142256569Y-122413492D01*
X142356399Y-122627576D01*
X142491893Y-122821081D01*
X142658918Y-122988106D01*
X142852423Y-123123600D01*
X143066507Y-123223430D01*
X143279999Y-123280635D01*
X143280000Y-123280636D01*
X143280000Y-122200000D01*
X143780000Y-122200000D01*
X143780000Y-123280635D01*
X143993492Y-123223430D01*
X144207576Y-123123600D01*
X144401081Y-122988106D01*
X144568106Y-122821081D01*
X144698425Y-122634968D01*
X144742743Y-122596103D01*
X144800000Y-122582092D01*
X144857257Y-122596103D01*
X144901575Y-122634968D01*
X145031893Y-122821081D01*
X145198918Y-122988106D01*
X145392423Y-123123600D01*
X145606507Y-123223430D01*
X145819999Y-123280635D01*
X145820000Y-123280636D01*
X145820000Y-122200000D01*
X146320000Y-122200000D01*
X146320000Y-123280635D01*
X146533492Y-123223430D01*
X146747576Y-123123600D01*
X146941081Y-122988106D01*
X147108106Y-122821081D01*
X147243600Y-122627576D01*
X147343430Y-122413492D01*
X147400636Y-122200000D01*
X146320000Y-122200000D01*
X145820000Y-122200000D01*
X143780000Y-122200000D01*
X143280000Y-122200000D01*
X142199364Y-122200000D01*
X96605277Y-122200000D01*
X96610636Y-122180000D01*
X95530000Y-122180000D01*
X95030000Y-122180000D01*
X92990000Y-122180000D01*
X92490000Y-122180000D01*
X91409364Y-122180000D01*
X73660500Y-122180000D01*
X73660500Y-119390000D01*
X91384340Y-119390000D01*
X91404936Y-119625407D01*
X91449709Y-119792502D01*
X91466097Y-119853663D01*
X91565965Y-120067830D01*
X91701505Y-120261401D01*
X91868599Y-120428495D01*
X92054597Y-120558732D01*
X92093460Y-120603048D01*
X92107471Y-120660305D01*
X92093461Y-120717561D01*
X92054595Y-120761880D01*
X91868919Y-120891892D01*
X91701890Y-121058921D01*
X91566400Y-121252421D01*
X91466569Y-121466507D01*
X91409364Y-121679999D01*
X91409364Y-121680000D01*
X96610636Y-121680000D01*
X96610635Y-121679999D01*
X96553430Y-121466507D01*
X96453599Y-121252421D01*
X96318109Y-121058921D01*
X96151081Y-120891893D01*
X95965404Y-120761880D01*
X95926539Y-120717562D01*
X95912528Y-120660305D01*
X95926539Y-120603048D01*
X95965402Y-120558732D01*
X96151401Y-120428495D01*
X96318495Y-120261401D01*
X96454035Y-120067830D01*
X96553903Y-119853663D01*
X96615063Y-119625408D01*
X96633909Y-119409999D01*
X142174340Y-119409999D01*
X142194936Y-119645407D01*
X142239709Y-119812502D01*
X142256097Y-119873663D01*
X142355965Y-120087830D01*
X142491505Y-120281401D01*
X142658599Y-120448495D01*
X142844597Y-120578732D01*
X142883460Y-120623048D01*
X142897471Y-120680305D01*
X142883461Y-120737561D01*
X142844595Y-120781880D01*
X142658919Y-120911892D01*
X142491890Y-121078921D01*
X142356400Y-121272421D01*
X142256569Y-121486507D01*
X142199364Y-121699999D01*
X142199364Y-121700000D01*
X147400636Y-121700000D01*
X147400635Y-121699999D01*
X147343430Y-121486507D01*
X147243599Y-121272421D01*
X147108109Y-121078921D01*
X146941081Y-120911893D01*
X146755404Y-120781880D01*
X146716539Y-120737562D01*
X146702528Y-120680305D01*
X146716539Y-120623048D01*
X146755402Y-120578732D01*
X146941401Y-120448495D01*
X147108495Y-120281401D01*
X147244035Y-120087830D01*
X147343903Y-119873663D01*
X147405063Y-119645408D01*
X147425659Y-119410000D01*
X147405063Y-119174592D01*
X147343903Y-118946337D01*
X147244035Y-118732171D01*
X147108495Y-118538599D01*
X146941401Y-118371505D01*
X146755839Y-118241573D01*
X146716976Y-118197257D01*
X146702965Y-118140000D01*
X146716976Y-118082743D01*
X146755839Y-118038426D01*
X146941401Y-117908495D01*
X147108495Y-117741401D01*
X147244035Y-117547830D01*
X147343903Y-117333663D01*
X147405063Y-117105408D01*
X147425659Y-116870000D01*
X147405063Y-116634592D01*
X147343903Y-116406337D01*
X147244035Y-116192171D01*
X147108495Y-115998599D01*
X146941401Y-115831505D01*
X146755839Y-115701573D01*
X146716975Y-115657257D01*
X146702964Y-115600000D01*
X146716975Y-115542743D01*
X146755839Y-115498426D01*
X146941401Y-115368495D01*
X147108495Y-115201401D01*
X147244035Y-115007830D01*
X147343903Y-114793663D01*
X147405063Y-114565408D01*
X147425659Y-114330000D01*
X147405063Y-114094592D01*
X147343903Y-113866337D01*
X147244035Y-113652171D01*
X147108495Y-113458599D01*
X146941401Y-113291505D01*
X146755839Y-113161573D01*
X146716975Y-113117257D01*
X146702964Y-113060000D01*
X146716975Y-113002743D01*
X146755839Y-112958426D01*
X146941401Y-112828495D01*
X147108495Y-112661401D01*
X147244035Y-112467830D01*
X147343903Y-112253663D01*
X147405063Y-112025408D01*
X147425659Y-111790000D01*
X147405063Y-111554592D01*
X147343903Y-111326337D01*
X147244035Y-111112171D01*
X147108495Y-110918599D01*
X146941401Y-110751505D01*
X146755839Y-110621573D01*
X146716974Y-110577255D01*
X146702964Y-110519999D01*
X146716975Y-110462742D01*
X146755837Y-110418428D01*
X146941401Y-110288495D01*
X147108495Y-110121401D01*
X147244035Y-109927830D01*
X147343903Y-109713663D01*
X147405063Y-109485408D01*
X147425659Y-109250000D01*
X147405063Y-109014592D01*
X147343903Y-108786337D01*
X147244035Y-108572171D01*
X147108495Y-108378599D01*
X146941401Y-108211505D01*
X146755839Y-108081573D01*
X146716975Y-108037257D01*
X146702964Y-107980000D01*
X146716975Y-107922743D01*
X146755839Y-107878426D01*
X146941401Y-107748495D01*
X147108495Y-107581401D01*
X147244035Y-107387830D01*
X147343903Y-107173663D01*
X147405063Y-106945408D01*
X147425659Y-106710000D01*
X147405063Y-106474592D01*
X147343903Y-106246337D01*
X147244035Y-106032171D01*
X147108495Y-105838599D01*
X146941401Y-105671505D01*
X146755839Y-105541573D01*
X146716975Y-105497257D01*
X146702964Y-105440000D01*
X146716975Y-105382743D01*
X146755839Y-105338426D01*
X146941401Y-105208495D01*
X147108495Y-105041401D01*
X147244035Y-104847830D01*
X147343903Y-104633663D01*
X147405063Y-104405408D01*
X147425659Y-104170000D01*
X147405063Y-103934592D01*
X147343903Y-103706337D01*
X147244035Y-103492171D01*
X147108495Y-103298599D01*
X146941401Y-103131505D01*
X146755839Y-103001573D01*
X146716975Y-102957257D01*
X146702964Y-102900000D01*
X146716975Y-102842743D01*
X146755839Y-102798426D01*
X146941401Y-102668495D01*
X147108495Y-102501401D01*
X147244035Y-102307830D01*
X147343903Y-102093663D01*
X147405063Y-101865408D01*
X147425659Y-101630000D01*
X147405063Y-101394592D01*
X147343903Y-101166337D01*
X147244035Y-100952171D01*
X147108495Y-100758599D01*
X146941401Y-100591505D01*
X146755839Y-100461573D01*
X146716974Y-100417255D01*
X146702964Y-100359999D01*
X146716975Y-100302742D01*
X146755837Y-100258428D01*
X146941401Y-100128495D01*
X147108495Y-99961401D01*
X147244035Y-99767830D01*
X147343903Y-99553663D01*
X147405063Y-99325408D01*
X147425659Y-99090000D01*
X147405063Y-98854592D01*
X147343903Y-98626337D01*
X147244035Y-98412171D01*
X147108495Y-98218599D01*
X146941401Y-98051505D01*
X146755839Y-97921573D01*
X146716974Y-97877255D01*
X146702964Y-97819999D01*
X146716975Y-97762742D01*
X146755837Y-97718428D01*
X146941401Y-97588495D01*
X147108495Y-97421401D01*
X147244035Y-97227830D01*
X147343903Y-97013663D01*
X147405063Y-96785408D01*
X147425659Y-96550000D01*
X147405063Y-96314592D01*
X147343903Y-96086337D01*
X147244035Y-95872171D01*
X147108495Y-95678599D01*
X146941401Y-95511505D01*
X146755839Y-95381573D01*
X146716974Y-95337255D01*
X146702964Y-95279999D01*
X146716975Y-95222742D01*
X146755837Y-95178428D01*
X146941401Y-95048495D01*
X147108495Y-94881401D01*
X147244035Y-94687830D01*
X147343903Y-94473663D01*
X147405063Y-94245408D01*
X147425659Y-94010000D01*
X147405063Y-93774592D01*
X147343903Y-93546337D01*
X147244035Y-93332171D01*
X147108495Y-93138599D01*
X146941401Y-92971505D01*
X146755839Y-92841573D01*
X146716975Y-92797257D01*
X146702964Y-92740000D01*
X146716975Y-92682743D01*
X146755839Y-92638426D01*
X146941401Y-92508495D01*
X147108495Y-92341401D01*
X147244035Y-92147830D01*
X147343903Y-91933663D01*
X147405063Y-91705408D01*
X147425659Y-91470000D01*
X147405063Y-91234592D01*
X147343903Y-91006337D01*
X147244035Y-90792171D01*
X147108495Y-90598599D01*
X146941401Y-90431505D01*
X146755839Y-90301573D01*
X146716975Y-90257257D01*
X146702964Y-90200000D01*
X146716975Y-90142743D01*
X146755839Y-90098426D01*
X146941401Y-89968495D01*
X147108495Y-89801401D01*
X147244035Y-89607830D01*
X147343903Y-89393663D01*
X147405063Y-89165408D01*
X147425659Y-88930000D01*
X147405063Y-88694592D01*
X147343903Y-88466337D01*
X147244035Y-88252171D01*
X147108495Y-88058599D01*
X146941401Y-87891505D01*
X146755839Y-87761573D01*
X146716975Y-87717257D01*
X146702964Y-87660000D01*
X146716975Y-87602743D01*
X146755839Y-87558426D01*
X146941401Y-87428495D01*
X147108495Y-87261401D01*
X147244035Y-87067830D01*
X147343903Y-86853663D01*
X147405063Y-86625408D01*
X147425659Y-86390000D01*
X147405063Y-86154592D01*
X147343903Y-85926337D01*
X147244035Y-85712171D01*
X147108495Y-85518599D01*
X146941401Y-85351505D01*
X146755839Y-85221573D01*
X146716976Y-85177257D01*
X146702965Y-85120000D01*
X146716976Y-85062743D01*
X146755839Y-85018426D01*
X146941401Y-84888495D01*
X147108495Y-84721401D01*
X147244035Y-84527830D01*
X147343903Y-84313663D01*
X147405063Y-84085408D01*
X147425659Y-83850000D01*
X147423034Y-83820000D01*
X156124340Y-83820000D01*
X156144936Y-84055407D01*
X156147616Y-84065407D01*
X156206097Y-84283663D01*
X156305965Y-84497830D01*
X156441505Y-84691401D01*
X156608599Y-84858495D01*
X156802170Y-84994035D01*
X157016337Y-85093903D01*
X157244592Y-85155063D01*
X157480000Y-85175659D01*
X157715408Y-85155063D01*
X157943663Y-85093903D01*
X158157830Y-84994035D01*
X158351401Y-84858495D01*
X158518495Y-84691401D01*
X158654035Y-84497830D01*
X158753903Y-84283663D01*
X158815063Y-84055408D01*
X158835659Y-83820000D01*
X158815063Y-83584592D01*
X158753903Y-83356337D01*
X158654035Y-83142171D01*
X158518495Y-82948599D01*
X158351401Y-82781505D01*
X158165839Y-82651573D01*
X158126975Y-82607257D01*
X158112964Y-82550000D01*
X158126975Y-82492743D01*
X158165839Y-82448426D01*
X158351401Y-82318495D01*
X158518495Y-82151401D01*
X158654035Y-81957830D01*
X158753903Y-81743663D01*
X158815063Y-81515408D01*
X158835659Y-81280000D01*
X158815063Y-81044592D01*
X158753903Y-80816337D01*
X158654035Y-80602171D01*
X158518495Y-80408599D01*
X158351401Y-80241505D01*
X158165839Y-80111573D01*
X158126976Y-80067257D01*
X158112965Y-80010000D01*
X158126976Y-79952743D01*
X158165839Y-79908426D01*
X158351401Y-79778495D01*
X158518495Y-79611401D01*
X158654035Y-79417830D01*
X158753903Y-79203663D01*
X158815063Y-78975408D01*
X158835659Y-78740000D01*
X158815063Y-78504592D01*
X158753903Y-78276337D01*
X158654035Y-78062171D01*
X158518495Y-77868599D01*
X158351401Y-77701505D01*
X158165839Y-77571573D01*
X158126975Y-77527257D01*
X158112964Y-77470000D01*
X158126975Y-77412743D01*
X158165839Y-77368426D01*
X158351401Y-77238495D01*
X158518495Y-77071401D01*
X158654035Y-76877830D01*
X158753903Y-76663663D01*
X158815063Y-76435408D01*
X158835659Y-76200000D01*
X158815063Y-75964592D01*
X158753903Y-75736337D01*
X158654035Y-75522171D01*
X158518495Y-75328599D01*
X158351401Y-75161505D01*
X158165839Y-75031573D01*
X158126975Y-74987257D01*
X158112964Y-74930000D01*
X158126975Y-74872743D01*
X158165839Y-74828426D01*
X158351401Y-74698495D01*
X158518495Y-74531401D01*
X158654035Y-74337830D01*
X158753903Y-74123663D01*
X158815063Y-73895408D01*
X158835659Y-73660000D01*
X158815063Y-73424592D01*
X158753903Y-73196337D01*
X158654035Y-72982171D01*
X158518495Y-72788599D01*
X158351401Y-72621505D01*
X158165839Y-72491573D01*
X158126975Y-72447257D01*
X158112964Y-72390000D01*
X158126975Y-72332743D01*
X158165839Y-72288426D01*
X158351401Y-72158495D01*
X158518495Y-71991401D01*
X158654035Y-71797830D01*
X158753903Y-71583663D01*
X158815063Y-71355408D01*
X158835659Y-71120000D01*
X158815063Y-70884592D01*
X158753903Y-70656337D01*
X158654035Y-70442171D01*
X158518495Y-70248599D01*
X158351401Y-70081505D01*
X158165402Y-69951267D01*
X158126539Y-69906951D01*
X158112528Y-69849694D01*
X158126539Y-69792437D01*
X158165405Y-69748119D01*
X158351078Y-69618109D01*
X158518106Y-69451081D01*
X158653600Y-69257576D01*
X158753430Y-69043492D01*
X158810636Y-68830000D01*
X156149364Y-68830000D01*
X156206569Y-69043492D01*
X156306399Y-69257576D01*
X156441893Y-69451081D01*
X156608918Y-69618106D01*
X156794595Y-69748119D01*
X156833460Y-69792437D01*
X156847471Y-69849694D01*
X156833460Y-69906951D01*
X156794595Y-69951269D01*
X156608595Y-70081508D01*
X156441505Y-70248598D01*
X156305965Y-70442170D01*
X156206097Y-70656336D01*
X156144936Y-70884592D01*
X156124340Y-71120000D01*
X156144936Y-71355407D01*
X156147616Y-71365407D01*
X156206097Y-71583663D01*
X156305965Y-71797830D01*
X156441505Y-71991401D01*
X156608599Y-72158495D01*
X156794160Y-72288426D01*
X156833024Y-72332743D01*
X156847035Y-72390000D01*
X156833024Y-72447257D01*
X156794159Y-72491575D01*
X156608595Y-72621508D01*
X156441505Y-72788598D01*
X156305965Y-72982170D01*
X156206097Y-73196336D01*
X156144936Y-73424592D01*
X156124340Y-73659999D01*
X156144936Y-73895407D01*
X156147616Y-73905407D01*
X156206097Y-74123663D01*
X156305965Y-74337830D01*
X156441505Y-74531401D01*
X156608599Y-74698495D01*
X156794160Y-74828426D01*
X156833024Y-74872743D01*
X156847035Y-74930000D01*
X156833024Y-74987257D01*
X156794159Y-75031575D01*
X156608595Y-75161508D01*
X156441505Y-75328598D01*
X156305965Y-75522170D01*
X156206097Y-75736336D01*
X156144936Y-75964592D01*
X156124340Y-76200000D01*
X156144936Y-76435407D01*
X156147616Y-76445407D01*
X156206097Y-76663663D01*
X156305965Y-76877830D01*
X156441505Y-77071401D01*
X156608599Y-77238495D01*
X156794160Y-77368426D01*
X156833024Y-77412743D01*
X156847035Y-77470000D01*
X156833024Y-77527257D01*
X156794159Y-77571575D01*
X156608595Y-77701508D01*
X156441505Y-77868598D01*
X156305965Y-78062170D01*
X156206097Y-78276336D01*
X156144936Y-78504592D01*
X156124340Y-78739999D01*
X156144936Y-78975407D01*
X156147616Y-78985407D01*
X156206097Y-79203663D01*
X156305965Y-79417830D01*
X156441505Y-79611401D01*
X156608599Y-79778495D01*
X156794160Y-79908426D01*
X156833024Y-79952743D01*
X156847035Y-80010000D01*
X156833024Y-80067257D01*
X156794159Y-80111575D01*
X156608595Y-80241508D01*
X156441505Y-80408598D01*
X156305965Y-80602170D01*
X156206097Y-80816336D01*
X156144936Y-81044592D01*
X156124340Y-81280000D01*
X156144936Y-81515407D01*
X156147616Y-81525407D01*
X156206097Y-81743663D01*
X156305965Y-81957830D01*
X156441505Y-82151401D01*
X156608599Y-82318495D01*
X156794160Y-82448426D01*
X156833024Y-82492743D01*
X156847035Y-82550000D01*
X156833024Y-82607257D01*
X156794159Y-82651575D01*
X156608595Y-82781508D01*
X156441505Y-82948598D01*
X156305965Y-83142170D01*
X156206097Y-83356336D01*
X156144936Y-83584592D01*
X156124340Y-83820000D01*
X147423034Y-83820000D01*
X147405063Y-83614592D01*
X147343903Y-83386337D01*
X147244035Y-83172171D01*
X147108495Y-82978599D01*
X146941401Y-82811505D01*
X146755839Y-82681573D01*
X146716975Y-82637257D01*
X146702964Y-82580000D01*
X146716975Y-82522743D01*
X146755839Y-82478426D01*
X146941401Y-82348495D01*
X147108495Y-82181401D01*
X147244035Y-81987830D01*
X147343903Y-81773663D01*
X147405063Y-81545408D01*
X147425659Y-81310000D01*
X147405063Y-81074592D01*
X147343903Y-80846337D01*
X147244035Y-80632171D01*
X147108495Y-80438599D01*
X146941401Y-80271505D01*
X146755839Y-80141573D01*
X146716975Y-80097257D01*
X146702964Y-80040000D01*
X146716975Y-79982743D01*
X146755839Y-79938426D01*
X146941401Y-79808495D01*
X147108495Y-79641401D01*
X147244035Y-79447830D01*
X147343903Y-79233663D01*
X147405063Y-79005408D01*
X147425659Y-78770000D01*
X147405063Y-78534592D01*
X147343903Y-78306337D01*
X147244035Y-78092171D01*
X147108495Y-77898599D01*
X146941401Y-77731505D01*
X146755839Y-77601573D01*
X146716975Y-77557257D01*
X146702964Y-77500000D01*
X146716975Y-77442743D01*
X146755839Y-77398426D01*
X146941401Y-77268495D01*
X147108495Y-77101401D01*
X147244035Y-76907830D01*
X147343903Y-76693663D01*
X147405063Y-76465408D01*
X147425659Y-76230000D01*
X147405063Y-75994592D01*
X147343903Y-75766337D01*
X147244035Y-75552171D01*
X147108495Y-75358599D01*
X146941401Y-75191505D01*
X146755839Y-75061573D01*
X146716975Y-75017257D01*
X146702964Y-74960000D01*
X146716975Y-74902743D01*
X146755839Y-74858426D01*
X146941401Y-74728495D01*
X147108495Y-74561401D01*
X147244035Y-74367830D01*
X147343903Y-74153663D01*
X147405063Y-73925408D01*
X147425659Y-73690000D01*
X147405063Y-73454592D01*
X147343903Y-73226337D01*
X147244035Y-73012171D01*
X147108495Y-72818599D01*
X146941401Y-72651505D01*
X146755839Y-72521573D01*
X146716974Y-72477255D01*
X146702964Y-72419999D01*
X146716975Y-72362742D01*
X146755837Y-72318428D01*
X146941401Y-72188495D01*
X147108495Y-72021401D01*
X147244035Y-71827830D01*
X147343903Y-71613663D01*
X147405063Y-71385408D01*
X147425659Y-71150000D01*
X147405063Y-70914592D01*
X147343903Y-70686337D01*
X147244035Y-70472171D01*
X147108495Y-70278599D01*
X146941401Y-70111505D01*
X146755839Y-69981573D01*
X146716974Y-69937255D01*
X146702964Y-69879999D01*
X146716975Y-69822742D01*
X146755837Y-69778428D01*
X146941401Y-69648495D01*
X147108495Y-69481401D01*
X147244035Y-69287830D01*
X147343903Y-69073663D01*
X147405063Y-68845408D01*
X147425659Y-68610000D01*
X147405063Y-68374592D01*
X147343903Y-68146337D01*
X147244035Y-67932171D01*
X147108495Y-67738599D01*
X146941401Y-67571505D01*
X146755839Y-67441573D01*
X146716976Y-67397257D01*
X146702965Y-67340000D01*
X146716976Y-67282743D01*
X146755839Y-67238426D01*
X146941401Y-67108495D01*
X147108495Y-66941401D01*
X147110968Y-66937869D01*
X156129500Y-66937869D01*
X156135909Y-66997483D01*
X156186204Y-67132331D01*
X156272454Y-67247546D01*
X156387669Y-67333796D01*
X156519598Y-67383002D01*
X156569978Y-67417981D01*
X156597431Y-67472825D01*
X156595242Y-67534118D01*
X156563947Y-67586865D01*
X156441888Y-67708924D01*
X156306400Y-67902421D01*
X156206569Y-68116507D01*
X156149364Y-68329999D01*
X156149364Y-68330000D01*
X158810636Y-68330000D01*
X158810635Y-68329999D01*
X158753430Y-68116507D01*
X158653599Y-67902421D01*
X158518109Y-67708921D01*
X158396053Y-67586865D01*
X158364757Y-67534119D01*
X158362568Y-67472826D01*
X158390021Y-67417981D01*
X158440398Y-67383003D01*
X158572331Y-67333796D01*
X158687546Y-67247546D01*
X158773796Y-67132331D01*
X158824091Y-66997483D01*
X158830500Y-66937873D01*
X158830499Y-65142128D01*
X158824091Y-65082517D01*
X158773796Y-64947669D01*
X158687546Y-64832454D01*
X158572331Y-64746204D01*
X158437483Y-64695909D01*
X158377873Y-64689500D01*
X158377869Y-64689500D01*
X156582130Y-64689500D01*
X156522515Y-64695909D01*
X156387669Y-64746204D01*
X156272454Y-64832454D01*
X156186204Y-64947668D01*
X156135909Y-65082516D01*
X156129500Y-65142130D01*
X156129500Y-66937869D01*
X147110968Y-66937869D01*
X147244035Y-66747830D01*
X147343903Y-66533663D01*
X147405063Y-66305408D01*
X147425659Y-66070000D01*
X147405063Y-65834592D01*
X147343903Y-65606337D01*
X147244035Y-65392171D01*
X147108495Y-65198599D01*
X146941401Y-65031505D01*
X146755839Y-64901573D01*
X146716975Y-64857257D01*
X146702964Y-64800000D01*
X146716975Y-64742743D01*
X146755839Y-64698426D01*
X146941401Y-64568495D01*
X147108495Y-64401401D01*
X147244035Y-64207830D01*
X147343903Y-63993663D01*
X147405063Y-63765408D01*
X147425659Y-63530000D01*
X147405063Y-63294592D01*
X147343903Y-63066337D01*
X147244035Y-62852171D01*
X147108495Y-62658599D01*
X146986181Y-62536285D01*
X146954885Y-62483539D01*
X146952696Y-62422246D01*
X146980149Y-62367401D01*
X147030528Y-62332422D01*
X147162089Y-62283352D01*
X147277188Y-62197188D01*
X147363352Y-62082089D01*
X147413597Y-61947375D01*
X147420000Y-61887824D01*
X147420000Y-61240000D01*
X142199364Y-61240000D01*
X142256569Y-61453492D01*
X142356399Y-61667576D01*
X142491893Y-61861081D01*
X142658918Y-62028106D01*
X142844595Y-62158119D01*
X142883460Y-62202437D01*
X142897471Y-62259694D01*
X142883460Y-62316951D01*
X142844595Y-62361269D01*
X142658595Y-62491508D01*
X142491505Y-62658598D01*
X142355965Y-62852170D01*
X142256097Y-63066336D01*
X142194936Y-63294592D01*
X142174340Y-63530000D01*
X142194936Y-63765407D01*
X142239709Y-63932501D01*
X142256097Y-63993663D01*
X142355965Y-64207830D01*
X142491505Y-64401401D01*
X142658599Y-64568495D01*
X142844160Y-64698426D01*
X142883024Y-64742743D01*
X142897035Y-64800000D01*
X142883024Y-64857257D01*
X142844158Y-64901575D01*
X142686610Y-65011892D01*
X142658595Y-65031508D01*
X142491505Y-65198598D01*
X142355965Y-65392170D01*
X142256097Y-65606336D01*
X142194936Y-65834592D01*
X142174340Y-66069999D01*
X142194936Y-66305407D01*
X142239709Y-66472502D01*
X142256097Y-66533663D01*
X142355965Y-66747830D01*
X142491505Y-66941401D01*
X142658599Y-67108495D01*
X142844160Y-67238426D01*
X142883024Y-67282743D01*
X142897035Y-67340000D01*
X142883024Y-67397257D01*
X142844158Y-67441575D01*
X142700890Y-67541893D01*
X142658595Y-67571508D01*
X142491505Y-67738598D01*
X142355965Y-67932170D01*
X142256097Y-68146336D01*
X142194936Y-68374592D01*
X142174340Y-68609999D01*
X142194936Y-68845407D01*
X142239709Y-69012501D01*
X142256097Y-69073663D01*
X142355965Y-69287830D01*
X142491505Y-69481401D01*
X142658599Y-69648495D01*
X142844160Y-69778426D01*
X142883024Y-69822743D01*
X142897035Y-69880000D01*
X142883024Y-69937257D01*
X142844160Y-69981574D01*
X142701440Y-70081508D01*
X142658595Y-70111508D01*
X142491505Y-70278598D01*
X142355965Y-70472170D01*
X142256097Y-70686336D01*
X142194936Y-70914592D01*
X142174340Y-71150000D01*
X142194936Y-71385407D01*
X142239709Y-71552502D01*
X142256097Y-71613663D01*
X142355965Y-71827830D01*
X142491505Y-72021401D01*
X142658599Y-72188495D01*
X142844160Y-72318426D01*
X142883024Y-72362743D01*
X142897035Y-72420000D01*
X142883024Y-72477257D01*
X142844160Y-72521574D01*
X142701440Y-72621508D01*
X142658595Y-72651508D01*
X142491505Y-72818598D01*
X142355965Y-73012170D01*
X142256097Y-73226336D01*
X142194936Y-73454592D01*
X142174340Y-73689999D01*
X142194936Y-73925407D01*
X142239709Y-74092501D01*
X142256097Y-74153663D01*
X142355965Y-74367830D01*
X142491505Y-74561401D01*
X142658599Y-74728495D01*
X142844160Y-74858426D01*
X142883024Y-74902743D01*
X142897035Y-74960000D01*
X142883024Y-75017257D01*
X142844158Y-75061575D01*
X142701440Y-75161508D01*
X142658595Y-75191508D01*
X142491505Y-75358598D01*
X142355965Y-75552170D01*
X142256097Y-75766336D01*
X142194936Y-75994592D01*
X142174340Y-76230000D01*
X142194936Y-76465407D01*
X142239709Y-76632502D01*
X142256097Y-76693663D01*
X142355965Y-76907830D01*
X142491505Y-77101401D01*
X142658599Y-77268495D01*
X142844160Y-77398426D01*
X142883024Y-77442743D01*
X142897035Y-77500000D01*
X142883024Y-77557257D01*
X142844158Y-77601575D01*
X142701440Y-77701508D01*
X142658595Y-77731508D01*
X142491505Y-77898598D01*
X142355965Y-78092170D01*
X142256097Y-78306336D01*
X142194936Y-78534592D01*
X142174340Y-78769999D01*
X142194936Y-79005407D01*
X142239709Y-79172501D01*
X142256097Y-79233663D01*
X142355965Y-79447830D01*
X142491505Y-79641401D01*
X142658599Y-79808495D01*
X142844160Y-79938426D01*
X142883024Y-79982743D01*
X142897035Y-80040000D01*
X142883024Y-80097257D01*
X142844158Y-80141575D01*
X142701440Y-80241508D01*
X142658595Y-80271508D01*
X142491505Y-80438598D01*
X142355965Y-80632170D01*
X142256097Y-80846336D01*
X142194936Y-81074592D01*
X142174340Y-81310000D01*
X142194936Y-81545407D01*
X142239709Y-81712502D01*
X142256097Y-81773663D01*
X142355965Y-81987830D01*
X142491505Y-82181401D01*
X142658599Y-82348495D01*
X142844160Y-82478426D01*
X142883024Y-82522743D01*
X142897035Y-82580000D01*
X142883024Y-82637257D01*
X142844158Y-82681575D01*
X142701440Y-82781508D01*
X142658595Y-82811508D01*
X142491505Y-82978598D01*
X142355965Y-83172170D01*
X142256097Y-83386336D01*
X142194936Y-83614592D01*
X142174340Y-83849999D01*
X142194936Y-84085407D01*
X142239709Y-84252501D01*
X142256097Y-84313663D01*
X142355965Y-84527830D01*
X142491505Y-84721401D01*
X142658599Y-84888495D01*
X142844160Y-85018426D01*
X142883024Y-85062743D01*
X142897035Y-85120000D01*
X142883024Y-85177257D01*
X142844159Y-85221575D01*
X142658595Y-85351508D01*
X142491505Y-85518598D01*
X142355965Y-85712170D01*
X142256097Y-85926336D01*
X142194936Y-86154592D01*
X142174340Y-86390000D01*
X142194936Y-86625407D01*
X142239709Y-86792501D01*
X142256097Y-86853663D01*
X142355965Y-87067830D01*
X142491505Y-87261401D01*
X142658599Y-87428495D01*
X142844160Y-87558426D01*
X142883024Y-87602743D01*
X142897035Y-87660000D01*
X142883024Y-87717257D01*
X142844158Y-87761575D01*
X142686610Y-87871892D01*
X142658595Y-87891508D01*
X142491505Y-88058598D01*
X142355965Y-88252170D01*
X142256097Y-88466336D01*
X142194936Y-88694592D01*
X142174340Y-88930000D01*
X142194936Y-89165407D01*
X142239709Y-89332502D01*
X142256097Y-89393663D01*
X142355965Y-89607830D01*
X142491505Y-89801401D01*
X142658599Y-89968495D01*
X142844160Y-90098426D01*
X142883024Y-90142743D01*
X142897035Y-90200000D01*
X142883024Y-90257257D01*
X142844159Y-90301575D01*
X142658595Y-90431508D01*
X142491505Y-90598598D01*
X142355965Y-90792170D01*
X142256097Y-91006336D01*
X142194936Y-91234592D01*
X142174340Y-91469999D01*
X142194936Y-91705407D01*
X142239709Y-91872502D01*
X142256097Y-91933663D01*
X142355965Y-92147830D01*
X142491505Y-92341401D01*
X142658599Y-92508495D01*
X142844160Y-92638426D01*
X142883024Y-92682743D01*
X142897035Y-92740000D01*
X142883024Y-92797257D01*
X142844159Y-92841575D01*
X142658595Y-92971508D01*
X142491505Y-93138598D01*
X142355965Y-93332170D01*
X142256097Y-93546336D01*
X142194936Y-93774592D01*
X142174340Y-94010000D01*
X142194936Y-94245407D01*
X142239709Y-94412501D01*
X142256097Y-94473663D01*
X142355965Y-94687830D01*
X142491505Y-94881401D01*
X142658599Y-95048495D01*
X142844160Y-95178426D01*
X142883024Y-95222743D01*
X142897035Y-95280000D01*
X142883024Y-95337257D01*
X142844159Y-95381575D01*
X142658595Y-95511508D01*
X142491505Y-95678598D01*
X142355965Y-95872170D01*
X142256097Y-96086336D01*
X142194936Y-96314592D01*
X142174340Y-96550000D01*
X142194936Y-96785407D01*
X142239709Y-96952501D01*
X142256097Y-97013663D01*
X142355965Y-97227830D01*
X142491505Y-97421401D01*
X142658599Y-97588495D01*
X142844160Y-97718426D01*
X142883024Y-97762743D01*
X142897035Y-97820000D01*
X142883024Y-97877257D01*
X142844159Y-97921575D01*
X142658595Y-98051508D01*
X142491505Y-98218598D01*
X142355965Y-98412170D01*
X142256097Y-98626336D01*
X142194936Y-98854592D01*
X142174340Y-99089999D01*
X142194936Y-99325407D01*
X142239709Y-99492502D01*
X142256097Y-99553663D01*
X142355965Y-99767830D01*
X142491505Y-99961401D01*
X142658599Y-100128495D01*
X142844160Y-100258426D01*
X142883024Y-100302743D01*
X142897035Y-100360000D01*
X142883024Y-100417257D01*
X142844159Y-100461575D01*
X142658595Y-100591508D01*
X142491505Y-100758598D01*
X142355965Y-100952170D01*
X142256097Y-101166336D01*
X142194936Y-101394592D01*
X142174340Y-101629999D01*
X142194936Y-101865407D01*
X142239709Y-102032502D01*
X142256097Y-102093663D01*
X142355965Y-102307830D01*
X142491505Y-102501401D01*
X142658599Y-102668495D01*
X142844160Y-102798426D01*
X142883024Y-102842743D01*
X142897035Y-102900000D01*
X142883024Y-102957257D01*
X142844159Y-103001575D01*
X142658595Y-103131508D01*
X142491505Y-103298598D01*
X142355965Y-103492170D01*
X142256097Y-103706336D01*
X142194936Y-103934592D01*
X142174340Y-104170000D01*
X142194936Y-104405407D01*
X142239709Y-104572501D01*
X142256097Y-104633663D01*
X142355965Y-104847830D01*
X142491505Y-105041401D01*
X142658599Y-105208495D01*
X142844160Y-105338426D01*
X142883024Y-105382743D01*
X142897035Y-105440000D01*
X142883024Y-105497257D01*
X142844159Y-105541575D01*
X142658595Y-105671508D01*
X142491505Y-105838598D01*
X142355965Y-106032170D01*
X142256097Y-106246336D01*
X142194936Y-106474592D01*
X142174340Y-106710000D01*
X142194936Y-106945407D01*
X142239709Y-107112501D01*
X142256097Y-107173663D01*
X142355965Y-107387830D01*
X142491505Y-107581401D01*
X142658599Y-107748495D01*
X142844160Y-107878426D01*
X142883024Y-107922743D01*
X142897035Y-107980000D01*
X142883024Y-108037257D01*
X142844159Y-108081575D01*
X142658595Y-108211508D01*
X142491505Y-108378598D01*
X142355965Y-108572170D01*
X142256097Y-108786336D01*
X142194936Y-109014592D01*
X142174340Y-109250000D01*
X142194936Y-109485407D01*
X142239709Y-109652502D01*
X142256097Y-109713663D01*
X142355965Y-109927830D01*
X142491505Y-110121401D01*
X142658599Y-110288495D01*
X142844160Y-110418426D01*
X142883024Y-110462743D01*
X142897035Y-110520000D01*
X142883024Y-110577257D01*
X142844159Y-110621575D01*
X142658595Y-110751508D01*
X142491505Y-110918598D01*
X142355965Y-111112170D01*
X142256097Y-111326336D01*
X142194936Y-111554592D01*
X142174340Y-111789999D01*
X142194936Y-112025407D01*
X142239709Y-112192502D01*
X142256097Y-112253663D01*
X142355965Y-112467830D01*
X142491505Y-112661401D01*
X142658599Y-112828495D01*
X142844160Y-112958426D01*
X142883024Y-113002743D01*
X142897035Y-113060000D01*
X142883024Y-113117257D01*
X142844159Y-113161575D01*
X142658595Y-113291508D01*
X142491505Y-113458598D01*
X142355965Y-113652170D01*
X142256097Y-113866336D01*
X142194936Y-114094592D01*
X142174340Y-114330000D01*
X142194936Y-114565407D01*
X142239709Y-114732501D01*
X142256097Y-114793663D01*
X142355965Y-115007830D01*
X142491505Y-115201401D01*
X142658599Y-115368495D01*
X142844160Y-115498426D01*
X142883024Y-115542743D01*
X142897035Y-115600000D01*
X142883024Y-115657257D01*
X142844159Y-115701575D01*
X142658595Y-115831508D01*
X142491505Y-115998598D01*
X142355965Y-116192170D01*
X142256097Y-116406336D01*
X142194936Y-116634592D01*
X142174340Y-116869999D01*
X142194936Y-117105407D01*
X142239709Y-117272502D01*
X142256097Y-117333663D01*
X142355965Y-117547830D01*
X142491505Y-117741401D01*
X142658599Y-117908495D01*
X142844160Y-118038426D01*
X142883024Y-118082743D01*
X142897035Y-118140000D01*
X142883024Y-118197257D01*
X142844159Y-118241575D01*
X142658595Y-118371508D01*
X142491505Y-118538598D01*
X142355965Y-118732170D01*
X142256097Y-118946336D01*
X142194936Y-119174592D01*
X142174340Y-119409999D01*
X96633909Y-119409999D01*
X96635659Y-119390000D01*
X96615063Y-119154592D01*
X96553903Y-118926337D01*
X96454035Y-118712171D01*
X96318495Y-118518599D01*
X96151401Y-118351505D01*
X95965839Y-118221573D01*
X95926974Y-118177255D01*
X95912964Y-118119999D01*
X95926975Y-118062742D01*
X95965837Y-118018428D01*
X96151401Y-117888495D01*
X96318495Y-117721401D01*
X96454035Y-117527830D01*
X96553903Y-117313663D01*
X96615063Y-117085408D01*
X96635659Y-116850000D01*
X96615063Y-116614592D01*
X96553903Y-116386337D01*
X96454035Y-116172171D01*
X96318495Y-115978599D01*
X96151401Y-115811505D01*
X95965839Y-115681573D01*
X95926975Y-115637257D01*
X95912964Y-115580000D01*
X95926975Y-115522743D01*
X95965839Y-115478426D01*
X96151401Y-115348495D01*
X96318495Y-115181401D01*
X96454035Y-114987830D01*
X96553903Y-114773663D01*
X96615063Y-114545408D01*
X96635659Y-114310000D01*
X96615063Y-114074592D01*
X96553903Y-113846337D01*
X96454035Y-113632171D01*
X96318495Y-113438599D01*
X96151401Y-113271505D01*
X95965839Y-113141573D01*
X95926975Y-113097257D01*
X95912964Y-113040000D01*
X95926975Y-112982743D01*
X95965839Y-112938426D01*
X96151401Y-112808495D01*
X96318495Y-112641401D01*
X96454035Y-112447830D01*
X96553903Y-112233663D01*
X96615063Y-112005408D01*
X96635659Y-111770000D01*
X96615063Y-111534592D01*
X96553903Y-111306337D01*
X96454035Y-111092171D01*
X96318495Y-110898599D01*
X96151401Y-110731505D01*
X95965839Y-110601573D01*
X95926976Y-110557257D01*
X95912965Y-110500000D01*
X95926976Y-110442743D01*
X95965839Y-110398426D01*
X96151401Y-110268495D01*
X96318495Y-110101401D01*
X96454035Y-109907830D01*
X96553903Y-109693663D01*
X96615063Y-109465408D01*
X96635659Y-109230000D01*
X96615063Y-108994592D01*
X96553903Y-108766337D01*
X96454035Y-108552171D01*
X96318495Y-108358599D01*
X96151401Y-108191505D01*
X95965839Y-108061573D01*
X95926974Y-108017255D01*
X95912964Y-107959999D01*
X95926975Y-107902742D01*
X95965837Y-107858428D01*
X96151401Y-107728495D01*
X96318495Y-107561401D01*
X96454035Y-107367830D01*
X96553903Y-107153663D01*
X96615063Y-106925408D01*
X96635659Y-106690000D01*
X96615063Y-106454592D01*
X96553903Y-106226337D01*
X96454035Y-106012171D01*
X96318495Y-105818599D01*
X96151401Y-105651505D01*
X95965839Y-105521573D01*
X95926975Y-105477257D01*
X95912964Y-105420000D01*
X95926975Y-105362743D01*
X95965839Y-105318426D01*
X96151401Y-105188495D01*
X96318495Y-105021401D01*
X96454035Y-104827830D01*
X96553903Y-104613663D01*
X96615063Y-104385408D01*
X96635659Y-104150000D01*
X96615063Y-103914592D01*
X96553903Y-103686337D01*
X96454035Y-103472171D01*
X96318495Y-103278599D01*
X96151401Y-103111505D01*
X95965839Y-102981573D01*
X95926975Y-102937257D01*
X95912964Y-102880000D01*
X95926975Y-102822743D01*
X95965839Y-102778426D01*
X96151401Y-102648495D01*
X96318495Y-102481401D01*
X96454035Y-102287830D01*
X96553903Y-102073663D01*
X96615063Y-101845408D01*
X96635659Y-101610000D01*
X96615063Y-101374592D01*
X96553903Y-101146337D01*
X96454035Y-100932171D01*
X96318495Y-100738599D01*
X96151401Y-100571505D01*
X95965839Y-100441573D01*
X95926975Y-100397257D01*
X95912964Y-100340000D01*
X95926975Y-100282743D01*
X95965839Y-100238426D01*
X96151401Y-100108495D01*
X96318495Y-99941401D01*
X96454035Y-99747830D01*
X96553903Y-99533663D01*
X96615063Y-99305408D01*
X96635659Y-99070000D01*
X96615063Y-98834592D01*
X96553903Y-98606337D01*
X96454035Y-98392171D01*
X96318495Y-98198599D01*
X96151401Y-98031505D01*
X95965839Y-97901573D01*
X95926974Y-97857255D01*
X95912964Y-97799999D01*
X95926975Y-97742742D01*
X95965837Y-97698428D01*
X96151401Y-97568495D01*
X96318495Y-97401401D01*
X96454035Y-97207830D01*
X96553903Y-96993663D01*
X96615063Y-96765408D01*
X96635659Y-96530000D01*
X96615063Y-96294592D01*
X96553903Y-96066337D01*
X96454035Y-95852171D01*
X96318495Y-95658599D01*
X96151401Y-95491505D01*
X95965839Y-95361573D01*
X95926975Y-95317257D01*
X95912964Y-95260000D01*
X95926975Y-95202743D01*
X95965839Y-95158426D01*
X96151401Y-95028495D01*
X96318495Y-94861401D01*
X96454035Y-94667830D01*
X96553903Y-94453663D01*
X96615063Y-94225408D01*
X96635659Y-93990000D01*
X96615063Y-93754592D01*
X96553903Y-93526337D01*
X96454035Y-93312171D01*
X96318495Y-93118599D01*
X96151401Y-92951505D01*
X95965839Y-92821573D01*
X95926976Y-92777257D01*
X95912965Y-92720000D01*
X95926976Y-92662743D01*
X95965839Y-92618426D01*
X96151401Y-92488495D01*
X96318495Y-92321401D01*
X96454035Y-92127830D01*
X96553903Y-91913663D01*
X96615063Y-91685408D01*
X96635659Y-91450000D01*
X96615063Y-91214592D01*
X96553903Y-90986337D01*
X96454035Y-90772171D01*
X96318495Y-90578599D01*
X96151401Y-90411505D01*
X95965839Y-90281573D01*
X95926975Y-90237257D01*
X95912964Y-90180000D01*
X95926975Y-90122743D01*
X95965839Y-90078426D01*
X96151401Y-89948495D01*
X96318495Y-89781401D01*
X96454035Y-89587830D01*
X96553903Y-89373663D01*
X96615063Y-89145408D01*
X96635659Y-88910000D01*
X96615063Y-88674592D01*
X96553903Y-88446337D01*
X96454035Y-88232171D01*
X96318495Y-88038599D01*
X96151401Y-87871505D01*
X95965839Y-87741573D01*
X95926975Y-87697257D01*
X95912964Y-87640000D01*
X95926975Y-87582743D01*
X95965839Y-87538426D01*
X96151401Y-87408495D01*
X96318495Y-87241401D01*
X96454035Y-87047830D01*
X96553903Y-86833663D01*
X96615063Y-86605408D01*
X96635659Y-86370000D01*
X96615063Y-86134592D01*
X96553903Y-85906337D01*
X96454035Y-85692171D01*
X96318495Y-85498599D01*
X96151401Y-85331505D01*
X95965839Y-85201573D01*
X95926975Y-85157257D01*
X95912964Y-85100000D01*
X95926975Y-85042743D01*
X95965839Y-84998426D01*
X96151401Y-84868495D01*
X96318495Y-84701401D01*
X96454035Y-84507830D01*
X96553903Y-84293663D01*
X96615063Y-84065408D01*
X96635659Y-83830000D01*
X96615063Y-83594592D01*
X96553903Y-83366337D01*
X96454035Y-83152171D01*
X96318495Y-82958599D01*
X96151401Y-82791505D01*
X95965839Y-82661573D01*
X95926975Y-82617257D01*
X95912964Y-82560000D01*
X95926975Y-82502743D01*
X95965839Y-82458426D01*
X96151401Y-82328495D01*
X96318495Y-82161401D01*
X96454035Y-81967830D01*
X96553903Y-81753663D01*
X96615063Y-81525408D01*
X96635659Y-81290000D01*
X96615063Y-81054592D01*
X96553903Y-80826337D01*
X96454035Y-80612171D01*
X96318495Y-80418599D01*
X96151401Y-80251505D01*
X95965839Y-80121573D01*
X95926974Y-80077255D01*
X95912964Y-80019999D01*
X95926975Y-79962742D01*
X95965837Y-79918428D01*
X96151401Y-79788495D01*
X96318495Y-79621401D01*
X96454035Y-79427830D01*
X96553903Y-79213663D01*
X96615063Y-78985408D01*
X96635659Y-78750000D01*
X96615063Y-78514592D01*
X96553903Y-78286337D01*
X96454035Y-78072171D01*
X96318495Y-77878599D01*
X96151401Y-77711505D01*
X95965839Y-77581573D01*
X95926974Y-77537255D01*
X95912964Y-77479999D01*
X95926975Y-77422742D01*
X95965837Y-77378428D01*
X96151401Y-77248495D01*
X96318495Y-77081401D01*
X96454035Y-76887830D01*
X96553903Y-76673663D01*
X96615063Y-76445408D01*
X96635659Y-76210000D01*
X96615063Y-75974592D01*
X96553903Y-75746337D01*
X96454035Y-75532171D01*
X96318495Y-75338599D01*
X96151401Y-75171505D01*
X95965839Y-75041573D01*
X95926975Y-74997257D01*
X95912964Y-74940000D01*
X95926975Y-74882743D01*
X95965839Y-74838426D01*
X96151401Y-74708495D01*
X96318495Y-74541401D01*
X96454035Y-74347830D01*
X96553903Y-74133663D01*
X96615063Y-73905408D01*
X96635659Y-73670000D01*
X96615063Y-73434592D01*
X96553903Y-73206337D01*
X96454035Y-72992171D01*
X96318495Y-72798599D01*
X96151401Y-72631505D01*
X95965839Y-72501573D01*
X95926975Y-72457257D01*
X95912964Y-72400000D01*
X95926975Y-72342743D01*
X95965839Y-72298426D01*
X96151401Y-72168495D01*
X96318495Y-72001401D01*
X96454035Y-71807830D01*
X96553903Y-71593663D01*
X96615063Y-71365408D01*
X96635659Y-71130000D01*
X96615063Y-70894592D01*
X96553903Y-70666337D01*
X96454035Y-70452171D01*
X96318495Y-70258599D01*
X96151401Y-70091505D01*
X95965839Y-69961573D01*
X95926974Y-69917255D01*
X95912964Y-69859999D01*
X95926975Y-69802742D01*
X95965837Y-69758428D01*
X96151401Y-69628495D01*
X96318495Y-69461401D01*
X96454035Y-69267830D01*
X96553903Y-69053663D01*
X96615063Y-68825408D01*
X96635659Y-68590000D01*
X96615063Y-68354592D01*
X96553903Y-68126337D01*
X96454035Y-67912171D01*
X96318495Y-67718599D01*
X96151401Y-67551505D01*
X95965839Y-67421573D01*
X95926976Y-67377257D01*
X95912965Y-67320000D01*
X95926976Y-67262743D01*
X95965839Y-67218426D01*
X96151401Y-67088495D01*
X96318495Y-66921401D01*
X96454035Y-66727830D01*
X96553903Y-66513663D01*
X96615063Y-66285408D01*
X96635659Y-66050000D01*
X96615063Y-65814592D01*
X96553903Y-65586337D01*
X96454035Y-65372171D01*
X96318495Y-65178599D01*
X96151401Y-65011505D01*
X95965839Y-64881573D01*
X95926975Y-64837257D01*
X95912964Y-64780000D01*
X95926975Y-64722743D01*
X95965839Y-64678426D01*
X96151401Y-64548495D01*
X96318495Y-64381401D01*
X96454035Y-64187830D01*
X96553903Y-63973663D01*
X96615063Y-63745408D01*
X96635659Y-63510000D01*
X96615063Y-63274592D01*
X96553903Y-63046337D01*
X96454035Y-62832171D01*
X96318495Y-62638599D01*
X96196181Y-62516284D01*
X96164885Y-62463539D01*
X96162696Y-62402246D01*
X96190149Y-62347401D01*
X96240528Y-62312422D01*
X96372089Y-62263352D01*
X96487188Y-62177188D01*
X96573352Y-62062089D01*
X96623597Y-61927375D01*
X96630000Y-61867824D01*
X96630000Y-61220000D01*
X91409364Y-61220000D01*
X91466569Y-61433492D01*
X91566399Y-61647576D01*
X91701893Y-61841081D01*
X91868918Y-62008106D01*
X92054595Y-62138119D01*
X92093460Y-62182437D01*
X92107471Y-62239694D01*
X92093460Y-62296951D01*
X92054595Y-62341269D01*
X91868595Y-62471508D01*
X91701505Y-62638598D01*
X91565965Y-62832170D01*
X91466097Y-63046336D01*
X91404936Y-63274592D01*
X91384340Y-63510000D01*
X91404936Y-63745407D01*
X91449709Y-63912501D01*
X91466097Y-63973663D01*
X91565965Y-64187830D01*
X91701505Y-64381401D01*
X91868599Y-64548495D01*
X92054597Y-64678732D01*
X92093460Y-64723048D01*
X92107471Y-64780305D01*
X92093461Y-64837561D01*
X92054595Y-64881880D01*
X91868919Y-65011892D01*
X91701890Y-65178921D01*
X91566400Y-65372421D01*
X91466569Y-65586507D01*
X91409364Y-65799999D01*
X91409364Y-65800000D01*
X92866000Y-65800000D01*
X92928000Y-65816613D01*
X92973387Y-65862000D01*
X92990000Y-65924000D01*
X92990000Y-66176000D01*
X92973387Y-66238000D01*
X92928000Y-66283387D01*
X92866000Y-66300000D01*
X91409364Y-66300000D01*
X91466569Y-66513492D01*
X91566399Y-66727576D01*
X91701893Y-66921081D01*
X91868918Y-67088106D01*
X92054595Y-67218119D01*
X92093460Y-67262437D01*
X92107471Y-67319694D01*
X92093460Y-67376951D01*
X92054595Y-67421269D01*
X91907632Y-67524173D01*
X91882327Y-67541893D01*
X91868595Y-67551508D01*
X91701505Y-67718598D01*
X91565965Y-67912170D01*
X91466097Y-68126336D01*
X91404936Y-68354592D01*
X91384340Y-68590000D01*
X91404936Y-68825407D01*
X91449709Y-68992502D01*
X91466097Y-69053663D01*
X91565965Y-69267830D01*
X91701505Y-69461401D01*
X91868599Y-69628495D01*
X92054160Y-69758426D01*
X92093024Y-69802743D01*
X92107035Y-69860000D01*
X92093024Y-69917257D01*
X92054160Y-69961574D01*
X91882877Y-70081508D01*
X91868595Y-70091508D01*
X91701505Y-70258598D01*
X91565965Y-70452170D01*
X91466097Y-70666336D01*
X91404936Y-70894592D01*
X91384340Y-71129999D01*
X91404936Y-71365407D01*
X91449709Y-71532502D01*
X91466097Y-71593663D01*
X91565965Y-71807830D01*
X91701505Y-72001401D01*
X91868599Y-72168495D01*
X92054160Y-72298426D01*
X92093024Y-72342743D01*
X92107035Y-72400000D01*
X92093024Y-72457257D01*
X92054158Y-72501575D01*
X91882877Y-72621508D01*
X91868595Y-72631508D01*
X91701505Y-72798598D01*
X91565965Y-72992170D01*
X91466097Y-73206336D01*
X91404936Y-73434592D01*
X91384340Y-73670000D01*
X91404936Y-73905407D01*
X91449709Y-74072501D01*
X91466097Y-74133663D01*
X91565965Y-74347830D01*
X91701505Y-74541401D01*
X91868599Y-74708495D01*
X92054160Y-74838426D01*
X92093024Y-74882743D01*
X92107035Y-74940000D01*
X92093024Y-74997257D01*
X92054158Y-75041575D01*
X91882877Y-75161508D01*
X91868595Y-75171508D01*
X91701505Y-75338598D01*
X91565965Y-75532170D01*
X91466097Y-75746336D01*
X91404936Y-75974592D01*
X91384340Y-76209999D01*
X91404936Y-76445407D01*
X91449709Y-76612502D01*
X91466097Y-76673663D01*
X91565965Y-76887830D01*
X91701505Y-77081401D01*
X91868599Y-77248495D01*
X92054160Y-77378426D01*
X92093024Y-77422743D01*
X92107035Y-77480000D01*
X92093024Y-77537257D01*
X92054160Y-77581574D01*
X91882877Y-77701508D01*
X91868595Y-77711508D01*
X91701505Y-77878598D01*
X91565965Y-78072170D01*
X91466097Y-78286336D01*
X91404936Y-78514592D01*
X91384340Y-78750000D01*
X91404936Y-78985407D01*
X91449709Y-79152501D01*
X91466097Y-79213663D01*
X91565965Y-79427830D01*
X91701505Y-79621401D01*
X91868599Y-79788495D01*
X92054160Y-79918426D01*
X92093024Y-79962743D01*
X92107035Y-80020000D01*
X92093024Y-80077257D01*
X92054160Y-80121574D01*
X91882877Y-80241508D01*
X91868595Y-80251508D01*
X91701505Y-80418598D01*
X91565965Y-80612170D01*
X91466097Y-80826336D01*
X91404936Y-81054592D01*
X91384340Y-81289999D01*
X91404936Y-81525407D01*
X91449709Y-81692502D01*
X91466097Y-81753663D01*
X91565965Y-81967830D01*
X91701505Y-82161401D01*
X91868599Y-82328495D01*
X92054160Y-82458426D01*
X92093024Y-82502743D01*
X92107035Y-82560000D01*
X92093024Y-82617257D01*
X92054158Y-82661575D01*
X91882877Y-82781508D01*
X91868595Y-82791508D01*
X91701505Y-82958598D01*
X91565965Y-83152170D01*
X91466097Y-83366336D01*
X91404936Y-83594592D01*
X91384340Y-83830000D01*
X91404936Y-84065407D01*
X91449709Y-84232501D01*
X91466097Y-84293663D01*
X91565965Y-84507830D01*
X91701505Y-84701401D01*
X91868599Y-84868495D01*
X92054160Y-84998426D01*
X92093024Y-85042743D01*
X92107035Y-85100000D01*
X92093024Y-85157257D01*
X92054159Y-85201575D01*
X91868595Y-85331508D01*
X91701505Y-85498598D01*
X91565965Y-85692170D01*
X91466097Y-85906336D01*
X91404936Y-86134592D01*
X91384340Y-86370000D01*
X91404936Y-86605407D01*
X91449709Y-86772501D01*
X91466097Y-86833663D01*
X91565965Y-87047830D01*
X91701505Y-87241401D01*
X91868599Y-87408495D01*
X92054597Y-87538732D01*
X92093460Y-87583048D01*
X92107471Y-87640305D01*
X92093461Y-87697561D01*
X92054595Y-87741880D01*
X91868919Y-87871892D01*
X91701890Y-88038921D01*
X91566400Y-88232421D01*
X91466569Y-88446507D01*
X91409364Y-88659999D01*
X91409364Y-88660000D01*
X92866000Y-88660000D01*
X92928000Y-88676613D01*
X92973387Y-88722000D01*
X92990000Y-88784000D01*
X92990000Y-89036000D01*
X92973387Y-89098000D01*
X92928000Y-89143387D01*
X92866000Y-89160000D01*
X91409364Y-89160000D01*
X91466569Y-89373492D01*
X91566399Y-89587576D01*
X91701893Y-89781081D01*
X91868918Y-89948106D01*
X92054595Y-90078119D01*
X92093460Y-90122437D01*
X92107471Y-90179694D01*
X92093460Y-90236951D01*
X92054595Y-90281269D01*
X91868595Y-90411508D01*
X91701505Y-90578598D01*
X91565965Y-90772170D01*
X91466097Y-90986336D01*
X91404936Y-91214592D01*
X91384340Y-91450000D01*
X91404936Y-91685407D01*
X91449709Y-91852502D01*
X91466097Y-91913663D01*
X91565965Y-92127830D01*
X91701505Y-92321401D01*
X91868599Y-92488495D01*
X92054160Y-92618426D01*
X92093024Y-92662743D01*
X92107035Y-92720000D01*
X92093024Y-92777257D01*
X92054159Y-92821575D01*
X91868595Y-92951508D01*
X91701505Y-93118598D01*
X91565965Y-93312170D01*
X91466097Y-93526336D01*
X91404936Y-93754592D01*
X91384340Y-93989999D01*
X91404936Y-94225407D01*
X91449709Y-94392501D01*
X91466097Y-94453663D01*
X91565965Y-94667830D01*
X91701505Y-94861401D01*
X91868599Y-95028495D01*
X92054160Y-95158426D01*
X92093024Y-95202743D01*
X92107035Y-95260000D01*
X92093024Y-95317257D01*
X92054159Y-95361575D01*
X91868595Y-95491508D01*
X91701505Y-95658598D01*
X91565965Y-95852170D01*
X91466097Y-96066336D01*
X91404936Y-96294592D01*
X91384340Y-96530000D01*
X91404936Y-96765407D01*
X91449709Y-96932501D01*
X91466097Y-96993663D01*
X91565965Y-97207830D01*
X91701505Y-97401401D01*
X91868599Y-97568495D01*
X92054160Y-97698426D01*
X92093024Y-97742743D01*
X92107035Y-97800000D01*
X92093024Y-97857257D01*
X92054159Y-97901575D01*
X91868595Y-98031508D01*
X91701505Y-98198598D01*
X91565965Y-98392170D01*
X91466097Y-98606336D01*
X91404936Y-98834592D01*
X91384340Y-99069999D01*
X91404936Y-99305407D01*
X91449709Y-99472501D01*
X91466097Y-99533663D01*
X91565965Y-99747830D01*
X91701505Y-99941401D01*
X91868599Y-100108495D01*
X92054160Y-100238426D01*
X92093024Y-100282743D01*
X92107035Y-100340000D01*
X92093024Y-100397257D01*
X92054159Y-100441575D01*
X91868595Y-100571508D01*
X91701505Y-100738598D01*
X91565965Y-100932170D01*
X91466097Y-101146336D01*
X91404936Y-101374592D01*
X91384340Y-101610000D01*
X91404936Y-101845407D01*
X91449709Y-102012502D01*
X91466097Y-102073663D01*
X91565965Y-102287830D01*
X91701505Y-102481401D01*
X91868599Y-102648495D01*
X92054160Y-102778426D01*
X92093024Y-102822743D01*
X92107035Y-102880000D01*
X92093024Y-102937257D01*
X92054159Y-102981575D01*
X91868595Y-103111508D01*
X91701505Y-103278598D01*
X91565965Y-103472170D01*
X91466097Y-103686336D01*
X91404936Y-103914592D01*
X91384340Y-104149999D01*
X91404936Y-104385407D01*
X91449709Y-104552501D01*
X91466097Y-104613663D01*
X91565965Y-104827830D01*
X91701505Y-105021401D01*
X91868599Y-105188495D01*
X92054160Y-105318426D01*
X92093024Y-105362743D01*
X92107035Y-105420000D01*
X92093024Y-105477257D01*
X92054159Y-105521575D01*
X91868595Y-105651508D01*
X91701505Y-105818598D01*
X91565965Y-106012170D01*
X91466097Y-106226336D01*
X91404936Y-106454592D01*
X91384340Y-106690000D01*
X91404936Y-106925407D01*
X91449709Y-107092502D01*
X91466097Y-107153663D01*
X91565965Y-107367830D01*
X91701505Y-107561401D01*
X91868599Y-107728495D01*
X92054160Y-107858426D01*
X92093024Y-107902743D01*
X92107035Y-107960000D01*
X92093024Y-108017257D01*
X92054159Y-108061575D01*
X91868595Y-108191508D01*
X91701505Y-108358598D01*
X91565965Y-108552170D01*
X91466097Y-108766336D01*
X91404936Y-108994592D01*
X91384340Y-109230000D01*
X91404936Y-109465407D01*
X91449709Y-109632502D01*
X91466097Y-109693663D01*
X91565965Y-109907830D01*
X91701505Y-110101401D01*
X91868599Y-110268495D01*
X92054160Y-110398426D01*
X92093024Y-110442743D01*
X92107035Y-110500000D01*
X92093024Y-110557257D01*
X92054159Y-110601575D01*
X91868595Y-110731508D01*
X91701505Y-110898598D01*
X91565965Y-111092170D01*
X91466097Y-111306336D01*
X91404936Y-111534592D01*
X91384340Y-111769999D01*
X91404936Y-112005407D01*
X91449709Y-112172502D01*
X91466097Y-112233663D01*
X91565965Y-112447830D01*
X91701505Y-112641401D01*
X91868599Y-112808495D01*
X92054160Y-112938426D01*
X92093024Y-112982743D01*
X92107035Y-113040000D01*
X92093024Y-113097257D01*
X92054159Y-113141575D01*
X91868595Y-113271508D01*
X91701505Y-113438598D01*
X91565965Y-113632170D01*
X91466097Y-113846336D01*
X91404936Y-114074592D01*
X91384340Y-114310000D01*
X91404936Y-114545407D01*
X91449709Y-114712501D01*
X91466097Y-114773663D01*
X91565965Y-114987830D01*
X91701505Y-115181401D01*
X91868599Y-115348495D01*
X92054160Y-115478426D01*
X92093024Y-115522743D01*
X92107035Y-115580000D01*
X92093024Y-115637257D01*
X92054159Y-115681575D01*
X91868595Y-115811508D01*
X91701505Y-115978598D01*
X91565965Y-116172170D01*
X91466097Y-116386336D01*
X91404936Y-116614592D01*
X91384340Y-116849999D01*
X91404936Y-117085407D01*
X91449709Y-117252502D01*
X91466097Y-117313663D01*
X91565965Y-117527830D01*
X91701505Y-117721401D01*
X91868599Y-117888495D01*
X92054160Y-118018426D01*
X92093024Y-118062743D01*
X92107035Y-118120000D01*
X92093024Y-118177257D01*
X92054159Y-118221575D01*
X91868595Y-118351508D01*
X91701505Y-118518598D01*
X91565965Y-118712170D01*
X91466097Y-118926336D01*
X91404936Y-119154592D01*
X91384340Y-119390000D01*
X73660500Y-119390000D01*
X73660500Y-78740000D01*
X79924340Y-78740000D01*
X79944936Y-78975407D01*
X79947616Y-78985407D01*
X80006097Y-79203663D01*
X80105965Y-79417830D01*
X80241505Y-79611401D01*
X80241508Y-79611404D01*
X80363430Y-79733326D01*
X80394726Y-79786072D01*
X80396915Y-79847365D01*
X80369462Y-79902209D01*
X80319083Y-79937189D01*
X80187669Y-79986204D01*
X80072454Y-80072454D01*
X79986204Y-80187668D01*
X79935909Y-80322516D01*
X79929500Y-80382130D01*
X79929500Y-82177869D01*
X79935909Y-82237483D01*
X79986204Y-82372331D01*
X80072454Y-82487546D01*
X80187669Y-82573796D01*
X80322517Y-82624091D01*
X80382127Y-82630500D01*
X82177872Y-82630499D01*
X82237483Y-82624091D01*
X82372331Y-82573796D01*
X82487546Y-82487546D01*
X82573796Y-82372331D01*
X82624091Y-82237483D01*
X82630500Y-82177873D01*
X82630499Y-80382128D01*
X82624091Y-80322517D01*
X82573796Y-80187669D01*
X82487546Y-80072454D01*
X82372331Y-79986204D01*
X82309426Y-79962742D01*
X82240916Y-79937189D01*
X82190537Y-79902209D01*
X82163084Y-79847365D01*
X82165273Y-79786072D01*
X82196566Y-79733329D01*
X82318495Y-79611401D01*
X82454035Y-79417830D01*
X82553903Y-79203663D01*
X82615063Y-78975408D01*
X82635659Y-78740000D01*
X82615063Y-78504592D01*
X82553903Y-78276337D01*
X82454035Y-78062171D01*
X82318495Y-77868599D01*
X82151401Y-77701505D01*
X81965839Y-77571573D01*
X81926975Y-77527257D01*
X81912964Y-77470000D01*
X81926975Y-77412743D01*
X81965839Y-77368426D01*
X82151401Y-77238495D01*
X82318495Y-77071401D01*
X82454035Y-76877830D01*
X82553903Y-76663663D01*
X82615063Y-76435408D01*
X82635659Y-76200000D01*
X82615063Y-75964592D01*
X82553903Y-75736337D01*
X82454035Y-75522171D01*
X82318495Y-75328599D01*
X82151401Y-75161505D01*
X81965839Y-75031573D01*
X81926975Y-74987257D01*
X81912964Y-74930000D01*
X81926975Y-74872743D01*
X81965839Y-74828426D01*
X82151401Y-74698495D01*
X82318495Y-74531401D01*
X82454035Y-74337830D01*
X82553903Y-74123663D01*
X82615063Y-73895408D01*
X82635659Y-73660000D01*
X82615063Y-73424592D01*
X82553903Y-73196337D01*
X82454035Y-72982171D01*
X82318495Y-72788599D01*
X82151401Y-72621505D01*
X81965839Y-72491573D01*
X81926976Y-72447257D01*
X81912965Y-72390000D01*
X81926976Y-72332743D01*
X81965839Y-72288426D01*
X82151401Y-72158495D01*
X82318495Y-71991401D01*
X82454035Y-71797830D01*
X82553903Y-71583663D01*
X82615063Y-71355408D01*
X82635659Y-71120000D01*
X82615063Y-70884592D01*
X82553903Y-70656337D01*
X82454035Y-70442171D01*
X82318495Y-70248599D01*
X82151401Y-70081505D01*
X81965402Y-69951267D01*
X81926539Y-69906951D01*
X81912528Y-69849694D01*
X81926539Y-69792437D01*
X81965405Y-69748119D01*
X82151078Y-69618109D01*
X82318106Y-69451081D01*
X82453600Y-69257576D01*
X82553430Y-69043492D01*
X82610636Y-68830000D01*
X79949364Y-68830000D01*
X80006569Y-69043492D01*
X80106399Y-69257576D01*
X80241893Y-69451081D01*
X80408918Y-69618106D01*
X80594595Y-69748119D01*
X80633460Y-69792437D01*
X80647471Y-69849694D01*
X80633460Y-69906951D01*
X80594595Y-69951269D01*
X80408595Y-70081508D01*
X80241505Y-70248598D01*
X80105965Y-70442170D01*
X80006097Y-70656336D01*
X79944936Y-70884592D01*
X79924340Y-71119999D01*
X79944936Y-71355407D01*
X79947616Y-71365407D01*
X80006097Y-71583663D01*
X80105965Y-71797830D01*
X80241505Y-71991401D01*
X80408599Y-72158495D01*
X80594160Y-72288426D01*
X80633024Y-72332743D01*
X80647035Y-72390000D01*
X80633024Y-72447257D01*
X80594159Y-72491575D01*
X80408595Y-72621508D01*
X80241505Y-72788598D01*
X80105965Y-72982170D01*
X80006097Y-73196336D01*
X79944936Y-73424592D01*
X79924340Y-73660000D01*
X79944936Y-73895407D01*
X79947616Y-73905407D01*
X80006097Y-74123663D01*
X80105965Y-74337830D01*
X80241505Y-74531401D01*
X80408599Y-74698495D01*
X80594160Y-74828426D01*
X80633024Y-74872743D01*
X80647035Y-74930000D01*
X80633024Y-74987257D01*
X80594159Y-75031575D01*
X80408595Y-75161508D01*
X80241505Y-75328598D01*
X80105965Y-75522170D01*
X80006097Y-75736336D01*
X79944936Y-75964592D01*
X79924340Y-76199999D01*
X79944936Y-76435407D01*
X79947616Y-76445407D01*
X80006097Y-76663663D01*
X80105965Y-76877830D01*
X80241505Y-77071401D01*
X80408599Y-77238495D01*
X80594160Y-77368426D01*
X80633024Y-77412743D01*
X80647035Y-77470000D01*
X80633024Y-77527257D01*
X80594159Y-77571575D01*
X80408595Y-77701508D01*
X80241505Y-77868598D01*
X80105965Y-78062170D01*
X80006097Y-78276336D01*
X79944936Y-78504592D01*
X79924340Y-78740000D01*
X73660500Y-78740000D01*
X73660500Y-68330000D01*
X79949364Y-68330000D01*
X81030000Y-68330000D01*
X81030000Y-67249364D01*
X81530000Y-67249364D01*
X81530000Y-68330000D01*
X82610636Y-68330000D01*
X82610635Y-68329999D01*
X82553430Y-68116507D01*
X82453599Y-67902421D01*
X82318109Y-67708921D01*
X82151081Y-67541893D01*
X81957576Y-67406399D01*
X81743492Y-67306569D01*
X81530000Y-67249364D01*
X81030000Y-67249364D01*
X81029999Y-67249364D01*
X80816507Y-67306569D01*
X80602421Y-67406400D01*
X80408921Y-67541890D01*
X80241890Y-67708921D01*
X80106400Y-67902421D01*
X80006569Y-68116507D01*
X79949364Y-68329999D01*
X79949364Y-68330000D01*
X73660500Y-68330000D01*
X73660500Y-60740000D01*
X142199364Y-60740000D01*
X143280000Y-60740000D01*
X143780000Y-60740000D01*
X145820000Y-60740000D01*
X145820000Y-59640000D01*
X146320000Y-59640000D01*
X146320000Y-60740000D01*
X147420000Y-60740000D01*
X147420000Y-60092176D01*
X147413597Y-60032624D01*
X147363352Y-59897910D01*
X147277188Y-59782811D01*
X147162089Y-59696647D01*
X147027375Y-59646402D01*
X146967824Y-59640000D01*
X146320000Y-59640000D01*
X145820000Y-59640000D01*
X145172176Y-59640000D01*
X145112624Y-59646402D01*
X144977910Y-59696647D01*
X144862811Y-59782811D01*
X144776647Y-59897911D01*
X144727385Y-60029987D01*
X144692405Y-60080366D01*
X144637561Y-60107819D01*
X144576268Y-60105630D01*
X144523522Y-60074334D01*
X144401081Y-59951893D01*
X144207576Y-59816399D01*
X143993492Y-59716569D01*
X143780000Y-59659364D01*
X143780000Y-60740000D01*
X143280000Y-60740000D01*
X143280000Y-59659364D01*
X143279999Y-59659364D01*
X143066507Y-59716569D01*
X142852421Y-59816400D01*
X142658921Y-59951890D01*
X142491890Y-60118921D01*
X142356400Y-60312421D01*
X142256569Y-60526507D01*
X142199364Y-60739999D01*
X142199364Y-60740000D01*
X73660500Y-60740000D01*
X73660500Y-60720000D01*
X91409364Y-60720000D01*
X92490000Y-60720000D01*
X92990000Y-60720000D01*
X95030000Y-60720000D01*
X95030000Y-59620000D01*
X95530000Y-59620000D01*
X95530000Y-60720000D01*
X96630000Y-60720000D01*
X96630000Y-60072176D01*
X96623597Y-60012624D01*
X96573352Y-59877910D01*
X96487188Y-59762811D01*
X96372089Y-59676647D01*
X96237375Y-59626402D01*
X96177824Y-59620000D01*
X95530000Y-59620000D01*
X95030000Y-59620000D01*
X94382176Y-59620000D01*
X94322624Y-59626402D01*
X94187910Y-59676647D01*
X94072811Y-59762811D01*
X93986647Y-59877911D01*
X93937385Y-60009987D01*
X93902405Y-60060366D01*
X93847561Y-60087819D01*
X93786268Y-60085630D01*
X93733522Y-60054334D01*
X93611081Y-59931893D01*
X93417576Y-59796399D01*
X93203492Y-59696569D01*
X92990000Y-59639364D01*
X92990000Y-60720000D01*
X92490000Y-60720000D01*
X92490000Y-59639364D01*
X92489999Y-59639364D01*
X92276507Y-59696569D01*
X92062421Y-59796400D01*
X91868921Y-59931890D01*
X91701890Y-60098921D01*
X91566400Y-60292421D01*
X91466569Y-60506507D01*
X91409364Y-60719999D01*
X91409364Y-60720000D01*
X73660500Y-60720000D01*
X73660500Y-58423479D01*
X73660695Y-58416528D01*
X73660773Y-58415123D01*
X73666989Y-58304450D01*
X73677200Y-58135642D01*
X73678719Y-58122413D01*
X73701169Y-57990282D01*
X73701388Y-57989044D01*
X73728009Y-57843780D01*
X73730812Y-57831855D01*
X73769040Y-57699161D01*
X73769757Y-57696772D01*
X73812427Y-57559839D01*
X73816231Y-57549330D01*
X73869714Y-57420214D01*
X73871109Y-57416984D01*
X73929307Y-57287673D01*
X73933821Y-57278650D01*
X74001820Y-57155615D01*
X74004172Y-57151549D01*
X74077051Y-57030991D01*
X74082027Y-57023406D01*
X74163605Y-56908431D01*
X74167048Y-56903815D01*
X74253697Y-56793215D01*
X74258797Y-56787122D01*
X74352892Y-56681829D01*
X74357603Y-56676847D01*
X74456847Y-56577603D01*
X74461829Y-56572892D01*
X74567122Y-56478797D01*
X74573215Y-56473697D01*
X74683815Y-56387048D01*
X74688431Y-56383605D01*
X74803410Y-56302024D01*
X74810991Y-56297051D01*
X74931549Y-56224172D01*
X74935615Y-56221820D01*
X75058650Y-56153821D01*
X75067673Y-56149307D01*
X75196984Y-56091109D01*
X75200214Y-56089714D01*
X75329330Y-56036231D01*
X75339839Y-56032427D01*
X75476772Y-55989757D01*
X75479161Y-55989040D01*
X75611855Y-55950812D01*
X75623780Y-55948009D01*
X75769044Y-55921388D01*
X75770282Y-55921169D01*
X75902413Y-55898719D01*
X75915642Y-55897200D01*
X76084450Y-55886989D01*
X76196527Y-55880695D01*
X76203479Y-55880500D01*
X162556521Y-55880500D01*
X162563471Y-55880694D01*
G37*
%TD.AperFunction*%
%TD*%
M02*
