%TF.GenerationSoftware,KiCad,Pcbnew,7.0.1-0*%
%TF.CreationDate,2023-05-31T07:57:39-06:00*%
%TF.ProjectId,PhaseD_Prototype,50686173-6544-45f5-9072-6f746f747970,rev?*%
%TF.SameCoordinates,Original*%
%TF.FileFunction,Copper,L1,Top*%
%TF.FilePolarity,Positive*%
%FSLAX46Y46*%
G04 Gerber Fmt 4.6, Leading zero omitted, Abs format (unit mm)*
G04 Created by KiCad (PCBNEW 7.0.1-0) date 2023-05-31 07:57:39*
%MOMM*%
%LPD*%
G01*
G04 APERTURE LIST*
%TA.AperFunction,ComponentPad*%
%ADD10R,1.700000X1.700000*%
%TD*%
%TA.AperFunction,ComponentPad*%
%ADD11O,1.700000X1.700000*%
%TD*%
%TA.AperFunction,ViaPad*%
%ADD12C,0.800000*%
%TD*%
%TA.AperFunction,Conductor*%
%ADD13C,0.250000*%
%TD*%
%TA.AperFunction,Conductor*%
%ADD14C,0.381000*%
%TD*%
G04 APERTURE END LIST*
D10*
%TO.P,J3,1,Pin_1*%
%TO.N,+5V*%
X157480000Y-66040000D03*
D11*
%TO.P,J3,2,Pin_2*%
%TO.N,GND*%
X157480000Y-68580000D03*
%TO.P,J3,3,Pin_3*%
%TO.N,SCL*%
X157480000Y-71120000D03*
%TO.P,J3,4,Pin_4*%
%TO.N,SDA*%
X157480000Y-73660000D03*
%TO.P,J3,5,Pin_5*%
%TO.N,unconnected-(J3-Pin_5-Pad5)*%
X157480000Y-76200000D03*
%TO.P,J3,6,Pin_6*%
%TO.N,unconnected-(J3-Pin_6-Pad6)*%
X157480000Y-78740000D03*
%TO.P,J3,7,Pin_7*%
%TO.N,unconnected-(J3-Pin_7-Pad7)*%
X157480000Y-81280000D03*
%TO.P,J3,8,Pin_8*%
%TO.N,INT*%
X157480000Y-83820000D03*
%TD*%
D10*
%TO.P,J4,1,Pin_1*%
%TO.N,unconnected-(J4-Pin_1-Pad1)*%
X81280000Y-81280000D03*
D11*
%TO.P,J4,2,Pin_2*%
%TO.N,Tx*%
X81280000Y-78740000D03*
%TO.P,J4,3,Pin_3*%
%TO.N,Rx*%
X81280000Y-76200000D03*
%TO.P,J4,4,Pin_4*%
%TO.N,+5V*%
X81280000Y-73660000D03*
%TO.P,J4,5,Pin_5*%
%TO.N,unconnected-(J4-Pin_5-Pad5)*%
X81280000Y-71120000D03*
%TO.P,J4,6,Pin_6*%
%TO.N,GND*%
X81280000Y-68580000D03*
%TD*%
D10*
%TO.P,J2,1,Pin_1*%
%TO.N,GND*%
X146070000Y-60990000D03*
D11*
%TO.P,J2,2,Pin_2*%
X143530000Y-60990000D03*
%TO.P,J2,3,Pin_3*%
%TO.N,+5V*%
X146070000Y-63530000D03*
%TO.P,J2,4,Pin_4*%
X143530000Y-63530000D03*
%TO.P,J2,5,Pin_5*%
%TO.N,+3V0*%
X146070000Y-66070000D03*
%TO.P,J2,6,Pin_6*%
X143530000Y-66070000D03*
%TO.P,J2,7,Pin_7*%
%TO.N,unconnected-(J2-Pin_7-Pad7)*%
X146070000Y-68610000D03*
%TO.P,J2,8,Pin_8*%
%TO.N,unconnected-(J2-Pin_8-Pad8)*%
X143530000Y-68610000D03*
%TO.P,J2,9,Pin_9*%
%TO.N,unconnected-(J2-Pin_9-Pad9)*%
X146070000Y-71150000D03*
%TO.P,J2,10,Pin_10*%
%TO.N,unconnected-(J2-Pin_10-Pad10)*%
X143530000Y-71150000D03*
%TO.P,J2,11,Pin_11*%
%TO.N,unconnected-(J2-Pin_11-Pad11)*%
X146070000Y-73690000D03*
%TO.P,J2,12,Pin_12*%
%TO.N,unconnected-(J2-Pin_12-Pad12)*%
X143530000Y-73690000D03*
%TO.P,J2,13,Pin_13*%
%TO.N,unconnected-(J2-Pin_13-Pad13)*%
X146070000Y-76230000D03*
%TO.P,J2,14,Pin_14*%
%TO.N,unconnected-(J2-Pin_14-Pad14)*%
X143530000Y-76230000D03*
%TO.P,J2,15,Pin_15*%
%TO.N,unconnected-(J2-Pin_15-Pad15)*%
X146070000Y-78770000D03*
%TO.P,J2,16,Pin_16*%
%TO.N,unconnected-(J2-Pin_16-Pad16)*%
X143530000Y-78770000D03*
%TO.P,J2,17,Pin_17*%
%TO.N,unconnected-(J2-Pin_17-Pad17)*%
X146070000Y-81310000D03*
%TO.P,J2,18,Pin_18*%
%TO.N,unconnected-(J2-Pin_18-Pad18)*%
X143530000Y-81310000D03*
%TO.P,J2,19,Pin_19*%
%TO.N,unconnected-(J2-Pin_19-Pad19)*%
X146070000Y-83850000D03*
%TO.P,J2,20,Pin_20*%
%TO.N,unconnected-(J2-Pin_20-Pad20)*%
X143530000Y-83850000D03*
%TO.P,J2,21,Pin_21*%
%TO.N,unconnected-(J2-Pin_21-Pad21)*%
X146070000Y-86390000D03*
%TO.P,J2,22,Pin_22*%
%TO.N,unconnected-(J2-Pin_22-Pad22)*%
X143530000Y-86390000D03*
%TO.P,J2,23,Pin_23*%
%TO.N,SDA*%
X146070000Y-88930000D03*
%TO.P,J2,24,Pin_24*%
%TO.N,SCL*%
X143530000Y-88930000D03*
%TO.P,J2,25,Pin_25*%
%TO.N,INT*%
X146070000Y-91470000D03*
%TO.P,J2,26,Pin_26*%
%TO.N,unconnected-(J2-Pin_26-Pad26)*%
X143530000Y-91470000D03*
%TO.P,J2,27,Pin_27*%
%TO.N,unconnected-(J2-Pin_27-Pad27)*%
X146070000Y-94010000D03*
%TO.P,J2,28,Pin_28*%
%TO.N,unconnected-(J2-Pin_28-Pad28)*%
X143530000Y-94010000D03*
%TO.P,J2,29,Pin_29*%
%TO.N,unconnected-(J2-Pin_29-Pad29)*%
X146070000Y-96550000D03*
%TO.P,J2,30,Pin_30*%
%TO.N,unconnected-(J2-Pin_30-Pad30)*%
X143530000Y-96550000D03*
%TO.P,J2,31,Pin_31*%
%TO.N,unconnected-(J2-Pin_31-Pad31)*%
X146070000Y-99090000D03*
%TO.P,J2,32,Pin_32*%
%TO.N,unconnected-(J2-Pin_32-Pad32)*%
X143530000Y-99090000D03*
%TO.P,J2,33,Pin_33*%
%TO.N,unconnected-(J2-Pin_33-Pad33)*%
X146070000Y-101630000D03*
%TO.P,J2,34,Pin_34*%
%TO.N,unconnected-(J2-Pin_34-Pad34)*%
X143530000Y-101630000D03*
%TO.P,J2,35,Pin_35*%
%TO.N,unconnected-(J2-Pin_35-Pad35)*%
X146070000Y-104170000D03*
%TO.P,J2,36,Pin_36*%
%TO.N,unconnected-(J2-Pin_36-Pad36)*%
X143530000Y-104170000D03*
%TO.P,J2,37,Pin_37*%
%TO.N,unconnected-(J2-Pin_37-Pad37)*%
X146070000Y-106710000D03*
%TO.P,J2,38,Pin_38*%
%TO.N,unconnected-(J2-Pin_38-Pad38)*%
X143530000Y-106710000D03*
%TO.P,J2,39,Pin_39*%
%TO.N,unconnected-(J2-Pin_39-Pad39)*%
X146070000Y-109250000D03*
%TO.P,J2,40,Pin_40*%
%TO.N,unconnected-(J2-Pin_40-Pad40)*%
X143530000Y-109250000D03*
%TO.P,J2,41,Pin_41*%
%TO.N,unconnected-(J2-Pin_41-Pad41)*%
X146070000Y-111790000D03*
%TO.P,J2,42,Pin_42*%
%TO.N,unconnected-(J2-Pin_42-Pad42)*%
X143530000Y-111790000D03*
%TO.P,J2,43,Pin_43*%
%TO.N,unconnected-(J2-Pin_43-Pad43)*%
X146070000Y-114330000D03*
%TO.P,J2,44,Pin_44*%
%TO.N,unconnected-(J2-Pin_44-Pad44)*%
X143530000Y-114330000D03*
%TO.P,J2,45,Pin_45*%
%TO.N,unconnected-(J2-Pin_45-Pad45)*%
X146070000Y-116870000D03*
%TO.P,J2,46,Pin_46*%
%TO.N,unconnected-(J2-Pin_46-Pad46)*%
X143530000Y-116870000D03*
%TO.P,J2,47,Pin_47*%
%TO.N,unconnected-(J2-Pin_47-Pad47)*%
X146070000Y-119410000D03*
%TO.P,J2,48,Pin_48*%
%TO.N,unconnected-(J2-Pin_48-Pad48)*%
X143530000Y-119410000D03*
%TO.P,J2,49,Pin_49*%
%TO.N,GND*%
X146070000Y-121950000D03*
%TO.P,J2,50,Pin_50*%
X143530000Y-121950000D03*
%TD*%
D10*
%TO.P,J1,1,Pin_1*%
%TO.N,GND*%
X95280000Y-60970000D03*
D11*
%TO.P,J1,2,Pin_2*%
X92740000Y-60970000D03*
%TO.P,J1,3,Pin_3*%
%TO.N,unconnected-(J1-Pin_3-Pad3)*%
X95280000Y-63510000D03*
%TO.P,J1,4,Pin_4*%
%TO.N,unconnected-(J1-Pin_4-Pad4)*%
X92740000Y-63510000D03*
%TO.P,J1,5,Pin_5*%
%TO.N,unconnected-(J1-Pin_5-Pad5)*%
X95280000Y-66050000D03*
%TO.P,J1,6,Pin_6*%
%TO.N,GND*%
X92740000Y-66050000D03*
%TO.P,J1,7,Pin_7*%
%TO.N,unconnected-(J1-Pin_7-Pad7)*%
X95280000Y-68590000D03*
%TO.P,J1,8,Pin_8*%
%TO.N,unconnected-(J1-Pin_8-Pad8)*%
X92740000Y-68590000D03*
%TO.P,J1,9,Pin_9*%
%TO.N,unconnected-(J1-Pin_9-Pad9)*%
X95280000Y-71130000D03*
%TO.P,J1,10,Pin_10*%
%TO.N,unconnected-(J1-Pin_10-Pad10)*%
X92740000Y-71130000D03*
%TO.P,J1,11,Pin_11*%
%TO.N,unconnected-(J1-Pin_11-Pad11)*%
X95280000Y-73670000D03*
%TO.P,J1,12,Pin_12*%
%TO.N,unconnected-(J1-Pin_12-Pad12)*%
X92740000Y-73670000D03*
%TO.P,J1,13,Pin_13*%
%TO.N,Tx*%
X95280000Y-76210000D03*
%TO.P,J1,14,Pin_14*%
%TO.N,Rx*%
X92740000Y-76210000D03*
%TO.P,J1,15,Pin_15*%
%TO.N,unconnected-(J1-Pin_15-Pad15)*%
X95280000Y-78750000D03*
%TO.P,J1,16,Pin_16*%
%TO.N,unconnected-(J1-Pin_16-Pad16)*%
X92740000Y-78750000D03*
%TO.P,J1,17,Pin_17*%
%TO.N,unconnected-(J1-Pin_17-Pad17)*%
X95280000Y-81290000D03*
%TO.P,J1,18,Pin_18*%
%TO.N,unconnected-(J1-Pin_18-Pad18)*%
X92740000Y-81290000D03*
%TO.P,J1,19,Pin_19*%
%TO.N,unconnected-(J1-Pin_19-Pad19)*%
X95280000Y-83830000D03*
%TO.P,J1,20,Pin_20*%
%TO.N,unconnected-(J1-Pin_20-Pad20)*%
X92740000Y-83830000D03*
%TO.P,J1,21,Pin_21*%
%TO.N,unconnected-(J1-Pin_21-Pad21)*%
X95280000Y-86370000D03*
%TO.P,J1,22,Pin_22*%
%TO.N,unconnected-(J1-Pin_22-Pad22)*%
X92740000Y-86370000D03*
%TO.P,J1,23,Pin_23*%
%TO.N,unconnected-(J1-Pin_23-Pad23)*%
X95280000Y-88910000D03*
%TO.P,J1,24,Pin_24*%
%TO.N,GND*%
X92740000Y-88910000D03*
%TO.P,J1,25,Pin_25*%
%TO.N,unconnected-(J1-Pin_25-Pad25)*%
X95280000Y-91450000D03*
%TO.P,J1,26,Pin_26*%
%TO.N,unconnected-(J1-Pin_26-Pad26)*%
X92740000Y-91450000D03*
%TO.P,J1,27,Pin_27*%
%TO.N,unconnected-(J1-Pin_27-Pad27)*%
X95280000Y-93990000D03*
%TO.P,J1,28,Pin_28*%
%TO.N,unconnected-(J1-Pin_28-Pad28)*%
X92740000Y-93990000D03*
%TO.P,J1,29,Pin_29*%
%TO.N,unconnected-(J1-Pin_29-Pad29)*%
X95280000Y-96530000D03*
%TO.P,J1,30,Pin_30*%
%TO.N,unconnected-(J1-Pin_30-Pad30)*%
X92740000Y-96530000D03*
%TO.P,J1,31,Pin_31*%
%TO.N,unconnected-(J1-Pin_31-Pad31)*%
X95280000Y-99070000D03*
%TO.P,J1,32,Pin_32*%
%TO.N,unconnected-(J1-Pin_32-Pad32)*%
X92740000Y-99070000D03*
%TO.P,J1,33,Pin_33*%
%TO.N,unconnected-(J1-Pin_33-Pad33)*%
X95280000Y-101610000D03*
%TO.P,J1,34,Pin_34*%
%TO.N,unconnected-(J1-Pin_34-Pad34)*%
X92740000Y-101610000D03*
%TO.P,J1,35,Pin_35*%
%TO.N,unconnected-(J1-Pin_35-Pad35)*%
X95280000Y-104150000D03*
%TO.P,J1,36,Pin_36*%
%TO.N,unconnected-(J1-Pin_36-Pad36)*%
X92740000Y-104150000D03*
%TO.P,J1,37,Pin_37*%
%TO.N,unconnected-(J1-Pin_37-Pad37)*%
X95280000Y-106690000D03*
%TO.P,J1,38,Pin_38*%
%TO.N,unconnected-(J1-Pin_38-Pad38)*%
X92740000Y-106690000D03*
%TO.P,J1,39,Pin_39*%
%TO.N,unconnected-(J1-Pin_39-Pad39)*%
X95280000Y-109230000D03*
%TO.P,J1,40,Pin_40*%
%TO.N,unconnected-(J1-Pin_40-Pad40)*%
X92740000Y-109230000D03*
%TO.P,J1,41,Pin_41*%
%TO.N,unconnected-(J1-Pin_41-Pad41)*%
X95280000Y-111770000D03*
%TO.P,J1,42,Pin_42*%
%TO.N,unconnected-(J1-Pin_42-Pad42)*%
X92740000Y-111770000D03*
%TO.P,J1,43,Pin_43*%
%TO.N,unconnected-(J1-Pin_43-Pad43)*%
X95280000Y-114310000D03*
%TO.P,J1,44,Pin_44*%
%TO.N,unconnected-(J1-Pin_44-Pad44)*%
X92740000Y-114310000D03*
%TO.P,J1,45,Pin_45*%
%TO.N,unconnected-(J1-Pin_45-Pad45)*%
X95280000Y-116850000D03*
%TO.P,J1,46,Pin_46*%
%TO.N,unconnected-(J1-Pin_46-Pad46)*%
X92740000Y-116850000D03*
%TO.P,J1,47,Pin_47*%
%TO.N,unconnected-(J1-Pin_47-Pad47)*%
X95280000Y-119390000D03*
%TO.P,J1,48,Pin_48*%
%TO.N,unconnected-(J1-Pin_48-Pad48)*%
X92740000Y-119390000D03*
%TO.P,J1,49,Pin_49*%
%TO.N,GND*%
X95280000Y-121930000D03*
%TO.P,J1,50,Pin_50*%
X92740000Y-121930000D03*
%TD*%
D12*
%TO.N,GND*%
X90813866Y-66044894D03*
X90899856Y-88950569D03*
%TD*%
D13*
%TO.N,GND*%
X92740000Y-66050000D02*
X90818972Y-66050000D01*
X90818972Y-66050000D02*
X90813866Y-66044894D01*
X92740000Y-88910000D02*
X90940425Y-88910000D01*
X90940425Y-88910000D02*
X90899856Y-88950569D01*
%TO.N,INT*%
X157480000Y-83820000D02*
X149830000Y-91470000D01*
X149830000Y-91470000D02*
X146070000Y-91470000D01*
%TO.N,SCL*%
X157480000Y-71120000D02*
X152400000Y-76200000D01*
X152400000Y-76200000D02*
X152400000Y-83820000D01*
X152400000Y-83820000D02*
X148555799Y-87664201D01*
X148555799Y-87664201D02*
X144795799Y-87664201D01*
X144795799Y-87664201D02*
X143530000Y-88930000D01*
%TO.N,SDA*%
X154940000Y-76200000D02*
X154940000Y-83820000D01*
X157480000Y-73660000D02*
X154940000Y-76200000D01*
X154940000Y-83820000D02*
X149830000Y-88930000D01*
X149830000Y-88930000D02*
X146070000Y-88930000D01*
D14*
%TO.N,+5V*%
X146070000Y-63530000D02*
X154970000Y-63530000D01*
X154970000Y-63530000D02*
X157480000Y-66040000D01*
X143530000Y-63530000D02*
X138057308Y-58057308D01*
X138057308Y-58057308D02*
X89262692Y-58057308D01*
X86360000Y-60960000D02*
X86360000Y-68580000D01*
X89262692Y-58057308D02*
X86360000Y-60960000D01*
X86360000Y-68580000D02*
X81280000Y-73660000D01*
%TO.N,+3V0*%
X146070000Y-66070000D02*
X143530000Y-66070000D01*
D13*
%TO.N,Tx*%
X81280000Y-78740000D02*
X88900000Y-78740000D01*
X90159206Y-77480794D02*
X94009206Y-77480794D01*
X88900000Y-78740000D02*
X90159206Y-77480794D01*
X94009206Y-77480794D02*
X95280000Y-76210000D01*
%TO.N,Rx*%
X81280000Y-76200000D02*
X92730000Y-76200000D01*
X92730000Y-76200000D02*
X92740000Y-76210000D01*
D14*
%TO.N,+5V*%
X143530000Y-63530000D02*
X146070000Y-63530000D01*
%TD*%
M02*
