%TF.GenerationSoftware,KiCad,Pcbnew,7.0.1-0*%
%TF.CreationDate,2023-05-31T07:57:39-06:00*%
%TF.ProjectId,PhaseD_Prototype,50686173-6544-45f5-9072-6f746f747970,rev?*%
%TF.SameCoordinates,Original*%
%TF.FileFunction,Legend,Top*%
%TF.FilePolarity,Positive*%
%FSLAX46Y46*%
G04 Gerber Fmt 4.6, Leading zero omitted, Abs format (unit mm)*
G04 Created by KiCad (PCBNEW 7.0.1-0) date 2023-05-31 07:57:39*
%MOMM*%
%LPD*%
G01*
G04 APERTURE LIST*
%ADD10C,0.150000*%
%ADD11C,0.120000*%
G04 APERTURE END LIST*
D10*
X78617618Y-82058723D02*
X78617618Y-82534913D01*
X78617618Y-82534913D02*
X77617618Y-82534913D01*
X78522379Y-81153961D02*
X78569999Y-81201580D01*
X78569999Y-81201580D02*
X78617618Y-81344437D01*
X78617618Y-81344437D02*
X78617618Y-81439675D01*
X78617618Y-81439675D02*
X78569999Y-81582532D01*
X78569999Y-81582532D02*
X78474760Y-81677770D01*
X78474760Y-81677770D02*
X78379522Y-81725389D01*
X78379522Y-81725389D02*
X78189046Y-81773008D01*
X78189046Y-81773008D02*
X78046189Y-81773008D01*
X78046189Y-81773008D02*
X77855713Y-81725389D01*
X77855713Y-81725389D02*
X77760475Y-81677770D01*
X77760475Y-81677770D02*
X77665237Y-81582532D01*
X77665237Y-81582532D02*
X77617618Y-81439675D01*
X77617618Y-81439675D02*
X77617618Y-81344437D01*
X77617618Y-81344437D02*
X77665237Y-81201580D01*
X77665237Y-81201580D02*
X77712856Y-81153961D01*
X77712856Y-80773008D02*
X77665237Y-80725389D01*
X77665237Y-80725389D02*
X77617618Y-80630151D01*
X77617618Y-80630151D02*
X77617618Y-80392056D01*
X77617618Y-80392056D02*
X77665237Y-80296818D01*
X77665237Y-80296818D02*
X77712856Y-80249199D01*
X77712856Y-80249199D02*
X77808094Y-80201580D01*
X77808094Y-80201580D02*
X77903332Y-80201580D01*
X77903332Y-80201580D02*
X78046189Y-80249199D01*
X78046189Y-80249199D02*
X78617618Y-80820627D01*
X78617618Y-80820627D02*
X78617618Y-80201580D01*
X77617618Y-79868246D02*
X77617618Y-79249199D01*
X77617618Y-79249199D02*
X77998570Y-79582532D01*
X77998570Y-79582532D02*
X77998570Y-79439675D01*
X77998570Y-79439675D02*
X78046189Y-79344437D01*
X78046189Y-79344437D02*
X78093808Y-79296818D01*
X78093808Y-79296818D02*
X78189046Y-79249199D01*
X78189046Y-79249199D02*
X78427141Y-79249199D01*
X78427141Y-79249199D02*
X78522379Y-79296818D01*
X78522379Y-79296818D02*
X78569999Y-79344437D01*
X78569999Y-79344437D02*
X78617618Y-79439675D01*
X78617618Y-79439675D02*
X78617618Y-79725389D01*
X78617618Y-79725389D02*
X78569999Y-79820627D01*
X78569999Y-79820627D02*
X78522379Y-79868246D01*
X77950951Y-78392056D02*
X78617618Y-78392056D01*
X77569999Y-78630151D02*
X78284284Y-78868246D01*
X78284284Y-78868246D02*
X78284284Y-78249199D01*
X77617618Y-77963484D02*
X78617618Y-77296818D01*
X77617618Y-77296818D02*
X78617618Y-77963484D01*
X160991486Y-72419075D02*
X159991486Y-72419075D01*
X159991486Y-72419075D02*
X160705771Y-72085742D01*
X160705771Y-72085742D02*
X159991486Y-71752409D01*
X159991486Y-71752409D02*
X160991486Y-71752409D01*
X160991486Y-71276218D02*
X159991486Y-71276218D01*
X159991486Y-71276218D02*
X159991486Y-70895266D01*
X159991486Y-70895266D02*
X160039105Y-70800028D01*
X160039105Y-70800028D02*
X160086724Y-70752409D01*
X160086724Y-70752409D02*
X160181962Y-70704790D01*
X160181962Y-70704790D02*
X160324819Y-70704790D01*
X160324819Y-70704790D02*
X160420057Y-70752409D01*
X160420057Y-70752409D02*
X160467676Y-70800028D01*
X160467676Y-70800028D02*
X160515295Y-70895266D01*
X160515295Y-70895266D02*
X160515295Y-71276218D01*
X159991486Y-70276218D02*
X160801009Y-70276218D01*
X160801009Y-70276218D02*
X160896247Y-70228599D01*
X160896247Y-70228599D02*
X160943867Y-70180980D01*
X160943867Y-70180980D02*
X160991486Y-70085742D01*
X160991486Y-70085742D02*
X160991486Y-69895266D01*
X160991486Y-69895266D02*
X160943867Y-69800028D01*
X160943867Y-69800028D02*
X160896247Y-69752409D01*
X160896247Y-69752409D02*
X160801009Y-69704790D01*
X160801009Y-69704790D02*
X159991486Y-69704790D01*
X160610533Y-69228599D02*
X160610533Y-68466695D01*
X159991486Y-67561933D02*
X159991486Y-67752409D01*
X159991486Y-67752409D02*
X160039105Y-67847647D01*
X160039105Y-67847647D02*
X160086724Y-67895266D01*
X160086724Y-67895266D02*
X160229581Y-67990504D01*
X160229581Y-67990504D02*
X160420057Y-68038123D01*
X160420057Y-68038123D02*
X160801009Y-68038123D01*
X160801009Y-68038123D02*
X160896247Y-67990504D01*
X160896247Y-67990504D02*
X160943867Y-67942885D01*
X160943867Y-67942885D02*
X160991486Y-67847647D01*
X160991486Y-67847647D02*
X160991486Y-67657171D01*
X160991486Y-67657171D02*
X160943867Y-67561933D01*
X160943867Y-67561933D02*
X160896247Y-67514314D01*
X160896247Y-67514314D02*
X160801009Y-67466695D01*
X160801009Y-67466695D02*
X160562914Y-67466695D01*
X160562914Y-67466695D02*
X160467676Y-67514314D01*
X160467676Y-67514314D02*
X160420057Y-67561933D01*
X160420057Y-67561933D02*
X160372438Y-67657171D01*
X160372438Y-67657171D02*
X160372438Y-67847647D01*
X160372438Y-67847647D02*
X160420057Y-67942885D01*
X160420057Y-67942885D02*
X160467676Y-67990504D01*
X160467676Y-67990504D02*
X160562914Y-68038123D01*
X159991486Y-66847647D02*
X159991486Y-66752409D01*
X159991486Y-66752409D02*
X160039105Y-66657171D01*
X160039105Y-66657171D02*
X160086724Y-66609552D01*
X160086724Y-66609552D02*
X160181962Y-66561933D01*
X160181962Y-66561933D02*
X160372438Y-66514314D01*
X160372438Y-66514314D02*
X160610533Y-66514314D01*
X160610533Y-66514314D02*
X160801009Y-66561933D01*
X160801009Y-66561933D02*
X160896247Y-66609552D01*
X160896247Y-66609552D02*
X160943867Y-66657171D01*
X160943867Y-66657171D02*
X160991486Y-66752409D01*
X160991486Y-66752409D02*
X160991486Y-66847647D01*
X160991486Y-66847647D02*
X160943867Y-66942885D01*
X160943867Y-66942885D02*
X160896247Y-66990504D01*
X160896247Y-66990504D02*
X160801009Y-67038123D01*
X160801009Y-67038123D02*
X160610533Y-67085742D01*
X160610533Y-67085742D02*
X160372438Y-67085742D01*
X160372438Y-67085742D02*
X160181962Y-67038123D01*
X160181962Y-67038123D02*
X160086724Y-66990504D01*
X160086724Y-66990504D02*
X160039105Y-66942885D01*
X160039105Y-66942885D02*
X159991486Y-66847647D01*
X159991486Y-65609552D02*
X159991486Y-66085742D01*
X159991486Y-66085742D02*
X160467676Y-66133361D01*
X160467676Y-66133361D02*
X160420057Y-66085742D01*
X160420057Y-66085742D02*
X160372438Y-65990504D01*
X160372438Y-65990504D02*
X160372438Y-65752409D01*
X160372438Y-65752409D02*
X160420057Y-65657171D01*
X160420057Y-65657171D02*
X160467676Y-65609552D01*
X160467676Y-65609552D02*
X160562914Y-65561933D01*
X160562914Y-65561933D02*
X160801009Y-65561933D01*
X160801009Y-65561933D02*
X160896247Y-65609552D01*
X160896247Y-65609552D02*
X160943867Y-65657171D01*
X160943867Y-65657171D02*
X160991486Y-65752409D01*
X160991486Y-65752409D02*
X160991486Y-65990504D01*
X160991486Y-65990504D02*
X160943867Y-66085742D01*
X160943867Y-66085742D02*
X160896247Y-66133361D01*
X159991486Y-64942885D02*
X159991486Y-64847647D01*
X159991486Y-64847647D02*
X160039105Y-64752409D01*
X160039105Y-64752409D02*
X160086724Y-64704790D01*
X160086724Y-64704790D02*
X160181962Y-64657171D01*
X160181962Y-64657171D02*
X160372438Y-64609552D01*
X160372438Y-64609552D02*
X160610533Y-64609552D01*
X160610533Y-64609552D02*
X160801009Y-64657171D01*
X160801009Y-64657171D02*
X160896247Y-64704790D01*
X160896247Y-64704790D02*
X160943867Y-64752409D01*
X160943867Y-64752409D02*
X160991486Y-64847647D01*
X160991486Y-64847647D02*
X160991486Y-64942885D01*
X160991486Y-64942885D02*
X160943867Y-65038123D01*
X160943867Y-65038123D02*
X160896247Y-65085742D01*
X160896247Y-65085742D02*
X160801009Y-65133361D01*
X160801009Y-65133361D02*
X160610533Y-65180980D01*
X160610533Y-65180980D02*
X160372438Y-65180980D01*
X160372438Y-65180980D02*
X160181962Y-65133361D01*
X160181962Y-65133361D02*
X160086724Y-65085742D01*
X160086724Y-65085742D02*
X160039105Y-65038123D01*
X160039105Y-65038123D02*
X159991486Y-64942885D01*
X155749523Y-122717619D02*
X155416190Y-122241428D01*
X155178095Y-122717619D02*
X155178095Y-121717619D01*
X155178095Y-121717619D02*
X155559047Y-121717619D01*
X155559047Y-121717619D02*
X155654285Y-121765238D01*
X155654285Y-121765238D02*
X155701904Y-121812857D01*
X155701904Y-121812857D02*
X155749523Y-121908095D01*
X155749523Y-121908095D02*
X155749523Y-122050952D01*
X155749523Y-122050952D02*
X155701904Y-122146190D01*
X155701904Y-122146190D02*
X155654285Y-122193809D01*
X155654285Y-122193809D02*
X155559047Y-122241428D01*
X155559047Y-122241428D02*
X155178095Y-122241428D01*
X156559047Y-122670000D02*
X156463809Y-122717619D01*
X156463809Y-122717619D02*
X156273333Y-122717619D01*
X156273333Y-122717619D02*
X156178095Y-122670000D01*
X156178095Y-122670000D02*
X156130476Y-122574761D01*
X156130476Y-122574761D02*
X156130476Y-122193809D01*
X156130476Y-122193809D02*
X156178095Y-122098571D01*
X156178095Y-122098571D02*
X156273333Y-122050952D01*
X156273333Y-122050952D02*
X156463809Y-122050952D01*
X156463809Y-122050952D02*
X156559047Y-122098571D01*
X156559047Y-122098571D02*
X156606666Y-122193809D01*
X156606666Y-122193809D02*
X156606666Y-122289047D01*
X156606666Y-122289047D02*
X156130476Y-122384285D01*
X156940000Y-122050952D02*
X157178095Y-122717619D01*
X157178095Y-122717619D02*
X157416190Y-122050952D01*
X159082857Y-122717619D02*
X158511429Y-122717619D01*
X158797143Y-122717619D02*
X158797143Y-121717619D01*
X158797143Y-121717619D02*
X158701905Y-121860476D01*
X158701905Y-121860476D02*
X158606667Y-121955714D01*
X158606667Y-121955714D02*
X158511429Y-122003333D01*
X159511429Y-122622380D02*
X159559048Y-122670000D01*
X159559048Y-122670000D02*
X159511429Y-122717619D01*
X159511429Y-122717619D02*
X159463810Y-122670000D01*
X159463810Y-122670000D02*
X159511429Y-122622380D01*
X159511429Y-122622380D02*
X159511429Y-122717619D01*
X160178095Y-121717619D02*
X160273333Y-121717619D01*
X160273333Y-121717619D02*
X160368571Y-121765238D01*
X160368571Y-121765238D02*
X160416190Y-121812857D01*
X160416190Y-121812857D02*
X160463809Y-121908095D01*
X160463809Y-121908095D02*
X160511428Y-122098571D01*
X160511428Y-122098571D02*
X160511428Y-122336666D01*
X160511428Y-122336666D02*
X160463809Y-122527142D01*
X160463809Y-122527142D02*
X160416190Y-122622380D01*
X160416190Y-122622380D02*
X160368571Y-122670000D01*
X160368571Y-122670000D02*
X160273333Y-122717619D01*
X160273333Y-122717619D02*
X160178095Y-122717619D01*
X160178095Y-122717619D02*
X160082857Y-122670000D01*
X160082857Y-122670000D02*
X160035238Y-122622380D01*
X160035238Y-122622380D02*
X159987619Y-122527142D01*
X159987619Y-122527142D02*
X159940000Y-122336666D01*
X159940000Y-122336666D02*
X159940000Y-122098571D01*
X159940000Y-122098571D02*
X159987619Y-121908095D01*
X159987619Y-121908095D02*
X160035238Y-121812857D01*
X160035238Y-121812857D02*
X160082857Y-121765238D01*
X160082857Y-121765238D02*
X160178095Y-121717619D01*
X155178095Y-124337619D02*
X155178095Y-123337619D01*
X155178095Y-123337619D02*
X155511428Y-124051904D01*
X155511428Y-124051904D02*
X155844761Y-123337619D01*
X155844761Y-123337619D02*
X155844761Y-124337619D01*
X156749523Y-124337619D02*
X156749523Y-123813809D01*
X156749523Y-123813809D02*
X156701904Y-123718571D01*
X156701904Y-123718571D02*
X156606666Y-123670952D01*
X156606666Y-123670952D02*
X156416190Y-123670952D01*
X156416190Y-123670952D02*
X156320952Y-123718571D01*
X156749523Y-124290000D02*
X156654285Y-124337619D01*
X156654285Y-124337619D02*
X156416190Y-124337619D01*
X156416190Y-124337619D02*
X156320952Y-124290000D01*
X156320952Y-124290000D02*
X156273333Y-124194761D01*
X156273333Y-124194761D02*
X156273333Y-124099523D01*
X156273333Y-124099523D02*
X156320952Y-124004285D01*
X156320952Y-124004285D02*
X156416190Y-123956666D01*
X156416190Y-123956666D02*
X156654285Y-123956666D01*
X156654285Y-123956666D02*
X156749523Y-123909047D01*
X157130476Y-123670952D02*
X157368571Y-124337619D01*
X157606666Y-123670952D02*
X157368571Y-124337619D01*
X157368571Y-124337619D02*
X157273333Y-124575714D01*
X157273333Y-124575714D02*
X157225714Y-124623333D01*
X157225714Y-124623333D02*
X157130476Y-124670952D01*
X158701905Y-123432857D02*
X158749524Y-123385238D01*
X158749524Y-123385238D02*
X158844762Y-123337619D01*
X158844762Y-123337619D02*
X159082857Y-123337619D01*
X159082857Y-123337619D02*
X159178095Y-123385238D01*
X159178095Y-123385238D02*
X159225714Y-123432857D01*
X159225714Y-123432857D02*
X159273333Y-123528095D01*
X159273333Y-123528095D02*
X159273333Y-123623333D01*
X159273333Y-123623333D02*
X159225714Y-123766190D01*
X159225714Y-123766190D02*
X158654286Y-124337619D01*
X158654286Y-124337619D02*
X159273333Y-124337619D01*
X159892381Y-123337619D02*
X159987619Y-123337619D01*
X159987619Y-123337619D02*
X160082857Y-123385238D01*
X160082857Y-123385238D02*
X160130476Y-123432857D01*
X160130476Y-123432857D02*
X160178095Y-123528095D01*
X160178095Y-123528095D02*
X160225714Y-123718571D01*
X160225714Y-123718571D02*
X160225714Y-123956666D01*
X160225714Y-123956666D02*
X160178095Y-124147142D01*
X160178095Y-124147142D02*
X160130476Y-124242380D01*
X160130476Y-124242380D02*
X160082857Y-124290000D01*
X160082857Y-124290000D02*
X159987619Y-124337619D01*
X159987619Y-124337619D02*
X159892381Y-124337619D01*
X159892381Y-124337619D02*
X159797143Y-124290000D01*
X159797143Y-124290000D02*
X159749524Y-124242380D01*
X159749524Y-124242380D02*
X159701905Y-124147142D01*
X159701905Y-124147142D02*
X159654286Y-123956666D01*
X159654286Y-123956666D02*
X159654286Y-123718571D01*
X159654286Y-123718571D02*
X159701905Y-123528095D01*
X159701905Y-123528095D02*
X159749524Y-123432857D01*
X159749524Y-123432857D02*
X159797143Y-123385238D01*
X159797143Y-123385238D02*
X159892381Y-123337619D01*
X160606667Y-123432857D02*
X160654286Y-123385238D01*
X160654286Y-123385238D02*
X160749524Y-123337619D01*
X160749524Y-123337619D02*
X160987619Y-123337619D01*
X160987619Y-123337619D02*
X161082857Y-123385238D01*
X161082857Y-123385238D02*
X161130476Y-123432857D01*
X161130476Y-123432857D02*
X161178095Y-123528095D01*
X161178095Y-123528095D02*
X161178095Y-123623333D01*
X161178095Y-123623333D02*
X161130476Y-123766190D01*
X161130476Y-123766190D02*
X160559048Y-124337619D01*
X160559048Y-124337619D02*
X161178095Y-124337619D01*
X161511429Y-123337619D02*
X162130476Y-123337619D01*
X162130476Y-123337619D02*
X161797143Y-123718571D01*
X161797143Y-123718571D02*
X161940000Y-123718571D01*
X161940000Y-123718571D02*
X162035238Y-123766190D01*
X162035238Y-123766190D02*
X162082857Y-123813809D01*
X162082857Y-123813809D02*
X162130476Y-123909047D01*
X162130476Y-123909047D02*
X162130476Y-124147142D01*
X162130476Y-124147142D02*
X162082857Y-124242380D01*
X162082857Y-124242380D02*
X162035238Y-124290000D01*
X162035238Y-124290000D02*
X161940000Y-124337619D01*
X161940000Y-124337619D02*
X161654286Y-124337619D01*
X161654286Y-124337619D02*
X161559048Y-124290000D01*
X161559048Y-124290000D02*
X161511429Y-124242380D01*
X84741855Y-79402524D02*
X84408522Y-78926333D01*
X84170427Y-79402524D02*
X84170427Y-78402524D01*
X84170427Y-78402524D02*
X84551379Y-78402524D01*
X84551379Y-78402524D02*
X84646617Y-78450143D01*
X84646617Y-78450143D02*
X84694236Y-78497762D01*
X84694236Y-78497762D02*
X84741855Y-78593000D01*
X84741855Y-78593000D02*
X84741855Y-78735857D01*
X84741855Y-78735857D02*
X84694236Y-78831095D01*
X84694236Y-78831095D02*
X84646617Y-78878714D01*
X84646617Y-78878714D02*
X84551379Y-78926333D01*
X84551379Y-78926333D02*
X84170427Y-78926333D01*
X85075189Y-79402524D02*
X85598998Y-78735857D01*
X85075189Y-78735857D02*
X85598998Y-79402524D01*
X84089943Y-68010589D02*
X83994705Y-67962970D01*
X83994705Y-67962970D02*
X83851848Y-67962970D01*
X83851848Y-67962970D02*
X83708991Y-68010589D01*
X83708991Y-68010589D02*
X83613753Y-68105827D01*
X83613753Y-68105827D02*
X83566134Y-68201065D01*
X83566134Y-68201065D02*
X83518515Y-68391541D01*
X83518515Y-68391541D02*
X83518515Y-68534398D01*
X83518515Y-68534398D02*
X83566134Y-68724874D01*
X83566134Y-68724874D02*
X83613753Y-68820112D01*
X83613753Y-68820112D02*
X83708991Y-68915351D01*
X83708991Y-68915351D02*
X83851848Y-68962970D01*
X83851848Y-68962970D02*
X83947086Y-68962970D01*
X83947086Y-68962970D02*
X84089943Y-68915351D01*
X84089943Y-68915351D02*
X84137562Y-68867731D01*
X84137562Y-68867731D02*
X84137562Y-68534398D01*
X84137562Y-68534398D02*
X83947086Y-68534398D01*
X84566134Y-68962970D02*
X84566134Y-67962970D01*
X84566134Y-67962970D02*
X85137562Y-68962970D01*
X85137562Y-68962970D02*
X85137562Y-67962970D01*
X85613753Y-68962970D02*
X85613753Y-67962970D01*
X85613753Y-67962970D02*
X85851848Y-67962970D01*
X85851848Y-67962970D02*
X85994705Y-68010589D01*
X85994705Y-68010589D02*
X86089943Y-68105827D01*
X86089943Y-68105827D02*
X86137562Y-68201065D01*
X86137562Y-68201065D02*
X86185181Y-68391541D01*
X86185181Y-68391541D02*
X86185181Y-68534398D01*
X86185181Y-68534398D02*
X86137562Y-68724874D01*
X86137562Y-68724874D02*
X86089943Y-68820112D01*
X86089943Y-68820112D02*
X85994705Y-68915351D01*
X85994705Y-68915351D02*
X85851848Y-68962970D01*
X85851848Y-68962970D02*
X85613753Y-68962970D01*
X83483572Y-73093770D02*
X83816905Y-74093770D01*
X83816905Y-74093770D02*
X84150238Y-73093770D01*
X84912143Y-74046151D02*
X84816905Y-74093770D01*
X84816905Y-74093770D02*
X84626429Y-74093770D01*
X84626429Y-74093770D02*
X84531191Y-74046151D01*
X84531191Y-74046151D02*
X84483572Y-73998531D01*
X84483572Y-73998531D02*
X84435953Y-73903293D01*
X84435953Y-73903293D02*
X84435953Y-73617579D01*
X84435953Y-73617579D02*
X84483572Y-73522341D01*
X84483572Y-73522341D02*
X84531191Y-73474722D01*
X84531191Y-73474722D02*
X84626429Y-73427103D01*
X84626429Y-73427103D02*
X84816905Y-73427103D01*
X84816905Y-73427103D02*
X84912143Y-73474722D01*
X85769286Y-74046151D02*
X85674048Y-74093770D01*
X85674048Y-74093770D02*
X85483572Y-74093770D01*
X85483572Y-74093770D02*
X85388334Y-74046151D01*
X85388334Y-74046151D02*
X85340715Y-73998531D01*
X85340715Y-73998531D02*
X85293096Y-73903293D01*
X85293096Y-73903293D02*
X85293096Y-73617579D01*
X85293096Y-73617579D02*
X85340715Y-73522341D01*
X85340715Y-73522341D02*
X85388334Y-73474722D01*
X85388334Y-73474722D02*
X85483572Y-73427103D01*
X85483572Y-73427103D02*
X85674048Y-73427103D01*
X85674048Y-73427103D02*
X85769286Y-73474722D01*
X83958172Y-75709970D02*
X84529600Y-75709970D01*
X84243886Y-76709970D02*
X84243886Y-75709970D01*
X84767696Y-76709970D02*
X85291505Y-76043303D01*
X84767696Y-76043303D02*
X85291505Y-76709970D01*
X153384838Y-84245219D02*
X153384838Y-83245219D01*
X153861028Y-84245219D02*
X153861028Y-83245219D01*
X153861028Y-83245219D02*
X154432456Y-84245219D01*
X154432456Y-84245219D02*
X154432456Y-83245219D01*
X154765790Y-83245219D02*
X155337218Y-83245219D01*
X155051504Y-84245219D02*
X155051504Y-83245219D01*
X153048324Y-65338219D02*
X153381657Y-66338219D01*
X153381657Y-66338219D02*
X153714990Y-65338219D01*
X154476895Y-66290600D02*
X154381657Y-66338219D01*
X154381657Y-66338219D02*
X154191181Y-66338219D01*
X154191181Y-66338219D02*
X154095943Y-66290600D01*
X154095943Y-66290600D02*
X154048324Y-66242980D01*
X154048324Y-66242980D02*
X154000705Y-66147742D01*
X154000705Y-66147742D02*
X154000705Y-65862028D01*
X154000705Y-65862028D02*
X154048324Y-65766790D01*
X154048324Y-65766790D02*
X154095943Y-65719171D01*
X154095943Y-65719171D02*
X154191181Y-65671552D01*
X154191181Y-65671552D02*
X154381657Y-65671552D01*
X154381657Y-65671552D02*
X154476895Y-65719171D01*
X155334038Y-66290600D02*
X155238800Y-66338219D01*
X155238800Y-66338219D02*
X155048324Y-66338219D01*
X155048324Y-66338219D02*
X154953086Y-66290600D01*
X154953086Y-66290600D02*
X154905467Y-66242980D01*
X154905467Y-66242980D02*
X154857848Y-66147742D01*
X154857848Y-66147742D02*
X154857848Y-65862028D01*
X154857848Y-65862028D02*
X154905467Y-65766790D01*
X154905467Y-65766790D02*
X154953086Y-65719171D01*
X154953086Y-65719171D02*
X155048324Y-65671552D01*
X155048324Y-65671552D02*
X155238800Y-65671552D01*
X155238800Y-65671552D02*
X155334038Y-65719171D01*
X152870524Y-71421400D02*
X153013381Y-71469019D01*
X153013381Y-71469019D02*
X153251476Y-71469019D01*
X153251476Y-71469019D02*
X153346714Y-71421400D01*
X153346714Y-71421400D02*
X153394333Y-71373780D01*
X153394333Y-71373780D02*
X153441952Y-71278542D01*
X153441952Y-71278542D02*
X153441952Y-71183304D01*
X153441952Y-71183304D02*
X153394333Y-71088066D01*
X153394333Y-71088066D02*
X153346714Y-71040447D01*
X153346714Y-71040447D02*
X153251476Y-70992828D01*
X153251476Y-70992828D02*
X153061000Y-70945209D01*
X153061000Y-70945209D02*
X152965762Y-70897590D01*
X152965762Y-70897590D02*
X152918143Y-70849971D01*
X152918143Y-70849971D02*
X152870524Y-70754733D01*
X152870524Y-70754733D02*
X152870524Y-70659495D01*
X152870524Y-70659495D02*
X152918143Y-70564257D01*
X152918143Y-70564257D02*
X152965762Y-70516638D01*
X152965762Y-70516638D02*
X153061000Y-70469019D01*
X153061000Y-70469019D02*
X153299095Y-70469019D01*
X153299095Y-70469019D02*
X153441952Y-70516638D01*
X154441952Y-71373780D02*
X154394333Y-71421400D01*
X154394333Y-71421400D02*
X154251476Y-71469019D01*
X154251476Y-71469019D02*
X154156238Y-71469019D01*
X154156238Y-71469019D02*
X154013381Y-71421400D01*
X154013381Y-71421400D02*
X153918143Y-71326161D01*
X153918143Y-71326161D02*
X153870524Y-71230923D01*
X153870524Y-71230923D02*
X153822905Y-71040447D01*
X153822905Y-71040447D02*
X153822905Y-70897590D01*
X153822905Y-70897590D02*
X153870524Y-70707114D01*
X153870524Y-70707114D02*
X153918143Y-70611876D01*
X153918143Y-70611876D02*
X154013381Y-70516638D01*
X154013381Y-70516638D02*
X154156238Y-70469019D01*
X154156238Y-70469019D02*
X154251476Y-70469019D01*
X154251476Y-70469019D02*
X154394333Y-70516638D01*
X154394333Y-70516638D02*
X154441952Y-70564257D01*
X155346714Y-71469019D02*
X154870524Y-71469019D01*
X154870524Y-71469019D02*
X154870524Y-70469019D01*
X153248295Y-68027438D02*
X153153057Y-67979819D01*
X153153057Y-67979819D02*
X153010200Y-67979819D01*
X153010200Y-67979819D02*
X152867343Y-68027438D01*
X152867343Y-68027438D02*
X152772105Y-68122676D01*
X152772105Y-68122676D02*
X152724486Y-68217914D01*
X152724486Y-68217914D02*
X152676867Y-68408390D01*
X152676867Y-68408390D02*
X152676867Y-68551247D01*
X152676867Y-68551247D02*
X152724486Y-68741723D01*
X152724486Y-68741723D02*
X152772105Y-68836961D01*
X152772105Y-68836961D02*
X152867343Y-68932200D01*
X152867343Y-68932200D02*
X153010200Y-68979819D01*
X153010200Y-68979819D02*
X153105438Y-68979819D01*
X153105438Y-68979819D02*
X153248295Y-68932200D01*
X153248295Y-68932200D02*
X153295914Y-68884580D01*
X153295914Y-68884580D02*
X153295914Y-68551247D01*
X153295914Y-68551247D02*
X153105438Y-68551247D01*
X153724486Y-68979819D02*
X153724486Y-67979819D01*
X153724486Y-67979819D02*
X154295914Y-68979819D01*
X154295914Y-68979819D02*
X154295914Y-67979819D01*
X154772105Y-68979819D02*
X154772105Y-67979819D01*
X154772105Y-67979819D02*
X155010200Y-67979819D01*
X155010200Y-67979819D02*
X155153057Y-68027438D01*
X155153057Y-68027438D02*
X155248295Y-68122676D01*
X155248295Y-68122676D02*
X155295914Y-68217914D01*
X155295914Y-68217914D02*
X155343533Y-68408390D01*
X155343533Y-68408390D02*
X155343533Y-68551247D01*
X155343533Y-68551247D02*
X155295914Y-68741723D01*
X155295914Y-68741723D02*
X155248295Y-68836961D01*
X155248295Y-68836961D02*
X155153057Y-68932200D01*
X155153057Y-68932200D02*
X155010200Y-68979819D01*
X155010200Y-68979819D02*
X154772105Y-68979819D01*
X152821314Y-74037600D02*
X152964171Y-74085219D01*
X152964171Y-74085219D02*
X153202266Y-74085219D01*
X153202266Y-74085219D02*
X153297504Y-74037600D01*
X153297504Y-74037600D02*
X153345123Y-73989980D01*
X153345123Y-73989980D02*
X153392742Y-73894742D01*
X153392742Y-73894742D02*
X153392742Y-73799504D01*
X153392742Y-73799504D02*
X153345123Y-73704266D01*
X153345123Y-73704266D02*
X153297504Y-73656647D01*
X153297504Y-73656647D02*
X153202266Y-73609028D01*
X153202266Y-73609028D02*
X153011790Y-73561409D01*
X153011790Y-73561409D02*
X152916552Y-73513790D01*
X152916552Y-73513790D02*
X152868933Y-73466171D01*
X152868933Y-73466171D02*
X152821314Y-73370933D01*
X152821314Y-73370933D02*
X152821314Y-73275695D01*
X152821314Y-73275695D02*
X152868933Y-73180457D01*
X152868933Y-73180457D02*
X152916552Y-73132838D01*
X152916552Y-73132838D02*
X153011790Y-73085219D01*
X153011790Y-73085219D02*
X153249885Y-73085219D01*
X153249885Y-73085219D02*
X153392742Y-73132838D01*
X153821314Y-74085219D02*
X153821314Y-73085219D01*
X153821314Y-73085219D02*
X154059409Y-73085219D01*
X154059409Y-73085219D02*
X154202266Y-73132838D01*
X154202266Y-73132838D02*
X154297504Y-73228076D01*
X154297504Y-73228076D02*
X154345123Y-73323314D01*
X154345123Y-73323314D02*
X154392742Y-73513790D01*
X154392742Y-73513790D02*
X154392742Y-73656647D01*
X154392742Y-73656647D02*
X154345123Y-73847123D01*
X154345123Y-73847123D02*
X154297504Y-73942361D01*
X154297504Y-73942361D02*
X154202266Y-74037600D01*
X154202266Y-74037600D02*
X154059409Y-74085219D01*
X154059409Y-74085219D02*
X153821314Y-74085219D01*
X154773695Y-73799504D02*
X155249885Y-73799504D01*
X154678457Y-74085219D02*
X155011790Y-73085219D01*
X155011790Y-73085219D02*
X155345123Y-74085219D01*
D11*
%TO.C,J3*%
X158810000Y-64710000D02*
X158810000Y-66040000D01*
X156150000Y-67310000D02*
X158810000Y-67310000D01*
X158810000Y-67310000D02*
X158810000Y-85150000D01*
X156150000Y-85150000D02*
X158810000Y-85150000D01*
X156150000Y-67310000D02*
X156150000Y-85150000D01*
X157480000Y-64710000D02*
X158810000Y-64710000D01*
%TO.C,J4*%
X82610000Y-80010000D02*
X82610000Y-67250000D01*
X82610000Y-80010000D02*
X79950000Y-80010000D01*
X82610000Y-67250000D02*
X79950000Y-67250000D01*
X81280000Y-82610000D02*
X79950000Y-82610000D01*
X79950000Y-82610000D02*
X79950000Y-81280000D01*
X79950000Y-80010000D02*
X79950000Y-67250000D01*
%TO.C,J2*%
X142200000Y-59660000D02*
X142200000Y-123280000D01*
X142200000Y-59660000D02*
X144800000Y-59660000D01*
X142200000Y-123280000D02*
X147400000Y-123280000D01*
X144800000Y-59660000D02*
X144800000Y-62260000D01*
X144800000Y-62260000D02*
X147400000Y-62260000D01*
X146070000Y-59660000D02*
X147400000Y-59660000D01*
X147400000Y-59660000D02*
X147400000Y-60990000D01*
X147400000Y-62260000D02*
X147400000Y-123280000D01*
%TO.C,J1*%
X91410000Y-59640000D02*
X91410000Y-123260000D01*
X91410000Y-59640000D02*
X94010000Y-59640000D01*
X91410000Y-123260000D02*
X96610000Y-123260000D01*
X94010000Y-59640000D02*
X94010000Y-62240000D01*
X94010000Y-62240000D02*
X96610000Y-62240000D01*
X95280000Y-59640000D02*
X96610000Y-59640000D01*
X96610000Y-59640000D02*
X96610000Y-60970000D01*
X96610000Y-62240000D02*
X96610000Y-123260000D01*
%TD*%
M02*
