%TF.GenerationSoftware,KiCad,Pcbnew,7.0.1-0*%
%TF.CreationDate,2023-04-12T16:12:06-06:00*%
%TF.ProjectId,Arduino_Uno_Kitchen_Timer,41726475-696e-46f5-9f55-6e6f5f4b6974,rev?*%
%TF.SameCoordinates,Original*%
%TF.FileFunction,Copper,L2,Bot*%
%TF.FilePolarity,Positive*%
%FSLAX46Y46*%
G04 Gerber Fmt 4.6, Leading zero omitted, Abs format (unit mm)*
G04 Created by KiCad (PCBNEW 7.0.1-0) date 2023-04-12 16:12:06*
%MOMM*%
%LPD*%
G01*
G04 APERTURE LIST*
%TA.AperFunction,ComponentPad*%
%ADD10R,1.700000X1.700000*%
%TD*%
%TA.AperFunction,ComponentPad*%
%ADD11O,1.700000X1.700000*%
%TD*%
%TA.AperFunction,ComponentPad*%
%ADD12C,1.600000*%
%TD*%
%TA.AperFunction,ComponentPad*%
%ADD13O,1.600000X1.600000*%
%TD*%
%TA.AperFunction,ComponentPad*%
%ADD14O,3.048000X1.850000*%
%TD*%
%TA.AperFunction,ComponentPad*%
%ADD15R,1.600000X1.600000*%
%TD*%
%TA.AperFunction,ComponentPad*%
%ADD16R,1.800000X1.800000*%
%TD*%
%TA.AperFunction,ComponentPad*%
%ADD17C,1.800000*%
%TD*%
%TA.AperFunction,ComponentPad*%
%ADD18R,2.000000X2.000000*%
%TD*%
%TA.AperFunction,ComponentPad*%
%ADD19C,2.000000*%
%TD*%
%TA.AperFunction,ComponentPad*%
%ADD20R,1.500000X1.500000*%
%TD*%
%TA.AperFunction,ComponentPad*%
%ADD21C,1.500000*%
%TD*%
%TA.AperFunction,ViaPad*%
%ADD22C,0.600000*%
%TD*%
%TA.AperFunction,Conductor*%
%ADD23C,0.250000*%
%TD*%
G04 APERTURE END LIST*
D10*
%TO.P,J2,1,Pin_1*%
%TO.N,unconnected-(J2-Pin_1-Pad1)*%
X145669000Y-51088000D03*
D11*
%TO.P,J2,2,Pin_2*%
%TO.N,unconnected-(J2-Pin_2-Pad2)*%
X148209000Y-51088000D03*
%TO.P,J2,3,Pin_3*%
%TO.N,unconnected-(J2-Pin_3-Pad3)*%
X150749000Y-51088000D03*
%TO.P,J2,4,Pin_4*%
%TO.N,GND*%
X153289000Y-51088000D03*
%TO.P,J2,5,Pin_5*%
%TO.N,/DIG_1*%
X155829000Y-51088000D03*
%TO.P,J2,6,Pin_6*%
%TO.N,/DIG_2*%
X158369000Y-51088000D03*
%TO.P,J2,7,Pin_7*%
%TO.N,/DIG_3*%
X160909000Y-51088000D03*
%TO.P,J2,8,Pin_8*%
%TO.N,/DIG_4*%
X163449000Y-51088000D03*
%TO.P,J2,9,Pin_9*%
%TO.N,/DS*%
X165989000Y-51088000D03*
%TO.P,J2,10,Pin_10*%
%TO.N,/ST_CP*%
X168529000Y-51088000D03*
%TD*%
D12*
%TO.P,R10,1*%
%TO.N,/F*%
X140207994Y-86139996D03*
D13*
%TO.P,R10,2*%
%TO.N,Net-(U2-f)*%
X140207994Y-75979996D03*
%TD*%
D14*
%TO.P,SW1,1,1*%
%TO.N,+5V*%
X215134088Y-85896641D03*
X202634088Y-85896641D03*
%TO.P,SW1,2,2*%
%TO.N,/BUTTON_1*%
X215134088Y-80896641D03*
X202634088Y-80896641D03*
%TD*%
%TO.P,SW2,1,1*%
%TO.N,+5V*%
X196651913Y-86152023D03*
X184151913Y-86152023D03*
%TO.P,SW2,2,2*%
%TO.N,/BUTTON_2*%
X196651913Y-81152023D03*
X184151913Y-81152023D03*
%TD*%
D12*
%TO.P,R8,1*%
%TO.N,/D*%
X147320000Y-86140000D03*
D13*
%TO.P,R8,2*%
%TO.N,Net-(U2-d)*%
X147320000Y-75980000D03*
%TD*%
D12*
%TO.P,R2,1*%
%TO.N,/BUTTON_1*%
X213360000Y-73440000D03*
D13*
%TO.P,R2,2*%
%TO.N,GND*%
X203200000Y-73440000D03*
%TD*%
D15*
%TO.P,U1,1,QB*%
%TO.N,/B*%
X166380000Y-77265000D03*
D13*
%TO.P,U1,2,QC*%
%TO.N,/C*%
X166380000Y-79805000D03*
%TO.P,U1,3,QD*%
%TO.N,/D*%
X166380000Y-82345000D03*
%TO.P,U1,4,QE*%
%TO.N,/E*%
X166380000Y-84885000D03*
%TO.P,U1,5,QF*%
%TO.N,/F*%
X166380000Y-87425000D03*
%TO.P,U1,6,QG*%
%TO.N,/G*%
X166380000Y-89965000D03*
%TO.P,U1,7,QH*%
%TO.N,/DP*%
X166380000Y-92505000D03*
%TO.P,U1,8,GND*%
%TO.N,GND*%
X166380000Y-95045000D03*
%TO.P,U1,9,QH'*%
%TO.N,unconnected-(U1-QH'-Pad9)*%
X174000000Y-95045000D03*
%TO.P,U1,10,~{SRCLR}*%
%TO.N,+5V*%
X174000000Y-92505000D03*
%TO.P,U1,11,SRCLK*%
%TO.N,/SH_CP*%
X174000000Y-89965000D03*
%TO.P,U1,12,RCLK*%
%TO.N,/ST_CP*%
X174000000Y-87425000D03*
%TO.P,U1,13,~{OE}*%
%TO.N,GND*%
X174000000Y-84885000D03*
%TO.P,U1,14,SER*%
%TO.N,/DS*%
X174000000Y-82345000D03*
%TO.P,U1,15,QA*%
%TO.N,/A*%
X174000000Y-79805000D03*
%TO.P,U1,16,VCC*%
%TO.N,+5V*%
X174000000Y-77265000D03*
%TD*%
D12*
%TO.P,R11,1*%
%TO.N,/G*%
X136612913Y-86218150D03*
D13*
%TO.P,R11,2*%
%TO.N,Net-(U2-g)*%
X136612913Y-76058150D03*
%TD*%
D12*
%TO.P,R4,1*%
%TO.N,/GREEN_LED*%
X186538923Y-58262499D03*
D13*
%TO.P,R4,2*%
%TO.N,Net-(D2-A)*%
X186538923Y-68422499D03*
%TD*%
D16*
%TO.P,D1,1,K*%
%TO.N,GND*%
X198685096Y-65770438D03*
D17*
%TO.P,D1,2,A*%
%TO.N,Net-(D1-A)*%
X196145096Y-65770438D03*
%TD*%
D10*
%TO.P,J4,1,Pin_1*%
%TO.N,/SH_CP*%
X172593000Y-51088000D03*
D11*
%TO.P,J4,2,Pin_2*%
%TO.N,/BUZZER*%
X175133000Y-51088000D03*
%TO.P,J4,3,Pin_3*%
%TO.N,/RED_LED*%
X177673000Y-51088000D03*
%TO.P,J4,4,Pin_4*%
%TO.N,/GREEN_LED*%
X180213000Y-51088000D03*
%TO.P,J4,5,Pin_5*%
%TO.N,/BUTTON_2*%
X182753000Y-51088000D03*
%TO.P,J4,6,Pin_6*%
%TO.N,/BUTTON_1*%
X185293000Y-51088000D03*
%TO.P,J4,7,Pin_7*%
%TO.N,/TX{slash}1*%
X187833000Y-51088000D03*
%TO.P,J4,8,Pin_8*%
%TO.N,/RX{slash}0*%
X190373000Y-51088000D03*
%TD*%
D12*
%TO.P,R6,1*%
%TO.N,/B*%
X154510160Y-86140000D03*
D13*
%TO.P,R6,2*%
%TO.N,Net-(U2-b)*%
X154510160Y-75980000D03*
%TD*%
D12*
%TO.P,R5,1*%
%TO.N,/A*%
X158107517Y-86088651D03*
D13*
%TO.P,R5,2*%
%TO.N,Net-(U2-a)*%
X158107517Y-75928651D03*
%TD*%
D12*
%TO.P,R7,1*%
%TO.N,/C*%
X150915080Y-86139996D03*
D13*
%TO.P,R7,2*%
%TO.N,Net-(U2-c)*%
X150915080Y-75979996D03*
%TD*%
D18*
%TO.P,LS1,1,1*%
%TO.N,/BUZZER*%
X210820000Y-53120000D03*
D19*
%TO.P,LS1,2,2*%
%TO.N,GND*%
X210820000Y-60720000D03*
%TD*%
D20*
%TO.P,U2,1,e*%
%TO.N,Net-(U2-e)*%
X148622168Y-71885789D03*
D21*
%TO.P,U2,2,d*%
%TO.N,Net-(U2-d)*%
X151162168Y-71885789D03*
%TO.P,U2,3,DPX*%
%TO.N,Net-(U2-DPX)*%
X153702168Y-71885789D03*
%TO.P,U2,4,c*%
%TO.N,Net-(U2-c)*%
X156242168Y-71885789D03*
%TO.P,U2,5,g*%
%TO.N,Net-(U2-g)*%
X158782168Y-71885789D03*
%TO.P,U2,6,CA4*%
%TO.N,/DIG_4*%
X161322168Y-71885789D03*
%TO.P,U2,7,b*%
%TO.N,Net-(U2-b)*%
X161322168Y-56645789D03*
%TO.P,U2,8,CA3*%
%TO.N,/DIG_3*%
X158782168Y-56645789D03*
%TO.P,U2,9,CA2*%
%TO.N,/DIG_2*%
X156242168Y-56645789D03*
%TO.P,U2,10,f*%
%TO.N,Net-(U2-f)*%
X153702168Y-56645789D03*
%TO.P,U2,11,a*%
%TO.N,Net-(U2-a)*%
X151162168Y-56645789D03*
%TO.P,U2,12,CA1*%
%TO.N,/DIG_1*%
X148622168Y-56645789D03*
%TD*%
D12*
%TO.P,R1,1*%
%TO.N,/BUTTON_2*%
X185420000Y-73440000D03*
D13*
%TO.P,R1,2*%
%TO.N,GND*%
X195580000Y-73440000D03*
%TD*%
D12*
%TO.P,R9,1*%
%TO.N,/E*%
X143724920Y-86140000D03*
D13*
%TO.P,R9,2*%
%TO.N,Net-(U2-e)*%
X143724920Y-75980000D03*
%TD*%
D12*
%TO.P,R12,1*%
%TO.N,/DP*%
X132939679Y-86218154D03*
D13*
%TO.P,R12,2*%
%TO.N,Net-(U2-DPX)*%
X132939679Y-76058154D03*
%TD*%
D16*
%TO.P,D2,1,K*%
%TO.N,GND*%
X193040000Y-65820000D03*
D17*
%TO.P,D2,2,A*%
%TO.N,Net-(D2-A)*%
X190500000Y-65820000D03*
%TD*%
D12*
%TO.P,R3,1*%
%TO.N,/RED_LED*%
X182880000Y-58197666D03*
D13*
%TO.P,R3,2*%
%TO.N,Net-(D1-A)*%
X182880000Y-68357666D03*
%TD*%
D10*
%TO.P,J1,1,Pin_1*%
%TO.N,unconnected-(J1-Pin_1-Pad1)*%
X154813000Y-99348000D03*
D11*
%TO.P,J1,2,Pin_2*%
%TO.N,/IOREF*%
X157353000Y-99348000D03*
%TO.P,J1,3,Pin_3*%
%TO.N,/~{RESET}*%
X159893000Y-99348000D03*
%TO.P,J1,4,Pin_4*%
%TO.N,+3V3*%
X162433000Y-99348000D03*
%TO.P,J1,5,Pin_5*%
%TO.N,+5V*%
X164973000Y-99348000D03*
%TO.P,J1,6,Pin_6*%
%TO.N,GND*%
X167513000Y-99348000D03*
%TO.P,J1,7,Pin_7*%
X170053000Y-99348000D03*
%TO.P,J1,8,Pin_8*%
%TO.N,VCC*%
X172593000Y-99348000D03*
%TD*%
D10*
%TO.P,J3,1,Pin_1*%
%TO.N,/A0*%
X177673000Y-99348000D03*
D11*
%TO.P,J3,2,Pin_2*%
%TO.N,/A1*%
X180213000Y-99348000D03*
%TO.P,J3,3,Pin_3*%
%TO.N,/A2*%
X182753000Y-99348000D03*
%TO.P,J3,4,Pin_4*%
%TO.N,/A3*%
X185293000Y-99348000D03*
%TO.P,J3,5,Pin_5*%
%TO.N,/SDA{slash}A4*%
X187833000Y-99348000D03*
%TO.P,J3,6,Pin_6*%
%TO.N,/SCL{slash}A5*%
X190373000Y-99348000D03*
%TD*%
D22*
%TO.N,/BUZZER*%
X195580000Y-53120000D03*
X177800000Y-53120000D03*
%TO.N,Net-(U2-a)*%
X166902763Y-59962701D03*
X152400000Y-58200000D03*
%TO.N,Net-(U2-b)*%
X162560000Y-58200000D03*
X165100000Y-58200000D03*
%TO.N,Net-(U2-f)*%
X142240000Y-70900000D03*
X147320000Y-65820000D03*
%TO.N,Net-(U2-g)*%
X139700000Y-70900000D03*
X142240000Y-68360000D03*
%TD*%
D23*
%TO.N,/BUZZER*%
X195580000Y-53120000D02*
X177800000Y-53120000D01*
%TO.N,Net-(U2-a)*%
X154162701Y-59962701D02*
X152400000Y-58200000D01*
X166902763Y-59962701D02*
X154162701Y-59962701D01*
%TO.N,Net-(U2-b)*%
X165100000Y-58200000D02*
X162560000Y-58200000D01*
%TO.N,Net-(U2-f)*%
X142240000Y-70900000D02*
X147320000Y-65820000D01*
%TO.N,Net-(U2-g)*%
X139700000Y-70900000D02*
X142240000Y-68360000D01*
%TD*%
%TA.AperFunction,Conductor*%
%TO.N,GND*%
G36*
X215776736Y-48623726D02*
G01*
X216062577Y-48641016D01*
X216077441Y-48642821D01*
X216355421Y-48693763D01*
X216369943Y-48697342D01*
X216639784Y-48781427D01*
X216653754Y-48786725D01*
X216911476Y-48902718D01*
X216924718Y-48909668D01*
X217166584Y-49055879D01*
X217178894Y-49064377D01*
X217268655Y-49134700D01*
X217401364Y-49238671D01*
X217412572Y-49248601D01*
X217612398Y-49448427D01*
X217622328Y-49459635D01*
X217796618Y-49682099D01*
X217805122Y-49694419D01*
X217938104Y-49914399D01*
X217951327Y-49936273D01*
X217958284Y-49949529D01*
X218038965Y-50128794D01*
X218074270Y-50207237D01*
X218079575Y-50221225D01*
X218163653Y-50491040D01*
X218167236Y-50505578D01*
X218218178Y-50783558D01*
X218219983Y-50798423D01*
X218237274Y-51084264D01*
X218237500Y-51091751D01*
X218237500Y-99344249D01*
X218237274Y-99351736D01*
X218219983Y-99637576D01*
X218218178Y-99652441D01*
X218167236Y-99930421D01*
X218163652Y-99944959D01*
X218079577Y-100214769D01*
X218074270Y-100228762D01*
X217958285Y-100486468D01*
X217951327Y-100499726D01*
X217805124Y-100741577D01*
X217796618Y-100753900D01*
X217622328Y-100976364D01*
X217612398Y-100987572D01*
X217412572Y-101187398D01*
X217401364Y-101197328D01*
X217178900Y-101371618D01*
X217166576Y-101380124D01*
X216924722Y-101526328D01*
X216911465Y-101533286D01*
X216787510Y-101589075D01*
X216736618Y-101600000D01*
X128449382Y-101600000D01*
X128398490Y-101589075D01*
X128274534Y-101533286D01*
X128261277Y-101526328D01*
X128019423Y-101380124D01*
X128007099Y-101371618D01*
X127784635Y-101197328D01*
X127773427Y-101187398D01*
X127573601Y-100987572D01*
X127563671Y-100976364D01*
X127389381Y-100753900D01*
X127380879Y-100741584D01*
X127234668Y-100499718D01*
X127227718Y-100486476D01*
X127119772Y-100246634D01*
X153454500Y-100246634D01*
X153461011Y-100307205D01*
X153512110Y-100444203D01*
X153599738Y-100561261D01*
X153716796Y-100648889D01*
X153853794Y-100699988D01*
X153853797Y-100699988D01*
X153853799Y-100699989D01*
X153914362Y-100706500D01*
X155711634Y-100706500D01*
X155711638Y-100706500D01*
X155772201Y-100699989D01*
X155772203Y-100699988D01*
X155772205Y-100699988D01*
X155854097Y-100669443D01*
X155909204Y-100648889D01*
X156026261Y-100561261D01*
X156113889Y-100444204D01*
X156159137Y-100322889D01*
X156195089Y-100271677D01*
X156251471Y-100244539D01*
X156313925Y-100248387D01*
X156366548Y-100282241D01*
X156403969Y-100322890D01*
X156429760Y-100350906D01*
X156607424Y-100489189D01*
X156805426Y-100596342D01*
X157018365Y-100669444D01*
X157240431Y-100706500D01*
X157465569Y-100706500D01*
X157687635Y-100669444D01*
X157900574Y-100596342D01*
X158098576Y-100489189D01*
X158276240Y-100350906D01*
X158428722Y-100185268D01*
X158519190Y-100046795D01*
X158563982Y-100005561D01*
X158623000Y-99990616D01*
X158682018Y-100005561D01*
X158726809Y-100046795D01*
X158817278Y-100185268D01*
X158969760Y-100350906D01*
X159147424Y-100489189D01*
X159345426Y-100596342D01*
X159558365Y-100669444D01*
X159780431Y-100706500D01*
X160005569Y-100706500D01*
X160227635Y-100669444D01*
X160440574Y-100596342D01*
X160638576Y-100489189D01*
X160816240Y-100350906D01*
X160968722Y-100185268D01*
X161059190Y-100046795D01*
X161103982Y-100005561D01*
X161163000Y-99990616D01*
X161222018Y-100005561D01*
X161266809Y-100046795D01*
X161357278Y-100185268D01*
X161509760Y-100350906D01*
X161687424Y-100489189D01*
X161885426Y-100596342D01*
X162098365Y-100669444D01*
X162320431Y-100706500D01*
X162545569Y-100706500D01*
X162767635Y-100669444D01*
X162980574Y-100596342D01*
X163178576Y-100489189D01*
X163356240Y-100350906D01*
X163508722Y-100185268D01*
X163599190Y-100046795D01*
X163643982Y-100005561D01*
X163703000Y-99990616D01*
X163762018Y-100005561D01*
X163806809Y-100046795D01*
X163897278Y-100185268D01*
X164049760Y-100350906D01*
X164227424Y-100489189D01*
X164425426Y-100596342D01*
X164638365Y-100669444D01*
X164860431Y-100706500D01*
X165085569Y-100706500D01*
X165307635Y-100669444D01*
X165520574Y-100596342D01*
X165718576Y-100489189D01*
X165896240Y-100350906D01*
X166048722Y-100185268D01*
X166142748Y-100041349D01*
X166186663Y-100000595D01*
X166244562Y-99985188D01*
X166302926Y-99998726D01*
X166348131Y-100038048D01*
X166474892Y-100219080D01*
X166641918Y-100386106D01*
X166835423Y-100521600D01*
X167049507Y-100621430D01*
X167262999Y-100678635D01*
X167263000Y-100678636D01*
X167263000Y-99598000D01*
X167763000Y-99598000D01*
X167763000Y-100678635D01*
X167976492Y-100621430D01*
X168190576Y-100521600D01*
X168384081Y-100386106D01*
X168551106Y-100219081D01*
X168681425Y-100032968D01*
X168725743Y-99994103D01*
X168783000Y-99980092D01*
X168840257Y-99994103D01*
X168884575Y-100032968D01*
X169014893Y-100219081D01*
X169181918Y-100386106D01*
X169375423Y-100521600D01*
X169589507Y-100621430D01*
X169802999Y-100678635D01*
X169803000Y-100678636D01*
X169803000Y-100678635D01*
X170303000Y-100678635D01*
X170516492Y-100621430D01*
X170730576Y-100521600D01*
X170924081Y-100386106D01*
X171091106Y-100219081D01*
X171217868Y-100038048D01*
X171263072Y-99998726D01*
X171321436Y-99985188D01*
X171379335Y-100000595D01*
X171423252Y-100041351D01*
X171517276Y-100185267D01*
X171596824Y-100271677D01*
X171669760Y-100350906D01*
X171847424Y-100489189D01*
X172045426Y-100596342D01*
X172258365Y-100669444D01*
X172480431Y-100706500D01*
X172705569Y-100706500D01*
X172927635Y-100669444D01*
X173140574Y-100596342D01*
X173338576Y-100489189D01*
X173516240Y-100350906D01*
X173612230Y-100246634D01*
X176314500Y-100246634D01*
X176321011Y-100307205D01*
X176372110Y-100444203D01*
X176459738Y-100561261D01*
X176576796Y-100648889D01*
X176713794Y-100699988D01*
X176713797Y-100699988D01*
X176713799Y-100699989D01*
X176774362Y-100706500D01*
X178571634Y-100706500D01*
X178571638Y-100706500D01*
X178632201Y-100699989D01*
X178632203Y-100699988D01*
X178632205Y-100699988D01*
X178714097Y-100669443D01*
X178769204Y-100648889D01*
X178886261Y-100561261D01*
X178973889Y-100444204D01*
X179019137Y-100322889D01*
X179055089Y-100271677D01*
X179111471Y-100244539D01*
X179173925Y-100248387D01*
X179226548Y-100282241D01*
X179263969Y-100322890D01*
X179289760Y-100350906D01*
X179467424Y-100489189D01*
X179665426Y-100596342D01*
X179878365Y-100669444D01*
X180100431Y-100706500D01*
X180325569Y-100706500D01*
X180547635Y-100669444D01*
X180760574Y-100596342D01*
X180958576Y-100489189D01*
X181136240Y-100350906D01*
X181288722Y-100185268D01*
X181379190Y-100046795D01*
X181423982Y-100005561D01*
X181483000Y-99990616D01*
X181542018Y-100005561D01*
X181586809Y-100046795D01*
X181677278Y-100185268D01*
X181829760Y-100350906D01*
X182007424Y-100489189D01*
X182205426Y-100596342D01*
X182418365Y-100669444D01*
X182640431Y-100706500D01*
X182865569Y-100706500D01*
X183087635Y-100669444D01*
X183300574Y-100596342D01*
X183498576Y-100489189D01*
X183676240Y-100350906D01*
X183828722Y-100185268D01*
X183919190Y-100046795D01*
X183963982Y-100005561D01*
X184023000Y-99990616D01*
X184082018Y-100005561D01*
X184126809Y-100046795D01*
X184217278Y-100185268D01*
X184369760Y-100350906D01*
X184547424Y-100489189D01*
X184745426Y-100596342D01*
X184958365Y-100669444D01*
X185180431Y-100706500D01*
X185405569Y-100706500D01*
X185627635Y-100669444D01*
X185840574Y-100596342D01*
X186038576Y-100489189D01*
X186216240Y-100350906D01*
X186368722Y-100185268D01*
X186459190Y-100046795D01*
X186503982Y-100005561D01*
X186563000Y-99990616D01*
X186622018Y-100005561D01*
X186666809Y-100046795D01*
X186757278Y-100185268D01*
X186909760Y-100350906D01*
X187087424Y-100489189D01*
X187285426Y-100596342D01*
X187498365Y-100669444D01*
X187720431Y-100706500D01*
X187945569Y-100706500D01*
X188167635Y-100669444D01*
X188380574Y-100596342D01*
X188578576Y-100489189D01*
X188756240Y-100350906D01*
X188908722Y-100185268D01*
X188999190Y-100046795D01*
X189043982Y-100005561D01*
X189103000Y-99990616D01*
X189162018Y-100005561D01*
X189206809Y-100046795D01*
X189297278Y-100185268D01*
X189449760Y-100350906D01*
X189627424Y-100489189D01*
X189825426Y-100596342D01*
X190038365Y-100669444D01*
X190260431Y-100706500D01*
X190485569Y-100706500D01*
X190707635Y-100669444D01*
X190920574Y-100596342D01*
X191118576Y-100489189D01*
X191296240Y-100350906D01*
X191448722Y-100185268D01*
X191571860Y-99996791D01*
X191662296Y-99790616D01*
X191717564Y-99572368D01*
X191736156Y-99348000D01*
X191717564Y-99123632D01*
X191662296Y-98905384D01*
X191571860Y-98699209D01*
X191448722Y-98510732D01*
X191296240Y-98345094D01*
X191118576Y-98206811D01*
X190920574Y-98099658D01*
X190920573Y-98099657D01*
X190920572Y-98099657D01*
X190707636Y-98026556D01*
X190485569Y-97989500D01*
X190260431Y-97989500D01*
X190038363Y-98026556D01*
X189825427Y-98099657D01*
X189627424Y-98206811D01*
X189449760Y-98345094D01*
X189297279Y-98510730D01*
X189206809Y-98649205D01*
X189162017Y-98690438D01*
X189103000Y-98705383D01*
X189043983Y-98690438D01*
X188999191Y-98649205D01*
X188908723Y-98510734D01*
X188908722Y-98510732D01*
X188756240Y-98345094D01*
X188578576Y-98206811D01*
X188380574Y-98099658D01*
X188380573Y-98099657D01*
X188380572Y-98099657D01*
X188167636Y-98026556D01*
X187945569Y-97989500D01*
X187720431Y-97989500D01*
X187498363Y-98026556D01*
X187285427Y-98099657D01*
X187087424Y-98206811D01*
X186909760Y-98345094D01*
X186757279Y-98510730D01*
X186666809Y-98649205D01*
X186622017Y-98690438D01*
X186563000Y-98705383D01*
X186503983Y-98690438D01*
X186459191Y-98649205D01*
X186368723Y-98510734D01*
X186368722Y-98510732D01*
X186216240Y-98345094D01*
X186038576Y-98206811D01*
X185840574Y-98099658D01*
X185840573Y-98099657D01*
X185840572Y-98099657D01*
X185627636Y-98026556D01*
X185405569Y-97989500D01*
X185180431Y-97989500D01*
X184958363Y-98026556D01*
X184745427Y-98099657D01*
X184547424Y-98206811D01*
X184369760Y-98345094D01*
X184217279Y-98510730D01*
X184126809Y-98649205D01*
X184082017Y-98690438D01*
X184023000Y-98705383D01*
X183963983Y-98690438D01*
X183919191Y-98649205D01*
X183828723Y-98510734D01*
X183828722Y-98510732D01*
X183676240Y-98345094D01*
X183498576Y-98206811D01*
X183300574Y-98099658D01*
X183300573Y-98099657D01*
X183300572Y-98099657D01*
X183087636Y-98026556D01*
X182865569Y-97989500D01*
X182640431Y-97989500D01*
X182418363Y-98026556D01*
X182205427Y-98099657D01*
X182007424Y-98206811D01*
X181829760Y-98345094D01*
X181677279Y-98510730D01*
X181586809Y-98649205D01*
X181542017Y-98690438D01*
X181483000Y-98705383D01*
X181423983Y-98690438D01*
X181379191Y-98649205D01*
X181288723Y-98510734D01*
X181288722Y-98510732D01*
X181136240Y-98345094D01*
X180958576Y-98206811D01*
X180760574Y-98099658D01*
X180760573Y-98099657D01*
X180760572Y-98099657D01*
X180547636Y-98026556D01*
X180325569Y-97989500D01*
X180100431Y-97989500D01*
X179878363Y-98026556D01*
X179665427Y-98099657D01*
X179467424Y-98206811D01*
X179289759Y-98345094D01*
X179226548Y-98413759D01*
X179173924Y-98447612D01*
X179111470Y-98451460D01*
X179055089Y-98424322D01*
X179019138Y-98373110D01*
X178994427Y-98306861D01*
X178973889Y-98251796D01*
X178915951Y-98174400D01*
X178886261Y-98134738D01*
X178769203Y-98047110D01*
X178632205Y-97996011D01*
X178601919Y-97992755D01*
X178571638Y-97989500D01*
X176774362Y-97989500D01*
X176747445Y-97992393D01*
X176713794Y-97996011D01*
X176576796Y-98047110D01*
X176459738Y-98134738D01*
X176372110Y-98251796D01*
X176321011Y-98388794D01*
X176317393Y-98422445D01*
X176314689Y-98447612D01*
X176314500Y-98449366D01*
X176314500Y-100246634D01*
X173612230Y-100246634D01*
X173668722Y-100185268D01*
X173791860Y-99996791D01*
X173882296Y-99790616D01*
X173937564Y-99572368D01*
X173956156Y-99348000D01*
X173937564Y-99123632D01*
X173882296Y-98905384D01*
X173791860Y-98699209D01*
X173668722Y-98510732D01*
X173516240Y-98345094D01*
X173338576Y-98206811D01*
X173140574Y-98099658D01*
X173140573Y-98099657D01*
X173140572Y-98099657D01*
X172927636Y-98026556D01*
X172705569Y-97989500D01*
X172480431Y-97989500D01*
X172258363Y-98026556D01*
X172045427Y-98099657D01*
X171847424Y-98206811D01*
X171669760Y-98345094D01*
X171517275Y-98510734D01*
X171423250Y-98654650D01*
X171379334Y-98695405D01*
X171321435Y-98710812D01*
X171263071Y-98697274D01*
X171217867Y-98657951D01*
X171091109Y-98476921D01*
X170924081Y-98309893D01*
X170730576Y-98174399D01*
X170516492Y-98074569D01*
X170303000Y-98017364D01*
X170303000Y-100678635D01*
X169803000Y-100678635D01*
X169803000Y-99598000D01*
X167763000Y-99598000D01*
X167263000Y-99598000D01*
X167263000Y-99098000D01*
X167763000Y-99098000D01*
X169803000Y-99098000D01*
X169803000Y-98017364D01*
X169802999Y-98017364D01*
X169589507Y-98074569D01*
X169375421Y-98174400D01*
X169181921Y-98309890D01*
X169014893Y-98476918D01*
X168884575Y-98663032D01*
X168840257Y-98701897D01*
X168783000Y-98715908D01*
X168725743Y-98701897D01*
X168681425Y-98663032D01*
X168551106Y-98476918D01*
X168384081Y-98309893D01*
X168190576Y-98174399D01*
X167976492Y-98074569D01*
X167763000Y-98017364D01*
X167763000Y-99098000D01*
X167263000Y-99098000D01*
X167263000Y-98017364D01*
X167262999Y-98017364D01*
X167049507Y-98074569D01*
X166835421Y-98174400D01*
X166641921Y-98309890D01*
X166474893Y-98476918D01*
X166348132Y-98657952D01*
X166302928Y-98697274D01*
X166244564Y-98710812D01*
X166186665Y-98695405D01*
X166142748Y-98654649D01*
X166048723Y-98510732D01*
X165959451Y-98413759D01*
X165896240Y-98345094D01*
X165718576Y-98206811D01*
X165520574Y-98099658D01*
X165520573Y-98099657D01*
X165520572Y-98099657D01*
X165307636Y-98026556D01*
X165085569Y-97989500D01*
X164860431Y-97989500D01*
X164638363Y-98026556D01*
X164425427Y-98099657D01*
X164227424Y-98206811D01*
X164049760Y-98345094D01*
X163897279Y-98510730D01*
X163806809Y-98649205D01*
X163762017Y-98690438D01*
X163703000Y-98705383D01*
X163643983Y-98690438D01*
X163599191Y-98649205D01*
X163508723Y-98510734D01*
X163508722Y-98510732D01*
X163356240Y-98345094D01*
X163178576Y-98206811D01*
X162980574Y-98099658D01*
X162980573Y-98099657D01*
X162980572Y-98099657D01*
X162767636Y-98026556D01*
X162545569Y-97989500D01*
X162320431Y-97989500D01*
X162098363Y-98026556D01*
X161885427Y-98099657D01*
X161687424Y-98206811D01*
X161509760Y-98345094D01*
X161357279Y-98510730D01*
X161266809Y-98649205D01*
X161222017Y-98690438D01*
X161163000Y-98705383D01*
X161103983Y-98690438D01*
X161059191Y-98649205D01*
X160968723Y-98510734D01*
X160968722Y-98510732D01*
X160816240Y-98345094D01*
X160638576Y-98206811D01*
X160440574Y-98099658D01*
X160440573Y-98099657D01*
X160440572Y-98099657D01*
X160227636Y-98026556D01*
X160005569Y-97989500D01*
X159780431Y-97989500D01*
X159558363Y-98026556D01*
X159345427Y-98099657D01*
X159147424Y-98206811D01*
X158969760Y-98345094D01*
X158817279Y-98510730D01*
X158726809Y-98649205D01*
X158682017Y-98690438D01*
X158623000Y-98705383D01*
X158563983Y-98690438D01*
X158519191Y-98649205D01*
X158428723Y-98510734D01*
X158428722Y-98510732D01*
X158276240Y-98345094D01*
X158098576Y-98206811D01*
X157900574Y-98099658D01*
X157900573Y-98099657D01*
X157900572Y-98099657D01*
X157687636Y-98026556D01*
X157465569Y-97989500D01*
X157240431Y-97989500D01*
X157018363Y-98026556D01*
X156805427Y-98099657D01*
X156607424Y-98206811D01*
X156429759Y-98345094D01*
X156366548Y-98413759D01*
X156313924Y-98447612D01*
X156251470Y-98451460D01*
X156195089Y-98424322D01*
X156159138Y-98373110D01*
X156134427Y-98306861D01*
X156113889Y-98251796D01*
X156055951Y-98174400D01*
X156026261Y-98134738D01*
X155909203Y-98047110D01*
X155772205Y-97996011D01*
X155741919Y-97992755D01*
X155711638Y-97989500D01*
X153914362Y-97989500D01*
X153887445Y-97992393D01*
X153853794Y-97996011D01*
X153716796Y-98047110D01*
X153599738Y-98134738D01*
X153512110Y-98251796D01*
X153461011Y-98388794D01*
X153457393Y-98422445D01*
X153454689Y-98447612D01*
X153454500Y-98449366D01*
X153454500Y-100246634D01*
X127119772Y-100246634D01*
X127111725Y-100228754D01*
X127106427Y-100214784D01*
X127022342Y-99944943D01*
X127018763Y-99930421D01*
X127002031Y-99839118D01*
X127000000Y-99816766D01*
X127000000Y-95295000D01*
X165101128Y-95295000D01*
X165153733Y-95491326D01*
X165249865Y-95697480D01*
X165380341Y-95883819D01*
X165541180Y-96044658D01*
X165727519Y-96175134D01*
X165933673Y-96271266D01*
X166129999Y-96323871D01*
X166130000Y-96323872D01*
X166130000Y-95295000D01*
X166630000Y-95295000D01*
X166630000Y-96323871D01*
X166826326Y-96271266D01*
X167032480Y-96175134D01*
X167218819Y-96044658D01*
X167379658Y-95883819D01*
X167510134Y-95697480D01*
X167606266Y-95491326D01*
X167658872Y-95295000D01*
X166630000Y-95295000D01*
X166130000Y-95295000D01*
X165101128Y-95295000D01*
X127000000Y-95295000D01*
X127000000Y-95044999D01*
X172686501Y-95044999D01*
X172706456Y-95273084D01*
X172736086Y-95383664D01*
X172764934Y-95491326D01*
X172765717Y-95494246D01*
X172862474Y-95701744D01*
X172862476Y-95701746D01*
X172862477Y-95701749D01*
X172993802Y-95889300D01*
X173155700Y-96051198D01*
X173343251Y-96182523D01*
X173550757Y-96279284D01*
X173771913Y-96338543D01*
X174000000Y-96358498D01*
X174228087Y-96338543D01*
X174449243Y-96279284D01*
X174656749Y-96182523D01*
X174844300Y-96051198D01*
X175006198Y-95889300D01*
X175137523Y-95701749D01*
X175234284Y-95494243D01*
X175293543Y-95273087D01*
X175313498Y-95045000D01*
X175293543Y-94816913D01*
X175234284Y-94595757D01*
X175137523Y-94388251D01*
X175006198Y-94200700D01*
X174844300Y-94038802D01*
X174656749Y-93907477D01*
X174623708Y-93892070D01*
X174613655Y-93887382D01*
X174561479Y-93841625D01*
X174542059Y-93775000D01*
X174561479Y-93708375D01*
X174613655Y-93662618D01*
X174616882Y-93661112D01*
X174656749Y-93642523D01*
X174844300Y-93511198D01*
X175006198Y-93349300D01*
X175137523Y-93161749D01*
X175234284Y-92954243D01*
X175293543Y-92733087D01*
X175313498Y-92505000D01*
X175293543Y-92276913D01*
X175234284Y-92055757D01*
X175137523Y-91848251D01*
X175006198Y-91660700D01*
X174844300Y-91498802D01*
X174656749Y-91367477D01*
X174613655Y-91347382D01*
X174561479Y-91301625D01*
X174542059Y-91235000D01*
X174561479Y-91168375D01*
X174613655Y-91122618D01*
X174616882Y-91121112D01*
X174656749Y-91102523D01*
X174844300Y-90971198D01*
X175006198Y-90809300D01*
X175137523Y-90621749D01*
X175234284Y-90414243D01*
X175293543Y-90193087D01*
X175313498Y-89965000D01*
X175293543Y-89736913D01*
X175234284Y-89515757D01*
X175137523Y-89308251D01*
X175006198Y-89120700D01*
X174844300Y-88958802D01*
X174656749Y-88827477D01*
X174613655Y-88807382D01*
X174561479Y-88761625D01*
X174542059Y-88695000D01*
X174561479Y-88628375D01*
X174613655Y-88582618D01*
X174616882Y-88581112D01*
X174656749Y-88562523D01*
X174844300Y-88431198D01*
X175006198Y-88269300D01*
X175137523Y-88081749D01*
X175234284Y-87874243D01*
X175293543Y-87653087D01*
X175313498Y-87425000D01*
X175293543Y-87196913D01*
X175234284Y-86975757D01*
X175150810Y-86796745D01*
X175137525Y-86768255D01*
X175137524Y-86768254D01*
X175137523Y-86768251D01*
X175006198Y-86580700D01*
X174844300Y-86418802D01*
X174656749Y-86287477D01*
X174656748Y-86287476D01*
X174656746Y-86287475D01*
X174620999Y-86270806D01*
X182119413Y-86270806D01*
X182158515Y-86505135D01*
X182219707Y-86683378D01*
X182235653Y-86729827D01*
X182345580Y-86932954D01*
X182348723Y-86938761D01*
X182494637Y-87126234D01*
X182533148Y-87161685D01*
X182669421Y-87287133D01*
X182868304Y-87417069D01*
X183085861Y-87512499D01*
X183316158Y-87570818D01*
X183387143Y-87576700D01*
X183493616Y-87585523D01*
X183493622Y-87585523D01*
X184810204Y-87585523D01*
X184810210Y-87585523D01*
X184907002Y-87577502D01*
X184987668Y-87570818D01*
X185217965Y-87512499D01*
X185435522Y-87417069D01*
X185634405Y-87287133D01*
X185809188Y-87126234D01*
X185955104Y-86938760D01*
X186068173Y-86729827D01*
X186145311Y-86505133D01*
X186184413Y-86270806D01*
X194619413Y-86270806D01*
X194658515Y-86505135D01*
X194719707Y-86683378D01*
X194735653Y-86729827D01*
X194845580Y-86932954D01*
X194848723Y-86938761D01*
X194994637Y-87126234D01*
X195033148Y-87161685D01*
X195169421Y-87287133D01*
X195368304Y-87417069D01*
X195585861Y-87512499D01*
X195816158Y-87570818D01*
X195887143Y-87576700D01*
X195993616Y-87585523D01*
X195993622Y-87585523D01*
X197310204Y-87585523D01*
X197310210Y-87585523D01*
X197407002Y-87577502D01*
X197487668Y-87570818D01*
X197717965Y-87512499D01*
X197935522Y-87417069D01*
X198134405Y-87287133D01*
X198309188Y-87126234D01*
X198455104Y-86938760D01*
X198568173Y-86729827D01*
X198645311Y-86505133D01*
X198684413Y-86270806D01*
X198684413Y-86033240D01*
X198681440Y-86015424D01*
X200601588Y-86015424D01*
X200640690Y-86249753D01*
X200708143Y-86446234D01*
X200717828Y-86474445D01*
X200830897Y-86683378D01*
X200830898Y-86683379D01*
X200976812Y-86870852D01*
X201044274Y-86932954D01*
X201151596Y-87031751D01*
X201350479Y-87161687D01*
X201568036Y-87257117D01*
X201798333Y-87315436D01*
X201869318Y-87321317D01*
X201975791Y-87330141D01*
X201975797Y-87330141D01*
X203292379Y-87330141D01*
X203292385Y-87330141D01*
X203389177Y-87322120D01*
X203469843Y-87315436D01*
X203700140Y-87257117D01*
X203917697Y-87161687D01*
X204116580Y-87031751D01*
X204291363Y-86870852D01*
X204437279Y-86683378D01*
X204550348Y-86474445D01*
X204627486Y-86249751D01*
X204666588Y-86015424D01*
X213101588Y-86015424D01*
X213140690Y-86249753D01*
X213208143Y-86446234D01*
X213217828Y-86474445D01*
X213330897Y-86683378D01*
X213330898Y-86683379D01*
X213476812Y-86870852D01*
X213544274Y-86932954D01*
X213651596Y-87031751D01*
X213850479Y-87161687D01*
X214068036Y-87257117D01*
X214298333Y-87315436D01*
X214369318Y-87321317D01*
X214475791Y-87330141D01*
X214475797Y-87330141D01*
X215792379Y-87330141D01*
X215792385Y-87330141D01*
X215889177Y-87322120D01*
X215969843Y-87315436D01*
X216200140Y-87257117D01*
X216417697Y-87161687D01*
X216616580Y-87031751D01*
X216791363Y-86870852D01*
X216937279Y-86683378D01*
X217050348Y-86474445D01*
X217127486Y-86249751D01*
X217166588Y-86015424D01*
X217166588Y-85777858D01*
X217127486Y-85543531D01*
X217050348Y-85318837D01*
X216937279Y-85109904D01*
X216853666Y-85002477D01*
X216791363Y-84922429D01*
X216631376Y-84775152D01*
X216616580Y-84761531D01*
X216517138Y-84696563D01*
X216417699Y-84631596D01*
X216417697Y-84631595D01*
X216200140Y-84536165D01*
X215969843Y-84477846D01*
X215969841Y-84477845D01*
X215969838Y-84477845D01*
X215792385Y-84463141D01*
X215792379Y-84463141D01*
X214475797Y-84463141D01*
X214475791Y-84463141D01*
X214298337Y-84477845D01*
X214068036Y-84536165D01*
X213850476Y-84631596D01*
X213651597Y-84761530D01*
X213476812Y-84922429D01*
X213330898Y-85109902D01*
X213330896Y-85109904D01*
X213330897Y-85109904D01*
X213230354Y-85295692D01*
X213217826Y-85318841D01*
X213140690Y-85543528D01*
X213101588Y-85777858D01*
X213101588Y-86015424D01*
X204666588Y-86015424D01*
X204666588Y-85777858D01*
X204627486Y-85543531D01*
X204550348Y-85318837D01*
X204437279Y-85109904D01*
X204353666Y-85002477D01*
X204291363Y-84922429D01*
X204131376Y-84775152D01*
X204116580Y-84761531D01*
X204017138Y-84696563D01*
X203917699Y-84631596D01*
X203917697Y-84631595D01*
X203700140Y-84536165D01*
X203469843Y-84477846D01*
X203469841Y-84477845D01*
X203469838Y-84477845D01*
X203292385Y-84463141D01*
X203292379Y-84463141D01*
X201975797Y-84463141D01*
X201975791Y-84463141D01*
X201798337Y-84477845D01*
X201568036Y-84536165D01*
X201350476Y-84631596D01*
X201151597Y-84761530D01*
X200976812Y-84922429D01*
X200830898Y-85109902D01*
X200830896Y-85109904D01*
X200830897Y-85109904D01*
X200730354Y-85295692D01*
X200717826Y-85318841D01*
X200640690Y-85543528D01*
X200601588Y-85777858D01*
X200601588Y-86015424D01*
X198681440Y-86015424D01*
X198645311Y-85798913D01*
X198568173Y-85574219D01*
X198455104Y-85365286D01*
X198335766Y-85211959D01*
X198309188Y-85177811D01*
X198203614Y-85080624D01*
X198134405Y-85016913D01*
X198033708Y-84951125D01*
X197935524Y-84886978D01*
X197931015Y-84885000D01*
X197717965Y-84791547D01*
X197487668Y-84733228D01*
X197487666Y-84733227D01*
X197487663Y-84733227D01*
X197310210Y-84718523D01*
X197310204Y-84718523D01*
X195993622Y-84718523D01*
X195993616Y-84718523D01*
X195816162Y-84733227D01*
X195585861Y-84791547D01*
X195368301Y-84886978D01*
X195169422Y-85016912D01*
X194994637Y-85177811D01*
X194848723Y-85365284D01*
X194844087Y-85373850D01*
X194742586Y-85561409D01*
X194735651Y-85574223D01*
X194658515Y-85798910D01*
X194619413Y-86033240D01*
X194619413Y-86270806D01*
X186184413Y-86270806D01*
X186184413Y-86033240D01*
X186145311Y-85798913D01*
X186068173Y-85574219D01*
X185955104Y-85365286D01*
X185835766Y-85211959D01*
X185809188Y-85177811D01*
X185703614Y-85080624D01*
X185634405Y-85016913D01*
X185533708Y-84951125D01*
X185435524Y-84886978D01*
X185431015Y-84885000D01*
X185217965Y-84791547D01*
X184987668Y-84733228D01*
X184987666Y-84733227D01*
X184987663Y-84733227D01*
X184810210Y-84718523D01*
X184810204Y-84718523D01*
X183493622Y-84718523D01*
X183493616Y-84718523D01*
X183316162Y-84733227D01*
X183085861Y-84791547D01*
X182868301Y-84886978D01*
X182669422Y-85016912D01*
X182494637Y-85177811D01*
X182348723Y-85365284D01*
X182344087Y-85373850D01*
X182242586Y-85561409D01*
X182235651Y-85574223D01*
X182158515Y-85798910D01*
X182119413Y-86033240D01*
X182119413Y-86270806D01*
X174620999Y-86270806D01*
X174603598Y-86262692D01*
X174551422Y-86216934D01*
X174532003Y-86150309D01*
X174551423Y-86083683D01*
X174603600Y-86037927D01*
X174652481Y-86015133D01*
X174838819Y-85884658D01*
X174999658Y-85723819D01*
X175130134Y-85537480D01*
X175226266Y-85331326D01*
X175278872Y-85135000D01*
X172721128Y-85135000D01*
X172773733Y-85331326D01*
X172869865Y-85537480D01*
X173000341Y-85723819D01*
X173161180Y-85884658D01*
X173347516Y-86015132D01*
X173396400Y-86037927D01*
X173448576Y-86083684D01*
X173467996Y-86150309D01*
X173448577Y-86216934D01*
X173396402Y-86262691D01*
X173343256Y-86287474D01*
X173343255Y-86287475D01*
X173343251Y-86287477D01*
X173155700Y-86418802D01*
X173155696Y-86418805D01*
X172993805Y-86580696D01*
X172862474Y-86768255D01*
X172765717Y-86975753D01*
X172706456Y-87196915D01*
X172686501Y-87425000D01*
X172706456Y-87653084D01*
X172765717Y-87874246D01*
X172862474Y-88081744D01*
X172862476Y-88081746D01*
X172862477Y-88081749D01*
X172993802Y-88269300D01*
X173155700Y-88431198D01*
X173343251Y-88562523D01*
X173383334Y-88581214D01*
X173386345Y-88582618D01*
X173438521Y-88628375D01*
X173457940Y-88695000D01*
X173438521Y-88761625D01*
X173386344Y-88807382D01*
X173343251Y-88827477D01*
X173155700Y-88958802D01*
X173155696Y-88958805D01*
X172993805Y-89120696D01*
X172862474Y-89308255D01*
X172765717Y-89515753D01*
X172706456Y-89736915D01*
X172686501Y-89965000D01*
X172706456Y-90193084D01*
X172765717Y-90414246D01*
X172862474Y-90621744D01*
X172862476Y-90621746D01*
X172862477Y-90621749D01*
X172993802Y-90809300D01*
X173155700Y-90971198D01*
X173343251Y-91102523D01*
X173383334Y-91121214D01*
X173386345Y-91122618D01*
X173438521Y-91168375D01*
X173457940Y-91235000D01*
X173438521Y-91301625D01*
X173386344Y-91347382D01*
X173343251Y-91367477D01*
X173155700Y-91498802D01*
X173155696Y-91498805D01*
X172993805Y-91660696D01*
X172862474Y-91848255D01*
X172765717Y-92055753D01*
X172706456Y-92276915D01*
X172686501Y-92504999D01*
X172706456Y-92733084D01*
X172765717Y-92954246D01*
X172862474Y-93161744D01*
X172862476Y-93161746D01*
X172862477Y-93161749D01*
X172993802Y-93349300D01*
X173155700Y-93511198D01*
X173343251Y-93642523D01*
X173383334Y-93661214D01*
X173386345Y-93662618D01*
X173438521Y-93708375D01*
X173457940Y-93775000D01*
X173438521Y-93841625D01*
X173386345Y-93887382D01*
X173343255Y-93907475D01*
X173343251Y-93907477D01*
X173155700Y-94038802D01*
X173155696Y-94038805D01*
X172993805Y-94200696D01*
X172862474Y-94388255D01*
X172765717Y-94595753D01*
X172706456Y-94816915D01*
X172686501Y-95044999D01*
X127000000Y-95044999D01*
X127000000Y-92504999D01*
X165066501Y-92504999D01*
X165086456Y-92733084D01*
X165145717Y-92954246D01*
X165242474Y-93161744D01*
X165242476Y-93161746D01*
X165242477Y-93161749D01*
X165373802Y-93349300D01*
X165535700Y-93511198D01*
X165723251Y-93642523D01*
X165776401Y-93667307D01*
X165828576Y-93713061D01*
X165847996Y-93779686D01*
X165828578Y-93846311D01*
X165776403Y-93892069D01*
X165727520Y-93914864D01*
X165541180Y-94045341D01*
X165380341Y-94206180D01*
X165249865Y-94392519D01*
X165153733Y-94598673D01*
X165101128Y-94794999D01*
X165101128Y-94795000D01*
X167658872Y-94795000D01*
X167658871Y-94794999D01*
X167606266Y-94598673D01*
X167510134Y-94392519D01*
X167379658Y-94206180D01*
X167218819Y-94045341D01*
X167032482Y-93914866D01*
X166983597Y-93892070D01*
X166931422Y-93846312D01*
X166912003Y-93779686D01*
X166931424Y-93713061D01*
X166983596Y-93667308D01*
X167036749Y-93642523D01*
X167224300Y-93511198D01*
X167386198Y-93349300D01*
X167517523Y-93161749D01*
X167614284Y-92954243D01*
X167673543Y-92733087D01*
X167693498Y-92505000D01*
X167673543Y-92276913D01*
X167614284Y-92055757D01*
X167517523Y-91848251D01*
X167386198Y-91660700D01*
X167224300Y-91498802D01*
X167036749Y-91367477D01*
X166993655Y-91347382D01*
X166941479Y-91301625D01*
X166922059Y-91235000D01*
X166941479Y-91168375D01*
X166993655Y-91122618D01*
X166996882Y-91121112D01*
X167036749Y-91102523D01*
X167224300Y-90971198D01*
X167386198Y-90809300D01*
X167517523Y-90621749D01*
X167614284Y-90414243D01*
X167673543Y-90193087D01*
X167693498Y-89965000D01*
X167673543Y-89736913D01*
X167614284Y-89515757D01*
X167517523Y-89308251D01*
X167386198Y-89120700D01*
X167224300Y-88958802D01*
X167036749Y-88827477D01*
X166993655Y-88807382D01*
X166941479Y-88761625D01*
X166922059Y-88695000D01*
X166941479Y-88628375D01*
X166993655Y-88582618D01*
X166996882Y-88581112D01*
X167036749Y-88562523D01*
X167224300Y-88431198D01*
X167386198Y-88269300D01*
X167517523Y-88081749D01*
X167614284Y-87874243D01*
X167673543Y-87653087D01*
X167693498Y-87425000D01*
X167673543Y-87196913D01*
X167614284Y-86975757D01*
X167530810Y-86796745D01*
X167517525Y-86768255D01*
X167517524Y-86768254D01*
X167517523Y-86768251D01*
X167386198Y-86580700D01*
X167224300Y-86418802D01*
X167036749Y-86287477D01*
X166993653Y-86267381D01*
X166941478Y-86221623D01*
X166922059Y-86154997D01*
X166941480Y-86088372D01*
X166993654Y-86042618D01*
X167036749Y-86022523D01*
X167224300Y-85891198D01*
X167386198Y-85729300D01*
X167517523Y-85541749D01*
X167614284Y-85334243D01*
X167673543Y-85113087D01*
X167693498Y-84885000D01*
X167690125Y-84846452D01*
X167673543Y-84656915D01*
X167673543Y-84656913D01*
X167614284Y-84435757D01*
X167517523Y-84228251D01*
X167386198Y-84040700D01*
X167224300Y-83878802D01*
X167036749Y-83747477D01*
X167003708Y-83732070D01*
X166993655Y-83727382D01*
X166941479Y-83681625D01*
X166922059Y-83615000D01*
X166941479Y-83548375D01*
X166993655Y-83502618D01*
X166996882Y-83501112D01*
X167036749Y-83482523D01*
X167224300Y-83351198D01*
X167386198Y-83189300D01*
X167517523Y-83001749D01*
X167614284Y-82794243D01*
X167673543Y-82573087D01*
X167693498Y-82345000D01*
X167693498Y-82344999D01*
X172686501Y-82344999D01*
X172706456Y-82573084D01*
X172765717Y-82794246D01*
X172862474Y-83001744D01*
X172862476Y-83001746D01*
X172862477Y-83001749D01*
X172993802Y-83189300D01*
X173155700Y-83351198D01*
X173343251Y-83482523D01*
X173396401Y-83507307D01*
X173448576Y-83553061D01*
X173467996Y-83619686D01*
X173448578Y-83686311D01*
X173396403Y-83732069D01*
X173347520Y-83754864D01*
X173161180Y-83885341D01*
X173000341Y-84046180D01*
X172869865Y-84232519D01*
X172773733Y-84438673D01*
X172721128Y-84634999D01*
X172721128Y-84635000D01*
X175278872Y-84635000D01*
X175278871Y-84634999D01*
X175226266Y-84438673D01*
X175130134Y-84232519D01*
X174999658Y-84046180D01*
X174838819Y-83885341D01*
X174652482Y-83754866D01*
X174603597Y-83732070D01*
X174551422Y-83686312D01*
X174532003Y-83619686D01*
X174551424Y-83553061D01*
X174603596Y-83507308D01*
X174656749Y-83482523D01*
X174844300Y-83351198D01*
X175006198Y-83189300D01*
X175137523Y-83001749D01*
X175234284Y-82794243D01*
X175293543Y-82573087D01*
X175313498Y-82345000D01*
X175310911Y-82315436D01*
X175293543Y-82116915D01*
X175293543Y-82116913D01*
X175234284Y-81895757D01*
X175137523Y-81688251D01*
X175006198Y-81500700D01*
X174844300Y-81338802D01*
X174747192Y-81270806D01*
X182119413Y-81270806D01*
X182158515Y-81505135D01*
X182221381Y-81688255D01*
X182235653Y-81729827D01*
X182325448Y-81895753D01*
X182348723Y-81938761D01*
X182494637Y-82126234D01*
X182533148Y-82161685D01*
X182669421Y-82287133D01*
X182868304Y-82417069D01*
X183085861Y-82512499D01*
X183316158Y-82570818D01*
X183387143Y-82576700D01*
X183493616Y-82585523D01*
X183493622Y-82585523D01*
X184810204Y-82585523D01*
X184810210Y-82585523D01*
X184907002Y-82577502D01*
X184987668Y-82570818D01*
X185217965Y-82512499D01*
X185435522Y-82417069D01*
X185634405Y-82287133D01*
X185809188Y-82126234D01*
X185955104Y-81938760D01*
X186068173Y-81729827D01*
X186145311Y-81505133D01*
X186184413Y-81270806D01*
X194619413Y-81270806D01*
X194658515Y-81505135D01*
X194721381Y-81688255D01*
X194735653Y-81729827D01*
X194825448Y-81895753D01*
X194848723Y-81938761D01*
X194994637Y-82126234D01*
X195033148Y-82161685D01*
X195169421Y-82287133D01*
X195368304Y-82417069D01*
X195585861Y-82512499D01*
X195816158Y-82570818D01*
X195887143Y-82576700D01*
X195993616Y-82585523D01*
X195993622Y-82585523D01*
X197310204Y-82585523D01*
X197310210Y-82585523D01*
X197407002Y-82577502D01*
X197487668Y-82570818D01*
X197717965Y-82512499D01*
X197935522Y-82417069D01*
X198134405Y-82287133D01*
X198309188Y-82126234D01*
X198455104Y-81938760D01*
X198568173Y-81729827D01*
X198645311Y-81505133D01*
X198684413Y-81270806D01*
X198684413Y-81033240D01*
X198681440Y-81015424D01*
X200601588Y-81015424D01*
X200640690Y-81249753D01*
X200647918Y-81270806D01*
X200717828Y-81474445D01*
X200732037Y-81500700D01*
X200830898Y-81683379D01*
X200976812Y-81870852D01*
X201050581Y-81938760D01*
X201151596Y-82031751D01*
X201350479Y-82161687D01*
X201568036Y-82257117D01*
X201798333Y-82315436D01*
X201869318Y-82321318D01*
X201975791Y-82330141D01*
X201975797Y-82330141D01*
X203292379Y-82330141D01*
X203292385Y-82330141D01*
X203389177Y-82322120D01*
X203469843Y-82315436D01*
X203700140Y-82257117D01*
X203917697Y-82161687D01*
X204116580Y-82031751D01*
X204291363Y-81870852D01*
X204437279Y-81683378D01*
X204550348Y-81474445D01*
X204627486Y-81249751D01*
X204666588Y-81015424D01*
X213101588Y-81015424D01*
X213140690Y-81249753D01*
X213147918Y-81270806D01*
X213217828Y-81474445D01*
X213232037Y-81500700D01*
X213330898Y-81683379D01*
X213476812Y-81870852D01*
X213550581Y-81938760D01*
X213651596Y-82031751D01*
X213850479Y-82161687D01*
X214068036Y-82257117D01*
X214298333Y-82315436D01*
X214369318Y-82321318D01*
X214475791Y-82330141D01*
X214475797Y-82330141D01*
X215792379Y-82330141D01*
X215792385Y-82330141D01*
X215889177Y-82322120D01*
X215969843Y-82315436D01*
X216200140Y-82257117D01*
X216417697Y-82161687D01*
X216616580Y-82031751D01*
X216791363Y-81870852D01*
X216937279Y-81683378D01*
X217050348Y-81474445D01*
X217127486Y-81249751D01*
X217166588Y-81015424D01*
X217166588Y-80777858D01*
X217127486Y-80543531D01*
X217050348Y-80318837D01*
X216937279Y-80109904D01*
X216864901Y-80016912D01*
X216791363Y-79922429D01*
X216649186Y-79791547D01*
X216616580Y-79761531D01*
X216417697Y-79631595D01*
X216200140Y-79536165D01*
X215969843Y-79477846D01*
X215969841Y-79477845D01*
X215969838Y-79477845D01*
X215792385Y-79463141D01*
X215792379Y-79463141D01*
X214475797Y-79463141D01*
X214475791Y-79463141D01*
X214298337Y-79477845D01*
X214068036Y-79536165D01*
X213850476Y-79631596D01*
X213651597Y-79761530D01*
X213476812Y-79922429D01*
X213330898Y-80109902D01*
X213217826Y-80318841D01*
X213140690Y-80543528D01*
X213101588Y-80777858D01*
X213101588Y-81015424D01*
X204666588Y-81015424D01*
X204666588Y-80777858D01*
X204627486Y-80543531D01*
X204550348Y-80318837D01*
X204437279Y-80109904D01*
X204364901Y-80016912D01*
X204291363Y-79922429D01*
X204149186Y-79791547D01*
X204116580Y-79761531D01*
X203917697Y-79631595D01*
X203700140Y-79536165D01*
X203469843Y-79477846D01*
X203469841Y-79477845D01*
X203469838Y-79477845D01*
X203292385Y-79463141D01*
X203292379Y-79463141D01*
X201975797Y-79463141D01*
X201975791Y-79463141D01*
X201798337Y-79477845D01*
X201568036Y-79536165D01*
X201350476Y-79631596D01*
X201151597Y-79761530D01*
X200976812Y-79922429D01*
X200830898Y-80109902D01*
X200717826Y-80318841D01*
X200640690Y-80543528D01*
X200601588Y-80777858D01*
X200601588Y-81015424D01*
X198681440Y-81015424D01*
X198645311Y-80798913D01*
X198568173Y-80574219D01*
X198455104Y-80365286D01*
X198368679Y-80254246D01*
X198309188Y-80177811D01*
X198214254Y-80090419D01*
X198134405Y-80016913D01*
X197935522Y-79886977D01*
X197717965Y-79791547D01*
X197487668Y-79733228D01*
X197487666Y-79733227D01*
X197487663Y-79733227D01*
X197310210Y-79718523D01*
X197310204Y-79718523D01*
X195993622Y-79718523D01*
X195993616Y-79718523D01*
X195816162Y-79733227D01*
X195585861Y-79791547D01*
X195368301Y-79886978D01*
X195169422Y-80016912D01*
X194994637Y-80177811D01*
X194848723Y-80365284D01*
X194848721Y-80365286D01*
X194848722Y-80365286D01*
X194796522Y-80461744D01*
X194735651Y-80574223D01*
X194658515Y-80798910D01*
X194619413Y-81033240D01*
X194619413Y-81270806D01*
X186184413Y-81270806D01*
X186184413Y-81033240D01*
X186145311Y-80798913D01*
X186068173Y-80574219D01*
X185955104Y-80365286D01*
X185868679Y-80254246D01*
X185809188Y-80177811D01*
X185714254Y-80090419D01*
X185634405Y-80016913D01*
X185435522Y-79886977D01*
X185217965Y-79791547D01*
X184987668Y-79733228D01*
X184987666Y-79733227D01*
X184987663Y-79733227D01*
X184810210Y-79718523D01*
X184810204Y-79718523D01*
X183493622Y-79718523D01*
X183493616Y-79718523D01*
X183316162Y-79733227D01*
X183085861Y-79791547D01*
X182868301Y-79886978D01*
X182669422Y-80016912D01*
X182494637Y-80177811D01*
X182348723Y-80365284D01*
X182348721Y-80365286D01*
X182348722Y-80365286D01*
X182296522Y-80461744D01*
X182235651Y-80574223D01*
X182158515Y-80798910D01*
X182119413Y-81033240D01*
X182119413Y-81270806D01*
X174747192Y-81270806D01*
X174656749Y-81207477D01*
X174613655Y-81187382D01*
X174561479Y-81141625D01*
X174542059Y-81075000D01*
X174561479Y-81008375D01*
X174613655Y-80962618D01*
X174616882Y-80961112D01*
X174656749Y-80942523D01*
X174844300Y-80811198D01*
X175006198Y-80649300D01*
X175137523Y-80461749D01*
X175234284Y-80254243D01*
X175293543Y-80033087D01*
X175313498Y-79805000D01*
X175293543Y-79576913D01*
X175234284Y-79355757D01*
X175137523Y-79148251D01*
X175006198Y-78960700D01*
X174844300Y-78798802D01*
X174656749Y-78667477D01*
X174613655Y-78647382D01*
X174561479Y-78601625D01*
X174542059Y-78535000D01*
X174561479Y-78468375D01*
X174613655Y-78422618D01*
X174616882Y-78421112D01*
X174656749Y-78402523D01*
X174844300Y-78271198D01*
X175006198Y-78109300D01*
X175137523Y-77921749D01*
X175234284Y-77714243D01*
X175293543Y-77493087D01*
X175313498Y-77265000D01*
X175293543Y-77036913D01*
X175234284Y-76815757D01*
X175150810Y-76636745D01*
X175137525Y-76608255D01*
X175137524Y-76608254D01*
X175137523Y-76608251D01*
X175006198Y-76420700D01*
X174844300Y-76258802D01*
X174656749Y-76127477D01*
X174656746Y-76127476D01*
X174656744Y-76127474D01*
X174449246Y-76030717D01*
X174449243Y-76030716D01*
X174259955Y-75979996D01*
X174228084Y-75971456D01*
X174000000Y-75951501D01*
X173771915Y-75971456D01*
X173550753Y-76030717D01*
X173343255Y-76127474D01*
X173155696Y-76258805D01*
X172993805Y-76420696D01*
X172862474Y-76608255D01*
X172765717Y-76815753D01*
X172706456Y-77036915D01*
X172686501Y-77265000D01*
X172706456Y-77493084D01*
X172765717Y-77714246D01*
X172862474Y-77921744D01*
X172862476Y-77921746D01*
X172862477Y-77921749D01*
X172993802Y-78109300D01*
X173155700Y-78271198D01*
X173343251Y-78402523D01*
X173386345Y-78422618D01*
X173438520Y-78468372D01*
X173457940Y-78534997D01*
X173438522Y-78601622D01*
X173386347Y-78647380D01*
X173343254Y-78667475D01*
X173155696Y-78798805D01*
X172993805Y-78960696D01*
X172862474Y-79148255D01*
X172765717Y-79355753D01*
X172706456Y-79576915D01*
X172686501Y-79805000D01*
X172706456Y-80033084D01*
X172765717Y-80254246D01*
X172862474Y-80461744D01*
X172862476Y-80461746D01*
X172862477Y-80461749D01*
X172993802Y-80649300D01*
X173155700Y-80811198D01*
X173343251Y-80942523D01*
X173383334Y-80961214D01*
X173386345Y-80962618D01*
X173438521Y-81008375D01*
X173457940Y-81075000D01*
X173438521Y-81141625D01*
X173386344Y-81187382D01*
X173343251Y-81207477D01*
X173155700Y-81338802D01*
X173155696Y-81338805D01*
X172993805Y-81500696D01*
X172862474Y-81688255D01*
X172765717Y-81895753D01*
X172706456Y-82116915D01*
X172686501Y-82344999D01*
X167693498Y-82344999D01*
X167690911Y-82315436D01*
X167673543Y-82116915D01*
X167673543Y-82116913D01*
X167614284Y-81895757D01*
X167517523Y-81688251D01*
X167386198Y-81500700D01*
X167224300Y-81338802D01*
X167036749Y-81207477D01*
X166993655Y-81187382D01*
X166941479Y-81141625D01*
X166922059Y-81075000D01*
X166941479Y-81008375D01*
X166993655Y-80962618D01*
X166996882Y-80961112D01*
X167036749Y-80942523D01*
X167224300Y-80811198D01*
X167386198Y-80649300D01*
X167517523Y-80461749D01*
X167614284Y-80254243D01*
X167673543Y-80033087D01*
X167693498Y-79805000D01*
X167673543Y-79576913D01*
X167614284Y-79355757D01*
X167517523Y-79148251D01*
X167386198Y-78960700D01*
X167224300Y-78798802D01*
X167216629Y-78793431D01*
X167177496Y-78748592D01*
X167163762Y-78690679D01*
X167178596Y-78633037D01*
X167218580Y-78588948D01*
X167274500Y-78568569D01*
X167289201Y-78566989D01*
X167289203Y-78566988D01*
X167289205Y-78566988D01*
X167374974Y-78534997D01*
X167426204Y-78515889D01*
X167543261Y-78428261D01*
X167630889Y-78311204D01*
X167681989Y-78174201D01*
X167688500Y-78113638D01*
X167688500Y-76416362D01*
X167681989Y-76355799D01*
X167681988Y-76355797D01*
X167681988Y-76355794D01*
X167630889Y-76218796D01*
X167543261Y-76101738D01*
X167426203Y-76014110D01*
X167289205Y-75963011D01*
X167258919Y-75959755D01*
X167228638Y-75956500D01*
X165531362Y-75956500D01*
X165504445Y-75959393D01*
X165470794Y-75963011D01*
X165333796Y-76014110D01*
X165216738Y-76101738D01*
X165129110Y-76218796D01*
X165078011Y-76355794D01*
X165071500Y-76416366D01*
X165071500Y-78113634D01*
X165078011Y-78174205D01*
X165129110Y-78311203D01*
X165216738Y-78428261D01*
X165333796Y-78515889D01*
X165470794Y-78566988D01*
X165470797Y-78566988D01*
X165470799Y-78566989D01*
X165485497Y-78568569D01*
X165541419Y-78588948D01*
X165581403Y-78633036D01*
X165596237Y-78690677D01*
X165582505Y-78748590D01*
X165543368Y-78793433D01*
X165535698Y-78798803D01*
X165373805Y-78960696D01*
X165242474Y-79148255D01*
X165145717Y-79355753D01*
X165086456Y-79576915D01*
X165066501Y-79805000D01*
X165086456Y-80033084D01*
X165145717Y-80254246D01*
X165242474Y-80461744D01*
X165242476Y-80461746D01*
X165242477Y-80461749D01*
X165373802Y-80649300D01*
X165535700Y-80811198D01*
X165723251Y-80942523D01*
X165763334Y-80961214D01*
X165766345Y-80962618D01*
X165818521Y-81008375D01*
X165837940Y-81075000D01*
X165818521Y-81141625D01*
X165766344Y-81187382D01*
X165723251Y-81207477D01*
X165535700Y-81338802D01*
X165535696Y-81338805D01*
X165373805Y-81500696D01*
X165242474Y-81688255D01*
X165145717Y-81895753D01*
X165086456Y-82116915D01*
X165066501Y-82344999D01*
X165086456Y-82573084D01*
X165145717Y-82794246D01*
X165242474Y-83001744D01*
X165242476Y-83001746D01*
X165242477Y-83001749D01*
X165373802Y-83189300D01*
X165535700Y-83351198D01*
X165723251Y-83482523D01*
X165766345Y-83502618D01*
X165818520Y-83548372D01*
X165837940Y-83614997D01*
X165818522Y-83681622D01*
X165766347Y-83727380D01*
X165723254Y-83747475D01*
X165723251Y-83747476D01*
X165723251Y-83747477D01*
X165712699Y-83754866D01*
X165535696Y-83878805D01*
X165373805Y-84040696D01*
X165242474Y-84228255D01*
X165145717Y-84435753D01*
X165086456Y-84656915D01*
X165066501Y-84884999D01*
X165086456Y-85113084D01*
X165103800Y-85177811D01*
X165144934Y-85331326D01*
X165145717Y-85334246D01*
X165242474Y-85541744D01*
X165242476Y-85541746D01*
X165242477Y-85541749D01*
X165373802Y-85729300D01*
X165535700Y-85891198D01*
X165723251Y-86022523D01*
X165766345Y-86042618D01*
X165818520Y-86088372D01*
X165837940Y-86154997D01*
X165818522Y-86221622D01*
X165766347Y-86267380D01*
X165723254Y-86287475D01*
X165723251Y-86287476D01*
X165723251Y-86287477D01*
X165608129Y-86368087D01*
X165535696Y-86418805D01*
X165373805Y-86580696D01*
X165242474Y-86768255D01*
X165145717Y-86975753D01*
X165086456Y-87196915D01*
X165066501Y-87425000D01*
X165086456Y-87653084D01*
X165145717Y-87874246D01*
X165242474Y-88081744D01*
X165242476Y-88081746D01*
X165242477Y-88081749D01*
X165373802Y-88269300D01*
X165535700Y-88431198D01*
X165723251Y-88562523D01*
X165763334Y-88581214D01*
X165766345Y-88582618D01*
X165818521Y-88628375D01*
X165837940Y-88695000D01*
X165818521Y-88761625D01*
X165766344Y-88807382D01*
X165723251Y-88827477D01*
X165535700Y-88958802D01*
X165535696Y-88958805D01*
X165373805Y-89120696D01*
X165242474Y-89308255D01*
X165145717Y-89515753D01*
X165086456Y-89736915D01*
X165066501Y-89965000D01*
X165086456Y-90193084D01*
X165145717Y-90414246D01*
X165242474Y-90621744D01*
X165242476Y-90621746D01*
X165242477Y-90621749D01*
X165373802Y-90809300D01*
X165535700Y-90971198D01*
X165723251Y-91102523D01*
X165763334Y-91121214D01*
X165766345Y-91122618D01*
X165818521Y-91168375D01*
X165837940Y-91235000D01*
X165818521Y-91301625D01*
X165766344Y-91347382D01*
X165723251Y-91367477D01*
X165535700Y-91498802D01*
X165535696Y-91498805D01*
X165373805Y-91660696D01*
X165242474Y-91848255D01*
X165145717Y-92055753D01*
X165086456Y-92276915D01*
X165066501Y-92504999D01*
X127000000Y-92504999D01*
X127000000Y-86218154D01*
X131626180Y-86218154D01*
X131646135Y-86446238D01*
X131670695Y-86537897D01*
X131684452Y-86589239D01*
X131705396Y-86667400D01*
X131802153Y-86874898D01*
X131802154Y-86874899D01*
X131802156Y-86874903D01*
X131933481Y-87062454D01*
X132095379Y-87224352D01*
X132282930Y-87355677D01*
X132282933Y-87355678D01*
X132282934Y-87355679D01*
X132322829Y-87374282D01*
X132490436Y-87452438D01*
X132711592Y-87511697D01*
X132939679Y-87531652D01*
X133167766Y-87511697D01*
X133388922Y-87452438D01*
X133596428Y-87355677D01*
X133783979Y-87224352D01*
X133945877Y-87062454D01*
X134077202Y-86874903D01*
X134173963Y-86667397D01*
X134233222Y-86446241D01*
X134253177Y-86218154D01*
X134253177Y-86218150D01*
X135299414Y-86218150D01*
X135319369Y-86446234D01*
X135378630Y-86667396D01*
X135475387Y-86874894D01*
X135475389Y-86874896D01*
X135475390Y-86874899D01*
X135606715Y-87062450D01*
X135768613Y-87224348D01*
X135956164Y-87355673D01*
X135956167Y-87355674D01*
X135956168Y-87355675D01*
X135956177Y-87355679D01*
X136163670Y-87452434D01*
X136384826Y-87511693D01*
X136612913Y-87531648D01*
X136841000Y-87511693D01*
X137062156Y-87452434D01*
X137269662Y-87355673D01*
X137457213Y-87224348D01*
X137619111Y-87062450D01*
X137750436Y-86874899D01*
X137847197Y-86667393D01*
X137906456Y-86446237D01*
X137926411Y-86218150D01*
X137919573Y-86139995D01*
X138894495Y-86139995D01*
X138914450Y-86368080D01*
X138973711Y-86589242D01*
X139070468Y-86796740D01*
X139070470Y-86796742D01*
X139070471Y-86796745D01*
X139201796Y-86984296D01*
X139363694Y-87146194D01*
X139551245Y-87277519D01*
X139551248Y-87277520D01*
X139551249Y-87277521D01*
X139551258Y-87277525D01*
X139758751Y-87374280D01*
X139979907Y-87433539D01*
X140207994Y-87453494D01*
X140436081Y-87433539D01*
X140657237Y-87374280D01*
X140864743Y-87277519D01*
X141052294Y-87146194D01*
X141214192Y-86984296D01*
X141345517Y-86796745D01*
X141442278Y-86589239D01*
X141501537Y-86368083D01*
X141521492Y-86139999D01*
X142411421Y-86139999D01*
X142431376Y-86368084D01*
X142490637Y-86589246D01*
X142587394Y-86796744D01*
X142587395Y-86796745D01*
X142587397Y-86796749D01*
X142718722Y-86984300D01*
X142880620Y-87146198D01*
X143068171Y-87277523D01*
X143275677Y-87374284D01*
X143496833Y-87433543D01*
X143724920Y-87453498D01*
X143953007Y-87433543D01*
X144174163Y-87374284D01*
X144381669Y-87277523D01*
X144569220Y-87146198D01*
X144731118Y-86984300D01*
X144862443Y-86796749D01*
X144959204Y-86589243D01*
X145018463Y-86368087D01*
X145038418Y-86140000D01*
X145038418Y-86139999D01*
X146006501Y-86139999D01*
X146026456Y-86368084D01*
X146085717Y-86589246D01*
X146182474Y-86796744D01*
X146182475Y-86796745D01*
X146182477Y-86796749D01*
X146313802Y-86984300D01*
X146475700Y-87146198D01*
X146663251Y-87277523D01*
X146870757Y-87374284D01*
X147091913Y-87433543D01*
X147320000Y-87453498D01*
X147548087Y-87433543D01*
X147769243Y-87374284D01*
X147976749Y-87277523D01*
X148164300Y-87146198D01*
X148326198Y-86984300D01*
X148457523Y-86796749D01*
X148554284Y-86589243D01*
X148613543Y-86368087D01*
X148633498Y-86140000D01*
X148633498Y-86139995D01*
X149601581Y-86139995D01*
X149621536Y-86368080D01*
X149680797Y-86589242D01*
X149777554Y-86796740D01*
X149777556Y-86796742D01*
X149777557Y-86796745D01*
X149908882Y-86984296D01*
X150070780Y-87146194D01*
X150258331Y-87277519D01*
X150258334Y-87277520D01*
X150258335Y-87277521D01*
X150258344Y-87277525D01*
X150465837Y-87374280D01*
X150686993Y-87433539D01*
X150915080Y-87453494D01*
X151143167Y-87433539D01*
X151364323Y-87374280D01*
X151571829Y-87277519D01*
X151759380Y-87146194D01*
X151921278Y-86984296D01*
X152052603Y-86796745D01*
X152149364Y-86589239D01*
X152208623Y-86368083D01*
X152228578Y-86139999D01*
X153196661Y-86139999D01*
X153216616Y-86368084D01*
X153275877Y-86589246D01*
X153372634Y-86796744D01*
X153372635Y-86796745D01*
X153372637Y-86796749D01*
X153503962Y-86984300D01*
X153665860Y-87146198D01*
X153853411Y-87277523D01*
X154060917Y-87374284D01*
X154282073Y-87433543D01*
X154510160Y-87453498D01*
X154738247Y-87433543D01*
X154959403Y-87374284D01*
X155166909Y-87277523D01*
X155354460Y-87146198D01*
X155516358Y-86984300D01*
X155647683Y-86796749D01*
X155744444Y-86589243D01*
X155803703Y-86368087D01*
X155823658Y-86140000D01*
X155819166Y-86088651D01*
X156794018Y-86088651D01*
X156813973Y-86316735D01*
X156813974Y-86316738D01*
X156856230Y-86474440D01*
X156873234Y-86537897D01*
X156969991Y-86745395D01*
X156969993Y-86745397D01*
X156969994Y-86745400D01*
X157101319Y-86932951D01*
X157263217Y-87094849D01*
X157450768Y-87226174D01*
X157658274Y-87322935D01*
X157879430Y-87382194D01*
X158031488Y-87395497D01*
X158107516Y-87402149D01*
X158107516Y-87402148D01*
X158107517Y-87402149D01*
X158335604Y-87382194D01*
X158556760Y-87322935D01*
X158764266Y-87226174D01*
X158951817Y-87094849D01*
X159113715Y-86932951D01*
X159245040Y-86745400D01*
X159341801Y-86537894D01*
X159401060Y-86316738D01*
X159421015Y-86088651D01*
X159401060Y-85860564D01*
X159341801Y-85639408D01*
X159245040Y-85431902D01*
X159113715Y-85244351D01*
X158951817Y-85082453D01*
X158764266Y-84951128D01*
X158764263Y-84951127D01*
X158764261Y-84951125D01*
X158556763Y-84854368D01*
X158556760Y-84854367D01*
X158446182Y-84824737D01*
X158335601Y-84795107D01*
X158107517Y-84775152D01*
X157879432Y-84795107D01*
X157658270Y-84854368D01*
X157450772Y-84951125D01*
X157377434Y-85002477D01*
X157265824Y-85080628D01*
X157263213Y-85082456D01*
X157101322Y-85244347D01*
X156969991Y-85431906D01*
X156873234Y-85639404D01*
X156813973Y-85860566D01*
X156794018Y-86088651D01*
X155819166Y-86088651D01*
X155803703Y-85911913D01*
X155744444Y-85690757D01*
X155647683Y-85483251D01*
X155516358Y-85295700D01*
X155354460Y-85133802D01*
X155166909Y-85002477D01*
X155166906Y-85002476D01*
X155166904Y-85002474D01*
X154959406Y-84905717D01*
X154959403Y-84905716D01*
X154848825Y-84876086D01*
X154738244Y-84846456D01*
X154510159Y-84826501D01*
X154282075Y-84846456D01*
X154060913Y-84905717D01*
X153853415Y-85002474D01*
X153853410Y-85002477D01*
X153853411Y-85002477D01*
X153665862Y-85133801D01*
X153665856Y-85133805D01*
X153503965Y-85295696D01*
X153503962Y-85295699D01*
X153503962Y-85295700D01*
X153479016Y-85331326D01*
X153372634Y-85483255D01*
X153275877Y-85690753D01*
X153216616Y-85911915D01*
X153196661Y-86139999D01*
X152228578Y-86139999D01*
X152228578Y-86139996D01*
X152224061Y-86088372D01*
X152219238Y-86033240D01*
X152208623Y-85911909D01*
X152149364Y-85690753D01*
X152052603Y-85483247D01*
X151921278Y-85295696D01*
X151759380Y-85133798D01*
X151571829Y-85002473D01*
X151571826Y-85002472D01*
X151571824Y-85002470D01*
X151364326Y-84905713D01*
X151364323Y-84905712D01*
X151253744Y-84876082D01*
X151143164Y-84846452D01*
X150915079Y-84826497D01*
X150686995Y-84846452D01*
X150465833Y-84905713D01*
X150258335Y-85002470D01*
X150070776Y-85133801D01*
X149908885Y-85295692D01*
X149908882Y-85295695D01*
X149908882Y-85295696D01*
X149892676Y-85318841D01*
X149777554Y-85483251D01*
X149680797Y-85690749D01*
X149621536Y-85911911D01*
X149601581Y-86139995D01*
X148633498Y-86139995D01*
X148613543Y-85911913D01*
X148554284Y-85690757D01*
X148457523Y-85483251D01*
X148326198Y-85295700D01*
X148164300Y-85133802D01*
X147976749Y-85002477D01*
X147976746Y-85002476D01*
X147976744Y-85002474D01*
X147769246Y-84905717D01*
X147769243Y-84905716D01*
X147658665Y-84876086D01*
X147548084Y-84846456D01*
X147319999Y-84826501D01*
X147091915Y-84846456D01*
X146870753Y-84905717D01*
X146663255Y-85002474D01*
X146663250Y-85002477D01*
X146663251Y-85002477D01*
X146475702Y-85133801D01*
X146475696Y-85133805D01*
X146313805Y-85295696D01*
X146313802Y-85295699D01*
X146313802Y-85295700D01*
X146288856Y-85331326D01*
X146182474Y-85483255D01*
X146085717Y-85690753D01*
X146026456Y-85911915D01*
X146006501Y-86139999D01*
X145038418Y-86139999D01*
X145018463Y-85911913D01*
X144959204Y-85690757D01*
X144862443Y-85483251D01*
X144731118Y-85295700D01*
X144569220Y-85133802D01*
X144381669Y-85002477D01*
X144381666Y-85002476D01*
X144381664Y-85002474D01*
X144174166Y-84905717D01*
X144174163Y-84905716D01*
X144063585Y-84876086D01*
X143953004Y-84846456D01*
X143724919Y-84826501D01*
X143496835Y-84846456D01*
X143275673Y-84905717D01*
X143068175Y-85002474D01*
X143068170Y-85002477D01*
X143068171Y-85002477D01*
X142880622Y-85133801D01*
X142880616Y-85133805D01*
X142718725Y-85295696D01*
X142718722Y-85295699D01*
X142718722Y-85295700D01*
X142693776Y-85331326D01*
X142587394Y-85483255D01*
X142490637Y-85690753D01*
X142431376Y-85911915D01*
X142411421Y-86139999D01*
X141521492Y-86139999D01*
X141521492Y-86139996D01*
X141501537Y-85911909D01*
X141442278Y-85690753D01*
X141345517Y-85483247D01*
X141214192Y-85295696D01*
X141052294Y-85133798D01*
X140864743Y-85002473D01*
X140864740Y-85002472D01*
X140864738Y-85002470D01*
X140657240Y-84905713D01*
X140657237Y-84905712D01*
X140546658Y-84876082D01*
X140436078Y-84846452D01*
X140207993Y-84826497D01*
X139979909Y-84846452D01*
X139758747Y-84905713D01*
X139551249Y-85002470D01*
X139363690Y-85133801D01*
X139201799Y-85295692D01*
X139201796Y-85295695D01*
X139201796Y-85295696D01*
X139185590Y-85318841D01*
X139070468Y-85483251D01*
X138973711Y-85690749D01*
X138914450Y-85911911D01*
X138894495Y-86139995D01*
X137919573Y-86139995D01*
X137906456Y-85990063D01*
X137847197Y-85768907D01*
X137750436Y-85561401D01*
X137619111Y-85373850D01*
X137457213Y-85211952D01*
X137269662Y-85080627D01*
X137269659Y-85080626D01*
X137269657Y-85080624D01*
X137062159Y-84983867D01*
X137062156Y-84983866D01*
X136939966Y-84951125D01*
X136840997Y-84924606D01*
X136612912Y-84904651D01*
X136384828Y-84924606D01*
X136163666Y-84983867D01*
X135956168Y-85080624D01*
X135768609Y-85211955D01*
X135606718Y-85373846D01*
X135606715Y-85373849D01*
X135606715Y-85373850D01*
X135566064Y-85431906D01*
X135475387Y-85561405D01*
X135378630Y-85768903D01*
X135319369Y-85990065D01*
X135299414Y-86218150D01*
X134253177Y-86218150D01*
X134250776Y-86190716D01*
X134241847Y-86088651D01*
X134233222Y-85990067D01*
X134173963Y-85768911D01*
X134077202Y-85561405D01*
X133945877Y-85373854D01*
X133783979Y-85211956D01*
X133596428Y-85080631D01*
X133596425Y-85080630D01*
X133596423Y-85080628D01*
X133388925Y-84983871D01*
X133388922Y-84983870D01*
X133266717Y-84951125D01*
X133167763Y-84924610D01*
X132939679Y-84904655D01*
X132711594Y-84924610D01*
X132490432Y-84983871D01*
X132282934Y-85080628D01*
X132241127Y-85109902D01*
X132095381Y-85211955D01*
X132095375Y-85211959D01*
X131933484Y-85373850D01*
X131933481Y-85373853D01*
X131933481Y-85373854D01*
X131867818Y-85467629D01*
X131802153Y-85561409D01*
X131705396Y-85768907D01*
X131646135Y-85990069D01*
X131626180Y-86218154D01*
X127000000Y-86218154D01*
X127000000Y-76058154D01*
X131626180Y-76058154D01*
X131646135Y-76286238D01*
X131670695Y-76377897D01*
X131684452Y-76429239D01*
X131705396Y-76507400D01*
X131802153Y-76714898D01*
X131802154Y-76714899D01*
X131802156Y-76714903D01*
X131933481Y-76902454D01*
X132095379Y-77064352D01*
X132282930Y-77195677D01*
X132282933Y-77195678D01*
X132282934Y-77195679D01*
X132322829Y-77214282D01*
X132490436Y-77292438D01*
X132711592Y-77351697D01*
X132939679Y-77371652D01*
X133167766Y-77351697D01*
X133388922Y-77292438D01*
X133596428Y-77195677D01*
X133783979Y-77064352D01*
X133945877Y-76902454D01*
X134077202Y-76714903D01*
X134173963Y-76507397D01*
X134233222Y-76286241D01*
X134253177Y-76058154D01*
X134253177Y-76058149D01*
X135299414Y-76058149D01*
X135319369Y-76286234D01*
X135378630Y-76507396D01*
X135475387Y-76714894D01*
X135475389Y-76714896D01*
X135475390Y-76714899D01*
X135606715Y-76902450D01*
X135768613Y-77064348D01*
X135956164Y-77195673D01*
X135956167Y-77195674D01*
X135956168Y-77195675D01*
X135956177Y-77195679D01*
X136163670Y-77292434D01*
X136384826Y-77351693D01*
X136536883Y-77364996D01*
X136612912Y-77371648D01*
X136612912Y-77371647D01*
X136612913Y-77371648D01*
X136841000Y-77351693D01*
X137062156Y-77292434D01*
X137269662Y-77195673D01*
X137457213Y-77064348D01*
X137619111Y-76902450D01*
X137750436Y-76714899D01*
X137847197Y-76507393D01*
X137906456Y-76286237D01*
X137926411Y-76058150D01*
X137919573Y-75979996D01*
X138894495Y-75979996D01*
X138914450Y-76208080D01*
X138973711Y-76429242D01*
X139070468Y-76636740D01*
X139070470Y-76636742D01*
X139070471Y-76636745D01*
X139201796Y-76824296D01*
X139363694Y-76986194D01*
X139551245Y-77117519D01*
X139551248Y-77117520D01*
X139551249Y-77117521D01*
X139551258Y-77117525D01*
X139758751Y-77214280D01*
X139979907Y-77273539D01*
X140207994Y-77293494D01*
X140436081Y-77273539D01*
X140657237Y-77214280D01*
X140864743Y-77117519D01*
X141052294Y-76986194D01*
X141214192Y-76824296D01*
X141345517Y-76636745D01*
X141442278Y-76429239D01*
X141501537Y-76208083D01*
X141521492Y-75980000D01*
X142411421Y-75980000D01*
X142431376Y-76208084D01*
X142490637Y-76429246D01*
X142587394Y-76636744D01*
X142587395Y-76636745D01*
X142587397Y-76636749D01*
X142718722Y-76824300D01*
X142880620Y-76986198D01*
X143068171Y-77117523D01*
X143275677Y-77214284D01*
X143496833Y-77273543D01*
X143648890Y-77286846D01*
X143724919Y-77293498D01*
X143724919Y-77293497D01*
X143724920Y-77293498D01*
X143953007Y-77273543D01*
X144174163Y-77214284D01*
X144381669Y-77117523D01*
X144569220Y-76986198D01*
X144731118Y-76824300D01*
X144862443Y-76636749D01*
X144959204Y-76429243D01*
X145018463Y-76208087D01*
X145038418Y-75980000D01*
X146006501Y-75980000D01*
X146026456Y-76208084D01*
X146085717Y-76429246D01*
X146182474Y-76636744D01*
X146182475Y-76636745D01*
X146182477Y-76636749D01*
X146313802Y-76824300D01*
X146475700Y-76986198D01*
X146663251Y-77117523D01*
X146870757Y-77214284D01*
X147091913Y-77273543D01*
X147243970Y-77286846D01*
X147319999Y-77293498D01*
X147319999Y-77293497D01*
X147320000Y-77293498D01*
X147548087Y-77273543D01*
X147769243Y-77214284D01*
X147976749Y-77117523D01*
X148164300Y-76986198D01*
X148326198Y-76824300D01*
X148457523Y-76636749D01*
X148554284Y-76429243D01*
X148613543Y-76208087D01*
X148633498Y-75980000D01*
X148633498Y-75979996D01*
X149601581Y-75979996D01*
X149621536Y-76208080D01*
X149680797Y-76429242D01*
X149777554Y-76636740D01*
X149777556Y-76636742D01*
X149777557Y-76636745D01*
X149908882Y-76824296D01*
X150070780Y-76986194D01*
X150258331Y-77117519D01*
X150258334Y-77117520D01*
X150258335Y-77117521D01*
X150258344Y-77117525D01*
X150465837Y-77214280D01*
X150686993Y-77273539D01*
X150915080Y-77293494D01*
X151143167Y-77273539D01*
X151364323Y-77214280D01*
X151571829Y-77117519D01*
X151759380Y-76986194D01*
X151921278Y-76824296D01*
X152052603Y-76636745D01*
X152149364Y-76429239D01*
X152208623Y-76208083D01*
X152228578Y-75980000D01*
X153196661Y-75980000D01*
X153216616Y-76208084D01*
X153275877Y-76429246D01*
X153372634Y-76636744D01*
X153372635Y-76636745D01*
X153372637Y-76636749D01*
X153503962Y-76824300D01*
X153665860Y-76986198D01*
X153853411Y-77117523D01*
X154060917Y-77214284D01*
X154282073Y-77273543D01*
X154434130Y-77286846D01*
X154510159Y-77293498D01*
X154510159Y-77293497D01*
X154510160Y-77293498D01*
X154738247Y-77273543D01*
X154959403Y-77214284D01*
X155166909Y-77117523D01*
X155354460Y-76986198D01*
X155516358Y-76824300D01*
X155647683Y-76636749D01*
X155744444Y-76429243D01*
X155803703Y-76208087D01*
X155823658Y-75980000D01*
X155819166Y-75928651D01*
X156794018Y-75928651D01*
X156813973Y-76156735D01*
X156841322Y-76258802D01*
X156848674Y-76286241D01*
X156873234Y-76377897D01*
X156969991Y-76585395D01*
X156969993Y-76585397D01*
X156969994Y-76585400D01*
X157101319Y-76772951D01*
X157263217Y-76934849D01*
X157450768Y-77066174D01*
X157658274Y-77162935D01*
X157879430Y-77222194D01*
X158107517Y-77242149D01*
X158335604Y-77222194D01*
X158556760Y-77162935D01*
X158764266Y-77066174D01*
X158951817Y-76934849D01*
X159113715Y-76772951D01*
X159245040Y-76585400D01*
X159341801Y-76377894D01*
X159401060Y-76156738D01*
X159421015Y-75928651D01*
X159401060Y-75700564D01*
X159341801Y-75479408D01*
X159245040Y-75271902D01*
X159113715Y-75084351D01*
X158951817Y-74922453D01*
X158764266Y-74791128D01*
X158764263Y-74791127D01*
X158764261Y-74791125D01*
X158556763Y-74694368D01*
X158556760Y-74694367D01*
X158446182Y-74664737D01*
X158335601Y-74635107D01*
X158107517Y-74615152D01*
X157879432Y-74635107D01*
X157658270Y-74694368D01*
X157450772Y-74791125D01*
X157377434Y-74842477D01*
X157265824Y-74920628D01*
X157263213Y-74922456D01*
X157101322Y-75084347D01*
X156969991Y-75271906D01*
X156873234Y-75479404D01*
X156813973Y-75700566D01*
X156794018Y-75928651D01*
X155819166Y-75928651D01*
X155803703Y-75751913D01*
X155744444Y-75530757D01*
X155647683Y-75323251D01*
X155516358Y-75135700D01*
X155354460Y-74973802D01*
X155166909Y-74842477D01*
X155166906Y-74842476D01*
X155166904Y-74842474D01*
X154959406Y-74745717D01*
X154959403Y-74745716D01*
X154848825Y-74716086D01*
X154738244Y-74686456D01*
X154510160Y-74666501D01*
X154282075Y-74686456D01*
X154060913Y-74745717D01*
X153853415Y-74842474D01*
X153853410Y-74842477D01*
X153853411Y-74842477D01*
X153665862Y-74973801D01*
X153665856Y-74973805D01*
X153503965Y-75135696D01*
X153372634Y-75323255D01*
X153275877Y-75530753D01*
X153216616Y-75751915D01*
X153196661Y-75980000D01*
X152228578Y-75980000D01*
X152228578Y-75979996D01*
X152208623Y-75751909D01*
X152149364Y-75530753D01*
X152052603Y-75323247D01*
X151921278Y-75135696D01*
X151759380Y-74973798D01*
X151571829Y-74842473D01*
X151571826Y-74842472D01*
X151571824Y-74842470D01*
X151364326Y-74745713D01*
X151364323Y-74745712D01*
X151253745Y-74716082D01*
X151143164Y-74686452D01*
X150915080Y-74666497D01*
X150686995Y-74686452D01*
X150465833Y-74745713D01*
X150258335Y-74842470D01*
X150070776Y-74973801D01*
X149908885Y-75135692D01*
X149777554Y-75323251D01*
X149680797Y-75530749D01*
X149621536Y-75751911D01*
X149601581Y-75979996D01*
X148633498Y-75979996D01*
X148613543Y-75751913D01*
X148554284Y-75530757D01*
X148457523Y-75323251D01*
X148326198Y-75135700D01*
X148164300Y-74973802D01*
X147976749Y-74842477D01*
X147976746Y-74842476D01*
X147976744Y-74842474D01*
X147769246Y-74745717D01*
X147769243Y-74745716D01*
X147658665Y-74716086D01*
X147548084Y-74686456D01*
X147320000Y-74666501D01*
X147091915Y-74686456D01*
X146870753Y-74745717D01*
X146663255Y-74842474D01*
X146663250Y-74842477D01*
X146663251Y-74842477D01*
X146475702Y-74973801D01*
X146475696Y-74973805D01*
X146313805Y-75135696D01*
X146182474Y-75323255D01*
X146085717Y-75530753D01*
X146026456Y-75751915D01*
X146006501Y-75980000D01*
X145038418Y-75980000D01*
X145018463Y-75751913D01*
X144959204Y-75530757D01*
X144862443Y-75323251D01*
X144731118Y-75135700D01*
X144569220Y-74973802D01*
X144381669Y-74842477D01*
X144381666Y-74842476D01*
X144381664Y-74842474D01*
X144174166Y-74745717D01*
X144174163Y-74745716D01*
X144063585Y-74716086D01*
X143953004Y-74686456D01*
X143724920Y-74666501D01*
X143496835Y-74686456D01*
X143275673Y-74745717D01*
X143068175Y-74842474D01*
X143068170Y-74842477D01*
X143068171Y-74842477D01*
X142880622Y-74973801D01*
X142880616Y-74973805D01*
X142718725Y-75135696D01*
X142587394Y-75323255D01*
X142490637Y-75530753D01*
X142431376Y-75751915D01*
X142411421Y-75980000D01*
X141521492Y-75980000D01*
X141521492Y-75979996D01*
X141501537Y-75751909D01*
X141442278Y-75530753D01*
X141345517Y-75323247D01*
X141214192Y-75135696D01*
X141052294Y-74973798D01*
X140864743Y-74842473D01*
X140864740Y-74842472D01*
X140864738Y-74842470D01*
X140657240Y-74745713D01*
X140657237Y-74745712D01*
X140546659Y-74716082D01*
X140436078Y-74686452D01*
X140207994Y-74666497D01*
X139979909Y-74686452D01*
X139758747Y-74745713D01*
X139551249Y-74842470D01*
X139363690Y-74973801D01*
X139201799Y-75135692D01*
X139070468Y-75323251D01*
X138973711Y-75530749D01*
X138914450Y-75751911D01*
X138894495Y-75979996D01*
X137919573Y-75979996D01*
X137906456Y-75830063D01*
X137847197Y-75608907D01*
X137750436Y-75401401D01*
X137619111Y-75213850D01*
X137457213Y-75051952D01*
X137269662Y-74920627D01*
X137269659Y-74920626D01*
X137269657Y-74920624D01*
X137062159Y-74823867D01*
X137062156Y-74823866D01*
X136939966Y-74791125D01*
X136840997Y-74764606D01*
X136612913Y-74744651D01*
X136384828Y-74764606D01*
X136163666Y-74823867D01*
X135956168Y-74920624D01*
X135768609Y-75051955D01*
X135606718Y-75213846D01*
X135606715Y-75213849D01*
X135606715Y-75213850D01*
X135566064Y-75271906D01*
X135475387Y-75401405D01*
X135378630Y-75608903D01*
X135319369Y-75830065D01*
X135299414Y-76058149D01*
X134253177Y-76058149D01*
X134233222Y-75830067D01*
X134173963Y-75608911D01*
X134077202Y-75401405D01*
X133945877Y-75213854D01*
X133783979Y-75051956D01*
X133596428Y-74920631D01*
X133596425Y-74920630D01*
X133596423Y-74920628D01*
X133388925Y-74823871D01*
X133388922Y-74823870D01*
X133266717Y-74791125D01*
X133167763Y-74764610D01*
X132939679Y-74744655D01*
X132711594Y-74764610D01*
X132490432Y-74823871D01*
X132282934Y-74920628D01*
X132207000Y-74973798D01*
X132095381Y-75051955D01*
X132095375Y-75051959D01*
X131933484Y-75213850D01*
X131933481Y-75213853D01*
X131933481Y-75213854D01*
X131867818Y-75307629D01*
X131802153Y-75401409D01*
X131705396Y-75608907D01*
X131646135Y-75830069D01*
X131626180Y-76058154D01*
X127000000Y-76058154D01*
X127000000Y-73439999D01*
X184106501Y-73439999D01*
X184126456Y-73668084D01*
X184156086Y-73778664D01*
X184184934Y-73886326D01*
X184185717Y-73889246D01*
X184282474Y-74096744D01*
X184282476Y-74096746D01*
X184282477Y-74096749D01*
X184413802Y-74284300D01*
X184575700Y-74446198D01*
X184763251Y-74577523D01*
X184970757Y-74674284D01*
X185191913Y-74733543D01*
X185420000Y-74753498D01*
X185648087Y-74733543D01*
X185869243Y-74674284D01*
X186076749Y-74577523D01*
X186264300Y-74446198D01*
X186426198Y-74284300D01*
X186557523Y-74096749D01*
X186654284Y-73889243D01*
X186707671Y-73690000D01*
X194301128Y-73690000D01*
X194353733Y-73886326D01*
X194449865Y-74092480D01*
X194580341Y-74278819D01*
X194741180Y-74439658D01*
X194927519Y-74570134D01*
X195133673Y-74666266D01*
X195329999Y-74718871D01*
X195330000Y-74718872D01*
X195330000Y-73690000D01*
X195830000Y-73690000D01*
X195830000Y-74718871D01*
X196026326Y-74666266D01*
X196232480Y-74570134D01*
X196418819Y-74439658D01*
X196579658Y-74278819D01*
X196710134Y-74092480D01*
X196806266Y-73886326D01*
X196858872Y-73690000D01*
X201921128Y-73690000D01*
X201973733Y-73886326D01*
X202069865Y-74092480D01*
X202200341Y-74278819D01*
X202361180Y-74439658D01*
X202547519Y-74570134D01*
X202753673Y-74666266D01*
X202949999Y-74718871D01*
X202950000Y-74718872D01*
X202950000Y-73690000D01*
X203450000Y-73690000D01*
X203450000Y-74718871D01*
X203646326Y-74666266D01*
X203852480Y-74570134D01*
X204038819Y-74439658D01*
X204199658Y-74278819D01*
X204330134Y-74092480D01*
X204426266Y-73886326D01*
X204478872Y-73690000D01*
X203450000Y-73690000D01*
X202950000Y-73690000D01*
X201921128Y-73690000D01*
X196858872Y-73690000D01*
X195830000Y-73690000D01*
X195330000Y-73690000D01*
X194301128Y-73690000D01*
X186707671Y-73690000D01*
X186713543Y-73668087D01*
X186733498Y-73440000D01*
X186733498Y-73439999D01*
X212046501Y-73439999D01*
X212066456Y-73668084D01*
X212096086Y-73778664D01*
X212124934Y-73886326D01*
X212125717Y-73889246D01*
X212222474Y-74096744D01*
X212222476Y-74096746D01*
X212222477Y-74096749D01*
X212353802Y-74284300D01*
X212515700Y-74446198D01*
X212703251Y-74577523D01*
X212910757Y-74674284D01*
X213131913Y-74733543D01*
X213360000Y-74753498D01*
X213588087Y-74733543D01*
X213809243Y-74674284D01*
X214016749Y-74577523D01*
X214204300Y-74446198D01*
X214366198Y-74284300D01*
X214497523Y-74096749D01*
X214594284Y-73889243D01*
X214653543Y-73668087D01*
X214673498Y-73440000D01*
X214653543Y-73211913D01*
X214594284Y-72990757D01*
X214497523Y-72783251D01*
X214366198Y-72595700D01*
X214204300Y-72433802D01*
X214016749Y-72302477D01*
X214016746Y-72302476D01*
X214016744Y-72302474D01*
X213809246Y-72205717D01*
X213809243Y-72205716D01*
X213642840Y-72161128D01*
X213588084Y-72146456D01*
X213360000Y-72126501D01*
X213131915Y-72146456D01*
X212910753Y-72205717D01*
X212703255Y-72302474D01*
X212515696Y-72433805D01*
X212353805Y-72595696D01*
X212222474Y-72783255D01*
X212125717Y-72990753D01*
X212066456Y-73211915D01*
X212046501Y-73439999D01*
X186733498Y-73439999D01*
X186713543Y-73211913D01*
X186707671Y-73190000D01*
X194301128Y-73190000D01*
X195330000Y-73190000D01*
X195330000Y-72161128D01*
X195830000Y-72161128D01*
X195830000Y-73190000D01*
X196858872Y-73190000D01*
X201921128Y-73190000D01*
X202950000Y-73190000D01*
X202950000Y-72161128D01*
X203450000Y-72161128D01*
X203450000Y-73190000D01*
X204478872Y-73190000D01*
X204478871Y-73189999D01*
X204426266Y-72993673D01*
X204330134Y-72787519D01*
X204199658Y-72601180D01*
X204038819Y-72440341D01*
X203852480Y-72309865D01*
X203646326Y-72213733D01*
X203450000Y-72161128D01*
X202950000Y-72161128D01*
X202949999Y-72161128D01*
X202753673Y-72213733D01*
X202547519Y-72309865D01*
X202361180Y-72440341D01*
X202200341Y-72601180D01*
X202069865Y-72787519D01*
X201973733Y-72993673D01*
X201921128Y-73189999D01*
X201921128Y-73190000D01*
X196858872Y-73190000D01*
X196858871Y-73189999D01*
X196806266Y-72993673D01*
X196710134Y-72787519D01*
X196579658Y-72601180D01*
X196418819Y-72440341D01*
X196232480Y-72309865D01*
X196026326Y-72213733D01*
X195830000Y-72161128D01*
X195330000Y-72161128D01*
X195329999Y-72161128D01*
X195133673Y-72213733D01*
X194927519Y-72309865D01*
X194741180Y-72440341D01*
X194580341Y-72601180D01*
X194449865Y-72787519D01*
X194353733Y-72993673D01*
X194301128Y-73189999D01*
X194301128Y-73190000D01*
X186707671Y-73190000D01*
X186654284Y-72990757D01*
X186557523Y-72783251D01*
X186426198Y-72595700D01*
X186264300Y-72433802D01*
X186076749Y-72302477D01*
X186076746Y-72302476D01*
X186076744Y-72302474D01*
X185869246Y-72205717D01*
X185869243Y-72205716D01*
X185702840Y-72161128D01*
X185648084Y-72146456D01*
X185420000Y-72126501D01*
X185191915Y-72146456D01*
X184970753Y-72205717D01*
X184763255Y-72302474D01*
X184575696Y-72433805D01*
X184413805Y-72595696D01*
X184282474Y-72783255D01*
X184185717Y-72990753D01*
X184126456Y-73211915D01*
X184106501Y-73439999D01*
X127000000Y-73439999D01*
X127000000Y-72684423D01*
X147363668Y-72684423D01*
X147370179Y-72744994D01*
X147421278Y-72881992D01*
X147508906Y-72999050D01*
X147625964Y-73086678D01*
X147762962Y-73137777D01*
X147762965Y-73137777D01*
X147762967Y-73137778D01*
X147823530Y-73144289D01*
X149420802Y-73144289D01*
X149420806Y-73144289D01*
X149481369Y-73137778D01*
X149481371Y-73137777D01*
X149481373Y-73137777D01*
X149559292Y-73108713D01*
X149618372Y-73086678D01*
X149735429Y-72999050D01*
X149823057Y-72881993D01*
X149845092Y-72822913D01*
X149874156Y-72744994D01*
X149874156Y-72744992D01*
X149874157Y-72744990D01*
X149880668Y-72684427D01*
X149880668Y-72643022D01*
X149896215Y-72582906D01*
X149938958Y-72537864D01*
X149998178Y-72519192D01*
X150059026Y-72531571D01*
X150106240Y-72571895D01*
X150194419Y-72697827D01*
X150350130Y-72853538D01*
X150530514Y-72979845D01*
X150730092Y-73072909D01*
X150942797Y-73129904D01*
X151162168Y-73149096D01*
X151381539Y-73129904D01*
X151594244Y-73072909D01*
X151793822Y-72979845D01*
X151974206Y-72853538D01*
X152129917Y-72697827D01*
X152256224Y-72517443D01*
X152319785Y-72381133D01*
X152365543Y-72328957D01*
X152432168Y-72309537D01*
X152498793Y-72328957D01*
X152544550Y-72381133D01*
X152608109Y-72517438D01*
X152608111Y-72517440D01*
X152608112Y-72517443D01*
X152734419Y-72697827D01*
X152890130Y-72853538D01*
X153070514Y-72979845D01*
X153270092Y-73072909D01*
X153482797Y-73129904D01*
X153702168Y-73149096D01*
X153921539Y-73129904D01*
X154134244Y-73072909D01*
X154333822Y-72979845D01*
X154514206Y-72853538D01*
X154669917Y-72697827D01*
X154796224Y-72517443D01*
X154859785Y-72381133D01*
X154905543Y-72328957D01*
X154972168Y-72309537D01*
X155038793Y-72328957D01*
X155084550Y-72381133D01*
X155148109Y-72517438D01*
X155148111Y-72517440D01*
X155148112Y-72517443D01*
X155274419Y-72697827D01*
X155430130Y-72853538D01*
X155610514Y-72979845D01*
X155810092Y-73072909D01*
X156022797Y-73129904D01*
X156242168Y-73149096D01*
X156461539Y-73129904D01*
X156674244Y-73072909D01*
X156873822Y-72979845D01*
X157054206Y-72853538D01*
X157209917Y-72697827D01*
X157336224Y-72517443D01*
X157399785Y-72381133D01*
X157445543Y-72328957D01*
X157512168Y-72309537D01*
X157578793Y-72328957D01*
X157624550Y-72381133D01*
X157688109Y-72517438D01*
X157688111Y-72517440D01*
X157688112Y-72517443D01*
X157814419Y-72697827D01*
X157970130Y-72853538D01*
X158150514Y-72979845D01*
X158350092Y-73072909D01*
X158562797Y-73129904D01*
X158782168Y-73149096D01*
X159001539Y-73129904D01*
X159214244Y-73072909D01*
X159413822Y-72979845D01*
X159594206Y-72853538D01*
X159749917Y-72697827D01*
X159876224Y-72517443D01*
X159939785Y-72381133D01*
X159985543Y-72328957D01*
X160052168Y-72309537D01*
X160118793Y-72328957D01*
X160164550Y-72381133D01*
X160228109Y-72517438D01*
X160228111Y-72517440D01*
X160228112Y-72517443D01*
X160354419Y-72697827D01*
X160510130Y-72853538D01*
X160690514Y-72979845D01*
X160890092Y-73072909D01*
X161102797Y-73129904D01*
X161322168Y-73149096D01*
X161541539Y-73129904D01*
X161754244Y-73072909D01*
X161953822Y-72979845D01*
X162134206Y-72853538D01*
X162289917Y-72697827D01*
X162416224Y-72517443D01*
X162509288Y-72317865D01*
X162566283Y-72105160D01*
X162585475Y-71885789D01*
X162566283Y-71666418D01*
X162509288Y-71453713D01*
X162416224Y-71254136D01*
X162289917Y-71073751D01*
X162134206Y-70918040D01*
X161953822Y-70791733D01*
X161797744Y-70718953D01*
X161754245Y-70698669D01*
X161541536Y-70641673D01*
X161322168Y-70622481D01*
X161102799Y-70641673D01*
X160890090Y-70698669D01*
X160731700Y-70772528D01*
X160690515Y-70791733D01*
X160535894Y-70900000D01*
X160510126Y-70918043D01*
X160354422Y-71073747D01*
X160354419Y-71073750D01*
X160354419Y-71073751D01*
X160229338Y-71252386D01*
X160228111Y-71254138D01*
X160164550Y-71390445D01*
X160118793Y-71442621D01*
X160052168Y-71462040D01*
X159985543Y-71442621D01*
X159939786Y-71390445D01*
X159925802Y-71360457D01*
X159876224Y-71254136D01*
X159749917Y-71073751D01*
X159594206Y-70918040D01*
X159413822Y-70791733D01*
X159257744Y-70718953D01*
X159214245Y-70698669D01*
X159001536Y-70641673D01*
X158782168Y-70622481D01*
X158562799Y-70641673D01*
X158350090Y-70698669D01*
X158191700Y-70772528D01*
X158150515Y-70791733D01*
X157995894Y-70900000D01*
X157970126Y-70918043D01*
X157814422Y-71073747D01*
X157814419Y-71073750D01*
X157814419Y-71073751D01*
X157689338Y-71252386D01*
X157688111Y-71254138D01*
X157624550Y-71390445D01*
X157578793Y-71442621D01*
X157512168Y-71462040D01*
X157445543Y-71442621D01*
X157399786Y-71390445D01*
X157385802Y-71360457D01*
X157336224Y-71254136D01*
X157209917Y-71073751D01*
X157054206Y-70918040D01*
X156873822Y-70791733D01*
X156717744Y-70718953D01*
X156674245Y-70698669D01*
X156461536Y-70641673D01*
X156242168Y-70622481D01*
X156022799Y-70641673D01*
X155810090Y-70698669D01*
X155651700Y-70772528D01*
X155610515Y-70791733D01*
X155455894Y-70900000D01*
X155430126Y-70918043D01*
X155274422Y-71073747D01*
X155274419Y-71073750D01*
X155274419Y-71073751D01*
X155149338Y-71252386D01*
X155148111Y-71254138D01*
X155084550Y-71390445D01*
X155038793Y-71442621D01*
X154972168Y-71462040D01*
X154905543Y-71442621D01*
X154859786Y-71390445D01*
X154845802Y-71360457D01*
X154796224Y-71254136D01*
X154669917Y-71073751D01*
X154514206Y-70918040D01*
X154333822Y-70791733D01*
X154177744Y-70718953D01*
X154134245Y-70698669D01*
X153921536Y-70641673D01*
X153702168Y-70622481D01*
X153482799Y-70641673D01*
X153270090Y-70698669D01*
X153111700Y-70772528D01*
X153070515Y-70791733D01*
X152915894Y-70900000D01*
X152890126Y-70918043D01*
X152734422Y-71073747D01*
X152734419Y-71073750D01*
X152734419Y-71073751D01*
X152609338Y-71252386D01*
X152608111Y-71254138D01*
X152544550Y-71390445D01*
X152498793Y-71442621D01*
X152432168Y-71462040D01*
X152365543Y-71442621D01*
X152319786Y-71390445D01*
X152305802Y-71360457D01*
X152256224Y-71254136D01*
X152129917Y-71073751D01*
X151974206Y-70918040D01*
X151793822Y-70791733D01*
X151637744Y-70718953D01*
X151594245Y-70698669D01*
X151381536Y-70641673D01*
X151162168Y-70622481D01*
X150942799Y-70641673D01*
X150730090Y-70698669D01*
X150571700Y-70772528D01*
X150530515Y-70791733D01*
X150375894Y-70900000D01*
X150350126Y-70918043D01*
X150194422Y-71073747D01*
X150194419Y-71073750D01*
X150194419Y-71073751D01*
X150113951Y-71188672D01*
X150106243Y-71199680D01*
X150059026Y-71240007D01*
X149998178Y-71252386D01*
X149938958Y-71233714D01*
X149896215Y-71188672D01*
X149880668Y-71128556D01*
X149880668Y-71087155D01*
X149880668Y-71087151D01*
X149874157Y-71026588D01*
X149874156Y-71026586D01*
X149874156Y-71026583D01*
X149823057Y-70889585D01*
X149735429Y-70772527D01*
X149618371Y-70684899D01*
X149481373Y-70633800D01*
X149451087Y-70630544D01*
X149420806Y-70627289D01*
X147823530Y-70627289D01*
X147796613Y-70630182D01*
X147762962Y-70633800D01*
X147625964Y-70684899D01*
X147508906Y-70772527D01*
X147421278Y-70889585D01*
X147370179Y-71026583D01*
X147369183Y-71035853D01*
X147364325Y-71081047D01*
X147363668Y-71087155D01*
X147363668Y-72684423D01*
X127000000Y-72684423D01*
X127000000Y-70899999D01*
X138886383Y-70899999D01*
X138906782Y-71081044D01*
X138906782Y-71081046D01*
X138906783Y-71081047D01*
X138966957Y-71253015D01*
X139063889Y-71407281D01*
X139192719Y-71536111D01*
X139346985Y-71633043D01*
X139518953Y-71693217D01*
X139700000Y-71713616D01*
X139881047Y-71693217D01*
X140053015Y-71633043D01*
X140207281Y-71536111D01*
X140336111Y-71407281D01*
X140433043Y-71253015D01*
X140493217Y-71081047D01*
X140498309Y-71035852D01*
X140509809Y-70995934D01*
X140533845Y-70962057D01*
X140595903Y-70899999D01*
X141426383Y-70899999D01*
X141446782Y-71081044D01*
X141446782Y-71081046D01*
X141446783Y-71081047D01*
X141506957Y-71253015D01*
X141603889Y-71407281D01*
X141732719Y-71536111D01*
X141886985Y-71633043D01*
X142058953Y-71693217D01*
X142240000Y-71713616D01*
X142421047Y-71693217D01*
X142593015Y-71633043D01*
X142747281Y-71536111D01*
X142876111Y-71407281D01*
X142973043Y-71253015D01*
X143033217Y-71081047D01*
X143038309Y-71035852D01*
X143049809Y-70995934D01*
X143073845Y-70962057D01*
X145678236Y-68357666D01*
X181566501Y-68357666D01*
X181586456Y-68585750D01*
X181645717Y-68806912D01*
X181742474Y-69014410D01*
X181742476Y-69014412D01*
X181742477Y-69014415D01*
X181873802Y-69201966D01*
X182035700Y-69363864D01*
X182223251Y-69495189D01*
X182430757Y-69591950D01*
X182651913Y-69651209D01*
X182880000Y-69671164D01*
X183108087Y-69651209D01*
X183329243Y-69591950D01*
X183536749Y-69495189D01*
X183724300Y-69363864D01*
X183886198Y-69201966D01*
X184017523Y-69014415D01*
X184114284Y-68806909D01*
X184173543Y-68585753D01*
X184187826Y-68422499D01*
X185225424Y-68422499D01*
X185245379Y-68650583D01*
X185304640Y-68871745D01*
X185401397Y-69079243D01*
X185401399Y-69079245D01*
X185401400Y-69079248D01*
X185532725Y-69266799D01*
X185694623Y-69428697D01*
X185882174Y-69560022D01*
X186089680Y-69656783D01*
X186310836Y-69716042D01*
X186538923Y-69735997D01*
X186767010Y-69716042D01*
X186988166Y-69656783D01*
X187195672Y-69560022D01*
X187383223Y-69428697D01*
X187545121Y-69266799D01*
X187676446Y-69079248D01*
X187773207Y-68871742D01*
X187832466Y-68650586D01*
X187852421Y-68422499D01*
X187832466Y-68194412D01*
X187773207Y-67973256D01*
X187676446Y-67765750D01*
X187545121Y-67578199D01*
X187383223Y-67416301D01*
X187195672Y-67284976D01*
X187195669Y-67284975D01*
X187195667Y-67284973D01*
X186988169Y-67188216D01*
X186988166Y-67188215D01*
X186810160Y-67140518D01*
X186767007Y-67128955D01*
X186538922Y-67109000D01*
X186310838Y-67128955D01*
X186089676Y-67188216D01*
X185882178Y-67284973D01*
X185694619Y-67416304D01*
X185532728Y-67578195D01*
X185401397Y-67765754D01*
X185304640Y-67973252D01*
X185245379Y-68194414D01*
X185225424Y-68422499D01*
X184187826Y-68422499D01*
X184193498Y-68357666D01*
X184173543Y-68129579D01*
X184114284Y-67908423D01*
X184047755Y-67765750D01*
X184017525Y-67700921D01*
X184017524Y-67700920D01*
X184017523Y-67700917D01*
X183886198Y-67513366D01*
X183724300Y-67351468D01*
X183536749Y-67220143D01*
X183536746Y-67220142D01*
X183536744Y-67220140D01*
X183329246Y-67123383D01*
X183329243Y-67123382D01*
X183110334Y-67064725D01*
X183108084Y-67064122D01*
X182880000Y-67044167D01*
X182651915Y-67064122D01*
X182430753Y-67123383D01*
X182223255Y-67220140D01*
X182035696Y-67351471D01*
X181873805Y-67513362D01*
X181873802Y-67513365D01*
X181873802Y-67513366D01*
X181836400Y-67566782D01*
X181742474Y-67700921D01*
X181645717Y-67908419D01*
X181586456Y-68129581D01*
X181566501Y-68357666D01*
X145678236Y-68357666D01*
X147382058Y-66653844D01*
X147415936Y-66629807D01*
X147455847Y-66618309D01*
X147501047Y-66613217D01*
X147673015Y-66553043D01*
X147827281Y-66456111D01*
X147956111Y-66327281D01*
X148053043Y-66173015D01*
X148113217Y-66001047D01*
X148133616Y-65820000D01*
X148133616Y-65819999D01*
X189086672Y-65819999D01*
X189105948Y-66052621D01*
X189163251Y-66278908D01*
X189257016Y-66492669D01*
X189384684Y-66688081D01*
X189384686Y-66688083D01*
X189542780Y-66859818D01*
X189726983Y-67003190D01*
X189932273Y-67114287D01*
X189958766Y-67123382D01*
X190153046Y-67190080D01*
X190383288Y-67228500D01*
X190616712Y-67228500D01*
X190846953Y-67190080D01*
X190991319Y-67140518D01*
X191067727Y-67114287D01*
X191273017Y-67003190D01*
X191457220Y-66859818D01*
X191463646Y-66852837D01*
X191516268Y-66818982D01*
X191578723Y-66815133D01*
X191635106Y-66842270D01*
X191671059Y-66893484D01*
X191696647Y-66962088D01*
X191782811Y-67077188D01*
X191897910Y-67163352D01*
X192032624Y-67213597D01*
X192092176Y-67220000D01*
X192790000Y-67220000D01*
X192790000Y-66070000D01*
X193290000Y-66070000D01*
X193290000Y-67220000D01*
X193987824Y-67220000D01*
X194047375Y-67213597D01*
X194182089Y-67163352D01*
X194297188Y-67077188D01*
X194383352Y-66962089D01*
X194433597Y-66827375D01*
X194440000Y-66767824D01*
X194440000Y-66070000D01*
X193290000Y-66070000D01*
X192790000Y-66070000D01*
X192790000Y-65770438D01*
X194731768Y-65770438D01*
X194751044Y-66003059D01*
X194751044Y-66003062D01*
X194751045Y-66003064D01*
X194780409Y-66119020D01*
X194808347Y-66229346D01*
X194902112Y-66443107D01*
X195029780Y-66638519D01*
X195029782Y-66638521D01*
X195187876Y-66810256D01*
X195372079Y-66953628D01*
X195577369Y-67064725D01*
X195632562Y-67083673D01*
X195798142Y-67140518D01*
X196028384Y-67178938D01*
X196261808Y-67178938D01*
X196492049Y-67140518D01*
X196602435Y-67102621D01*
X196712823Y-67064725D01*
X196918113Y-66953628D01*
X197102316Y-66810256D01*
X197108742Y-66803275D01*
X197161364Y-66769420D01*
X197223819Y-66765571D01*
X197280202Y-66792708D01*
X197316155Y-66843922D01*
X197341743Y-66912526D01*
X197427907Y-67027626D01*
X197543006Y-67113790D01*
X197677720Y-67164035D01*
X197737272Y-67170438D01*
X198435096Y-67170438D01*
X198435096Y-66020438D01*
X198935096Y-66020438D01*
X198935096Y-67170438D01*
X199632920Y-67170438D01*
X199692471Y-67164035D01*
X199827185Y-67113790D01*
X199942284Y-67027626D01*
X200028448Y-66912527D01*
X200078693Y-66777813D01*
X200085096Y-66718262D01*
X200085096Y-66020438D01*
X198935096Y-66020438D01*
X198435096Y-66020438D01*
X198435096Y-64370438D01*
X198935096Y-64370438D01*
X198935096Y-65520438D01*
X200085096Y-65520438D01*
X200085096Y-64822614D01*
X200078693Y-64763062D01*
X200028448Y-64628348D01*
X199942284Y-64513249D01*
X199827185Y-64427085D01*
X199692471Y-64376840D01*
X199632920Y-64370438D01*
X198935096Y-64370438D01*
X198435096Y-64370438D01*
X197737272Y-64370438D01*
X197677720Y-64376840D01*
X197543006Y-64427085D01*
X197427907Y-64513249D01*
X197341741Y-64628351D01*
X197316154Y-64696953D01*
X197280202Y-64748167D01*
X197223821Y-64775304D01*
X197161367Y-64771456D01*
X197108743Y-64737602D01*
X197102315Y-64730619D01*
X197059061Y-64696953D01*
X196918113Y-64587248D01*
X196712823Y-64476151D01*
X196712822Y-64476150D01*
X196712821Y-64476150D01*
X196492049Y-64400357D01*
X196261808Y-64361938D01*
X196028384Y-64361938D01*
X195798142Y-64400357D01*
X195577370Y-64476150D01*
X195372079Y-64587248D01*
X195187876Y-64730619D01*
X195029780Y-64902356D01*
X194902112Y-65097768D01*
X194808347Y-65311529D01*
X194751044Y-65537816D01*
X194731768Y-65770438D01*
X192790000Y-65770438D01*
X192790000Y-64420000D01*
X193290000Y-64420000D01*
X193290000Y-65570000D01*
X194440000Y-65570000D01*
X194440000Y-64872176D01*
X194433597Y-64812624D01*
X194383352Y-64677910D01*
X194297188Y-64562811D01*
X194182089Y-64476647D01*
X194047375Y-64426402D01*
X193987824Y-64420000D01*
X193290000Y-64420000D01*
X192790000Y-64420000D01*
X192092176Y-64420000D01*
X192032624Y-64426402D01*
X191897910Y-64476647D01*
X191782811Y-64562811D01*
X191696645Y-64677913D01*
X191671058Y-64746515D01*
X191635106Y-64797729D01*
X191578725Y-64824866D01*
X191516271Y-64821018D01*
X191463647Y-64787164D01*
X191457219Y-64780181D01*
X191350288Y-64696953D01*
X191273017Y-64636810D01*
X191067727Y-64525713D01*
X191067726Y-64525712D01*
X191067725Y-64525712D01*
X190846953Y-64449919D01*
X190616712Y-64411500D01*
X190383288Y-64411500D01*
X190153046Y-64449919D01*
X189932274Y-64525712D01*
X189726983Y-64636810D01*
X189542780Y-64780181D01*
X189384684Y-64951918D01*
X189257016Y-65147330D01*
X189163251Y-65361091D01*
X189105948Y-65587378D01*
X189086672Y-65819999D01*
X148133616Y-65819999D01*
X148113217Y-65638953D01*
X148053043Y-65466985D01*
X147956111Y-65312719D01*
X147827281Y-65183889D01*
X147673015Y-65086957D01*
X147501047Y-65026783D01*
X147501046Y-65026782D01*
X147501044Y-65026782D01*
X147320000Y-65006383D01*
X147138955Y-65026782D01*
X146966984Y-65086957D01*
X146812717Y-65183890D01*
X146683890Y-65312717D01*
X146586958Y-65466983D01*
X146526782Y-65638956D01*
X146521690Y-65684147D01*
X146510190Y-65724064D01*
X146486151Y-65757943D01*
X142177943Y-70066151D01*
X142144064Y-70090190D01*
X142104147Y-70101690D01*
X142058955Y-70106782D01*
X141886984Y-70166957D01*
X141732717Y-70263890D01*
X141603890Y-70392717D01*
X141506957Y-70546984D01*
X141446782Y-70718955D01*
X141426383Y-70899999D01*
X140595903Y-70899999D01*
X142302057Y-69193845D01*
X142335934Y-69169809D01*
X142375853Y-69158309D01*
X142421047Y-69153217D01*
X142593015Y-69093043D01*
X142747281Y-68996111D01*
X142876111Y-68867281D01*
X142973043Y-68713015D01*
X143033217Y-68541047D01*
X143053616Y-68360000D01*
X143033217Y-68178953D01*
X142973043Y-68006985D01*
X142876111Y-67852719D01*
X142747281Y-67723889D01*
X142593015Y-67626957D01*
X142421047Y-67566783D01*
X142421046Y-67566782D01*
X142421044Y-67566782D01*
X142240000Y-67546383D01*
X142058955Y-67566782D01*
X141886984Y-67626957D01*
X141732717Y-67723890D01*
X141603890Y-67852717D01*
X141506957Y-68006984D01*
X141446782Y-68178955D01*
X141441690Y-68224146D01*
X141430190Y-68264063D01*
X141406151Y-68297942D01*
X139637942Y-70066151D01*
X139604063Y-70090190D01*
X139564146Y-70101690D01*
X139518955Y-70106782D01*
X139346984Y-70166957D01*
X139192717Y-70263890D01*
X139063890Y-70392717D01*
X138966957Y-70546984D01*
X138906782Y-70718955D01*
X138886383Y-70899999D01*
X127000000Y-70899999D01*
X127000000Y-61943610D01*
X209949942Y-61943610D01*
X209996766Y-61980055D01*
X210215393Y-62098368D01*
X210450506Y-62179083D01*
X210695707Y-62220000D01*
X210944293Y-62220000D01*
X211189493Y-62179083D01*
X211424606Y-62098368D01*
X211643233Y-61980053D01*
X211690056Y-61943609D01*
X210820000Y-61073553D01*
X209949942Y-61943609D01*
X209949942Y-61943610D01*
X127000000Y-61943610D01*
X127000000Y-56645788D01*
X147358860Y-56645788D01*
X147378052Y-56865157D01*
X147435048Y-57077866D01*
X147457016Y-57124976D01*
X147528112Y-57277443D01*
X147654419Y-57457827D01*
X147810130Y-57613538D01*
X147990514Y-57739845D01*
X148190092Y-57832909D01*
X148402797Y-57889904D01*
X148622168Y-57909096D01*
X148841539Y-57889904D01*
X149054244Y-57832909D01*
X149253822Y-57739845D01*
X149434206Y-57613538D01*
X149589917Y-57457827D01*
X149716224Y-57277443D01*
X149779785Y-57141133D01*
X149825543Y-57088957D01*
X149892168Y-57069537D01*
X149958793Y-57088957D01*
X150004550Y-57141133D01*
X150068109Y-57277438D01*
X150068111Y-57277440D01*
X150068112Y-57277443D01*
X150194419Y-57457827D01*
X150350130Y-57613538D01*
X150530514Y-57739845D01*
X150730092Y-57832909D01*
X150942797Y-57889904D01*
X151162168Y-57909096D01*
X151381539Y-57889904D01*
X151453290Y-57870678D01*
X151519692Y-57871294D01*
X151576256Y-57906084D01*
X151606758Y-57965071D01*
X151604187Y-58004601D01*
X151608347Y-58005070D01*
X151586383Y-58200000D01*
X151606782Y-58381044D01*
X151606782Y-58381046D01*
X151606783Y-58381047D01*
X151666957Y-58553015D01*
X151763889Y-58707281D01*
X151892719Y-58836111D01*
X152046985Y-58933043D01*
X152218953Y-58993217D01*
X152256316Y-58997426D01*
X152264146Y-58998309D01*
X152304064Y-59009809D01*
X152337944Y-59033848D01*
X153655611Y-60351515D01*
X153668660Y-60367802D01*
X153670700Y-60369717D01*
X153670701Y-60369719D01*
X153720402Y-60416391D01*
X153723165Y-60419069D01*
X153742932Y-60438836D01*
X153746198Y-60441369D01*
X153755076Y-60448951D01*
X153787380Y-60479287D01*
X153805271Y-60489122D01*
X153821524Y-60499798D01*
X153833517Y-60509100D01*
X153837662Y-60512316D01*
X153878319Y-60529909D01*
X153888803Y-60535044D01*
X153927641Y-60556396D01*
X153947415Y-60561473D01*
X153965820Y-60567774D01*
X153984556Y-60575882D01*
X154028331Y-60582814D01*
X154039742Y-60585178D01*
X154082671Y-60596201D01*
X154103085Y-60596201D01*
X154122484Y-60597728D01*
X154142644Y-60600921D01*
X154186757Y-60596751D01*
X154198427Y-60596201D01*
X166355603Y-60596201D01*
X166421573Y-60615206D01*
X166549748Y-60695744D01*
X166721716Y-60755918D01*
X166902763Y-60776317D01*
X167083810Y-60755918D01*
X167186458Y-60720000D01*
X209314858Y-60720000D01*
X209335386Y-60967732D01*
X209396413Y-61208721D01*
X209496268Y-61436370D01*
X209596563Y-61589882D01*
X209596564Y-61589882D01*
X210466447Y-60720001D01*
X211173553Y-60720001D01*
X212043434Y-61589882D01*
X212143730Y-61436369D01*
X212243586Y-61208721D01*
X212304613Y-60967732D01*
X212325141Y-60720000D01*
X212304613Y-60472267D01*
X212243586Y-60231278D01*
X212143730Y-60003630D01*
X212043434Y-59850116D01*
X211173553Y-60720000D01*
X211173553Y-60720001D01*
X210466447Y-60720001D01*
X210466447Y-60720000D01*
X209596564Y-59850116D01*
X209496266Y-60003634D01*
X209396413Y-60231278D01*
X209335386Y-60472267D01*
X209314858Y-60720000D01*
X167186458Y-60720000D01*
X167255778Y-60695744D01*
X167410044Y-60598812D01*
X167538874Y-60469982D01*
X167635806Y-60315716D01*
X167695980Y-60143748D01*
X167716379Y-59962701D01*
X167695980Y-59781654D01*
X167635806Y-59609686D01*
X167538874Y-59455420D01*
X167410044Y-59326590D01*
X167255778Y-59229658D01*
X167083810Y-59169484D01*
X167083809Y-59169483D01*
X167083807Y-59169483D01*
X166902763Y-59149084D01*
X166721718Y-59169483D01*
X166549747Y-59229658D01*
X166500001Y-59260916D01*
X166421573Y-59310195D01*
X166355603Y-59329201D01*
X154476467Y-59329201D01*
X154429014Y-59319762D01*
X154388786Y-59292882D01*
X153233848Y-58137943D01*
X153209809Y-58104063D01*
X153198309Y-58064145D01*
X153193217Y-58018953D01*
X153190919Y-58012385D01*
X153186574Y-57946103D01*
X153217062Y-57887088D01*
X153273633Y-57852276D01*
X153340052Y-57851655D01*
X153482797Y-57889904D01*
X153702168Y-57909096D01*
X153921539Y-57889904D01*
X154134244Y-57832909D01*
X154333822Y-57739845D01*
X154514206Y-57613538D01*
X154669917Y-57457827D01*
X154796224Y-57277443D01*
X154859785Y-57141133D01*
X154905543Y-57088957D01*
X154972168Y-57069537D01*
X155038793Y-57088957D01*
X155084550Y-57141133D01*
X155148109Y-57277438D01*
X155148111Y-57277440D01*
X155148112Y-57277443D01*
X155274419Y-57457827D01*
X155430130Y-57613538D01*
X155610514Y-57739845D01*
X155810092Y-57832909D01*
X156022797Y-57889904D01*
X156242168Y-57909096D01*
X156461539Y-57889904D01*
X156674244Y-57832909D01*
X156873822Y-57739845D01*
X157054206Y-57613538D01*
X157209917Y-57457827D01*
X157336224Y-57277443D01*
X157399785Y-57141133D01*
X157445543Y-57088957D01*
X157512168Y-57069537D01*
X157578793Y-57088957D01*
X157624550Y-57141133D01*
X157688109Y-57277438D01*
X157688111Y-57277440D01*
X157688112Y-57277443D01*
X157814419Y-57457827D01*
X157970130Y-57613538D01*
X158150514Y-57739845D01*
X158350092Y-57832909D01*
X158562797Y-57889904D01*
X158782168Y-57909096D01*
X159001539Y-57889904D01*
X159214244Y-57832909D01*
X159413822Y-57739845D01*
X159594206Y-57613538D01*
X159749917Y-57457827D01*
X159876224Y-57277443D01*
X159939785Y-57141133D01*
X159985543Y-57088957D01*
X160052168Y-57069537D01*
X160118793Y-57088957D01*
X160164550Y-57141133D01*
X160228109Y-57277438D01*
X160228111Y-57277440D01*
X160228112Y-57277443D01*
X160354419Y-57457827D01*
X160510130Y-57613538D01*
X160690514Y-57739845D01*
X160890092Y-57832909D01*
X161102797Y-57889904D01*
X161322168Y-57909096D01*
X161541539Y-57889904D01*
X161613290Y-57870678D01*
X161679692Y-57871294D01*
X161736256Y-57906084D01*
X161766758Y-57965071D01*
X161764187Y-58004601D01*
X161768347Y-58005070D01*
X161746383Y-58200000D01*
X161766782Y-58381044D01*
X161766782Y-58381046D01*
X161766783Y-58381047D01*
X161826957Y-58553015D01*
X161923889Y-58707281D01*
X162052719Y-58836111D01*
X162206985Y-58933043D01*
X162378953Y-58993217D01*
X162560000Y-59013616D01*
X162741047Y-58993217D01*
X162913015Y-58933043D01*
X163041189Y-58852505D01*
X163107160Y-58833500D01*
X164552840Y-58833500D01*
X164618810Y-58852505D01*
X164746985Y-58933043D01*
X164918953Y-58993217D01*
X165100000Y-59013616D01*
X165281047Y-58993217D01*
X165453015Y-58933043D01*
X165607281Y-58836111D01*
X165736111Y-58707281D01*
X165833043Y-58553015D01*
X165893217Y-58381047D01*
X165913616Y-58200000D01*
X165913353Y-58197665D01*
X181566501Y-58197665D01*
X181586456Y-58425750D01*
X181645717Y-58646912D01*
X181742474Y-58854410D01*
X181742476Y-58854412D01*
X181742477Y-58854415D01*
X181873802Y-59041966D01*
X182035700Y-59203864D01*
X182223251Y-59335189D01*
X182430757Y-59431950D01*
X182651913Y-59491209D01*
X182880000Y-59511164D01*
X183108087Y-59491209D01*
X183329243Y-59431950D01*
X183536749Y-59335189D01*
X183724300Y-59203864D01*
X183886198Y-59041966D01*
X184017523Y-58854415D01*
X184114284Y-58646909D01*
X184173543Y-58425753D01*
X184187826Y-58262498D01*
X185225424Y-58262498D01*
X185245379Y-58490583D01*
X185304640Y-58711745D01*
X185401397Y-58919243D01*
X185401399Y-58919245D01*
X185401400Y-58919248D01*
X185532725Y-59106799D01*
X185694623Y-59268697D01*
X185882174Y-59400022D01*
X186089680Y-59496783D01*
X186310836Y-59556042D01*
X186538923Y-59575997D01*
X186767010Y-59556042D01*
X186988166Y-59496783D01*
X186989009Y-59496390D01*
X209949942Y-59496390D01*
X210820000Y-60366447D01*
X210820001Y-60366447D01*
X211690057Y-59496390D01*
X211690056Y-59496388D01*
X211643235Y-59459947D01*
X211424606Y-59341631D01*
X211189493Y-59260916D01*
X210944293Y-59220000D01*
X210695707Y-59220000D01*
X210450506Y-59260916D01*
X210215393Y-59341631D01*
X209996764Y-59459946D01*
X209949942Y-59496388D01*
X209949942Y-59496390D01*
X186989009Y-59496390D01*
X187195672Y-59400022D01*
X187383223Y-59268697D01*
X187545121Y-59106799D01*
X187676446Y-58919248D01*
X187773207Y-58711742D01*
X187832466Y-58490586D01*
X187852421Y-58262499D01*
X187832466Y-58034412D01*
X187773207Y-57813256D01*
X187676446Y-57605750D01*
X187545121Y-57418199D01*
X187383223Y-57256301D01*
X187195672Y-57124976D01*
X187195669Y-57124975D01*
X187195667Y-57124973D01*
X186988169Y-57028216D01*
X186988166Y-57028215D01*
X186877587Y-56998585D01*
X186767007Y-56968955D01*
X186538923Y-56949000D01*
X186310838Y-56968955D01*
X186089676Y-57028216D01*
X185882178Y-57124973D01*
X185694619Y-57256304D01*
X185532728Y-57418195D01*
X185532725Y-57418198D01*
X185532725Y-57418199D01*
X185498584Y-57466957D01*
X185401397Y-57605754D01*
X185304640Y-57813252D01*
X185245379Y-58034414D01*
X185225424Y-58262498D01*
X184187826Y-58262498D01*
X184193498Y-58197666D01*
X184173543Y-57969579D01*
X184114284Y-57748423D01*
X184047755Y-57605750D01*
X184017525Y-57540921D01*
X184017524Y-57540920D01*
X184017523Y-57540917D01*
X183886198Y-57353366D01*
X183724300Y-57191468D01*
X183536749Y-57060143D01*
X183536746Y-57060142D01*
X183536744Y-57060140D01*
X183329246Y-56963383D01*
X183329243Y-56963382D01*
X183218664Y-56933752D01*
X183108084Y-56904122D01*
X182880000Y-56884167D01*
X182651915Y-56904122D01*
X182430753Y-56963383D01*
X182223255Y-57060140D01*
X182035696Y-57191471D01*
X181873805Y-57353362D01*
X181873802Y-57353365D01*
X181873802Y-57353366D01*
X181836400Y-57406782D01*
X181742474Y-57540921D01*
X181645717Y-57748419D01*
X181586456Y-57969581D01*
X181566501Y-58197665D01*
X165913353Y-58197665D01*
X165893217Y-58018953D01*
X165833043Y-57846985D01*
X165736111Y-57692719D01*
X165607281Y-57563889D01*
X165453015Y-57466957D01*
X165281047Y-57406783D01*
X165281046Y-57406782D01*
X165281044Y-57406782D01*
X165100000Y-57386383D01*
X164918955Y-57406782D01*
X164746984Y-57466957D01*
X164665535Y-57518135D01*
X164618810Y-57547494D01*
X164552840Y-57566500D01*
X163107160Y-57566500D01*
X163041189Y-57547494D01*
X162913015Y-57466957D01*
X162741047Y-57406783D01*
X162741046Y-57406782D01*
X162741044Y-57406782D01*
X162546525Y-57384865D01*
X162491840Y-57364961D01*
X162452257Y-57322301D01*
X162436496Y-57266281D01*
X162448027Y-57209240D01*
X162456314Y-57191468D01*
X162509288Y-57077865D01*
X162566283Y-56865160D01*
X162585475Y-56645789D01*
X162566283Y-56426418D01*
X162509288Y-56213713D01*
X162416224Y-56014136D01*
X162289917Y-55833751D01*
X162134206Y-55678040D01*
X161953822Y-55551733D01*
X161861804Y-55508824D01*
X161754245Y-55458669D01*
X161541536Y-55401673D01*
X161322168Y-55382481D01*
X161102799Y-55401673D01*
X160890090Y-55458669D01*
X160690517Y-55551732D01*
X160690515Y-55551733D01*
X160510130Y-55678040D01*
X160510126Y-55678043D01*
X160354422Y-55833747D01*
X160228111Y-56014138D01*
X160164550Y-56150445D01*
X160118793Y-56202621D01*
X160052168Y-56222040D01*
X159985543Y-56202621D01*
X159939786Y-56150445D01*
X159925802Y-56120457D01*
X159876224Y-56014136D01*
X159749917Y-55833751D01*
X159594206Y-55678040D01*
X159413822Y-55551733D01*
X159321804Y-55508824D01*
X159214245Y-55458669D01*
X159001536Y-55401673D01*
X158782168Y-55382481D01*
X158562799Y-55401673D01*
X158350090Y-55458669D01*
X158150517Y-55551732D01*
X158150515Y-55551733D01*
X157970130Y-55678040D01*
X157970126Y-55678043D01*
X157814422Y-55833747D01*
X157688111Y-56014138D01*
X157624550Y-56150445D01*
X157578793Y-56202621D01*
X157512168Y-56222040D01*
X157445543Y-56202621D01*
X157399786Y-56150445D01*
X157385802Y-56120457D01*
X157336224Y-56014136D01*
X157209917Y-55833751D01*
X157054206Y-55678040D01*
X156873822Y-55551733D01*
X156781804Y-55508824D01*
X156674245Y-55458669D01*
X156461536Y-55401673D01*
X156242168Y-55382481D01*
X156022799Y-55401673D01*
X155810090Y-55458669D01*
X155610517Y-55551732D01*
X155610515Y-55551733D01*
X155430130Y-55678040D01*
X155430126Y-55678043D01*
X155274422Y-55833747D01*
X155148111Y-56014138D01*
X155084550Y-56150445D01*
X155038793Y-56202621D01*
X154972168Y-56222040D01*
X154905543Y-56202621D01*
X154859786Y-56150445D01*
X154845802Y-56120457D01*
X154796224Y-56014136D01*
X154669917Y-55833751D01*
X154514206Y-55678040D01*
X154333822Y-55551733D01*
X154241804Y-55508824D01*
X154134245Y-55458669D01*
X153921536Y-55401673D01*
X153702168Y-55382481D01*
X153482799Y-55401673D01*
X153270090Y-55458669D01*
X153070517Y-55551732D01*
X153070515Y-55551733D01*
X152890130Y-55678040D01*
X152890126Y-55678043D01*
X152734422Y-55833747D01*
X152608111Y-56014138D01*
X152544550Y-56150445D01*
X152498793Y-56202621D01*
X152432168Y-56222040D01*
X152365543Y-56202621D01*
X152319786Y-56150445D01*
X152305802Y-56120457D01*
X152256224Y-56014136D01*
X152129917Y-55833751D01*
X151974206Y-55678040D01*
X151793822Y-55551733D01*
X151701804Y-55508824D01*
X151594245Y-55458669D01*
X151381536Y-55401673D01*
X151162168Y-55382481D01*
X150942799Y-55401673D01*
X150730090Y-55458669D01*
X150530517Y-55551732D01*
X150530515Y-55551733D01*
X150350130Y-55678040D01*
X150350126Y-55678043D01*
X150194422Y-55833747D01*
X150068111Y-56014138D01*
X150004550Y-56150445D01*
X149958793Y-56202621D01*
X149892168Y-56222040D01*
X149825543Y-56202621D01*
X149779786Y-56150445D01*
X149765802Y-56120457D01*
X149716224Y-56014136D01*
X149589917Y-55833751D01*
X149434206Y-55678040D01*
X149253822Y-55551733D01*
X149161804Y-55508824D01*
X149054245Y-55458669D01*
X148841536Y-55401673D01*
X148622168Y-55382481D01*
X148402799Y-55401673D01*
X148190090Y-55458669D01*
X147990517Y-55551732D01*
X147990515Y-55551733D01*
X147810130Y-55678040D01*
X147810126Y-55678043D01*
X147654422Y-55833747D01*
X147528111Y-56014138D01*
X147435048Y-56213711D01*
X147378052Y-56426420D01*
X147358860Y-56645788D01*
X127000000Y-56645788D01*
X127000000Y-54168634D01*
X209311500Y-54168634D01*
X209318011Y-54229205D01*
X209369110Y-54366203D01*
X209456738Y-54483261D01*
X209573796Y-54570889D01*
X209710794Y-54621988D01*
X209710797Y-54621988D01*
X209710799Y-54621989D01*
X209771362Y-54628500D01*
X211868634Y-54628500D01*
X211868638Y-54628500D01*
X211929201Y-54621989D01*
X211929203Y-54621988D01*
X211929205Y-54621988D01*
X212007124Y-54592924D01*
X212066204Y-54570889D01*
X212183261Y-54483261D01*
X212270889Y-54366204D01*
X212321989Y-54229201D01*
X212328500Y-54168638D01*
X212328500Y-52071362D01*
X212321989Y-52010799D01*
X212321988Y-52010797D01*
X212321988Y-52010794D01*
X212270889Y-51873796D01*
X212183261Y-51756738D01*
X212066203Y-51669110D01*
X211929205Y-51618011D01*
X211898919Y-51614755D01*
X211868638Y-51611500D01*
X209771362Y-51611500D01*
X209744445Y-51614393D01*
X209710794Y-51618011D01*
X209573796Y-51669110D01*
X209456738Y-51756738D01*
X209369110Y-51873796D01*
X209318011Y-52010794D01*
X209316781Y-52022241D01*
X209314098Y-52047201D01*
X209311500Y-52071366D01*
X209311500Y-54168634D01*
X127000000Y-54168634D01*
X127000000Y-51986638D01*
X144310500Y-51986638D01*
X144313192Y-52011677D01*
X144317011Y-52047205D01*
X144368110Y-52184203D01*
X144455738Y-52301261D01*
X144572796Y-52388889D01*
X144709794Y-52439988D01*
X144709797Y-52439988D01*
X144709799Y-52439989D01*
X144770362Y-52446500D01*
X146567634Y-52446500D01*
X146567638Y-52446500D01*
X146628201Y-52439989D01*
X146628203Y-52439988D01*
X146628205Y-52439988D01*
X146710097Y-52409443D01*
X146765204Y-52388889D01*
X146882261Y-52301261D01*
X146969889Y-52184204D01*
X147015137Y-52062889D01*
X147051089Y-52011677D01*
X147107471Y-51984539D01*
X147169925Y-51988387D01*
X147222548Y-52022241D01*
X147259969Y-52062890D01*
X147285760Y-52090906D01*
X147463424Y-52229189D01*
X147661426Y-52336342D01*
X147874365Y-52409444D01*
X148096431Y-52446500D01*
X148321569Y-52446500D01*
X148543635Y-52409444D01*
X148756574Y-52336342D01*
X148954576Y-52229189D01*
X149132240Y-52090906D01*
X149284722Y-51925268D01*
X149375190Y-51786795D01*
X149419982Y-51745561D01*
X149479000Y-51730616D01*
X149538018Y-51745561D01*
X149582809Y-51786795D01*
X149639649Y-51873796D01*
X149673278Y-51925268D01*
X149825760Y-52090906D01*
X150003424Y-52229189D01*
X150201426Y-52336342D01*
X150414365Y-52409444D01*
X150636431Y-52446500D01*
X150861569Y-52446500D01*
X151083635Y-52409444D01*
X151296574Y-52336342D01*
X151494576Y-52229189D01*
X151672240Y-52090906D01*
X151824722Y-51925268D01*
X151918748Y-51781349D01*
X151962663Y-51740595D01*
X152020562Y-51725188D01*
X152078926Y-51738726D01*
X152124131Y-51778048D01*
X152250892Y-51959080D01*
X152417918Y-52126106D01*
X152611423Y-52261600D01*
X152825507Y-52361430D01*
X153038999Y-52418635D01*
X153039000Y-52418636D01*
X153039000Y-52418635D01*
X153539000Y-52418635D01*
X153752492Y-52361430D01*
X153966576Y-52261600D01*
X154160081Y-52126106D01*
X154327106Y-51959081D01*
X154453868Y-51778048D01*
X154499072Y-51738726D01*
X154557436Y-51725188D01*
X154615335Y-51740595D01*
X154659252Y-51781351D01*
X154753276Y-51925267D01*
X154832011Y-52010794D01*
X154905760Y-52090906D01*
X155083424Y-52229189D01*
X155281426Y-52336342D01*
X155494365Y-52409444D01*
X155716431Y-52446500D01*
X155941569Y-52446500D01*
X156163635Y-52409444D01*
X156376574Y-52336342D01*
X156574576Y-52229189D01*
X156752240Y-52090906D01*
X156904722Y-51925268D01*
X156995190Y-51786795D01*
X157039982Y-51745561D01*
X157099000Y-51730616D01*
X157158018Y-51745561D01*
X157202809Y-51786795D01*
X157259649Y-51873796D01*
X157293278Y-51925268D01*
X157445760Y-52090906D01*
X157623424Y-52229189D01*
X157821426Y-52336342D01*
X158034365Y-52409444D01*
X158256431Y-52446500D01*
X158481569Y-52446500D01*
X158703635Y-52409444D01*
X158916574Y-52336342D01*
X159114576Y-52229189D01*
X159292240Y-52090906D01*
X159444722Y-51925268D01*
X159535190Y-51786795D01*
X159579982Y-51745561D01*
X159639000Y-51730616D01*
X159698018Y-51745561D01*
X159742809Y-51786795D01*
X159799649Y-51873796D01*
X159833278Y-51925268D01*
X159985760Y-52090906D01*
X160163424Y-52229189D01*
X160361426Y-52336342D01*
X160574365Y-52409444D01*
X160796431Y-52446500D01*
X161021569Y-52446500D01*
X161243635Y-52409444D01*
X161456574Y-52336342D01*
X161654576Y-52229189D01*
X161832240Y-52090906D01*
X161984722Y-51925268D01*
X162075190Y-51786795D01*
X162119982Y-51745561D01*
X162179000Y-51730616D01*
X162238018Y-51745561D01*
X162282809Y-51786795D01*
X162339649Y-51873796D01*
X162373278Y-51925268D01*
X162525760Y-52090906D01*
X162703424Y-52229189D01*
X162901426Y-52336342D01*
X163114365Y-52409444D01*
X163336431Y-52446500D01*
X163561569Y-52446500D01*
X163783635Y-52409444D01*
X163996574Y-52336342D01*
X164194576Y-52229189D01*
X164372240Y-52090906D01*
X164524722Y-51925268D01*
X164615190Y-51786795D01*
X164659982Y-51745561D01*
X164719000Y-51730616D01*
X164778018Y-51745561D01*
X164822809Y-51786795D01*
X164879649Y-51873796D01*
X164913278Y-51925268D01*
X165065760Y-52090906D01*
X165243424Y-52229189D01*
X165441426Y-52336342D01*
X165654365Y-52409444D01*
X165876431Y-52446500D01*
X166101569Y-52446500D01*
X166323635Y-52409444D01*
X166536574Y-52336342D01*
X166734576Y-52229189D01*
X166912240Y-52090906D01*
X167064722Y-51925268D01*
X167155190Y-51786795D01*
X167199982Y-51745561D01*
X167259000Y-51730616D01*
X167318018Y-51745561D01*
X167362809Y-51786795D01*
X167419649Y-51873796D01*
X167453278Y-51925268D01*
X167605760Y-52090906D01*
X167783424Y-52229189D01*
X167981426Y-52336342D01*
X168194365Y-52409444D01*
X168416431Y-52446500D01*
X168641569Y-52446500D01*
X168863635Y-52409444D01*
X169076574Y-52336342D01*
X169274576Y-52229189D01*
X169452240Y-52090906D01*
X169548226Y-51986638D01*
X171234500Y-51986638D01*
X171237192Y-52011677D01*
X171241011Y-52047205D01*
X171292110Y-52184203D01*
X171379738Y-52301261D01*
X171496796Y-52388889D01*
X171633794Y-52439988D01*
X171633797Y-52439988D01*
X171633799Y-52439989D01*
X171694362Y-52446500D01*
X173491634Y-52446500D01*
X173491638Y-52446500D01*
X173552201Y-52439989D01*
X173552203Y-52439988D01*
X173552205Y-52439988D01*
X173634097Y-52409443D01*
X173689204Y-52388889D01*
X173806261Y-52301261D01*
X173893889Y-52184204D01*
X173939137Y-52062889D01*
X173975089Y-52011677D01*
X174031471Y-51984539D01*
X174093925Y-51988387D01*
X174146548Y-52022241D01*
X174183969Y-52062890D01*
X174209760Y-52090906D01*
X174387424Y-52229189D01*
X174585426Y-52336342D01*
X174798365Y-52409444D01*
X175020431Y-52446500D01*
X175245569Y-52446500D01*
X175467635Y-52409444D01*
X175680574Y-52336342D01*
X175878576Y-52229189D01*
X176056240Y-52090906D01*
X176208722Y-51925268D01*
X176299190Y-51786795D01*
X176343982Y-51745561D01*
X176403000Y-51730616D01*
X176462018Y-51745561D01*
X176506809Y-51786795D01*
X176563649Y-51873796D01*
X176597278Y-51925268D01*
X176749760Y-52090906D01*
X176927424Y-52229189D01*
X177125426Y-52336342D01*
X177171925Y-52352305D01*
X177223752Y-52386548D01*
X177252469Y-52441635D01*
X177250865Y-52503736D01*
X177219342Y-52557266D01*
X177163889Y-52612719D01*
X177066957Y-52766984D01*
X177006782Y-52938955D01*
X176986383Y-53120000D01*
X177006782Y-53301044D01*
X177006782Y-53301046D01*
X177006783Y-53301047D01*
X177066957Y-53473015D01*
X177163889Y-53627281D01*
X177292719Y-53756111D01*
X177446985Y-53853043D01*
X177618953Y-53913217D01*
X177800000Y-53933616D01*
X177981047Y-53913217D01*
X178153015Y-53853043D01*
X178281189Y-53772505D01*
X178347160Y-53753500D01*
X195032840Y-53753500D01*
X195098810Y-53772505D01*
X195226985Y-53853043D01*
X195398953Y-53913217D01*
X195580000Y-53933616D01*
X195761047Y-53913217D01*
X195933015Y-53853043D01*
X196087281Y-53756111D01*
X196216111Y-53627281D01*
X196313043Y-53473015D01*
X196373217Y-53301047D01*
X196393616Y-53120000D01*
X196373217Y-52938953D01*
X196313043Y-52766985D01*
X196216111Y-52612719D01*
X196087281Y-52483889D01*
X195933015Y-52386957D01*
X195761047Y-52326783D01*
X195761046Y-52326782D01*
X195761044Y-52326782D01*
X195579999Y-52306383D01*
X195398955Y-52326782D01*
X195226984Y-52386957D01*
X195176568Y-52418636D01*
X195098810Y-52467494D01*
X195032840Y-52486500D01*
X191132771Y-52486500D01*
X191070180Y-52469544D01*
X191024707Y-52423312D01*
X191008788Y-52360450D01*
X191026777Y-52298148D01*
X191073753Y-52253445D01*
X191118576Y-52229189D01*
X191296240Y-52090906D01*
X191448722Y-51925268D01*
X191571860Y-51736791D01*
X191662296Y-51530616D01*
X191717564Y-51312368D01*
X191736156Y-51088000D01*
X191717564Y-50863632D01*
X191662296Y-50645384D01*
X191571860Y-50439209D01*
X191448722Y-50250732D01*
X191296240Y-50085094D01*
X191118576Y-49946811D01*
X190920574Y-49839658D01*
X190920573Y-49839657D01*
X190920572Y-49839657D01*
X190707636Y-49766556D01*
X190485569Y-49729500D01*
X190260431Y-49729500D01*
X190038363Y-49766556D01*
X189825427Y-49839657D01*
X189627424Y-49946811D01*
X189449760Y-50085094D01*
X189297279Y-50250730D01*
X189206809Y-50389205D01*
X189162017Y-50430438D01*
X189103000Y-50445383D01*
X189043983Y-50430438D01*
X188999191Y-50389205D01*
X188908723Y-50250734D01*
X188908722Y-50250732D01*
X188756240Y-50085094D01*
X188578576Y-49946811D01*
X188380574Y-49839658D01*
X188380573Y-49839657D01*
X188380572Y-49839657D01*
X188167636Y-49766556D01*
X187945569Y-49729500D01*
X187720431Y-49729500D01*
X187498363Y-49766556D01*
X187285427Y-49839657D01*
X187087424Y-49946811D01*
X186909760Y-50085094D01*
X186757279Y-50250730D01*
X186666809Y-50389205D01*
X186622017Y-50430438D01*
X186563000Y-50445383D01*
X186503983Y-50430438D01*
X186459191Y-50389205D01*
X186368723Y-50250734D01*
X186368722Y-50250732D01*
X186216240Y-50085094D01*
X186038576Y-49946811D01*
X185840574Y-49839658D01*
X185840573Y-49839657D01*
X185840572Y-49839657D01*
X185627636Y-49766556D01*
X185405569Y-49729500D01*
X185180431Y-49729500D01*
X184958363Y-49766556D01*
X184745427Y-49839657D01*
X184547424Y-49946811D01*
X184369760Y-50085094D01*
X184217279Y-50250730D01*
X184126809Y-50389205D01*
X184082017Y-50430438D01*
X184023000Y-50445383D01*
X183963983Y-50430438D01*
X183919191Y-50389205D01*
X183828723Y-50250734D01*
X183828722Y-50250732D01*
X183676240Y-50085094D01*
X183498576Y-49946811D01*
X183300574Y-49839658D01*
X183300573Y-49839657D01*
X183300572Y-49839657D01*
X183087636Y-49766556D01*
X182865569Y-49729500D01*
X182640431Y-49729500D01*
X182418363Y-49766556D01*
X182205427Y-49839657D01*
X182007424Y-49946811D01*
X181829760Y-50085094D01*
X181677279Y-50250730D01*
X181586809Y-50389205D01*
X181542017Y-50430438D01*
X181483000Y-50445383D01*
X181423983Y-50430438D01*
X181379191Y-50389205D01*
X181288723Y-50250734D01*
X181288722Y-50250732D01*
X181136240Y-50085094D01*
X180958576Y-49946811D01*
X180760574Y-49839658D01*
X180760573Y-49839657D01*
X180760572Y-49839657D01*
X180547636Y-49766556D01*
X180325569Y-49729500D01*
X180100431Y-49729500D01*
X179878363Y-49766556D01*
X179665427Y-49839657D01*
X179467424Y-49946811D01*
X179289760Y-50085094D01*
X179137279Y-50250730D01*
X179046809Y-50389205D01*
X179002017Y-50430438D01*
X178943000Y-50445383D01*
X178883983Y-50430438D01*
X178839191Y-50389205D01*
X178748723Y-50250734D01*
X178748722Y-50250732D01*
X178596240Y-50085094D01*
X178418576Y-49946811D01*
X178220574Y-49839658D01*
X178220573Y-49839657D01*
X178220572Y-49839657D01*
X178007636Y-49766556D01*
X177785569Y-49729500D01*
X177560431Y-49729500D01*
X177338363Y-49766556D01*
X177125427Y-49839657D01*
X176927424Y-49946811D01*
X176749760Y-50085094D01*
X176597279Y-50250730D01*
X176506809Y-50389205D01*
X176462017Y-50430438D01*
X176403000Y-50445383D01*
X176343983Y-50430438D01*
X176299191Y-50389205D01*
X176208723Y-50250734D01*
X176208722Y-50250732D01*
X176056240Y-50085094D01*
X175878576Y-49946811D01*
X175680574Y-49839658D01*
X175680573Y-49839657D01*
X175680572Y-49839657D01*
X175467636Y-49766556D01*
X175245569Y-49729500D01*
X175020431Y-49729500D01*
X174798363Y-49766556D01*
X174585427Y-49839657D01*
X174387424Y-49946811D01*
X174209759Y-50085094D01*
X174146548Y-50153759D01*
X174093924Y-50187612D01*
X174031470Y-50191460D01*
X173975089Y-50164322D01*
X173939138Y-50113110D01*
X173914427Y-50046861D01*
X173893889Y-49991796D01*
X173835951Y-49914400D01*
X173806261Y-49874738D01*
X173689203Y-49787110D01*
X173552205Y-49736011D01*
X173521919Y-49732755D01*
X173491638Y-49729500D01*
X171694362Y-49729500D01*
X171667445Y-49732393D01*
X171633794Y-49736011D01*
X171496796Y-49787110D01*
X171379738Y-49874738D01*
X171292110Y-49991796D01*
X171241011Y-50128794D01*
X171237393Y-50162445D01*
X171234500Y-50189362D01*
X171234500Y-51986638D01*
X169548226Y-51986638D01*
X169604722Y-51925268D01*
X169727860Y-51736791D01*
X169818296Y-51530616D01*
X169873564Y-51312368D01*
X169892156Y-51088000D01*
X169873564Y-50863632D01*
X169818296Y-50645384D01*
X169727860Y-50439209D01*
X169604722Y-50250732D01*
X169452240Y-50085094D01*
X169274576Y-49946811D01*
X169076574Y-49839658D01*
X169076573Y-49839657D01*
X169076572Y-49839657D01*
X168863636Y-49766556D01*
X168641569Y-49729500D01*
X168416431Y-49729500D01*
X168194363Y-49766556D01*
X167981427Y-49839657D01*
X167783424Y-49946811D01*
X167605760Y-50085094D01*
X167453279Y-50250730D01*
X167362809Y-50389205D01*
X167318017Y-50430438D01*
X167259000Y-50445383D01*
X167199983Y-50430438D01*
X167155191Y-50389205D01*
X167064723Y-50250734D01*
X167064722Y-50250732D01*
X166912240Y-50085094D01*
X166734576Y-49946811D01*
X166536574Y-49839658D01*
X166536573Y-49839657D01*
X166536572Y-49839657D01*
X166323636Y-49766556D01*
X166101569Y-49729500D01*
X165876431Y-49729500D01*
X165654363Y-49766556D01*
X165441427Y-49839657D01*
X165243424Y-49946811D01*
X165065760Y-50085094D01*
X164913279Y-50250730D01*
X164822809Y-50389205D01*
X164778017Y-50430438D01*
X164719000Y-50445383D01*
X164659983Y-50430438D01*
X164615191Y-50389205D01*
X164524723Y-50250734D01*
X164524722Y-50250732D01*
X164372240Y-50085094D01*
X164194576Y-49946811D01*
X163996574Y-49839658D01*
X163996573Y-49839657D01*
X163996572Y-49839657D01*
X163783636Y-49766556D01*
X163561569Y-49729500D01*
X163336431Y-49729500D01*
X163114363Y-49766556D01*
X162901427Y-49839657D01*
X162703424Y-49946811D01*
X162525760Y-50085094D01*
X162373279Y-50250730D01*
X162282809Y-50389205D01*
X162238017Y-50430438D01*
X162179000Y-50445383D01*
X162119983Y-50430438D01*
X162075191Y-50389205D01*
X161984723Y-50250734D01*
X161984722Y-50250732D01*
X161832240Y-50085094D01*
X161654576Y-49946811D01*
X161456574Y-49839658D01*
X161456573Y-49839657D01*
X161456572Y-49839657D01*
X161243636Y-49766556D01*
X161021569Y-49729500D01*
X160796431Y-49729500D01*
X160574363Y-49766556D01*
X160361427Y-49839657D01*
X160163424Y-49946811D01*
X159985760Y-50085094D01*
X159833279Y-50250730D01*
X159742809Y-50389205D01*
X159698017Y-50430438D01*
X159639000Y-50445383D01*
X159579983Y-50430438D01*
X159535191Y-50389205D01*
X159444723Y-50250734D01*
X159444722Y-50250732D01*
X159292240Y-50085094D01*
X159114576Y-49946811D01*
X158916574Y-49839658D01*
X158916573Y-49839657D01*
X158916572Y-49839657D01*
X158703636Y-49766556D01*
X158481569Y-49729500D01*
X158256431Y-49729500D01*
X158034363Y-49766556D01*
X157821427Y-49839657D01*
X157623424Y-49946811D01*
X157445760Y-50085094D01*
X157293279Y-50250730D01*
X157202809Y-50389205D01*
X157158017Y-50430438D01*
X157099000Y-50445383D01*
X157039983Y-50430438D01*
X156995191Y-50389205D01*
X156904723Y-50250734D01*
X156904722Y-50250732D01*
X156752240Y-50085094D01*
X156574576Y-49946811D01*
X156376574Y-49839658D01*
X156376573Y-49839657D01*
X156376572Y-49839657D01*
X156163636Y-49766556D01*
X155941569Y-49729500D01*
X155716431Y-49729500D01*
X155494363Y-49766556D01*
X155281427Y-49839657D01*
X155083424Y-49946811D01*
X154905760Y-50085094D01*
X154753275Y-50250734D01*
X154659250Y-50394650D01*
X154615334Y-50435405D01*
X154557435Y-50450812D01*
X154499071Y-50437274D01*
X154453867Y-50397951D01*
X154327109Y-50216921D01*
X154160081Y-50049893D01*
X153966576Y-49914399D01*
X153752492Y-49814569D01*
X153539000Y-49757364D01*
X153539000Y-52418635D01*
X153039000Y-52418635D01*
X153039000Y-49757364D01*
X153038999Y-49757364D01*
X152825507Y-49814569D01*
X152611421Y-49914400D01*
X152417921Y-50049890D01*
X152250893Y-50216918D01*
X152124132Y-50397952D01*
X152078928Y-50437274D01*
X152020564Y-50450812D01*
X151962665Y-50435405D01*
X151918748Y-50394649D01*
X151824723Y-50250732D01*
X151735451Y-50153759D01*
X151672240Y-50085094D01*
X151494576Y-49946811D01*
X151296574Y-49839658D01*
X151296573Y-49839657D01*
X151296572Y-49839657D01*
X151083636Y-49766556D01*
X150861569Y-49729500D01*
X150636431Y-49729500D01*
X150414363Y-49766556D01*
X150201427Y-49839657D01*
X150003424Y-49946811D01*
X149825760Y-50085094D01*
X149673279Y-50250730D01*
X149582809Y-50389205D01*
X149538017Y-50430438D01*
X149479000Y-50445383D01*
X149419983Y-50430438D01*
X149375191Y-50389205D01*
X149284723Y-50250734D01*
X149284722Y-50250732D01*
X149132240Y-50085094D01*
X148954576Y-49946811D01*
X148756574Y-49839658D01*
X148756573Y-49839657D01*
X148756572Y-49839657D01*
X148543636Y-49766556D01*
X148321569Y-49729500D01*
X148096431Y-49729500D01*
X147874363Y-49766556D01*
X147661427Y-49839657D01*
X147463424Y-49946811D01*
X147285759Y-50085094D01*
X147222548Y-50153759D01*
X147169924Y-50187612D01*
X147107470Y-50191460D01*
X147051089Y-50164322D01*
X147015138Y-50113110D01*
X146990427Y-50046861D01*
X146969889Y-49991796D01*
X146911951Y-49914400D01*
X146882261Y-49874738D01*
X146765203Y-49787110D01*
X146628205Y-49736011D01*
X146597919Y-49732755D01*
X146567638Y-49729500D01*
X144770362Y-49729500D01*
X144743445Y-49732393D01*
X144709794Y-49736011D01*
X144572796Y-49787110D01*
X144455738Y-49874738D01*
X144368110Y-49991796D01*
X144317011Y-50128794D01*
X144313393Y-50162445D01*
X144310500Y-50189362D01*
X144310500Y-51986638D01*
X127000000Y-51986638D01*
X127000000Y-50619234D01*
X127002031Y-50596882D01*
X127018763Y-50505578D01*
X127022341Y-50491060D01*
X127106428Y-50221210D01*
X127111723Y-50207251D01*
X127227721Y-49949516D01*
X127234664Y-49936287D01*
X127380884Y-49694407D01*
X127389371Y-49682112D01*
X127563678Y-49459626D01*
X127573593Y-49448435D01*
X127773435Y-49248593D01*
X127784626Y-49238678D01*
X128007112Y-49064371D01*
X128019407Y-49055884D01*
X128261287Y-48909664D01*
X128274516Y-48902721D01*
X128532251Y-48786723D01*
X128546210Y-48781428D01*
X128816060Y-48697341D01*
X128830574Y-48693763D01*
X129108562Y-48642820D01*
X129123420Y-48641016D01*
X129409263Y-48623726D01*
X129416751Y-48623500D01*
X129437531Y-48623500D01*
X215748469Y-48623500D01*
X215769249Y-48623500D01*
X215776736Y-48623726D01*
G37*
%TD.AperFunction*%
%TD*%
M02*
