%TF.GenerationSoftware,KiCad,Pcbnew,7.0.1-0*%
%TF.CreationDate,2023-04-12T16:12:06-06:00*%
%TF.ProjectId,Arduino_Uno_Kitchen_Timer,41726475-696e-46f5-9f55-6e6f5f4b6974,rev?*%
%TF.SameCoordinates,Original*%
%TF.FileFunction,Legend,Top*%
%TF.FilePolarity,Positive*%
%FSLAX46Y46*%
G04 Gerber Fmt 4.6, Leading zero omitted, Abs format (unit mm)*
G04 Created by KiCad (PCBNEW 7.0.1-0) date 2023-04-12 16:12:06*
%MOMM*%
%LPD*%
G01*
G04 APERTURE LIST*
%ADD10C,0.150000*%
%ADD11C,0.120000*%
G04 APERTURE END LIST*
D10*
X129351567Y-99727017D02*
X129351567Y-98227017D01*
X130208710Y-99727017D02*
X129565853Y-98869874D01*
X130208710Y-98227017D02*
X129351567Y-99084160D01*
X130851567Y-99727017D02*
X130851567Y-98727017D01*
X130851567Y-98227017D02*
X130780139Y-98298446D01*
X130780139Y-98298446D02*
X130851567Y-98369874D01*
X130851567Y-98369874D02*
X130922996Y-98298446D01*
X130922996Y-98298446D02*
X130851567Y-98227017D01*
X130851567Y-98227017D02*
X130851567Y-98369874D01*
X131351568Y-98727017D02*
X131922996Y-98727017D01*
X131565853Y-98227017D02*
X131565853Y-99512731D01*
X131565853Y-99512731D02*
X131637282Y-99655589D01*
X131637282Y-99655589D02*
X131780139Y-99727017D01*
X131780139Y-99727017D02*
X131922996Y-99727017D01*
X133065854Y-99655589D02*
X132922996Y-99727017D01*
X132922996Y-99727017D02*
X132637282Y-99727017D01*
X132637282Y-99727017D02*
X132494425Y-99655589D01*
X132494425Y-99655589D02*
X132422996Y-99584160D01*
X132422996Y-99584160D02*
X132351568Y-99441303D01*
X132351568Y-99441303D02*
X132351568Y-99012731D01*
X132351568Y-99012731D02*
X132422996Y-98869874D01*
X132422996Y-98869874D02*
X132494425Y-98798446D01*
X132494425Y-98798446D02*
X132637282Y-98727017D01*
X132637282Y-98727017D02*
X132922996Y-98727017D01*
X132922996Y-98727017D02*
X133065854Y-98798446D01*
X133708710Y-99727017D02*
X133708710Y-98227017D01*
X134351568Y-99727017D02*
X134351568Y-98941303D01*
X134351568Y-98941303D02*
X134280139Y-98798446D01*
X134280139Y-98798446D02*
X134137282Y-98727017D01*
X134137282Y-98727017D02*
X133922996Y-98727017D01*
X133922996Y-98727017D02*
X133780139Y-98798446D01*
X133780139Y-98798446D02*
X133708710Y-98869874D01*
X135637282Y-99655589D02*
X135494425Y-99727017D01*
X135494425Y-99727017D02*
X135208711Y-99727017D01*
X135208711Y-99727017D02*
X135065853Y-99655589D01*
X135065853Y-99655589D02*
X134994425Y-99512731D01*
X134994425Y-99512731D02*
X134994425Y-98941303D01*
X134994425Y-98941303D02*
X135065853Y-98798446D01*
X135065853Y-98798446D02*
X135208711Y-98727017D01*
X135208711Y-98727017D02*
X135494425Y-98727017D01*
X135494425Y-98727017D02*
X135637282Y-98798446D01*
X135637282Y-98798446D02*
X135708711Y-98941303D01*
X135708711Y-98941303D02*
X135708711Y-99084160D01*
X135708711Y-99084160D02*
X134994425Y-99227017D01*
X136351567Y-98727017D02*
X136351567Y-99727017D01*
X136351567Y-98869874D02*
X136422996Y-98798446D01*
X136422996Y-98798446D02*
X136565853Y-98727017D01*
X136565853Y-98727017D02*
X136780139Y-98727017D01*
X136780139Y-98727017D02*
X136922996Y-98798446D01*
X136922996Y-98798446D02*
X136994425Y-98941303D01*
X136994425Y-98941303D02*
X136994425Y-99727017D01*
X138637282Y-98227017D02*
X139494425Y-98227017D01*
X139065853Y-99727017D02*
X139065853Y-98227017D01*
X139994424Y-99727017D02*
X139994424Y-98727017D01*
X139994424Y-98227017D02*
X139922996Y-98298446D01*
X139922996Y-98298446D02*
X139994424Y-98369874D01*
X139994424Y-98369874D02*
X140065853Y-98298446D01*
X140065853Y-98298446D02*
X139994424Y-98227017D01*
X139994424Y-98227017D02*
X139994424Y-98369874D01*
X140708710Y-99727017D02*
X140708710Y-98727017D01*
X140708710Y-98869874D02*
X140780139Y-98798446D01*
X140780139Y-98798446D02*
X140922996Y-98727017D01*
X140922996Y-98727017D02*
X141137282Y-98727017D01*
X141137282Y-98727017D02*
X141280139Y-98798446D01*
X141280139Y-98798446D02*
X141351568Y-98941303D01*
X141351568Y-98941303D02*
X141351568Y-99727017D01*
X141351568Y-98941303D02*
X141422996Y-98798446D01*
X141422996Y-98798446D02*
X141565853Y-98727017D01*
X141565853Y-98727017D02*
X141780139Y-98727017D01*
X141780139Y-98727017D02*
X141922996Y-98798446D01*
X141922996Y-98798446D02*
X141994425Y-98941303D01*
X141994425Y-98941303D02*
X141994425Y-99727017D01*
X143280139Y-99655589D02*
X143137282Y-99727017D01*
X143137282Y-99727017D02*
X142851568Y-99727017D01*
X142851568Y-99727017D02*
X142708710Y-99655589D01*
X142708710Y-99655589D02*
X142637282Y-99512731D01*
X142637282Y-99512731D02*
X142637282Y-98941303D01*
X142637282Y-98941303D02*
X142708710Y-98798446D01*
X142708710Y-98798446D02*
X142851568Y-98727017D01*
X142851568Y-98727017D02*
X143137282Y-98727017D01*
X143137282Y-98727017D02*
X143280139Y-98798446D01*
X143280139Y-98798446D02*
X143351568Y-98941303D01*
X143351568Y-98941303D02*
X143351568Y-99084160D01*
X143351568Y-99084160D02*
X142637282Y-99227017D01*
X143994424Y-99727017D02*
X143994424Y-98727017D01*
X143994424Y-99012731D02*
X144065853Y-98869874D01*
X144065853Y-98869874D02*
X144137282Y-98798446D01*
X144137282Y-98798446D02*
X144280139Y-98727017D01*
X144280139Y-98727017D02*
X144422996Y-98727017D01*
X145922995Y-98727017D02*
X146280138Y-99727017D01*
X146280138Y-99727017D02*
X146637281Y-98727017D01*
X147994424Y-99727017D02*
X147137281Y-99727017D01*
X147565852Y-99727017D02*
X147565852Y-98227017D01*
X147565852Y-98227017D02*
X147422995Y-98441303D01*
X147422995Y-98441303D02*
X147280138Y-98584160D01*
X147280138Y-98584160D02*
X147137281Y-98655589D01*
X148637280Y-99584160D02*
X148708709Y-99655589D01*
X148708709Y-99655589D02*
X148637280Y-99727017D01*
X148637280Y-99727017D02*
X148565852Y-99655589D01*
X148565852Y-99655589D02*
X148637280Y-99584160D01*
X148637280Y-99584160D02*
X148637280Y-99727017D01*
X149637281Y-98227017D02*
X149780138Y-98227017D01*
X149780138Y-98227017D02*
X149922995Y-98298446D01*
X149922995Y-98298446D02*
X149994424Y-98369874D01*
X149994424Y-98369874D02*
X150065852Y-98512731D01*
X150065852Y-98512731D02*
X150137281Y-98798446D01*
X150137281Y-98798446D02*
X150137281Y-99155589D01*
X150137281Y-99155589D02*
X150065852Y-99441303D01*
X150065852Y-99441303D02*
X149994424Y-99584160D01*
X149994424Y-99584160D02*
X149922995Y-99655589D01*
X149922995Y-99655589D02*
X149780138Y-99727017D01*
X149780138Y-99727017D02*
X149637281Y-99727017D01*
X149637281Y-99727017D02*
X149494424Y-99655589D01*
X149494424Y-99655589D02*
X149422995Y-99584160D01*
X149422995Y-99584160D02*
X149351566Y-99441303D01*
X149351566Y-99441303D02*
X149280138Y-99155589D01*
X149280138Y-99155589D02*
X149280138Y-98798446D01*
X149280138Y-98798446D02*
X149351566Y-98512731D01*
X149351566Y-98512731D02*
X149422995Y-98369874D01*
X149422995Y-98369874D02*
X149494424Y-98298446D01*
X149494424Y-98298446D02*
X149637281Y-98227017D01*
X204856628Y-99383879D02*
X205570914Y-99383879D01*
X204713771Y-99812450D02*
X205213771Y-98312450D01*
X205213771Y-98312450D02*
X205713771Y-99812450D01*
X206213770Y-98812450D02*
X206213770Y-100312450D01*
X206213770Y-98883879D02*
X206356628Y-98812450D01*
X206356628Y-98812450D02*
X206642342Y-98812450D01*
X206642342Y-98812450D02*
X206785199Y-98883879D01*
X206785199Y-98883879D02*
X206856628Y-98955307D01*
X206856628Y-98955307D02*
X206928056Y-99098164D01*
X206928056Y-99098164D02*
X206928056Y-99526736D01*
X206928056Y-99526736D02*
X206856628Y-99669593D01*
X206856628Y-99669593D02*
X206785199Y-99741022D01*
X206785199Y-99741022D02*
X206642342Y-99812450D01*
X206642342Y-99812450D02*
X206356628Y-99812450D01*
X206356628Y-99812450D02*
X206213770Y-99741022D01*
X207570913Y-99812450D02*
X207570913Y-98812450D01*
X207570913Y-99098164D02*
X207642342Y-98955307D01*
X207642342Y-98955307D02*
X207713771Y-98883879D01*
X207713771Y-98883879D02*
X207856628Y-98812450D01*
X207856628Y-98812450D02*
X207999485Y-98812450D01*
X208499484Y-99812450D02*
X208499484Y-98812450D01*
X208499484Y-98312450D02*
X208428056Y-98383879D01*
X208428056Y-98383879D02*
X208499484Y-98455307D01*
X208499484Y-98455307D02*
X208570913Y-98383879D01*
X208570913Y-98383879D02*
X208499484Y-98312450D01*
X208499484Y-98312450D02*
X208499484Y-98455307D01*
X209428056Y-99812450D02*
X209285199Y-99741022D01*
X209285199Y-99741022D02*
X209213770Y-99598164D01*
X209213770Y-99598164D02*
X209213770Y-98312450D01*
X211070913Y-98455307D02*
X211142341Y-98383879D01*
X211142341Y-98383879D02*
X211285199Y-98312450D01*
X211285199Y-98312450D02*
X211642341Y-98312450D01*
X211642341Y-98312450D02*
X211785199Y-98383879D01*
X211785199Y-98383879D02*
X211856627Y-98455307D01*
X211856627Y-98455307D02*
X211928056Y-98598164D01*
X211928056Y-98598164D02*
X211928056Y-98741022D01*
X211928056Y-98741022D02*
X211856627Y-98955307D01*
X211856627Y-98955307D02*
X210999484Y-99812450D01*
X210999484Y-99812450D02*
X211928056Y-99812450D01*
X212856627Y-98312450D02*
X212999484Y-98312450D01*
X212999484Y-98312450D02*
X213142341Y-98383879D01*
X213142341Y-98383879D02*
X213213770Y-98455307D01*
X213213770Y-98455307D02*
X213285198Y-98598164D01*
X213285198Y-98598164D02*
X213356627Y-98883879D01*
X213356627Y-98883879D02*
X213356627Y-99241022D01*
X213356627Y-99241022D02*
X213285198Y-99526736D01*
X213285198Y-99526736D02*
X213213770Y-99669593D01*
X213213770Y-99669593D02*
X213142341Y-99741022D01*
X213142341Y-99741022D02*
X212999484Y-99812450D01*
X212999484Y-99812450D02*
X212856627Y-99812450D01*
X212856627Y-99812450D02*
X212713770Y-99741022D01*
X212713770Y-99741022D02*
X212642341Y-99669593D01*
X212642341Y-99669593D02*
X212570912Y-99526736D01*
X212570912Y-99526736D02*
X212499484Y-99241022D01*
X212499484Y-99241022D02*
X212499484Y-98883879D01*
X212499484Y-98883879D02*
X212570912Y-98598164D01*
X212570912Y-98598164D02*
X212642341Y-98455307D01*
X212642341Y-98455307D02*
X212713770Y-98383879D01*
X212713770Y-98383879D02*
X212856627Y-98312450D01*
X213928055Y-98455307D02*
X213999483Y-98383879D01*
X213999483Y-98383879D02*
X214142341Y-98312450D01*
X214142341Y-98312450D02*
X214499483Y-98312450D01*
X214499483Y-98312450D02*
X214642341Y-98383879D01*
X214642341Y-98383879D02*
X214713769Y-98455307D01*
X214713769Y-98455307D02*
X214785198Y-98598164D01*
X214785198Y-98598164D02*
X214785198Y-98741022D01*
X214785198Y-98741022D02*
X214713769Y-98955307D01*
X214713769Y-98955307D02*
X213856626Y-99812450D01*
X213856626Y-99812450D02*
X214785198Y-99812450D01*
X215285197Y-98312450D02*
X216213769Y-98312450D01*
X216213769Y-98312450D02*
X215713769Y-98883879D01*
X215713769Y-98883879D02*
X215928054Y-98883879D01*
X215928054Y-98883879D02*
X216070912Y-98955307D01*
X216070912Y-98955307D02*
X216142340Y-99026736D01*
X216142340Y-99026736D02*
X216213769Y-99169593D01*
X216213769Y-99169593D02*
X216213769Y-99526736D01*
X216213769Y-99526736D02*
X216142340Y-99669593D01*
X216142340Y-99669593D02*
X216070912Y-99741022D01*
X216070912Y-99741022D02*
X215928054Y-99812450D01*
X215928054Y-99812450D02*
X215499483Y-99812450D01*
X215499483Y-99812450D02*
X215356626Y-99741022D01*
X215356626Y-99741022D02*
X215285197Y-99669593D01*
%TO.C,R10*%
X140781542Y-81560181D02*
X140305351Y-81893514D01*
X140781542Y-82131609D02*
X139781542Y-82131609D01*
X139781542Y-82131609D02*
X139781542Y-81750657D01*
X139781542Y-81750657D02*
X139829161Y-81655419D01*
X139829161Y-81655419D02*
X139876780Y-81607800D01*
X139876780Y-81607800D02*
X139972018Y-81560181D01*
X139972018Y-81560181D02*
X140114875Y-81560181D01*
X140114875Y-81560181D02*
X140210113Y-81607800D01*
X140210113Y-81607800D02*
X140257732Y-81655419D01*
X140257732Y-81655419D02*
X140305351Y-81750657D01*
X140305351Y-81750657D02*
X140305351Y-82131609D01*
X140781542Y-80607800D02*
X140781542Y-81179228D01*
X140781542Y-80893514D02*
X139781542Y-80893514D01*
X139781542Y-80893514D02*
X139924399Y-80988752D01*
X139924399Y-80988752D02*
X140019637Y-81083990D01*
X140019637Y-81083990D02*
X140067256Y-81179228D01*
X139781542Y-79988752D02*
X139781542Y-79893514D01*
X139781542Y-79893514D02*
X139829161Y-79798276D01*
X139829161Y-79798276D02*
X139876780Y-79750657D01*
X139876780Y-79750657D02*
X139972018Y-79703038D01*
X139972018Y-79703038D02*
X140162494Y-79655419D01*
X140162494Y-79655419D02*
X140400589Y-79655419D01*
X140400589Y-79655419D02*
X140591065Y-79703038D01*
X140591065Y-79703038D02*
X140686303Y-79750657D01*
X140686303Y-79750657D02*
X140733923Y-79798276D01*
X140733923Y-79798276D02*
X140781542Y-79893514D01*
X140781542Y-79893514D02*
X140781542Y-79988752D01*
X140781542Y-79988752D02*
X140733923Y-80083990D01*
X140733923Y-80083990D02*
X140686303Y-80131609D01*
X140686303Y-80131609D02*
X140591065Y-80179228D01*
X140591065Y-80179228D02*
X140400589Y-80226847D01*
X140400589Y-80226847D02*
X140162494Y-80226847D01*
X140162494Y-80226847D02*
X139972018Y-80179228D01*
X139972018Y-80179228D02*
X139876780Y-80131609D01*
X139876780Y-80131609D02*
X139829161Y-80083990D01*
X139829161Y-80083990D02*
X139781542Y-79988752D01*
%TO.C,SW1*%
X203456849Y-88664689D02*
X203599706Y-88712308D01*
X203599706Y-88712308D02*
X203837801Y-88712308D01*
X203837801Y-88712308D02*
X203933039Y-88664689D01*
X203933039Y-88664689D02*
X203980658Y-88617069D01*
X203980658Y-88617069D02*
X204028277Y-88521831D01*
X204028277Y-88521831D02*
X204028277Y-88426593D01*
X204028277Y-88426593D02*
X203980658Y-88331355D01*
X203980658Y-88331355D02*
X203933039Y-88283736D01*
X203933039Y-88283736D02*
X203837801Y-88236117D01*
X203837801Y-88236117D02*
X203647325Y-88188498D01*
X203647325Y-88188498D02*
X203552087Y-88140879D01*
X203552087Y-88140879D02*
X203504468Y-88093260D01*
X203504468Y-88093260D02*
X203456849Y-87998022D01*
X203456849Y-87998022D02*
X203456849Y-87902784D01*
X203456849Y-87902784D02*
X203504468Y-87807546D01*
X203504468Y-87807546D02*
X203552087Y-87759927D01*
X203552087Y-87759927D02*
X203647325Y-87712308D01*
X203647325Y-87712308D02*
X203885420Y-87712308D01*
X203885420Y-87712308D02*
X204028277Y-87759927D01*
X204361611Y-87712308D02*
X204599706Y-88712308D01*
X204599706Y-88712308D02*
X204790182Y-87998022D01*
X204790182Y-87998022D02*
X204980658Y-88712308D01*
X204980658Y-88712308D02*
X205218754Y-87712308D01*
X206123515Y-88712308D02*
X205552087Y-88712308D01*
X205837801Y-88712308D02*
X205837801Y-87712308D01*
X205837801Y-87712308D02*
X205742563Y-87855165D01*
X205742563Y-87855165D02*
X205647325Y-87950403D01*
X205647325Y-87950403D02*
X205552087Y-87998022D01*
%TO.C,SW2*%
X185162359Y-89013648D02*
X185305216Y-89061267D01*
X185305216Y-89061267D02*
X185543311Y-89061267D01*
X185543311Y-89061267D02*
X185638549Y-89013648D01*
X185638549Y-89013648D02*
X185686168Y-88966028D01*
X185686168Y-88966028D02*
X185733787Y-88870790D01*
X185733787Y-88870790D02*
X185733787Y-88775552D01*
X185733787Y-88775552D02*
X185686168Y-88680314D01*
X185686168Y-88680314D02*
X185638549Y-88632695D01*
X185638549Y-88632695D02*
X185543311Y-88585076D01*
X185543311Y-88585076D02*
X185352835Y-88537457D01*
X185352835Y-88537457D02*
X185257597Y-88489838D01*
X185257597Y-88489838D02*
X185209978Y-88442219D01*
X185209978Y-88442219D02*
X185162359Y-88346981D01*
X185162359Y-88346981D02*
X185162359Y-88251743D01*
X185162359Y-88251743D02*
X185209978Y-88156505D01*
X185209978Y-88156505D02*
X185257597Y-88108886D01*
X185257597Y-88108886D02*
X185352835Y-88061267D01*
X185352835Y-88061267D02*
X185590930Y-88061267D01*
X185590930Y-88061267D02*
X185733787Y-88108886D01*
X186067121Y-88061267D02*
X186305216Y-89061267D01*
X186305216Y-89061267D02*
X186495692Y-88346981D01*
X186495692Y-88346981D02*
X186686168Y-89061267D01*
X186686168Y-89061267D02*
X186924264Y-88061267D01*
X187257597Y-88156505D02*
X187305216Y-88108886D01*
X187305216Y-88108886D02*
X187400454Y-88061267D01*
X187400454Y-88061267D02*
X187638549Y-88061267D01*
X187638549Y-88061267D02*
X187733787Y-88108886D01*
X187733787Y-88108886D02*
X187781406Y-88156505D01*
X187781406Y-88156505D02*
X187829025Y-88251743D01*
X187829025Y-88251743D02*
X187829025Y-88346981D01*
X187829025Y-88346981D02*
X187781406Y-88489838D01*
X187781406Y-88489838D02*
X187209978Y-89061267D01*
X187209978Y-89061267D02*
X187829025Y-89061267D01*
%TO.C,R8*%
X148006615Y-81178514D02*
X147530424Y-81511847D01*
X148006615Y-81749942D02*
X147006615Y-81749942D01*
X147006615Y-81749942D02*
X147006615Y-81368990D01*
X147006615Y-81368990D02*
X147054234Y-81273752D01*
X147054234Y-81273752D02*
X147101853Y-81226133D01*
X147101853Y-81226133D02*
X147197091Y-81178514D01*
X147197091Y-81178514D02*
X147339948Y-81178514D01*
X147339948Y-81178514D02*
X147435186Y-81226133D01*
X147435186Y-81226133D02*
X147482805Y-81273752D01*
X147482805Y-81273752D02*
X147530424Y-81368990D01*
X147530424Y-81368990D02*
X147530424Y-81749942D01*
X147435186Y-80607085D02*
X147387567Y-80702323D01*
X147387567Y-80702323D02*
X147339948Y-80749942D01*
X147339948Y-80749942D02*
X147244710Y-80797561D01*
X147244710Y-80797561D02*
X147197091Y-80797561D01*
X147197091Y-80797561D02*
X147101853Y-80749942D01*
X147101853Y-80749942D02*
X147054234Y-80702323D01*
X147054234Y-80702323D02*
X147006615Y-80607085D01*
X147006615Y-80607085D02*
X147006615Y-80416609D01*
X147006615Y-80416609D02*
X147054234Y-80321371D01*
X147054234Y-80321371D02*
X147101853Y-80273752D01*
X147101853Y-80273752D02*
X147197091Y-80226133D01*
X147197091Y-80226133D02*
X147244710Y-80226133D01*
X147244710Y-80226133D02*
X147339948Y-80273752D01*
X147339948Y-80273752D02*
X147387567Y-80321371D01*
X147387567Y-80321371D02*
X147435186Y-80416609D01*
X147435186Y-80416609D02*
X147435186Y-80607085D01*
X147435186Y-80607085D02*
X147482805Y-80702323D01*
X147482805Y-80702323D02*
X147530424Y-80749942D01*
X147530424Y-80749942D02*
X147625662Y-80797561D01*
X147625662Y-80797561D02*
X147816138Y-80797561D01*
X147816138Y-80797561D02*
X147911376Y-80749942D01*
X147911376Y-80749942D02*
X147958996Y-80702323D01*
X147958996Y-80702323D02*
X148006615Y-80607085D01*
X148006615Y-80607085D02*
X148006615Y-80416609D01*
X148006615Y-80416609D02*
X147958996Y-80321371D01*
X147958996Y-80321371D02*
X147911376Y-80273752D01*
X147911376Y-80273752D02*
X147816138Y-80226133D01*
X147816138Y-80226133D02*
X147625662Y-80226133D01*
X147625662Y-80226133D02*
X147530424Y-80273752D01*
X147530424Y-80273752D02*
X147482805Y-80321371D01*
X147482805Y-80321371D02*
X147435186Y-80416609D01*
%TO.C,R2*%
X207769138Y-74020768D02*
X207435805Y-73544577D01*
X207197710Y-74020768D02*
X207197710Y-73020768D01*
X207197710Y-73020768D02*
X207578662Y-73020768D01*
X207578662Y-73020768D02*
X207673900Y-73068387D01*
X207673900Y-73068387D02*
X207721519Y-73116006D01*
X207721519Y-73116006D02*
X207769138Y-73211244D01*
X207769138Y-73211244D02*
X207769138Y-73354101D01*
X207769138Y-73354101D02*
X207721519Y-73449339D01*
X207721519Y-73449339D02*
X207673900Y-73496958D01*
X207673900Y-73496958D02*
X207578662Y-73544577D01*
X207578662Y-73544577D02*
X207197710Y-73544577D01*
X208150091Y-73116006D02*
X208197710Y-73068387D01*
X208197710Y-73068387D02*
X208292948Y-73020768D01*
X208292948Y-73020768D02*
X208531043Y-73020768D01*
X208531043Y-73020768D02*
X208626281Y-73068387D01*
X208626281Y-73068387D02*
X208673900Y-73116006D01*
X208673900Y-73116006D02*
X208721519Y-73211244D01*
X208721519Y-73211244D02*
X208721519Y-73306482D01*
X208721519Y-73306482D02*
X208673900Y-73449339D01*
X208673900Y-73449339D02*
X208102472Y-74020768D01*
X208102472Y-74020768D02*
X208721519Y-74020768D01*
%TO.C,U1*%
X169418095Y-85602619D02*
X169418095Y-86412142D01*
X169418095Y-86412142D02*
X169465714Y-86507380D01*
X169465714Y-86507380D02*
X169513333Y-86555000D01*
X169513333Y-86555000D02*
X169608571Y-86602619D01*
X169608571Y-86602619D02*
X169799047Y-86602619D01*
X169799047Y-86602619D02*
X169894285Y-86555000D01*
X169894285Y-86555000D02*
X169941904Y-86507380D01*
X169941904Y-86507380D02*
X169989523Y-86412142D01*
X169989523Y-86412142D02*
X169989523Y-85602619D01*
X170989523Y-86602619D02*
X170418095Y-86602619D01*
X170703809Y-86602619D02*
X170703809Y-85602619D01*
X170703809Y-85602619D02*
X170608571Y-85745476D01*
X170608571Y-85745476D02*
X170513333Y-85840714D01*
X170513333Y-85840714D02*
X170418095Y-85888333D01*
%TO.C,R11*%
X137011778Y-81591075D02*
X136535587Y-81924408D01*
X137011778Y-82162503D02*
X136011778Y-82162503D01*
X136011778Y-82162503D02*
X136011778Y-81781551D01*
X136011778Y-81781551D02*
X136059397Y-81686313D01*
X136059397Y-81686313D02*
X136107016Y-81638694D01*
X136107016Y-81638694D02*
X136202254Y-81591075D01*
X136202254Y-81591075D02*
X136345111Y-81591075D01*
X136345111Y-81591075D02*
X136440349Y-81638694D01*
X136440349Y-81638694D02*
X136487968Y-81686313D01*
X136487968Y-81686313D02*
X136535587Y-81781551D01*
X136535587Y-81781551D02*
X136535587Y-82162503D01*
X137011778Y-80638694D02*
X137011778Y-81210122D01*
X137011778Y-80924408D02*
X136011778Y-80924408D01*
X136011778Y-80924408D02*
X136154635Y-81019646D01*
X136154635Y-81019646D02*
X136249873Y-81114884D01*
X136249873Y-81114884D02*
X136297492Y-81210122D01*
X137011778Y-79686313D02*
X137011778Y-80257741D01*
X137011778Y-79972027D02*
X136011778Y-79972027D01*
X136011778Y-79972027D02*
X136154635Y-80067265D01*
X136154635Y-80067265D02*
X136249873Y-80162503D01*
X136249873Y-80162503D02*
X136297492Y-80257741D01*
%TO.C,R4*%
X187082978Y-63608291D02*
X186606787Y-63941624D01*
X187082978Y-64179719D02*
X186082978Y-64179719D01*
X186082978Y-64179719D02*
X186082978Y-63798767D01*
X186082978Y-63798767D02*
X186130597Y-63703529D01*
X186130597Y-63703529D02*
X186178216Y-63655910D01*
X186178216Y-63655910D02*
X186273454Y-63608291D01*
X186273454Y-63608291D02*
X186416311Y-63608291D01*
X186416311Y-63608291D02*
X186511549Y-63655910D01*
X186511549Y-63655910D02*
X186559168Y-63703529D01*
X186559168Y-63703529D02*
X186606787Y-63798767D01*
X186606787Y-63798767D02*
X186606787Y-64179719D01*
X186416311Y-62751148D02*
X187082978Y-62751148D01*
X186035359Y-62989243D02*
X186749644Y-63227338D01*
X186749644Y-63227338D02*
X186749644Y-62608291D01*
%TO.C,D1*%
X196677001Y-69193057D02*
X196677001Y-68193057D01*
X196677001Y-68193057D02*
X196915096Y-68193057D01*
X196915096Y-68193057D02*
X197057953Y-68240676D01*
X197057953Y-68240676D02*
X197153191Y-68335914D01*
X197153191Y-68335914D02*
X197200810Y-68431152D01*
X197200810Y-68431152D02*
X197248429Y-68621628D01*
X197248429Y-68621628D02*
X197248429Y-68764485D01*
X197248429Y-68764485D02*
X197200810Y-68954961D01*
X197200810Y-68954961D02*
X197153191Y-69050199D01*
X197153191Y-69050199D02*
X197057953Y-69145438D01*
X197057953Y-69145438D02*
X196915096Y-69193057D01*
X196915096Y-69193057D02*
X196677001Y-69193057D01*
X198200810Y-69193057D02*
X197629382Y-69193057D01*
X197915096Y-69193057D02*
X197915096Y-68193057D01*
X197915096Y-68193057D02*
X197819858Y-68335914D01*
X197819858Y-68335914D02*
X197724620Y-68431152D01*
X197724620Y-68431152D02*
X197629382Y-68478771D01*
%TO.C,R6*%
X154902779Y-81226666D02*
X154426588Y-81559999D01*
X154902779Y-81798094D02*
X153902779Y-81798094D01*
X153902779Y-81798094D02*
X153902779Y-81417142D01*
X153902779Y-81417142D02*
X153950398Y-81321904D01*
X153950398Y-81321904D02*
X153998017Y-81274285D01*
X153998017Y-81274285D02*
X154093255Y-81226666D01*
X154093255Y-81226666D02*
X154236112Y-81226666D01*
X154236112Y-81226666D02*
X154331350Y-81274285D01*
X154331350Y-81274285D02*
X154378969Y-81321904D01*
X154378969Y-81321904D02*
X154426588Y-81417142D01*
X154426588Y-81417142D02*
X154426588Y-81798094D01*
X153902779Y-80369523D02*
X153902779Y-80559999D01*
X153902779Y-80559999D02*
X153950398Y-80655237D01*
X153950398Y-80655237D02*
X153998017Y-80702856D01*
X153998017Y-80702856D02*
X154140874Y-80798094D01*
X154140874Y-80798094D02*
X154331350Y-80845713D01*
X154331350Y-80845713D02*
X154712302Y-80845713D01*
X154712302Y-80845713D02*
X154807540Y-80798094D01*
X154807540Y-80798094D02*
X154855160Y-80750475D01*
X154855160Y-80750475D02*
X154902779Y-80655237D01*
X154902779Y-80655237D02*
X154902779Y-80464761D01*
X154902779Y-80464761D02*
X154855160Y-80369523D01*
X154855160Y-80369523D02*
X154807540Y-80321904D01*
X154807540Y-80321904D02*
X154712302Y-80274285D01*
X154712302Y-80274285D02*
X154474207Y-80274285D01*
X154474207Y-80274285D02*
X154378969Y-80321904D01*
X154378969Y-80321904D02*
X154331350Y-80369523D01*
X154331350Y-80369523D02*
X154283731Y-80464761D01*
X154283731Y-80464761D02*
X154283731Y-80655237D01*
X154283731Y-80655237D02*
X154331350Y-80750475D01*
X154331350Y-80750475D02*
X154378969Y-80798094D01*
X154378969Y-80798094D02*
X154474207Y-80845713D01*
%TO.C,R5*%
X158491133Y-81268945D02*
X158014942Y-81602278D01*
X158491133Y-81840373D02*
X157491133Y-81840373D01*
X157491133Y-81840373D02*
X157491133Y-81459421D01*
X157491133Y-81459421D02*
X157538752Y-81364183D01*
X157538752Y-81364183D02*
X157586371Y-81316564D01*
X157586371Y-81316564D02*
X157681609Y-81268945D01*
X157681609Y-81268945D02*
X157824466Y-81268945D01*
X157824466Y-81268945D02*
X157919704Y-81316564D01*
X157919704Y-81316564D02*
X157967323Y-81364183D01*
X157967323Y-81364183D02*
X158014942Y-81459421D01*
X158014942Y-81459421D02*
X158014942Y-81840373D01*
X157491133Y-80364183D02*
X157491133Y-80840373D01*
X157491133Y-80840373D02*
X157967323Y-80887992D01*
X157967323Y-80887992D02*
X157919704Y-80840373D01*
X157919704Y-80840373D02*
X157872085Y-80745135D01*
X157872085Y-80745135D02*
X157872085Y-80507040D01*
X157872085Y-80507040D02*
X157919704Y-80411802D01*
X157919704Y-80411802D02*
X157967323Y-80364183D01*
X157967323Y-80364183D02*
X158062561Y-80316564D01*
X158062561Y-80316564D02*
X158300656Y-80316564D01*
X158300656Y-80316564D02*
X158395894Y-80364183D01*
X158395894Y-80364183D02*
X158443514Y-80411802D01*
X158443514Y-80411802D02*
X158491133Y-80507040D01*
X158491133Y-80507040D02*
X158491133Y-80745135D01*
X158491133Y-80745135D02*
X158443514Y-80840373D01*
X158443514Y-80840373D02*
X158395894Y-80887992D01*
%TO.C,R7*%
X151351039Y-81131250D02*
X150874848Y-81464583D01*
X151351039Y-81702678D02*
X150351039Y-81702678D01*
X150351039Y-81702678D02*
X150351039Y-81321726D01*
X150351039Y-81321726D02*
X150398658Y-81226488D01*
X150398658Y-81226488D02*
X150446277Y-81178869D01*
X150446277Y-81178869D02*
X150541515Y-81131250D01*
X150541515Y-81131250D02*
X150684372Y-81131250D01*
X150684372Y-81131250D02*
X150779610Y-81178869D01*
X150779610Y-81178869D02*
X150827229Y-81226488D01*
X150827229Y-81226488D02*
X150874848Y-81321726D01*
X150874848Y-81321726D02*
X150874848Y-81702678D01*
X150351039Y-80797916D02*
X150351039Y-80131250D01*
X150351039Y-80131250D02*
X151351039Y-80559821D01*
%TO.C,LS1*%
X210177142Y-57382619D02*
X209700952Y-57382619D01*
X209700952Y-57382619D02*
X209700952Y-56382619D01*
X210462857Y-57335000D02*
X210605714Y-57382619D01*
X210605714Y-57382619D02*
X210843809Y-57382619D01*
X210843809Y-57382619D02*
X210939047Y-57335000D01*
X210939047Y-57335000D02*
X210986666Y-57287380D01*
X210986666Y-57287380D02*
X211034285Y-57192142D01*
X211034285Y-57192142D02*
X211034285Y-57096904D01*
X211034285Y-57096904D02*
X210986666Y-57001666D01*
X210986666Y-57001666D02*
X210939047Y-56954047D01*
X210939047Y-56954047D02*
X210843809Y-56906428D01*
X210843809Y-56906428D02*
X210653333Y-56858809D01*
X210653333Y-56858809D02*
X210558095Y-56811190D01*
X210558095Y-56811190D02*
X210510476Y-56763571D01*
X210510476Y-56763571D02*
X210462857Y-56668333D01*
X210462857Y-56668333D02*
X210462857Y-56573095D01*
X210462857Y-56573095D02*
X210510476Y-56477857D01*
X210510476Y-56477857D02*
X210558095Y-56430238D01*
X210558095Y-56430238D02*
X210653333Y-56382619D01*
X210653333Y-56382619D02*
X210891428Y-56382619D01*
X210891428Y-56382619D02*
X211034285Y-56430238D01*
X211986666Y-57382619D02*
X211415238Y-57382619D01*
X211700952Y-57382619D02*
X211700952Y-56382619D01*
X211700952Y-56382619D02*
X211605714Y-56525476D01*
X211605714Y-56525476D02*
X211510476Y-56620714D01*
X211510476Y-56620714D02*
X211415238Y-56668333D01*
X213441666Y-53490951D02*
X213441666Y-52729047D01*
X213822619Y-53109999D02*
X213060714Y-53109999D01*
%TO.C,U2*%
X154178095Y-62742619D02*
X154178095Y-63552142D01*
X154178095Y-63552142D02*
X154225714Y-63647380D01*
X154225714Y-63647380D02*
X154273333Y-63695000D01*
X154273333Y-63695000D02*
X154368571Y-63742619D01*
X154368571Y-63742619D02*
X154559047Y-63742619D01*
X154559047Y-63742619D02*
X154654285Y-63695000D01*
X154654285Y-63695000D02*
X154701904Y-63647380D01*
X154701904Y-63647380D02*
X154749523Y-63552142D01*
X154749523Y-63552142D02*
X154749523Y-62742619D01*
X155178095Y-62837857D02*
X155225714Y-62790238D01*
X155225714Y-62790238D02*
X155320952Y-62742619D01*
X155320952Y-62742619D02*
X155559047Y-62742619D01*
X155559047Y-62742619D02*
X155654285Y-62790238D01*
X155654285Y-62790238D02*
X155701904Y-62837857D01*
X155701904Y-62837857D02*
X155749523Y-62933095D01*
X155749523Y-62933095D02*
X155749523Y-63028333D01*
X155749523Y-63028333D02*
X155701904Y-63171190D01*
X155701904Y-63171190D02*
X155130476Y-63742619D01*
X155130476Y-63742619D02*
X155749523Y-63742619D01*
%TO.C,R1*%
X190262443Y-73997138D02*
X189929110Y-73520947D01*
X189691015Y-73997138D02*
X189691015Y-72997138D01*
X189691015Y-72997138D02*
X190071967Y-72997138D01*
X190071967Y-72997138D02*
X190167205Y-73044757D01*
X190167205Y-73044757D02*
X190214824Y-73092376D01*
X190214824Y-73092376D02*
X190262443Y-73187614D01*
X190262443Y-73187614D02*
X190262443Y-73330471D01*
X190262443Y-73330471D02*
X190214824Y-73425709D01*
X190214824Y-73425709D02*
X190167205Y-73473328D01*
X190167205Y-73473328D02*
X190071967Y-73520947D01*
X190071967Y-73520947D02*
X189691015Y-73520947D01*
X191214824Y-73997138D02*
X190643396Y-73997138D01*
X190929110Y-73997138D02*
X190929110Y-72997138D01*
X190929110Y-72997138D02*
X190833872Y-73139995D01*
X190833872Y-73139995D02*
X190738634Y-73235233D01*
X190738634Y-73235233D02*
X190643396Y-73282852D01*
%TO.C,R9*%
X144236852Y-81083994D02*
X143760661Y-81417327D01*
X144236852Y-81655422D02*
X143236852Y-81655422D01*
X143236852Y-81655422D02*
X143236852Y-81274470D01*
X143236852Y-81274470D02*
X143284471Y-81179232D01*
X143284471Y-81179232D02*
X143332090Y-81131613D01*
X143332090Y-81131613D02*
X143427328Y-81083994D01*
X143427328Y-81083994D02*
X143570185Y-81083994D01*
X143570185Y-81083994D02*
X143665423Y-81131613D01*
X143665423Y-81131613D02*
X143713042Y-81179232D01*
X143713042Y-81179232D02*
X143760661Y-81274470D01*
X143760661Y-81274470D02*
X143760661Y-81655422D01*
X144236852Y-80607803D02*
X144236852Y-80417327D01*
X144236852Y-80417327D02*
X144189233Y-80322089D01*
X144189233Y-80322089D02*
X144141613Y-80274470D01*
X144141613Y-80274470D02*
X143998756Y-80179232D01*
X143998756Y-80179232D02*
X143808280Y-80131613D01*
X143808280Y-80131613D02*
X143427328Y-80131613D01*
X143427328Y-80131613D02*
X143332090Y-80179232D01*
X143332090Y-80179232D02*
X143284471Y-80226851D01*
X143284471Y-80226851D02*
X143236852Y-80322089D01*
X143236852Y-80322089D02*
X143236852Y-80512565D01*
X143236852Y-80512565D02*
X143284471Y-80607803D01*
X143284471Y-80607803D02*
X143332090Y-80655422D01*
X143332090Y-80655422D02*
X143427328Y-80703041D01*
X143427328Y-80703041D02*
X143665423Y-80703041D01*
X143665423Y-80703041D02*
X143760661Y-80655422D01*
X143760661Y-80655422D02*
X143808280Y-80607803D01*
X143808280Y-80607803D02*
X143855899Y-80512565D01*
X143855899Y-80512565D02*
X143855899Y-80322089D01*
X143855899Y-80322089D02*
X143808280Y-80226851D01*
X143808280Y-80226851D02*
X143760661Y-80179232D01*
X143760661Y-80179232D02*
X143665423Y-80131613D01*
%TO.C,R12*%
X133187490Y-81614709D02*
X132711299Y-81948042D01*
X133187490Y-82186137D02*
X132187490Y-82186137D01*
X132187490Y-82186137D02*
X132187490Y-81805185D01*
X132187490Y-81805185D02*
X132235109Y-81709947D01*
X132235109Y-81709947D02*
X132282728Y-81662328D01*
X132282728Y-81662328D02*
X132377966Y-81614709D01*
X132377966Y-81614709D02*
X132520823Y-81614709D01*
X132520823Y-81614709D02*
X132616061Y-81662328D01*
X132616061Y-81662328D02*
X132663680Y-81709947D01*
X132663680Y-81709947D02*
X132711299Y-81805185D01*
X132711299Y-81805185D02*
X132711299Y-82186137D01*
X133187490Y-80662328D02*
X133187490Y-81233756D01*
X133187490Y-80948042D02*
X132187490Y-80948042D01*
X132187490Y-80948042D02*
X132330347Y-81043280D01*
X132330347Y-81043280D02*
X132425585Y-81138518D01*
X132425585Y-81138518D02*
X132473204Y-81233756D01*
X132282728Y-80281375D02*
X132235109Y-80233756D01*
X132235109Y-80233756D02*
X132187490Y-80138518D01*
X132187490Y-80138518D02*
X132187490Y-79900423D01*
X132187490Y-79900423D02*
X132235109Y-79805185D01*
X132235109Y-79805185D02*
X132282728Y-79757566D01*
X132282728Y-79757566D02*
X132377966Y-79709947D01*
X132377966Y-79709947D02*
X132473204Y-79709947D01*
X132473204Y-79709947D02*
X132616061Y-79757566D01*
X132616061Y-79757566D02*
X133187490Y-80328994D01*
X133187490Y-80328994D02*
X133187490Y-79709947D01*
%TO.C,D2*%
X191031905Y-69242619D02*
X191031905Y-68242619D01*
X191031905Y-68242619D02*
X191270000Y-68242619D01*
X191270000Y-68242619D02*
X191412857Y-68290238D01*
X191412857Y-68290238D02*
X191508095Y-68385476D01*
X191508095Y-68385476D02*
X191555714Y-68480714D01*
X191555714Y-68480714D02*
X191603333Y-68671190D01*
X191603333Y-68671190D02*
X191603333Y-68814047D01*
X191603333Y-68814047D02*
X191555714Y-69004523D01*
X191555714Y-69004523D02*
X191508095Y-69099761D01*
X191508095Y-69099761D02*
X191412857Y-69195000D01*
X191412857Y-69195000D02*
X191270000Y-69242619D01*
X191270000Y-69242619D02*
X191031905Y-69242619D01*
X191984286Y-68337857D02*
X192031905Y-68290238D01*
X192031905Y-68290238D02*
X192127143Y-68242619D01*
X192127143Y-68242619D02*
X192365238Y-68242619D01*
X192365238Y-68242619D02*
X192460476Y-68290238D01*
X192460476Y-68290238D02*
X192508095Y-68337857D01*
X192508095Y-68337857D02*
X192555714Y-68433095D01*
X192555714Y-68433095D02*
X192555714Y-68528333D01*
X192555714Y-68528333D02*
X192508095Y-68671190D01*
X192508095Y-68671190D02*
X191936667Y-69242619D01*
X191936667Y-69242619D02*
X192555714Y-69242619D01*
%TO.C,R3*%
X183248167Y-63587747D02*
X182771976Y-63921080D01*
X183248167Y-64159175D02*
X182248167Y-64159175D01*
X182248167Y-64159175D02*
X182248167Y-63778223D01*
X182248167Y-63778223D02*
X182295786Y-63682985D01*
X182295786Y-63682985D02*
X182343405Y-63635366D01*
X182343405Y-63635366D02*
X182438643Y-63587747D01*
X182438643Y-63587747D02*
X182581500Y-63587747D01*
X182581500Y-63587747D02*
X182676738Y-63635366D01*
X182676738Y-63635366D02*
X182724357Y-63682985D01*
X182724357Y-63682985D02*
X182771976Y-63778223D01*
X182771976Y-63778223D02*
X182771976Y-64159175D01*
X182248167Y-63254413D02*
X182248167Y-62635366D01*
X182248167Y-62635366D02*
X182629119Y-62968699D01*
X182629119Y-62968699D02*
X182629119Y-62825842D01*
X182629119Y-62825842D02*
X182676738Y-62730604D01*
X182676738Y-62730604D02*
X182724357Y-62682985D01*
X182724357Y-62682985D02*
X182819595Y-62635366D01*
X182819595Y-62635366D02*
X183057690Y-62635366D01*
X183057690Y-62635366D02*
X183152928Y-62682985D01*
X183152928Y-62682985D02*
X183200548Y-62730604D01*
X183200548Y-62730604D02*
X183248167Y-62825842D01*
X183248167Y-62825842D02*
X183248167Y-63111556D01*
X183248167Y-63111556D02*
X183200548Y-63206794D01*
X183200548Y-63206794D02*
X183152928Y-63254413D01*
D11*
%TO.C,J2*%
X146939000Y-52418000D02*
X169859000Y-52418000D01*
X146939000Y-52418000D02*
X146939000Y-49758000D01*
X169859000Y-52418000D02*
X169859000Y-49758000D01*
X144339000Y-51088000D02*
X144339000Y-49758000D01*
X144339000Y-49758000D02*
X145669000Y-49758000D01*
X146939000Y-49758000D02*
X169859000Y-49758000D01*
%TO.C,R10*%
X140207994Y-85099996D02*
X140207994Y-84329996D01*
X138837994Y-84329996D02*
X141577994Y-84329996D01*
X141577994Y-84329996D02*
X141577994Y-77789996D01*
X138837994Y-77789996D02*
X138837994Y-84329996D01*
X141577994Y-77789996D02*
X138837994Y-77789996D01*
X140207994Y-77019996D02*
X140207994Y-77789996D01*
%TO.C,SW1*%
X215034088Y-89546641D02*
X202734088Y-89546641D01*
X215034088Y-86826641D02*
X215034088Y-89546641D01*
X215034088Y-81826641D02*
X215034088Y-84966641D01*
X215034088Y-77246641D02*
X215034088Y-79966641D01*
X202734088Y-89546641D02*
X202734088Y-86826641D01*
X202734088Y-84966641D02*
X202734088Y-81826641D01*
X202734088Y-79966641D02*
X202734088Y-77246641D01*
X202734088Y-77246641D02*
X215034088Y-77246641D01*
X213363138Y-83356641D02*
G75*
G03*
X213363138Y-83356641I-4579050J0D01*
G01*
%TO.C,SW2*%
X196551913Y-89802023D02*
X184251913Y-89802023D01*
X196551913Y-87082023D02*
X196551913Y-89802023D01*
X196551913Y-82082023D02*
X196551913Y-85222023D01*
X196551913Y-77502023D02*
X196551913Y-80222023D01*
X184251913Y-89802023D02*
X184251913Y-87082023D01*
X184251913Y-85222023D02*
X184251913Y-82082023D01*
X184251913Y-80222023D02*
X184251913Y-77502023D01*
X184251913Y-77502023D02*
X196551913Y-77502023D01*
X194880963Y-83612023D02*
G75*
G03*
X194880963Y-83612023I-4579050J0D01*
G01*
%TO.C,R8*%
X147320000Y-85100000D02*
X147320000Y-84330000D01*
X145950000Y-84330000D02*
X148690000Y-84330000D01*
X148690000Y-84330000D02*
X148690000Y-77790000D01*
X145950000Y-77790000D02*
X145950000Y-84330000D01*
X148690000Y-77790000D02*
X145950000Y-77790000D01*
X147320000Y-77020000D02*
X147320000Y-77790000D01*
%TO.C,R2*%
X212320000Y-73440000D02*
X211550000Y-73440000D01*
X211550000Y-74810000D02*
X211550000Y-72070000D01*
X211550000Y-72070000D02*
X205010000Y-72070000D01*
X205010000Y-74810000D02*
X211550000Y-74810000D01*
X205010000Y-72070000D02*
X205010000Y-74810000D01*
X204240000Y-73440000D02*
X205010000Y-73440000D01*
%TO.C,U1*%
X167540000Y-75935000D02*
X167540000Y-96375000D01*
X167540000Y-96375000D02*
X172840000Y-96375000D01*
X169190000Y-75935000D02*
X167540000Y-75935000D01*
X172840000Y-75935000D02*
X171190000Y-75935000D01*
X172840000Y-96375000D02*
X172840000Y-75935000D01*
X169190000Y-75935000D02*
G75*
G03*
X171190000Y-75935000I1000000J0D01*
G01*
%TO.C,R11*%
X136612913Y-85178150D02*
X136612913Y-84408150D01*
X135242913Y-84408150D02*
X137982913Y-84408150D01*
X137982913Y-84408150D02*
X137982913Y-77868150D01*
X135242913Y-77868150D02*
X135242913Y-84408150D01*
X137982913Y-77868150D02*
X135242913Y-77868150D01*
X136612913Y-77098150D02*
X136612913Y-77868150D01*
%TO.C,R4*%
X186538923Y-59302499D02*
X186538923Y-60072499D01*
X187908923Y-60072499D02*
X185168923Y-60072499D01*
X185168923Y-60072499D02*
X185168923Y-66612499D01*
X187908923Y-66612499D02*
X187908923Y-60072499D01*
X185168923Y-66612499D02*
X187908923Y-66612499D01*
X186538923Y-67382499D02*
X186538923Y-66612499D01*
%TO.C,D1*%
X198975096Y-67006438D02*
X198975096Y-66850438D01*
X198975096Y-64690438D02*
X198975096Y-64534438D01*
X195742762Y-66849046D02*
G75*
G03*
X198975095Y-67005953I1672334J1078608D01*
G01*
X196373967Y-66850274D02*
G75*
G03*
X198456056Y-66850437I1041129J1079836D01*
G01*
X198456056Y-64690439D02*
G75*
G03*
X196373967Y-64690602I-1040960J-1079999D01*
G01*
X198975095Y-64534923D02*
G75*
G03*
X195742762Y-64691830I-1559999J-1235515D01*
G01*
%TO.C,J4*%
X173863000Y-52418000D02*
X191703000Y-52418000D01*
X173863000Y-52418000D02*
X173863000Y-49758000D01*
X191703000Y-52418000D02*
X191703000Y-49758000D01*
X171263000Y-51088000D02*
X171263000Y-49758000D01*
X171263000Y-49758000D02*
X172593000Y-49758000D01*
X173863000Y-49758000D02*
X191703000Y-49758000D01*
%TO.C,R6*%
X154510160Y-85100000D02*
X154510160Y-84330000D01*
X153140160Y-84330000D02*
X155880160Y-84330000D01*
X155880160Y-84330000D02*
X155880160Y-77790000D01*
X153140160Y-77790000D02*
X153140160Y-84330000D01*
X155880160Y-77790000D02*
X153140160Y-77790000D01*
X154510160Y-77020000D02*
X154510160Y-77790000D01*
%TO.C,R5*%
X158107517Y-85048651D02*
X158107517Y-84278651D01*
X156737517Y-84278651D02*
X159477517Y-84278651D01*
X159477517Y-84278651D02*
X159477517Y-77738651D01*
X156737517Y-77738651D02*
X156737517Y-84278651D01*
X159477517Y-77738651D02*
X156737517Y-77738651D01*
X158107517Y-76968651D02*
X158107517Y-77738651D01*
%TO.C,R7*%
X150915080Y-85099996D02*
X150915080Y-84329996D01*
X149545080Y-84329996D02*
X152285080Y-84329996D01*
X152285080Y-84329996D02*
X152285080Y-77789996D01*
X149545080Y-77789996D02*
X149545080Y-84329996D01*
X152285080Y-77789996D02*
X149545080Y-77789996D01*
X150915080Y-77019996D02*
X150915080Y-77789996D01*
%TO.C,LS1*%
X216920000Y-56920000D02*
G75*
G03*
X216920000Y-56920000I-6100000J0D01*
G01*
%TO.C,U2*%
X147622168Y-74265789D02*
X149622168Y-74265789D01*
X129702168Y-73885789D02*
X180242168Y-73885789D01*
X129702168Y-73885789D02*
X129702168Y-54645789D01*
X180242168Y-73885789D02*
X180242168Y-54645789D01*
X180242168Y-54645789D02*
X129702168Y-54645789D01*
%TO.C,R1*%
X186460000Y-73440000D02*
X187230000Y-73440000D01*
X187230000Y-72070000D02*
X187230000Y-74810000D01*
X187230000Y-74810000D02*
X193770000Y-74810000D01*
X193770000Y-72070000D02*
X187230000Y-72070000D01*
X193770000Y-74810000D02*
X193770000Y-72070000D01*
X194540000Y-73440000D02*
X193770000Y-73440000D01*
%TO.C,R9*%
X143724920Y-85100000D02*
X143724920Y-84330000D01*
X142354920Y-84330000D02*
X145094920Y-84330000D01*
X145094920Y-84330000D02*
X145094920Y-77790000D01*
X142354920Y-77790000D02*
X142354920Y-84330000D01*
X145094920Y-77790000D02*
X142354920Y-77790000D01*
X143724920Y-77020000D02*
X143724920Y-77790000D01*
%TO.C,R12*%
X132939679Y-85178154D02*
X132939679Y-84408154D01*
X131569679Y-84408154D02*
X134309679Y-84408154D01*
X134309679Y-84408154D02*
X134309679Y-77868154D01*
X131569679Y-77868154D02*
X131569679Y-84408154D01*
X134309679Y-77868154D02*
X131569679Y-77868154D01*
X132939679Y-77098154D02*
X132939679Y-77868154D01*
%TO.C,D2*%
X193330000Y-67056000D02*
X193330000Y-66900000D01*
X193330000Y-64740000D02*
X193330000Y-64584000D01*
X190097666Y-66898608D02*
G75*
G03*
X193329999Y-67055515I1672334J1078608D01*
G01*
X190728871Y-66899836D02*
G75*
G03*
X192810960Y-66899999I1041129J1079836D01*
G01*
X192810960Y-64740001D02*
G75*
G03*
X190728871Y-64740164I-1040960J-1079999D01*
G01*
X193329999Y-64584485D02*
G75*
G03*
X190097666Y-64741392I-1559999J-1235515D01*
G01*
%TO.C,R3*%
X182880000Y-59237666D02*
X182880000Y-60007666D01*
X184250000Y-60007666D02*
X181510000Y-60007666D01*
X181510000Y-60007666D02*
X181510000Y-66547666D01*
X184250000Y-66547666D02*
X184250000Y-60007666D01*
X181510000Y-66547666D02*
X184250000Y-66547666D01*
X182880000Y-67317666D02*
X182880000Y-66547666D01*
%TO.C,J1*%
X156083000Y-100678000D02*
X173923000Y-100678000D01*
X156083000Y-100678000D02*
X156083000Y-98018000D01*
X173923000Y-100678000D02*
X173923000Y-98018000D01*
X153483000Y-99348000D02*
X153483000Y-98018000D01*
X153483000Y-98018000D02*
X154813000Y-98018000D01*
X156083000Y-98018000D02*
X173923000Y-98018000D01*
%TO.C,J3*%
X178943000Y-100678000D02*
X191703000Y-100678000D01*
X178943000Y-100678000D02*
X178943000Y-98018000D01*
X191703000Y-100678000D02*
X191703000Y-98018000D01*
X176343000Y-99348000D02*
X176343000Y-98018000D01*
X176343000Y-98018000D02*
X177673000Y-98018000D01*
X178943000Y-98018000D02*
X191703000Y-98018000D01*
%TD*%
M02*
