%TF.GenerationSoftware,KiCad,Pcbnew,7.0.1-0*%
%TF.CreationDate,2023-04-12T16:12:06-06:00*%
%TF.ProjectId,Arduino_Uno_Kitchen_Timer,41726475-696e-46f5-9f55-6e6f5f4b6974,rev?*%
%TF.SameCoordinates,Original*%
%TF.FileFunction,Soldermask,Top*%
%TF.FilePolarity,Negative*%
%FSLAX46Y46*%
G04 Gerber Fmt 4.6, Leading zero omitted, Abs format (unit mm)*
G04 Created by KiCad (PCBNEW 7.0.1-0) date 2023-04-12 16:12:06*
%MOMM*%
%LPD*%
G01*
G04 APERTURE LIST*
%ADD10R,1.700000X1.700000*%
%ADD11O,1.700000X1.700000*%
%ADD12C,1.600000*%
%ADD13O,1.600000X1.600000*%
%ADD14O,3.048000X1.850000*%
%ADD15R,1.600000X1.600000*%
%ADD16R,1.800000X1.800000*%
%ADD17C,1.800000*%
%ADD18R,2.000000X2.000000*%
%ADD19C,2.000000*%
%ADD20R,1.500000X1.500000*%
%ADD21C,1.500000*%
G04 APERTURE END LIST*
D10*
%TO.C,J2*%
X145669000Y-51088000D03*
D11*
X148209000Y-51088000D03*
X150749000Y-51088000D03*
X153289000Y-51088000D03*
X155829000Y-51088000D03*
X158369000Y-51088000D03*
X160909000Y-51088000D03*
X163449000Y-51088000D03*
X165989000Y-51088000D03*
X168529000Y-51088000D03*
%TD*%
D12*
%TO.C,R10*%
X140207994Y-86139996D03*
D13*
X140207994Y-75979996D03*
%TD*%
D14*
%TO.C,SW1*%
X215134088Y-85896641D03*
X202634088Y-85896641D03*
X215134088Y-80896641D03*
X202634088Y-80896641D03*
%TD*%
%TO.C,SW2*%
X196651913Y-86152023D03*
X184151913Y-86152023D03*
X196651913Y-81152023D03*
X184151913Y-81152023D03*
%TD*%
D12*
%TO.C,R8*%
X147320000Y-86140000D03*
D13*
X147320000Y-75980000D03*
%TD*%
D12*
%TO.C,R2*%
X213360000Y-73440000D03*
D13*
X203200000Y-73440000D03*
%TD*%
D15*
%TO.C,U1*%
X166380000Y-77265000D03*
D13*
X166380000Y-79805000D03*
X166380000Y-82345000D03*
X166380000Y-84885000D03*
X166380000Y-87425000D03*
X166380000Y-89965000D03*
X166380000Y-92505000D03*
X166380000Y-95045000D03*
X174000000Y-95045000D03*
X174000000Y-92505000D03*
X174000000Y-89965000D03*
X174000000Y-87425000D03*
X174000000Y-84885000D03*
X174000000Y-82345000D03*
X174000000Y-79805000D03*
X174000000Y-77265000D03*
%TD*%
D12*
%TO.C,R11*%
X136612913Y-86218150D03*
D13*
X136612913Y-76058150D03*
%TD*%
D12*
%TO.C,R4*%
X186538923Y-58262499D03*
D13*
X186538923Y-68422499D03*
%TD*%
D16*
%TO.C,D1*%
X198685096Y-65770438D03*
D17*
X196145096Y-65770438D03*
%TD*%
D10*
%TO.C,J4*%
X172593000Y-51088000D03*
D11*
X175133000Y-51088000D03*
X177673000Y-51088000D03*
X180213000Y-51088000D03*
X182753000Y-51088000D03*
X185293000Y-51088000D03*
X187833000Y-51088000D03*
X190373000Y-51088000D03*
%TD*%
D12*
%TO.C,R6*%
X154510160Y-86140000D03*
D13*
X154510160Y-75980000D03*
%TD*%
D12*
%TO.C,R5*%
X158107517Y-86088651D03*
D13*
X158107517Y-75928651D03*
%TD*%
D12*
%TO.C,R7*%
X150915080Y-86139996D03*
D13*
X150915080Y-75979996D03*
%TD*%
D18*
%TO.C,LS1*%
X210820000Y-53120000D03*
D19*
X210820000Y-60720000D03*
%TD*%
D20*
%TO.C,U2*%
X148622168Y-71885789D03*
D21*
X151162168Y-71885789D03*
X153702168Y-71885789D03*
X156242168Y-71885789D03*
X158782168Y-71885789D03*
X161322168Y-71885789D03*
X161322168Y-56645789D03*
X158782168Y-56645789D03*
X156242168Y-56645789D03*
X153702168Y-56645789D03*
X151162168Y-56645789D03*
X148622168Y-56645789D03*
%TD*%
D12*
%TO.C,R1*%
X185420000Y-73440000D03*
D13*
X195580000Y-73440000D03*
%TD*%
D12*
%TO.C,R9*%
X143724920Y-86140000D03*
D13*
X143724920Y-75980000D03*
%TD*%
D12*
%TO.C,R12*%
X132939679Y-86218154D03*
D13*
X132939679Y-76058154D03*
%TD*%
D16*
%TO.C,D2*%
X193040000Y-65820000D03*
D17*
X190500000Y-65820000D03*
%TD*%
D12*
%TO.C,R3*%
X182880000Y-58197666D03*
D13*
X182880000Y-68357666D03*
%TD*%
D10*
%TO.C,J1*%
X154813000Y-99348000D03*
D11*
X157353000Y-99348000D03*
X159893000Y-99348000D03*
X162433000Y-99348000D03*
X164973000Y-99348000D03*
X167513000Y-99348000D03*
X170053000Y-99348000D03*
X172593000Y-99348000D03*
%TD*%
D10*
%TO.C,J3*%
X177673000Y-99348000D03*
D11*
X180213000Y-99348000D03*
X182753000Y-99348000D03*
X185293000Y-99348000D03*
X187833000Y-99348000D03*
X190373000Y-99348000D03*
%TD*%
M02*
