%TF.GenerationSoftware,KiCad,Pcbnew,7.0.1-0*%
%TF.CreationDate,2023-04-12T16:12:06-06:00*%
%TF.ProjectId,Arduino_Uno_Kitchen_Timer,41726475-696e-46f5-9f55-6e6f5f4b6974,rev?*%
%TF.SameCoordinates,Original*%
%TF.FileFunction,Copper,L1,Top*%
%TF.FilePolarity,Positive*%
%FSLAX46Y46*%
G04 Gerber Fmt 4.6, Leading zero omitted, Abs format (unit mm)*
G04 Created by KiCad (PCBNEW 7.0.1-0) date 2023-04-12 16:12:06*
%MOMM*%
%LPD*%
G01*
G04 APERTURE LIST*
%TA.AperFunction,ComponentPad*%
%ADD10R,1.700000X1.700000*%
%TD*%
%TA.AperFunction,ComponentPad*%
%ADD11O,1.700000X1.700000*%
%TD*%
%TA.AperFunction,ComponentPad*%
%ADD12C,1.600000*%
%TD*%
%TA.AperFunction,ComponentPad*%
%ADD13O,1.600000X1.600000*%
%TD*%
%TA.AperFunction,ComponentPad*%
%ADD14O,3.048000X1.850000*%
%TD*%
%TA.AperFunction,ComponentPad*%
%ADD15R,1.600000X1.600000*%
%TD*%
%TA.AperFunction,ComponentPad*%
%ADD16R,1.800000X1.800000*%
%TD*%
%TA.AperFunction,ComponentPad*%
%ADD17C,1.800000*%
%TD*%
%TA.AperFunction,ComponentPad*%
%ADD18R,2.000000X2.000000*%
%TD*%
%TA.AperFunction,ComponentPad*%
%ADD19C,2.000000*%
%TD*%
%TA.AperFunction,ComponentPad*%
%ADD20R,1.500000X1.500000*%
%TD*%
%TA.AperFunction,ComponentPad*%
%ADD21C,1.500000*%
%TD*%
%TA.AperFunction,ViaPad*%
%ADD22C,0.600000*%
%TD*%
%TA.AperFunction,Conductor*%
%ADD23C,0.250000*%
%TD*%
%TA.AperFunction,Conductor*%
%ADD24C,0.200000*%
%TD*%
%TA.AperFunction,Conductor*%
%ADD25C,0.500000*%
%TD*%
G04 APERTURE END LIST*
D10*
%TO.P,J2,1,Pin_1*%
%TO.N,unconnected-(J2-Pin_1-Pad1)*%
X145669000Y-51088000D03*
D11*
%TO.P,J2,2,Pin_2*%
%TO.N,unconnected-(J2-Pin_2-Pad2)*%
X148209000Y-51088000D03*
%TO.P,J2,3,Pin_3*%
%TO.N,unconnected-(J2-Pin_3-Pad3)*%
X150749000Y-51088000D03*
%TO.P,J2,4,Pin_4*%
%TO.N,GND*%
X153289000Y-51088000D03*
%TO.P,J2,5,Pin_5*%
%TO.N,/DIG_1*%
X155829000Y-51088000D03*
%TO.P,J2,6,Pin_6*%
%TO.N,/DIG_2*%
X158369000Y-51088000D03*
%TO.P,J2,7,Pin_7*%
%TO.N,/DIG_3*%
X160909000Y-51088000D03*
%TO.P,J2,8,Pin_8*%
%TO.N,/DIG_4*%
X163449000Y-51088000D03*
%TO.P,J2,9,Pin_9*%
%TO.N,/DS*%
X165989000Y-51088000D03*
%TO.P,J2,10,Pin_10*%
%TO.N,/ST_CP*%
X168529000Y-51088000D03*
%TD*%
D12*
%TO.P,R10,1*%
%TO.N,/F*%
X140207994Y-86139996D03*
D13*
%TO.P,R10,2*%
%TO.N,Net-(U2-f)*%
X140207994Y-75979996D03*
%TD*%
D14*
%TO.P,SW1,1,1*%
%TO.N,+5V*%
X215134088Y-85896641D03*
X202634088Y-85896641D03*
%TO.P,SW1,2,2*%
%TO.N,/BUTTON_1*%
X215134088Y-80896641D03*
X202634088Y-80896641D03*
%TD*%
%TO.P,SW2,1,1*%
%TO.N,+5V*%
X196651913Y-86152023D03*
X184151913Y-86152023D03*
%TO.P,SW2,2,2*%
%TO.N,/BUTTON_2*%
X196651913Y-81152023D03*
X184151913Y-81152023D03*
%TD*%
D12*
%TO.P,R8,1*%
%TO.N,/D*%
X147320000Y-86140000D03*
D13*
%TO.P,R8,2*%
%TO.N,Net-(U2-d)*%
X147320000Y-75980000D03*
%TD*%
D12*
%TO.P,R2,1*%
%TO.N,/BUTTON_1*%
X213360000Y-73440000D03*
D13*
%TO.P,R2,2*%
%TO.N,GND*%
X203200000Y-73440000D03*
%TD*%
D15*
%TO.P,U1,1,QB*%
%TO.N,/B*%
X166380000Y-77265000D03*
D13*
%TO.P,U1,2,QC*%
%TO.N,/C*%
X166380000Y-79805000D03*
%TO.P,U1,3,QD*%
%TO.N,/D*%
X166380000Y-82345000D03*
%TO.P,U1,4,QE*%
%TO.N,/E*%
X166380000Y-84885000D03*
%TO.P,U1,5,QF*%
%TO.N,/F*%
X166380000Y-87425000D03*
%TO.P,U1,6,QG*%
%TO.N,/G*%
X166380000Y-89965000D03*
%TO.P,U1,7,QH*%
%TO.N,/DP*%
X166380000Y-92505000D03*
%TO.P,U1,8,GND*%
%TO.N,GND*%
X166380000Y-95045000D03*
%TO.P,U1,9,QH'*%
%TO.N,unconnected-(U1-QH'-Pad9)*%
X174000000Y-95045000D03*
%TO.P,U1,10,~{SRCLR}*%
%TO.N,+5V*%
X174000000Y-92505000D03*
%TO.P,U1,11,SRCLK*%
%TO.N,/SH_CP*%
X174000000Y-89965000D03*
%TO.P,U1,12,RCLK*%
%TO.N,/ST_CP*%
X174000000Y-87425000D03*
%TO.P,U1,13,~{OE}*%
%TO.N,GND*%
X174000000Y-84885000D03*
%TO.P,U1,14,SER*%
%TO.N,/DS*%
X174000000Y-82345000D03*
%TO.P,U1,15,QA*%
%TO.N,/A*%
X174000000Y-79805000D03*
%TO.P,U1,16,VCC*%
%TO.N,+5V*%
X174000000Y-77265000D03*
%TD*%
D12*
%TO.P,R11,1*%
%TO.N,/G*%
X136612913Y-86218150D03*
D13*
%TO.P,R11,2*%
%TO.N,Net-(U2-g)*%
X136612913Y-76058150D03*
%TD*%
D12*
%TO.P,R4,1*%
%TO.N,/GREEN_LED*%
X186538923Y-58262499D03*
D13*
%TO.P,R4,2*%
%TO.N,Net-(D2-A)*%
X186538923Y-68422499D03*
%TD*%
D16*
%TO.P,D1,1,K*%
%TO.N,GND*%
X198685096Y-65770438D03*
D17*
%TO.P,D1,2,A*%
%TO.N,Net-(D1-A)*%
X196145096Y-65770438D03*
%TD*%
D10*
%TO.P,J4,1,Pin_1*%
%TO.N,/SH_CP*%
X172593000Y-51088000D03*
D11*
%TO.P,J4,2,Pin_2*%
%TO.N,/BUZZER*%
X175133000Y-51088000D03*
%TO.P,J4,3,Pin_3*%
%TO.N,/RED_LED*%
X177673000Y-51088000D03*
%TO.P,J4,4,Pin_4*%
%TO.N,/GREEN_LED*%
X180213000Y-51088000D03*
%TO.P,J4,5,Pin_5*%
%TO.N,/BUTTON_2*%
X182753000Y-51088000D03*
%TO.P,J4,6,Pin_6*%
%TO.N,/BUTTON_1*%
X185293000Y-51088000D03*
%TO.P,J4,7,Pin_7*%
%TO.N,/TX{slash}1*%
X187833000Y-51088000D03*
%TO.P,J4,8,Pin_8*%
%TO.N,/RX{slash}0*%
X190373000Y-51088000D03*
%TD*%
D12*
%TO.P,R6,1*%
%TO.N,/B*%
X154510160Y-86140000D03*
D13*
%TO.P,R6,2*%
%TO.N,Net-(U2-b)*%
X154510160Y-75980000D03*
%TD*%
D12*
%TO.P,R5,1*%
%TO.N,/A*%
X158107517Y-86088651D03*
D13*
%TO.P,R5,2*%
%TO.N,Net-(U2-a)*%
X158107517Y-75928651D03*
%TD*%
D12*
%TO.P,R7,1*%
%TO.N,/C*%
X150915080Y-86139996D03*
D13*
%TO.P,R7,2*%
%TO.N,Net-(U2-c)*%
X150915080Y-75979996D03*
%TD*%
D18*
%TO.P,LS1,1,1*%
%TO.N,/BUZZER*%
X210820000Y-53120000D03*
D19*
%TO.P,LS1,2,2*%
%TO.N,GND*%
X210820000Y-60720000D03*
%TD*%
D20*
%TO.P,U2,1,e*%
%TO.N,Net-(U2-e)*%
X148622168Y-71885789D03*
D21*
%TO.P,U2,2,d*%
%TO.N,Net-(U2-d)*%
X151162168Y-71885789D03*
%TO.P,U2,3,DPX*%
%TO.N,Net-(U2-DPX)*%
X153702168Y-71885789D03*
%TO.P,U2,4,c*%
%TO.N,Net-(U2-c)*%
X156242168Y-71885789D03*
%TO.P,U2,5,g*%
%TO.N,Net-(U2-g)*%
X158782168Y-71885789D03*
%TO.P,U2,6,CA4*%
%TO.N,/DIG_4*%
X161322168Y-71885789D03*
%TO.P,U2,7,b*%
%TO.N,Net-(U2-b)*%
X161322168Y-56645789D03*
%TO.P,U2,8,CA3*%
%TO.N,/DIG_3*%
X158782168Y-56645789D03*
%TO.P,U2,9,CA2*%
%TO.N,/DIG_2*%
X156242168Y-56645789D03*
%TO.P,U2,10,f*%
%TO.N,Net-(U2-f)*%
X153702168Y-56645789D03*
%TO.P,U2,11,a*%
%TO.N,Net-(U2-a)*%
X151162168Y-56645789D03*
%TO.P,U2,12,CA1*%
%TO.N,/DIG_1*%
X148622168Y-56645789D03*
%TD*%
D12*
%TO.P,R1,1*%
%TO.N,/BUTTON_2*%
X185420000Y-73440000D03*
D13*
%TO.P,R1,2*%
%TO.N,GND*%
X195580000Y-73440000D03*
%TD*%
D12*
%TO.P,R9,1*%
%TO.N,/E*%
X143724920Y-86140000D03*
D13*
%TO.P,R9,2*%
%TO.N,Net-(U2-e)*%
X143724920Y-75980000D03*
%TD*%
D12*
%TO.P,R12,1*%
%TO.N,/DP*%
X132939679Y-86218154D03*
D13*
%TO.P,R12,2*%
%TO.N,Net-(U2-DPX)*%
X132939679Y-76058154D03*
%TD*%
D16*
%TO.P,D2,1,K*%
%TO.N,GND*%
X193040000Y-65820000D03*
D17*
%TO.P,D2,2,A*%
%TO.N,Net-(D2-A)*%
X190500000Y-65820000D03*
%TD*%
D12*
%TO.P,R3,1*%
%TO.N,/RED_LED*%
X182880000Y-58197666D03*
D13*
%TO.P,R3,2*%
%TO.N,Net-(D1-A)*%
X182880000Y-68357666D03*
%TD*%
D10*
%TO.P,J1,1,Pin_1*%
%TO.N,unconnected-(J1-Pin_1-Pad1)*%
X154813000Y-99348000D03*
D11*
%TO.P,J1,2,Pin_2*%
%TO.N,/IOREF*%
X157353000Y-99348000D03*
%TO.P,J1,3,Pin_3*%
%TO.N,/~{RESET}*%
X159893000Y-99348000D03*
%TO.P,J1,4,Pin_4*%
%TO.N,+3V3*%
X162433000Y-99348000D03*
%TO.P,J1,5,Pin_5*%
%TO.N,+5V*%
X164973000Y-99348000D03*
%TO.P,J1,6,Pin_6*%
%TO.N,GND*%
X167513000Y-99348000D03*
%TO.P,J1,7,Pin_7*%
X170053000Y-99348000D03*
%TO.P,J1,8,Pin_8*%
%TO.N,VCC*%
X172593000Y-99348000D03*
%TD*%
D10*
%TO.P,J3,1,Pin_1*%
%TO.N,/A0*%
X177673000Y-99348000D03*
D11*
%TO.P,J3,2,Pin_2*%
%TO.N,/A1*%
X180213000Y-99348000D03*
%TO.P,J3,3,Pin_3*%
%TO.N,/A2*%
X182753000Y-99348000D03*
%TO.P,J3,4,Pin_4*%
%TO.N,/A3*%
X185293000Y-99348000D03*
%TO.P,J3,5,Pin_5*%
%TO.N,/SDA{slash}A4*%
X187833000Y-99348000D03*
%TO.P,J3,6,Pin_6*%
%TO.N,/SCL{slash}A5*%
X190373000Y-99348000D03*
%TD*%
D22*
%TO.N,/BUZZER*%
X195580000Y-53120000D03*
X177800000Y-53120000D03*
%TO.N,Net-(U2-a)*%
X166902763Y-59962701D03*
X152400000Y-58200000D03*
%TO.N,Net-(U2-b)*%
X162560000Y-58200000D03*
X165100000Y-58200000D03*
%TO.N,Net-(U2-f)*%
X142240000Y-70900000D03*
X147320000Y-65820000D03*
%TO.N,Net-(U2-g)*%
X139700000Y-70900000D03*
X142240000Y-68360000D03*
%TD*%
D23*
%TO.N,Net-(D1-A)*%
X191015534Y-70900000D02*
X196145096Y-65770438D01*
X190500000Y-70900000D02*
X191015534Y-70900000D01*
X190497666Y-70897666D02*
X190500000Y-70900000D01*
X185420000Y-70897666D02*
X190497666Y-70897666D01*
X182880000Y-68357666D02*
X185420000Y-70897666D01*
D24*
%TO.N,Net-(D2-A)*%
X187897501Y-68422499D02*
X190500000Y-65820000D01*
X186538923Y-68422499D02*
X187897501Y-68422499D01*
D25*
%TO.N,+5V*%
X202634088Y-85896641D02*
X215134088Y-85896641D01*
X164973000Y-97369461D02*
X165229607Y-97112854D01*
X164973000Y-99348000D02*
X164973000Y-97369461D01*
X171435000Y-92505000D02*
X170180000Y-93760000D01*
X177835000Y-92468936D02*
X184151913Y-86152023D01*
X165229607Y-97112854D02*
X169367146Y-97112854D01*
X202378706Y-86152023D02*
X202634088Y-85896641D01*
X170180000Y-79801374D02*
X172716374Y-77265000D01*
X174000000Y-92505000D02*
X177835000Y-92505000D01*
X170180000Y-96300000D02*
X170180000Y-79801374D01*
X177835000Y-92505000D02*
X177835000Y-92468936D01*
X172716374Y-77265000D02*
X174000000Y-77265000D01*
X196651913Y-86152023D02*
X202378706Y-86152023D01*
X169367146Y-97112854D02*
X170180000Y-96300000D01*
X184151913Y-86152023D02*
X196651913Y-86152023D01*
X174000000Y-92505000D02*
X171435000Y-92505000D01*
D23*
%TO.N,/DIG_1*%
X153305179Y-53611821D02*
X155829000Y-51088000D01*
X148622168Y-56645789D02*
X149697168Y-55570789D01*
X149697168Y-55570789D02*
X149697168Y-55553334D01*
X149697168Y-55553334D02*
X151638681Y-53611821D01*
X151638681Y-53611821D02*
X153305179Y-53611821D01*
%TO.N,/DIG_2*%
X158369000Y-54518957D02*
X158369000Y-51088000D01*
X156242168Y-56645789D02*
X158369000Y-54518957D01*
%TO.N,/DIG_3*%
X160909000Y-54518957D02*
X160909000Y-51088000D01*
X158782168Y-56645789D02*
X160909000Y-54518957D01*
%TO.N,/DIG_4*%
X163449000Y-69758957D02*
X163449000Y-51088000D01*
X161322168Y-71885789D02*
X163449000Y-69758957D01*
%TO.N,/DS*%
X176941300Y-62421300D02*
X176941300Y-62040300D01*
X176941300Y-62040300D02*
X165989000Y-51088000D01*
X174000000Y-82345000D02*
X176941300Y-79403700D01*
X176941300Y-79403700D02*
X176941300Y-62421300D01*
%TO.N,/ST_CP*%
X177800000Y-60359000D02*
X168529000Y-51088000D01*
X174000000Y-87425000D02*
X177800000Y-83625000D01*
X177800000Y-83625000D02*
X177800000Y-60359000D01*
%TO.N,/SH_CP*%
X179184434Y-84780566D02*
X179184434Y-57679434D01*
X179184434Y-57679434D02*
X172593000Y-51088000D01*
X174000000Y-89965000D02*
X179184434Y-84780566D01*
%TO.N,/BUZZER*%
X210820000Y-53120000D02*
X195580000Y-53120000D01*
X177800000Y-53120000D02*
X177165000Y-53120000D01*
X177165000Y-53120000D02*
X175133000Y-51088000D01*
D24*
%TO.N,/RED_LED*%
X182880000Y-58197666D02*
X182880000Y-56295000D01*
X182880000Y-56295000D02*
X177673000Y-51088000D01*
%TO.N,/GREEN_LED*%
X186538923Y-57413923D02*
X186538923Y-58262499D01*
X180213000Y-51088000D02*
X186538923Y-57413923D01*
%TO.N,/BUTTON_2*%
X184151913Y-74708087D02*
X185420000Y-73440000D01*
X184151913Y-81152023D02*
X184151913Y-74708087D01*
X193040000Y-70900000D02*
X198120000Y-70900000D01*
X200660000Y-63280000D02*
X193040000Y-55660000D01*
X198120000Y-70900000D02*
X200660000Y-68360000D01*
X190500000Y-73440000D02*
X193040000Y-70900000D01*
X187325000Y-55660000D02*
X182753000Y-51088000D01*
X193040000Y-55660000D02*
X187325000Y-55660000D01*
X185420000Y-73440000D02*
X190500000Y-73440000D01*
X196651913Y-81152023D02*
X184151913Y-81152023D01*
X200660000Y-68360000D02*
X200660000Y-63280000D01*
%TO.N,/BUTTON_1*%
X193040000Y-53120000D02*
X187325000Y-53120000D01*
X200660000Y-70900000D02*
X203200000Y-68360000D01*
X202634088Y-80896641D02*
X200660000Y-78922553D01*
X200660000Y-78922553D02*
X200660000Y-70900000D01*
X203200000Y-68360000D02*
X203200000Y-63280000D01*
X215134088Y-75214088D02*
X213360000Y-73440000D01*
X187325000Y-53120000D02*
X185293000Y-51088000D01*
X203200000Y-63280000D02*
X193040000Y-53120000D01*
X215134088Y-80896641D02*
X215134088Y-75214088D01*
X215134088Y-80896641D02*
X202634088Y-80896641D01*
D23*
%TO.N,/A*%
X175165614Y-75322535D02*
X160976137Y-75322535D01*
X160308084Y-83888084D02*
X158107517Y-86088651D01*
X176030336Y-77774664D02*
X176030336Y-76187257D01*
X174000000Y-79805000D02*
X176030336Y-77774664D01*
X160976137Y-75322535D02*
X160308084Y-75990588D01*
X176030336Y-76187257D02*
X175165614Y-75322535D01*
X160308084Y-75990588D02*
X160308084Y-83888084D01*
%TO.N,Net-(U2-a)*%
X158107517Y-75928651D02*
X159515174Y-74520994D01*
X159515174Y-74520994D02*
X166452926Y-74520994D01*
X167640000Y-73333920D02*
X167640000Y-60740000D01*
X166452926Y-74520994D02*
X167640000Y-73333920D01*
X166862701Y-59962701D02*
X166942824Y-60042824D01*
X152400000Y-57883621D02*
X151162168Y-56645789D01*
X166902763Y-59962701D02*
X166862701Y-59962701D01*
X167640000Y-60740000D02*
X166902763Y-60002763D01*
X166902763Y-60002763D02*
X166902763Y-59962701D01*
X152400000Y-58200000D02*
X152400000Y-57883621D01*
%TO.N,/B*%
X162560000Y-86140000D02*
X162560000Y-81060000D01*
X154940000Y-88680000D02*
X160020000Y-88680000D01*
X154510160Y-88250160D02*
X154940000Y-88680000D01*
X162560000Y-81060000D02*
X166355000Y-77265000D01*
X160020000Y-88680000D02*
X162560000Y-86140000D01*
X154510160Y-86140000D02*
X154510160Y-88250160D01*
X166355000Y-77265000D02*
X166380000Y-77265000D01*
%TO.N,Net-(U2-b)*%
X166046001Y-59146001D02*
X165100000Y-58200000D01*
X166046001Y-72063284D02*
X166046001Y-59186873D01*
X162560000Y-57883621D02*
X161322168Y-56645789D01*
X164777385Y-73331900D02*
X166046001Y-72063284D01*
X166046001Y-59186873D02*
X166046001Y-59146001D01*
X162560000Y-58200000D02*
X162560000Y-57883621D01*
X154510160Y-75980000D02*
X157158260Y-73331900D01*
X157158260Y-73331900D02*
X164777385Y-73331900D01*
%TO.N,/C*%
X150915080Y-86139996D02*
X154443100Y-89668016D01*
X163213787Y-81698757D02*
X165107544Y-79805000D01*
X165107544Y-79805000D02*
X166380000Y-79805000D01*
X160020000Y-89668016D02*
X163213787Y-86474229D01*
X163213787Y-86474229D02*
X163213787Y-81698757D01*
X154443100Y-89668016D02*
X160020000Y-89668016D01*
%TO.N,Net-(U2-c)*%
X152147961Y-75979996D02*
X156242168Y-71885789D01*
X150915080Y-75979996D02*
X152147961Y-75979996D01*
%TO.N,/D*%
X163761293Y-83643678D02*
X163744706Y-83627091D01*
X147320000Y-86140000D02*
X151730110Y-90550110D01*
X160172085Y-90550110D02*
X163761293Y-86960902D01*
X151730110Y-90550110D02*
X160172085Y-90550110D01*
X163744706Y-83627091D02*
X165026797Y-82345000D01*
X165026797Y-82345000D02*
X166380000Y-82345000D01*
X163761293Y-86960902D02*
X163761293Y-83643678D01*
%TO.N,Net-(U2-d)*%
X151162168Y-72137832D02*
X151162168Y-71885789D01*
X147320000Y-75980000D02*
X151162168Y-72137832D01*
%TO.N,/E*%
X160138591Y-91220000D02*
X166380000Y-84978591D01*
X166380000Y-84978591D02*
X166380000Y-84885000D01*
X143724920Y-86140000D02*
X144780000Y-86140000D01*
X149860000Y-91220000D02*
X160138591Y-91220000D01*
X144780000Y-86140000D02*
X149860000Y-91220000D01*
%TO.N,Net-(U2-e)*%
X143724920Y-75980000D02*
X147819131Y-71885789D01*
X147819131Y-71885789D02*
X148622168Y-71885789D01*
%TO.N,/F*%
X161762448Y-92042552D02*
X166380000Y-87425000D01*
X146110550Y-92042552D02*
X161762448Y-92042552D01*
X145946039Y-91878041D02*
X146110550Y-92042552D01*
X145946039Y-91878041D02*
X145957727Y-91878041D01*
X140207994Y-86139996D02*
X145946039Y-91878041D01*
%TO.N,Net-(U2-f)*%
X153702168Y-59437832D02*
X153702168Y-56645789D01*
X147320000Y-65820000D02*
X153702168Y-59437832D01*
X140207994Y-72932006D02*
X142240000Y-70900000D01*
X140207994Y-75979996D02*
X140207994Y-72932006D01*
%TO.N,/G*%
X143309914Y-92915151D02*
X163429849Y-92915151D01*
X163429849Y-92915151D02*
X166380000Y-89965000D01*
X143263340Y-92868577D02*
X143272173Y-92868577D01*
X136612913Y-86218150D02*
X143263340Y-92868577D01*
X143263340Y-92868577D02*
X143309914Y-92915151D01*
%TO.N,Net-(U2-g)*%
X136612913Y-76058150D02*
X136612913Y-73987087D01*
X142240000Y-68360000D02*
X155256379Y-68360000D01*
X136612913Y-73987087D02*
X139700000Y-70900000D01*
X155256379Y-68360000D02*
X158782168Y-71885789D01*
%TO.N,/DP*%
X165125000Y-93760000D02*
X166380000Y-92505000D01*
X140481525Y-93760000D02*
X165125000Y-93760000D01*
X132939679Y-86218154D02*
X140481525Y-93760000D01*
%TO.N,Net-(U2-DPX)*%
X132939679Y-76058154D02*
X139071065Y-69926768D01*
X139071065Y-69926768D02*
X151751403Y-69926768D01*
X151751403Y-69935024D02*
X153702168Y-71885789D01*
X151751403Y-69926768D02*
X151751403Y-69935024D01*
%TD*%
M02*
